<svg id="air-transport" xmlns="http://www.w3.org/2000/svg" width="22.921" height="12.537" viewBox="0 0 22.921 12.537">
  <defs>
    <style>
      .cls-1 {
        fill: #1874b9;
      }
    </style>
  </defs>
  <path id="Path_541" data-name="Path 541" class="cls-1" d="M22.921,140.767c0,3.965-19.115,8.342-20.562,8.342-.811,0-1.732-.187-1.732-.935,0-.25.288-.611.795-1.047h0L.079,144.742a.613.613,0,0,1,.306-.869l.231-.092a1.532,1.532,0,0,1,1.286.068l2.436,1.29c.948-.563,2.024-1.152,3.158-1.731l-4.747-3.08a.613.613,0,0,1,.008-1.033l.388-.244a2.757,2.757,0,0,1,2.17-.331l7.9,2.083a19.768,19.768,0,0,1,6.006-1.644c.352,0,.7.009,1.044.034l-2.385,1.077-.057.8,3.681-1.692C22.384,139.589,22.921,139.981,22.921,140.767Zm-9.607,6.845,2.946,3.346a.613.613,0,0,0,.718.151l.394-.183a1.838,1.838,0,0,0,1.051-1.88l-.369-3.153a.306.306,0,0,0-.406-.253l-4.206,1.482A.306.306,0,0,0,13.314,147.611Z" transform="translate(0 -138.628)"/>
</svg>
