<svg xmlns="http://www.w3.org/2000/svg" width="29.359" height="20.423" viewBox="0 0 29.359 20.423">
  <defs>
    <style>
      .cls-1 {
        fill: none;
        stroke: #fff;
      }
    </style>
  </defs>
  <g id="airplane" transform="translate(0.548 0.014)">
    <path id="Path_30" data-name="Path 30" class="cls-1" d="M.3,10.536l3.892,1.607-.825.385a.493.493,0,0,0-.232.634l1.121,2.409a.491.491,0,0,0,.277.255.48.48,0,0,0,.377,0l8.532-4,.107-1.135.15-1.519a.364.364,0,0,1,.4-.332.36.36,0,0,1,.3.213.336.336,0,0,1,.04.187l-.989,10.478a.981.981,0,0,0,.766.17c.377-.1.712-.54.989-1.266L19.16,6.845l.114-.335a.371.371,0,0,1,.712.21.276.276,0,0,0-.009.026L19.59,7.876l-.435,1.3,6.681-3.13c1.93-.9,2.922-2.727,2.255-4.151A2.5,2.5,0,0,0,26.159.54a4.6,4.6,0,0,0-2.7.416L15.891,4.487,7.769,1.316a2.509,2.509,0,0,0-2.4.036,2.019,2.019,0,0,0-.737,1.6.5.5,0,0,0,.212.389l5.471,3.749L7.175,8.572,1.917,7.256a.5.5,0,0,0-.548.237L.064,9.838a.493.493,0,0,0,.188.673C.268,10.52.285,10.528.3,10.536Zm0,0" transform="translate(0 0)"/>
  </g>
</svg>
