<svg xmlns="http://www.w3.org/2000/svg" width="19.15" height="22.637" viewBox="0 0 19.15 22.637">
  <defs>
    <style>
      .cls-1 {
        fill: #1874b9;
      }
    </style>
  </defs>
  <g id="bookmark-white" transform="translate(-33.262)">
    <path id="Path_2458" data-name="Path 2458" class="cls-1" d="M52.12.748a1.687,1.687,0,0,0-.785-.613A1.656,1.656,0,0,0,50.676,0H35a1.656,1.656,0,0,0-.658.135,1.686,1.686,0,0,0-.785.613,1.588,1.588,0,0,0-.292.928V20.961a1.589,1.589,0,0,0,.292.928,1.685,1.685,0,0,0,.785.613,1.655,1.655,0,0,0,.658.134,1.784,1.784,0,0,0,1.242-.494l6.6-6.344,6.6,6.344a1.781,1.781,0,0,0,1.242.478,1.741,1.741,0,0,0,1.444-.733,1.587,1.587,0,0,0,.292-.928V1.676A1.588,1.588,0,0,0,52.12.748ZM50.5,20.5l-6.329-6.074-1.332-1.272L41.5,14.423,35.176,20.5V1.915H50.5V20.5Z"/>
  </g>
</svg>
