<svg xmlns="http://www.w3.org/2000/svg" width="72.379" height="27" viewBox="0 0 72.379 27">
  <defs>
    <style>
      .cls-1 {
        fill: #fcb424;
      }

      .cls-2 {
        fill: #f26b31;
      }

      .cls-3 {
        fill: #f89a25;
      }

      .cls-4 {
        fill: #ffd628;
      }
    </style>
  </defs>
  <g id="Group_242" data-name="Group 242" transform="translate(-81.413 -211.815)">
    <path id="Path_533" data-name="Path 533" class="cls-1" d="M154.6,214.815H96.358c-7.351,0-9.565,3.911-10.76,7.737-1.348,4.313-1.537,9.7-.607,17.422.69.162,3.609.383,14.391.383,10.686,0,24.706-.2,34.943-.354,5.308-.078,9.5-.139,11.166-.139,9.27,0,9.739-8.816,9.739-10.583,0-.66.019-1.569.042-2.622.08-3.709.228-10.611-.573-11.767C154.644,214.815,154.615,214.815,154.6,214.815Z" transform="translate(-2.271 -2.271)"/>
    <path id="Path_534" data-name="Path 534" class="cls-2" d="M152.95,212.194a.772.772,0,0,0-.618-.378H94.087c-7.817,0-10.213,4.367-11.428,8.172-1.427,4.469-1.618,10-.62,17.931a.54.54,0,0,0,.157.331c.217.2.62.566,14.914.566,10.69,0,24.712-.2,34.951-.347,5.306-.076,9.5-.136,11.158-.136,10.175,0,10.468-10.2,10.468-11.358,0-.631.019-1.514.042-2.537C153.854,218.741,153.888,213.518,152.95,212.194Zm.05,12.214c-.023,1.031-.042,1.921-.042,2.567,0,1.73-.47,10.36-9.739,10.36-1.665,0-5.857.06-11.166.136-10.237.146-24.257.347-34.943.347-10.782,0-13.7-.216-14.391-.375-.929-7.563-.74-12.832.607-17.054,1.2-3.745,3.409-7.573,10.76-7.573h58.245c.012,0,.042,0,.1.075C153.228,214.02,153.08,220.777,153,224.407Z" transform="translate(0 0)"/>
    <path id="Path_535" data-name="Path 535" class="cls-3" d="M154.891,235.7c-9.222,3.556-58.6,3.088-63.052-1.094-3.3-3.093-2.69-10.868-2.074-15.063a10.664,10.664,0,0,0-4.168,6.247c-1.348,4.4-1.537,9.882-.607,17.757.69.165,3.609.391,14.391.391,10.686,0,24.706-.209,34.943-.361,5.308-.079,9.5-.141,11.166-.141C152.028,243.434,154.186,238.965,154.891,235.7Z" transform="translate(-2.271 -5.85)"/>
    <path id="Path_536" data-name="Path 536" class="cls-4" d="M278.17,219.48a.94.94,0,0,0-.514-.469,7.863,7.863,0,0,0-3.013-.581l-4.384-.258a35.669,35.669,0,0,0-5.844-.023,16.431,16.431,0,0,0-3.653.8c-.452.157-.992.513-.854.971.109.363.565.464.942.5,5.387.567,10.865,1.13,16.188.126C277.623,220.444,278.373,220.04,278.17,219.48Z" transform="translate(-135.115 -4.71)"/>
    <path id="Path_537" data-name="Path 537" class="cls-4" d="M346.947,220.865c-.079-.327-.429-.526-.761-.648a7.032,7.032,0,0,0-4.237.061,1.629,1.629,0,0,0-.8.4.539.539,0,0,0,0,.773.872.872,0,0,0,.337.132,13.649,13.649,0,0,0,4.034.322,2.3,2.3,0,0,0,.987-.231A.783.783,0,0,0,346.947,220.865Z" transform="translate(-196.517 -6.133)"/>
  </g>
</svg>
