<svg id="calendar" xmlns="http://www.w3.org/2000/svg" width="23.246" height="23.246" viewBox="0 0 23.246 23.246">
  <defs>
    <style>
      .cls-1 {
        fill: #707070;
      }
    </style>
  </defs>
  <g id="Group_14" data-name="Group 14">
    <g id="Group_13" data-name="Group 13">
      <path id="Path_45" data-name="Path 45" class="cls-1" d="M20.522,1.816h-1.09V0H17.616V1.816H5.63V0H3.814V1.816H2.724A2.727,2.727,0,0,0,0,4.54V20.522a2.727,2.727,0,0,0,2.724,2.724h17.8a2.727,2.727,0,0,0,2.724-2.724V4.54A2.727,2.727,0,0,0,20.522,1.816Zm.908,18.706a.909.909,0,0,1-.908.908H2.724a.909.909,0,0,1-.908-.908V8.536H21.43Zm0-13.8H1.816V4.54a.909.909,0,0,1,.908-.908h1.09V5.448H5.63V3.632H17.616V5.448h1.816V3.632h1.09a.909.909,0,0,1,.908.908Z"/>
    </g>
  </g>
  <g id="Group_16" data-name="Group 16" transform="translate(3.451 10.443)">
    <g id="Group_15" data-name="Group 15">
      <rect id="Rectangle_29" data-name="Rectangle 29" class="cls-1" width="1.816" height="1.816"/>
    </g>
  </g>
  <g id="Group_18" data-name="Group 18" transform="translate(7.083 10.443)">
    <g id="Group_17" data-name="Group 17">
      <rect id="Rectangle_30" data-name="Rectangle 30" class="cls-1" width="1.816" height="1.816"/>
    </g>
  </g>
  <g id="Group_20" data-name="Group 20" transform="translate(10.715 10.443)">
    <g id="Group_19" data-name="Group 19">
      <rect id="Rectangle_31" data-name="Rectangle 31" class="cls-1" width="1.816" height="1.816"/>
    </g>
  </g>
  <g id="Group_22" data-name="Group 22" transform="translate(14.347 10.443)">
    <g id="Group_21" data-name="Group 21">
      <rect id="Rectangle_32" data-name="Rectangle 32" class="cls-1" width="1.816" height="1.816"/>
    </g>
  </g>
  <g id="Group_24" data-name="Group 24" transform="translate(17.979 10.443)">
    <g id="Group_23" data-name="Group 23">
      <rect id="Rectangle_33" data-name="Rectangle 33" class="cls-1" width="1.816" height="1.816"/>
    </g>
  </g>
  <g id="Group_26" data-name="Group 26" transform="translate(3.451 14.075)">
    <g id="Group_25" data-name="Group 25">
      <rect id="Rectangle_34" data-name="Rectangle 34" class="cls-1" width="1.816" height="1.816"/>
    </g>
  </g>
  <g id="Group_28" data-name="Group 28" transform="translate(7.083 14.075)">
    <g id="Group_27" data-name="Group 27">
      <rect id="Rectangle_35" data-name="Rectangle 35" class="cls-1" width="1.816" height="1.816"/>
    </g>
  </g>
  <g id="Group_30" data-name="Group 30" transform="translate(10.715 14.075)">
    <g id="Group_29" data-name="Group 29">
      <rect id="Rectangle_36" data-name="Rectangle 36" class="cls-1" width="1.816" height="1.816"/>
    </g>
  </g>
  <g id="Group_32" data-name="Group 32" transform="translate(14.347 14.075)">
    <g id="Group_31" data-name="Group 31">
      <rect id="Rectangle_37" data-name="Rectangle 37" class="cls-1" width="1.816" height="1.816"/>
    </g>
  </g>
  <g id="Group_34" data-name="Group 34" transform="translate(3.451 17.707)">
    <g id="Group_33" data-name="Group 33">
      <rect id="Rectangle_38" data-name="Rectangle 38" class="cls-1" width="1.816" height="1.816"/>
    </g>
  </g>
  <g id="Group_36" data-name="Group 36" transform="translate(7.083 17.707)">
    <g id="Group_35" data-name="Group 35">
      <rect id="Rectangle_39" data-name="Rectangle 39" class="cls-1" width="1.816" height="1.816"/>
    </g>
  </g>
  <g id="Group_38" data-name="Group 38" transform="translate(10.715 17.707)">
    <g id="Group_37" data-name="Group 37">
      <rect id="Rectangle_40" data-name="Rectangle 40" class="cls-1" width="1.816" height="1.816"/>
    </g>
  </g>
  <g id="Group_40" data-name="Group 40" transform="translate(14.347 17.707)">
    <g id="Group_39" data-name="Group 39">
      <rect id="Rectangle_41" data-name="Rectangle 41" class="cls-1" width="1.816" height="1.816"/>
    </g>
  </g>
  <g id="Group_42" data-name="Group 42" transform="translate(17.979 14.075)">
    <g id="Group_41" data-name="Group 41">
      <rect id="Rectangle_42" data-name="Rectangle 42" class="cls-1" width="1.816" height="1.816"/>
    </g>
  </g>
</svg>
