<svg id="cancel" xmlns="http://www.w3.org/2000/svg" width="15.409" height="15.409" viewBox="0 0 15.409 15.409">
  <defs>
    <style>
      .cls-1 {
        fill: #1874B9;
      }
    </style>
  </defs>
  <g id="_018---Cross" data-name="018---Cross">
    <path id="Shape" class="cls-1" d="M14.125,0H1.284A1.286,1.286,0,0,0,0,1.284V14.125a1.286,1.286,0,0,0,1.284,1.284H14.125a1.286,1.286,0,0,0,1.284-1.284V1.284A1.286,1.286,0,0,0,14.125,0ZM12.07,14.9H1.284a.771.771,0,0,1-.77-.77V1.284a.771.771,0,0,1,.77-.77h11.3a.771.771,0,0,1,.77.77V14.125a.771.771,0,0,1-.77.77Zm2.825-.77a.771.771,0,0,1-.77.77H13.6a1.272,1.272,0,0,0,.263-.77V1.284A1.272,1.272,0,0,0,13.6.514h.52a.771.771,0,0,1,.77.77Z"/>
    <path id="Shape-2" data-name="Shape" class="cls-1" d="M17.518,12.758a.58.58,0,0,0,0-.82l-.913-.913a.581.581,0,0,0-.82,0l-2.968,2.968a.058.058,0,0,1-.093,0L9.757,11.025a.581.581,0,0,0-.82,0l-.913.913a.58.58,0,0,0,0,.82l2.967,2.968a.066.066,0,0,1,0,.093L8.024,18.786a.58.58,0,0,0,0,.82l.913.913a.581.581,0,0,0,.82,0l2.968-2.968a.058.058,0,0,1,.093,0l2.968,2.968a.581.581,0,0,0,.82,0l.913-.913a.58.58,0,0,0,0-.82l-2.967-2.968a.066.066,0,0,1,0-.093Zm-3.331,3.424,2.967,2.968a.066.066,0,0,1,0,.093l-.913.913a.066.066,0,0,1-.094,0l-2.968-2.967a.593.593,0,0,0-.82,0L9.394,20.156a.066.066,0,0,1-.094,0l-.913-.913a.066.066,0,0,1,0-.093l2.967-2.968a.58.58,0,0,0,0-.82L8.388,12.395a.066.066,0,0,1,0-.093l.913-.913a.066.066,0,0,1,.094,0l2.968,2.967a.593.593,0,0,0,.82,0l2.968-2.967a.066.066,0,0,1,.094,0l.913.913a.066.066,0,0,1,0,.093l-2.967,2.968a.58.58,0,0,0,0,.82Z" transform="translate(-5.837 -8.068)"/>
  </g>
</svg>
