<svg id="cars-01" xmlns="http://www.w3.org/2000/svg" width="30.549" height="32.931" viewBox="0 0 30.549 32.931">
  <defs>
    <style>
      .cls-1 {
        fill: #fff;
      }
    </style>
  </defs>
  <path id="Path_32" data-name="Path 32" class="cls-1" d="M36.945,45.715a3.79,3.79,0,0,1-.113-2.367,2.019,2.019,0,0,1,.225-.62,1.763,1.763,0,0,0,.225-1.071V40.248a2.864,2.864,0,0,1,1.24-2.367.513.513,0,0,0,.225-.451V31.174a3.747,3.747,0,0,1,.395-2.029H38.128c-.733,0-1.014-.395-.676-1.071a4.615,4.615,0,0,1,3.1-2.762,4.22,4.22,0,0,1,1.184-.113H57.742a4.405,4.405,0,0,1,4.114,2.424,2.083,2.083,0,0,1,.282.62.639.639,0,0,1-.62.958H60.56a.055.055,0,0,0-.056.056,4.125,4.125,0,0,1,.338,2.2v6.031a.612.612,0,0,0,.225.507,3.1,3.1,0,0,1,1.24,2.367v.62a3.02,3.02,0,0,0,.395,1.86,3.344,3.344,0,0,1,.225,2.649,2.441,2.441,0,0,0-.056.282h.789a5.076,5.076,0,0,1,.9.169.636.636,0,0,1,.507.789.7.7,0,0,1-.845.451,13.735,13.735,0,0,0-1.522-.056c-.056,0-.113.056-.169.056v.056a2.039,2.039,0,0,1,.789,1.916v6.876A1.773,1.773,0,0,1,61.856,58a2.843,2.843,0,0,1-2.142-.169,1.755,1.755,0,0,1-.958-1.691V53.324c0-.225-.056-.282-.282-.282H55.093a.4.4,0,0,0-.338.169,2.677,2.677,0,0,1-2.029.958H46.808a2.512,2.512,0,0,1-2.029-.958.4.4,0,0,0-.338-.169H41.059c-.225,0-.282.056-.282.282v2.705A1.773,1.773,0,0,1,39.312,58a2.967,2.967,0,0,1-2.2-.169A1.829,1.829,0,0,1,36.1,56.086V49.379a2.3,2.3,0,0,1,.958-2.254,3.436,3.436,0,0,0-1.3-.056c-.113,0-.282.056-.395.056a.637.637,0,1,1-.282-1.24,13.963,13.963,0,0,1,1.522-.169C36.663,45.659,36.776,45.715,36.945,45.715Zm24.01-4.791A1.918,1.918,0,0,0,59.6,38.558a11.311,11.311,0,0,0-4.114-.733h-8.68a.64.64,0,0,1-.676-.62.608.608,0,0,1,.676-.62h8.567a12.99,12.99,0,0,1,3.889.564.339.339,0,0,1,.225.056V30.554a.715.715,0,0,0-.056-.338,1.313,1.313,0,0,0-1.409-1.071H41.284a1.489,1.489,0,0,0-1.353,1.522c.056,2.029,0,4.114,0,6.143v.338a7.008,7.008,0,0,1,.9-.225.672.672,0,0,1,.9.451c.113.395-.113.676-.564.789a13.6,13.6,0,0,0-1.409.451,1.955,1.955,0,0,0-1.24,2.424,3.778,3.778,0,0,1,3.551-.113,3.714,3.714,0,0,1,2.085,2.931,2.217,2.217,0,0,0,.113-.338c.225-.62.395-1.24.62-1.86a3.008,3.008,0,0,1,2.931-2.142h3.663a3.078,3.078,0,0,1,2.931,2.142c.225.733.451,1.465.733,2.142a3.885,3.885,0,0,0,.169.451,3.861,3.861,0,0,1,1.916-3.1A3.963,3.963,0,0,1,60.954,40.925Zm-6.989,6.989V44.363a.959.959,0,0,0-.056-.395c-.225-.676-.395-1.3-.62-1.916a1.828,1.828,0,0,0-1.8-1.3H47.935a1.878,1.878,0,0,0-1.8,1.3c-.225.62-.395,1.24-.62,1.916q0,.169,0,.338v7.1a1.186,1.186,0,0,0,1.3,1.3h5.918a1.186,1.186,0,0,0,1.3-1.3C53.966,50.281,53.966,49.1,53.966,47.913Zm6.425-20.121a2.906,2.906,0,0,0-2.536-1.409H41.566a2.966,2.966,0,0,0-2.424,1.24.207.207,0,0,0-.056.169Zm1.353,16.514a2.5,2.5,0,0,0-2.48-2.48,2.551,2.551,0,0,0-2.536,2.48,2.5,2.5,0,0,0,2.48,2.48A2.444,2.444,0,0,0,61.743,44.306ZM37.959,44.25a2.48,2.48,0,1,0,2.48-2.424A2.418,2.418,0,0,0,37.959,44.25Zm-.62,8.172v3.551a.6.6,0,0,0,.676.676h.62c.676,0,.845-.169.845-.845V48.646a.579.579,0,0,0-.62-.564h-.733c-.62,0-.789.169-.789.789Zm24.686,0V48.815a.6.6,0,0,0-.676-.676h-.507c-.62,0-.789.169-.789.789v7.045a.6.6,0,0,0,.676.676h.507c.564,0,.789-.169.789-.789Zm-6.763-6.087v5.072c0,.169.113.169.282.169h2.931c.225,0,.282-.056.282-.282V48.026A5.547,5.547,0,0,1,55.262,46.335Zm-11.047.056a5.776,5.776,0,0,1-3.494,1.747c0,.338.056.62.056.9v2.311c0,.225.056.338.338.338h2.818c.282,0,.338-.056.338-.338V46.73A.715.715,0,0,1,44.215,46.392Z" transform="translate(-34.549 -25.2)"/>
  <path id="Path_33" data-name="Path 33" class="cls-1" d="M50.1,45.976a.649.649,0,1,1,1.3-.056.677.677,0,0,1-.62.676A.64.64,0,0,1,50.1,45.976Z" transform="translate(-41.335 -33.971)"/>
  <path id="Path_34" data-name="Path 34" class="cls-1" d="M58.84,60.065v4a.724.724,0,0,1-.564.564.568.568,0,0,1-.62-.395.959.959,0,0,1-.056-.395V56.12a.672.672,0,0,1,.676-.62.64.64,0,0,1,.62.676v1.634C58.84,58.6,58.84,59.333,58.84,60.065Z" transform="translate(-44.608 -38.423)"/>
  <path id="Path_35" data-name="Path 35" class="cls-1" d="M62.8,60.065V56.176a.649.649,0,1,1,1.3-.056v7.947a.669.669,0,0,1-.676.564.625.625,0,0,1-.62-.62V60.065Z" transform="translate(-46.877 -38.423)"/>
</svg>
