<svg id="cartoon-happy-eyes" xmlns="http://www.w3.org/2000/svg" width="24.101" height="13.963" viewBox="0 0 24.101 13.963">
  <defs>
    <style>
      .cls-1 {
        fill: #1874b9;
      }
    </style>
  </defs>
  <g id="Group_1337" data-name="Group 1337" transform="translate(0 0)">
    <path id="Path_2666" data-name="Path 2666" class="cls-1" d="M5.979,94.387a5.213,5.213,0,0,0-4.3,2.739A11.848,11.848,0,0,0,0,103.442a13.023,13.023,0,0,0,.719,4.327l.207.581.536-.306a9.207,9.207,0,0,1,9.034,0l.535.306.207-.581a13.018,13.018,0,0,0,.719-4.327,11.847,11.847,0,0,0-1.681-6.316A5.212,5.212,0,0,0,5.979,94.387Zm-3.47,11.377c-.363.108-.793-.26-.959-.821s-.007-1.1.356-1.212.793.26.959.821S2.872,105.656,2.509,105.764Zm7.941,1.088a10.174,10.174,0,0,0-4.216-1.022,3.038,3.038,0,0,0,.659-1.894c0-.055,0-.109,0-.163a.525.525,0,0,1-.306.264c-.363.108-.793-.26-.959-.821s-.007-1.1.356-1.211a.465.465,0,0,1,.216-.011,3.052,3.052,0,0,0-5.141.7,10.484,10.484,0,0,1,1.5-5.009A4.229,4.229,0,0,1,5.979,95.42a4.229,4.229,0,0,1,3.427,2.263,10.809,10.809,0,0,1,1.518,5.76A12.233,12.233,0,0,1,10.45,106.852Z" transform="translate(0 -94.387)"/>
    <path id="Path_2667" data-name="Path 2667" class="cls-1" d="M236.4,97.126a4.741,4.741,0,0,0-8.6,0,11.848,11.848,0,0,0-1.681,6.316,13.021,13.021,0,0,0,.719,4.327l.207.581.536-.306a9.207,9.207,0,0,1,9.034,0l.536.306.207-.581a13.023,13.023,0,0,0,.719-4.327A11.849,11.849,0,0,0,236.4,97.126Zm-7.767,8.638c-.363.108-.793-.26-.959-.821s-.007-1.1.356-1.212.793.26.959.821S228.991,105.656,228.628,105.764Zm7.941,1.088a10.175,10.175,0,0,0-4.216-1.021,3.038,3.038,0,0,0,.659-1.894c0-.055,0-.109,0-.163a.525.525,0,0,1-.305.264c-.363.108-.793-.26-.959-.821s-.007-1.1.356-1.211a.465.465,0,0,1,.216-.011,3.052,3.052,0,0,0-5.142.7,10.482,10.482,0,0,1,1.5-5.009,3.727,3.727,0,0,1,6.855,0,10.809,10.809,0,0,1,1.518,5.76A12.226,12.226,0,0,1,236.57,106.852Z" transform="translate(-213.975 -94.387)"/>
  </g>
</svg>
