<svg xmlns="http://www.w3.org/2000/svg" width="82.768" height="76.841" viewBox="0 0 82.768 76.841">
  <defs>
    <style>
      .cls-1 {
        fill: #fff;
      }

      .cls-2 {
        fill: #8dc043;
      }
    </style>
  </defs>
  <g id="Group_2263" data-name="Group 2263" transform="translate(-186.307 -289)">
    <path id="Path_240" data-name="Path 240" class="cls-1" d="M808.719,428.074a33.842,33.842,0,0,0,6.96-28.931c-3.844-17.256-20.162-25.754-33.7-26.347a34.267,34.267,0,0,0-22.536,6.752c-9.369,7.255-14.99,18.51-14.669,29.373a34.938,34.938,0,0,0,33.381,33.624h0c.533.024,1.067.034,1.6.033C790.5,442.543,801.6,436.986,808.719,428.074Z" transform="translate(-552.699 -82.483)"/>
    <path id="Path_241" data-name="Path 241" class="cls-2" d="M816.924,398.866c-3.419-15.349-17.765-26.594-34.886-27.344a35.546,35.546,0,0,0-23.373,7.017c-9.685,7.5-15.5,19.156-15.163,30.419a36.218,36.218,0,0,0,34.6,34.861h0q.831.036,1.665.033c11.116-.035,22.591-5.776,29.948-14.983A35.1,35.1,0,0,0,816.924,398.866Zm-38.765,43.679h0a34.938,34.938,0,0,1-33.381-33.624c-.321-10.863,5.3-22.118,14.669-29.373a34.267,34.267,0,0,1,22.536-6.752c13.535.593,29.853,9.091,33.7,26.347a33.842,33.842,0,0,1-6.96,28.931c-7.122,8.912-18.217,14.469-28.956,14.5C779.226,442.579,778.692,442.569,778.159,442.545Z" transform="translate(-552.699 -82.483)"/>
    <g id="Group_157" data-name="Group 157" transform="translate(186.307 325.539)">
      <path id="Path_252" data-name="Path 252" class="cls-2" d="M740.622,412.1c-.155-1.3.1-2.706-.386-3.924a.3.3,0,0,0-.5-.022c-.8,1.106-.723,2.777-.724,4.093a10.161,10.161,0,0,0,.8,4.294.722.722,0,0,0,1.351-.3C741.086,414.842,740.788,413.483,740.622,412.1Z" transform="translate(-739.006 -408.022)"/>
      <path id="Path_253" data-name="Path 253" class="cls-2" d="M747.943,430.749c-.887-1.085-1.836-2.114-2.71-3.21-.955-1.2-1.486-2.711-2.477-3.854a.388.388,0,0,0-.669.243,9.463,9.463,0,0,0,1.656,4.092,11.481,11.481,0,0,0,3.358,3.726C747.742,432.185,748.4,431.309,747.943,430.749Z" transform="translate(-739.006 -408.022)"/>
      <path id="Path_254" data-name="Path 254" class="cls-2" d="M760.94,442.812c-1.276-.9-2.61-1.678-3.92-2.522s-2.421-1.953-3.742-2.728c-.3-.173-.725.148-.521.478a16.033,16.033,0,0,0,7.675,5.844A.6.6,0,0,0,760.94,442.812Z" transform="translate(-739.006 -408.022)"/>
      <path id="Path_255" data-name="Path 255" class="cls-2" d="M781.662,446.7c-3.108-.037-6.241-.083-9.345-.084a.347.347,0,0,0-.122.674,16.565,16.565,0,0,0,9.575.59A.6.6,0,0,0,781.662,446.7Z" transform="translate(-739.006 -408.022)"/>
      <path id="Path_256" data-name="Path 256" class="cls-2" d="M800.537,440.594c-1.528.729-2.948,1.66-4.442,2.454-1.677.892-3.543,1.354-5.209,2.237a.428.428,0,0,0,.18.8,16.686,16.686,0,0,0,10.23-4.415A.667.667,0,0,0,800.537,440.594Z" transform="translate(-739.006 -408.022)"/>
      <path id="Path_257" data-name="Path 257" class="cls-2" d="M812.58,430.367c-.83,1.165-1.544,2.408-2.4,3.554s-1.96,2.008-2.835,3.108a.3.3,0,0,0,.318.454,11.06,11.06,0,0,0,5.978-6.614A.593.593,0,0,0,812.58,430.367Z" transform="translate(-739.006 -408.022)"/>
      <path id="Path_258" data-name="Path 258" class="cls-2" d="M819.465,419.266a14.236,14.236,0,0,0-1.454,2.917c-.64,1.378-1.333,2.734-2.026,4.087a.319.319,0,0,0,.536.345c.774-1.151,1.5-2.325,2.2-3.525a12.578,12.578,0,0,0,1.675-3.383A.521.521,0,0,0,819.465,419.266Z" transform="translate(-739.006 -408.022)"/>
      <path id="Path_259" data-name="Path 259" class="cls-2" d="M821.522,409.548a.417.417,0,0,0-.71-.031,3.665,3.665,0,0,0-.218,1.824,10.1,10.1,0,0,1-.537,2.742c-.11.329.392.584.56.265a9.808,9.808,0,0,0,.943-2.505C821.713,411.127,821.969,410.182,821.522,409.548Z" transform="translate(-739.006 -408.022)"/>
    </g>
  </g>
</svg>
