<svg id="credit-card-2" xmlns="http://www.w3.org/2000/svg" width="85.72" height="53.534" viewBox="0 0 85.72 53.534">
  <defs>
    <style>
      .cls-1 {
        fill: #a2a2a2;
      }
    </style>
  </defs>
  <path id="Path_897" data-name="Path 897" class="cls-1" d="M85.72,106.506v-3.353A7.153,7.153,0,0,0,78.567,96H7.153A7.153,7.153,0,0,0,0,103.153v3.353a2.012,2.012,0,0,0,2.012,2.012h81.7A2.012,2.012,0,0,0,85.72,106.506Z" transform="translate(0 -96)"/>
  <path id="Path_898" data-name="Path 898" class="cls-1" d="M0,214.679V239.49a7.153,7.153,0,0,0,7.153,7.153H78.567a7.153,7.153,0,0,0,7.153-7.153V214.679a2.012,2.012,0,0,0-2.012-2.012H2.012A2.012,2.012,0,0,0,0,214.679Zm33.919,19.446H16.038a3.52,3.52,0,0,1,0-7.041H33.919a3.52,3.52,0,1,1,0,7.041Zm35.763.056a3.556,3.556,0,0,1-1.788-.482,3.576,3.576,0,1,1,0-6.188,3.575,3.575,0,1,1,1.788,6.67Z" transform="translate(0 -193.109)"/>
</svg>
