<svg id="credit-cards-payment" xmlns="http://www.w3.org/2000/svg" width="102.595" height="91.453" viewBox="0 0 102.595 91.453">
  <defs>
    <style>
      .cls-1 {
        fill: #1874b9;
      }
    </style>
  </defs>
  <g id="Group_649" data-name="Group 649" transform="translate(0 0)">
    <path id="Path_900" data-name="Path 900" class="cls-1" d="M241.644,46.638l-62.834-13.3a4.955,4.955,0,0,0-5.856,3.811l-1.194,7.672,72.5,15.342,1.194-7.672A4.955,4.955,0,0,0,241.644,46.638Z" transform="translate(-142.966 -33.234)"/>
    <path id="Path_901" data-name="Path 901" class="cls-1" d="M72.254,173.242a5,5,0,0,0-6.138-3.473l-11.928,3.311-28.12-5.951-3.093,14.612L3.652,187.106a5,5,0,0,0-3.471,6.137l10.89,39.241a5,5,0,0,0,6.138,3.472l62.464-17.335a5,5,0,0,0,3.471-6.138l-1.869-6.737,7.006,1.481a4.953,4.953,0,0,0,5.856-3.81l4.432-20.945-25.234-5.34Zm7.214,19.944,1.545-7.3a2.039,2.039,0,0,1,2.409-1.567l7.3,1.546a2.039,2.039,0,0,1,1.568,2.409l-1.545,7.3a2.039,2.039,0,0,1-2.409,1.567l-7.3-1.545A2.039,2.039,0,0,1,79.468,193.186ZM4.739,191.022l17.286-4.8,40.787-11.319,4.389-1.219a.915.915,0,0,1,.238-.032.942.942,0,0,1,.9.673l.515,1.856L70.465,182,6.227,199.829,4.1,192.157A.935.935,0,0,1,4.739,191.022Zm74.488,22.547a.937.937,0,0,1-.642,1.135L16.122,232.038a.907.907,0,0,1-.238.033.944.944,0,0,1-.9-.674L8.636,208.508l64.238-17.827L76.792,204.8Z" transform="translate(0 -144.684)"/>
    <path id="Path_902" data-name="Path 902" class="cls-1" d="M100.343,446.09a2.039,2.039,0,0,0-2.5-1.415L90.546,446.7a2.038,2.038,0,0,0-1.414,2.5l2.024,7.294a2.038,2.038,0,0,0,2.5,1.414l7.295-2.024a2.039,2.039,0,0,0,1.415-2.5Z" transform="translate(-74.128 -375.639)"/>
  </g>
</svg>
