<svg id="dashboard-2" xmlns="http://www.w3.org/2000/svg" width="25.659" height="25.198" viewBox="0 0 25.659 25.198">
  <defs>
    <style>
      .cls-1 {
        fill: #fff;
      }
    </style>
  </defs>
  <g id="_017---Dashboard" data-name="017---Dashboard" transform="translate(0 0)">
    <path id="Shape" class="cls-1" d="M2.017,16.923l3.986,0a8.394,8.394,0,0,1,2.15-5.174L5.33,8.921a12.334,12.334,0,0,0-3.313,8Z" transform="translate(-1.566 -4.986)"/>
    <ellipse id="Oval" class="cls-1" cx="0.442" cy="0.442" rx="0.442" ry="0.442" transform="translate(12.387 11.933)"/>
    <path id="Shape-2" data-name="Shape" class="cls-1" d="M24,24.654A2.654,2.654,0,1,0,26.654,22,2.654,2.654,0,0,0,24,24.654Zm3.981,0a1.327,1.327,0,1,1-1.327-1.327A1.327,1.327,0,0,1,27.981,24.654Z" transform="translate(-13.825 -12.279)"/>
    <path id="Shape-3" data-name="Shape" class="cls-1" d="M18.919,4.016V.024a12.288,12.288,0,0,0-8,3.31l2.824,2.824a8.341,8.341,0,0,1,5.173-2.142Z" transform="translate(-6.532 -0.024)"/>
    <path id="Shape-4" data-name="Shape" class="cls-1" d="M31,.024V4.009a8.269,8.269,0,0,1,1.343.181l1.1-2.128a.884.884,0,0,1,1.646.61l-.547,2.338a8.375,8.375,0,0,1,1.63,1.147L39,3.335a12.288,12.288,0,0,0-8-3.31Z" transform="translate(-17.728 -0.024)"/>
    <path id="Shape-5" data-name="Shape" class="cls-1" d="M50.245,16.918a12.316,12.316,0,0,0-3.311-8l-2.823,2.823a8.394,8.394,0,0,1,2.151,5.163Z" transform="translate(-25.039 -4.986)"/>
    <path id="Shape-6" data-name="Shape" class="cls-1" d="M30.786,11.961a3.514,3.514,0,0,1,1.68.626l1.646-7.034Z" transform="translate(-17.609 -3.107)"/>
    <path id="Shape-7" data-name="Shape" class="cls-1" d="M28.912,44.242a.573.573,0,0,0-.3-.966l-1.505-.228a.545.545,0,0,1-.409-.31l-.673-1.423a.533.533,0,0,0-.973,0l-.673,1.423a.545.545,0,0,1-.409.31l-1.505.228a.573.573,0,0,0-.3.966l1.089,1.107a.582.582,0,0,1,.156.5l-.257,1.564a.548.548,0,0,0,.787.6l1.346-.738a.523.523,0,0,1,.505,0l1.346.738a.548.548,0,0,0,.787-.6l-.257-1.564a.582.582,0,0,1,.156-.5Z" transform="translate(-12.708 -22.874)"/>
    <path id="Shape-8" data-name="Shape" class="cls-1" d="M2.408,45.851l-.257,1.564a.548.548,0,0,0,.787.6l1.346-.738a.523.523,0,0,1,.505,0l1.346.738a.548.548,0,0,0,.787-.6l-.257-1.564a.582.582,0,0,1,.156-.5l1.089-1.107a.573.573,0,0,0-.3-.966l-1.5-.228a.545.545,0,0,1-.409-.31l-.673-1.423a.533.533,0,0,0-.973,0l-.673,1.423a.545.545,0,0,1-.409.31l-1.505.228a.573.573,0,0,0-.3.966L2.252,45.35a.582.582,0,0,1,.156.5Z" transform="translate(-0.998 -22.874)"/>
    <path id="Shape-9" data-name="Shape" class="cls-1" d="M49.611,43.276l-1.505-.228a.545.545,0,0,1-.409-.31l-.673-1.423a.533.533,0,0,0-.973,0l-.673,1.423a.545.545,0,0,1-.409.31l-1.505.228a.573.573,0,0,0-.3.966l1.089,1.107a.582.582,0,0,1,.156.5l-.257,1.564a.548.548,0,0,0,.787.6l1.346-.738a.523.523,0,0,1,.505,0l1.346.738a.548.548,0,0,0,.787-.6l-.257-1.564a.582.582,0,0,1,.156-.5l1.089-1.107a.573.573,0,0,0-.3-.966Z" transform="translate(-24.418 -22.874)"/>
  </g>
</svg>
