<?xml version="1.0" encoding="utf-8"?>
<!-- Generator: Adobe Illustrator 21.0.0, SVG Export Plug-In . SVG Version: 6.00 Build 0)  -->
<svg version="1.1" id="Capa_1" xmlns="http://www.w3.org/2000/svg" xmlns:xlink="http://www.w3.org/1999/xlink" x="0px" y="0px"
	 viewBox="0 0 485.8 485.8" style="enable-background:new 0 0 485.8 485.8;" xml:space="preserve">
<rect fill="#707070" x="15.8" y="404.4" width="460" height="20"/>
<path fill="#707070" d="M466.2,348.4c-9.9-37.4-44-56.9-70.9-66.7l-80.2-29.2L268.3,111l-58.4-53.6l-1.1,156.5l-73-26l-31.9-71.1L53.2,98.4
	l-7.5,69.9c-7.2,0.6-15.7,3.2-18.8,11.7c-4,11.1,2.6,25.4,19.7,42.6c3.5,3.5,7.5,7.2,11.9,10.9c20.3,17.3,45.5,33,64.3,39.8
	l286.8,104.4c24.8,9,41.5,9.2,51,0.4C465.5,373.5,470.5,364.7,466.2,348.4z"/>
</svg>
