<svg xmlns="http://www.w3.org/2000/svg" width="14.524" height="17.989" viewBox="0 0 14.524 17.989">
  <defs>
    <style>
      .cls-1 {
        fill: #8dc043;
      }
    </style>
  </defs>
  <g id="disabled" transform="translate(0)">
    <path id="XMLID_31_" class="cls-1" d="M178.6,3.545a1.773,1.773,0,1,0-1.773-1.773A1.773,1.773,0,0,0,178.6,3.545Z" transform="translate(-172.09 0)"/>
    <path id="XMLID_30_" class="cls-1" d="M56.625,204.91a3.918,3.918,0,1,1-5.342-4.668V198.58a5.479,5.479,0,1,0,6.549,7.54l-.619-1.216Z" transform="translate(-47.38 -191.319)"/>
    <path id="XMLID_29_" class="cls-1" d="M192.078,128.7l-2.374-4.668a1.04,1.04,0,0,0-.927-.569h-3.041v-.693h2.617a.818.818,0,0,0,.781-.781.781.781,0,0,0-.781-.781h-2.617v-2.352a1.561,1.561,0,1,0-3.122,0v5.1a1.593,1.593,0,0,0,1.593,1.593h3.932l2.085,4.1a1.041,1.041,0,1,0,1.855-.944Z" transform="translate(-177.668 -113.007)"/>
  </g>
</svg>
