<svg id="books-stack-of-three" xmlns="http://www.w3.org/2000/svg" width="35.497" height="27.709" viewBox="0 0 35.497 27.709">
  <defs>
    <style>
      .cls-1 {
        fill: #8dc043;
      }
    </style>
  </defs>
  <g id="Group_1910" data-name="Group 1910">
    <path id="Path_4205" data-name="Path 4205" class="cls-1" d="M32.964,45.129c-.144-1.079-.164-2.938.838-3.562a.375.375,0,0,0,.047-.042c.819-.262,1.387-.63.941-1.125L22.7,36.758,3.131,39.479s-2.241.32-2.041,3.8a4.5,4.5,0,0,0,1.223,3.284L.707,47.05c-.446.495.121.863.941,1.125a.324.324,0,0,0,.047.042c1,.625.982,2.483.838,3.562C-1.066,52.8.226,53.134.226,53.134l.789.191a3.83,3.83,0,0,0-1,3.258c.2,3.482,2.041,3.722,2.041,3.722l12.808,4.163,19.332-4.683s1.292-.333-2.307-1.355c-.145-1.078-.165-2.936.839-3.562a.3.3,0,0,0,.047-.042c.82-.262,1.386-.63.941-1.125l-.84-.254c.56-.338,1.4-1.221,1.534-3.515a4.072,4.072,0,0,0-.8-3.046l1.661-.4S36.563,46.151,32.964,45.129Zm-16.17-.045,3.251-.668,10.987-2.258,1.637-.337a5.667,5.667,0,0,0-.415,3.109c.019.19.041.364.062.5l-1.792.445-13.867,3.45ZM2.829,48.472l1.637.337,10.551,2.169.922.189h0l2.764.568.136,4.239L4.587,52.428l-1.405-.349c.021-.132.042-.306.062-.5A5.668,5.668,0,0,0,2.829,48.472Zm-.636-5.358a2.748,2.748,0,0,1,.479-1.937.87.87,0,0,1,.635-.263,1.077,1.077,0,0,1,.161.013L11.9,43.677l4.208,1.372-.138,4.268-11.8-3.309-.623-.174a.376.376,0,0,0-.078-.012C3.417,45.818,2.25,45.71,2.193,43.114Zm12.7,19.5L2.466,59.134a.37.37,0,0,0-.078-.012c-.049,0-1.217-.111-1.273-2.706a2.751,2.751,0,0,1,.479-1.937.871.871,0,0,1,.635-.263,1.123,1.123,0,0,1,.161.012h0l12.64,4.122Zm16.283-4.387c.02.191.041.365.063.5l-15.659,3.9.137-4.239,3.348-.688.494.12,1.853-.6,8.542-1.755,1.637-.337A5.662,5.662,0,0,0,31.175,58.232Zm.863-5.76a.3.3,0,0,0-.084.013l-1.181.331L19.528,55.968,19.39,51.7l3.689-1.2,8.933-2.913a.93.93,0,0,1,.814.245,2.753,2.753,0,0,1,.479,1.937C33.248,52.36,32.08,52.468,32.038,52.471Z" transform="translate(0.001 -36.758)"/>
  </g>
</svg>
