<svg height="512pt" viewBox="-42 0 511 512" width="512pt" xmlns="http://www.w3.org/2000/svg"><path d="m71.242188 253.554688c4.140624 0 7.5-3.355469 7.5-7.5v-16.832032c0-4.140625-3.359376-7.5-7.5-7.5-4.140626 0-7.5 3.359375-7.5 7.5v16.832032c0 4.144531 3.359374 7.5 7.5 7.5zm0 0"/><path d="m124.414062 253.554688c4.140626 0 7.5-3.355469 7.5-7.5v-16.832032c0-4.140625-3.359374-7.5-7.5-7.5-4.144531 0-7.5 3.359375-7.5 7.5v16.832032c0 4.144531 3.355469 7.5 7.5 7.5zm0 0"/><path d="m325.710938 117.234375c-55.925782 0-101.425782 44.625-101.425782 99.480469v14.277344c-9.199218-6.445313-20.445312-10.257813-32.589844-10.257813-2.414062 0-4.785156.167969-7.121093.457031v-35.117187c0-31.722657-26.285157-57.53125-58.589844-57.53125-3.90625 0-7.71875.390625-11.414063 1.113281-10.957031-9.050781-25.085937-14.519531-40.496093-14.519531-34.734375 0-62.996094 27.746093-62.996094 61.851562v48.871094c-6.351563 3.980469-10.578125 10.980469-10.578125 18.9375v12.984375c0 12.371094 10.203125 22.433594 22.746094 22.433594h3.953125c2.558593 11.449218 7.933593 21.867187 15.378906 30.523437-15.816406 2.777344-27.867187 16.453125-27.867187 32.871094v154.417969c0 7.703125 6.3125 13.972656 14.074218 13.972656h365.96875c7.757813 0 14.070313-6.269531 14.070313-13.972656v-107.027344c0-4.140625-3.355469-7.5-7.5-7.5-4.140625 0-7.5 3.359375-7.5 7.5v106h-107.332031v-16c0-4.140625-3.359376-7.5-7.5-7.5-4.144532 0-7.5 3.359375-7.5 7.5v16h-117.859376v-74.640625c0-8.410156 6.996094-15.25 15.597657-15.25h9.476562c9.84375 5.992187 21.441407 9.464844 33.855469 9.464844 12.410156 0 24.007812-3.472657 33.851562-9.464844h9.480469c8.597657 0 15.597657 6.839844 15.597657 15.25v22.640625c0 4.140625 3.355468 7.5 7.5 7.5 4.140624 0 7.5-3.359375 7.5-7.5v-22.640625c0-14.339844-10.148438-26.371094-23.714844-29.46875 5.976562-7.289063 10.332031-15.902344 12.550781-25.3125h2.753906c11.523438 0 20.898438-9.25 20.898438-20.617187v-11.410157c0-1.671875-.226563-3.292969-.609375-4.851562 8.4375 3.398437 17.664062 5.289062 27.339844 5.289062 14.03125 0 27.136718-3.957031 38.234374-10.773437h11.089844c10.359375 0 18.792969 8.25 18.792969 18.394531v11.390625c0 4.140625 3.355469 7.5 7.5 7.5 4.140625 0 7.5-3.359375 7.5-7.5v-11.390625c0-4.40625-.878906-8.613281-2.453125-12.46875h8.046875c7.007813 0 12.710937-5.652344 12.710937-12.601563v-101.824218c0-54.855469-45.5-99.480469-101.421874-99.480469zm-92.757813 158.746094v5.007812h-11.582031c-3.484375 0-6.511719 2.402344-7.304688 5.796875-2.035156 8.71875-9.757812 14.808594-18.78125 14.808594h-39.660156c-2.011719 0-3.835938.796875-5.179688 2.085938v-27.699219c0-22.191407 18.503907-40.246094 41.25-40.246094 22.75 0 41.257813 18.054687 41.257813 40.246094zm-85.910156 76.597656c-3.25 0-5.894531-2.519531-5.894531-5.617187v-11.410157c0-3.097656 2.644531-5.617187 5.894531-5.617187h1.078125v22.644531zm22.53125-166.503906v5.226562c-1.460938-4.394531-5.625-7.574219-10.527344-7.574219h-21.972656v-6.738281c0-12.308593-3.695313-23.773437-10.027344-33.421875 23.542969.554688 42.527344 19.402344 42.527344 42.507813zm-146.328125 79.140625c-4.269532 0-7.746094-3.332032-7.746094-7.433594v-12.984375c0-4.097656 3.476562-7.433594 7.746094-7.433594h2.269531v27.648438c0 .066406.003906.136719.003906.203125zm2.832031-73.921875v-14.304688c0-25.832031 21.53125-46.851562 47.996094-46.851562 26.46875 0 48 21.015625 48 46.851562v6.738281h-85.464844c-4.902344 0-9.066406 3.175782-10.53125 7.566407zm14.433594 7.433593h114.625v35.320313c-12.042969 10.136719-19.691407 25.171875-19.691407 41.933594v31.179687c-10.074218 8.59375-23.226562 13.828125-37.621093 13.828125-31.601563 0-57.308594-25.109375-57.308594-55.972656v-66.289063zm98.121093 223.632813v74.640625h-108.921874v-153.390625c0-10.144531 8.429687-18.394531 18.792968-18.394531h11.085938c11.101562 6.816406 24.203125 10.773437 38.234375 10.773437 10.363281 0 20.214843-2.167969 29.128906-6.042969-.511719 1.785157-.804687 3.664063-.804687 5.605469v11.410157c0 11.367187 9.371093 20.617187 20.894531 20.617187h2.753906c2.21875 9.410156 6.574219 18.023437 12.546875 25.3125-13.5625 3.097656-23.710938 15.132813-23.710938 29.46875zm24.492188-69.046875v-36.714844h32.160156c13.953125 0 26.160156-8.226562 31.488282-20.605468h35.226562v57.320312c0 26.613281-22.179688 48.261719-49.4375 48.261719-27.261719 0-49.4375-21.648438-49.4375-48.261719zm84.828125-72.320312v-5.011719c0-10.363281-2.929687-20.070313-8.007813-28.367188 19.382813 1.328125 34.738282 17.121094 34.738282 36.351563v1.042968c-1.957032-2.441406-4.964844-4.015624-8.339844-4.015624zm36.023437 65.96875c0 3.097656-2.644531 5.617187-5.894531 5.617187h-1.082031v-22.644531h1.082031c3.25 0 5.894531 2.519531 5.894531 5.617187zm5.707032-38.484376v-24.511718c0-16.941406-8.386719-31.996094-21.289063-41.375v-21.269532h51.730469c10.703125 0 20.710938-4.566406 27.679688-12.429687 6.972656 7.863281 16.976562 12.429687 27.679687 12.429687h7.539063v43.695313c0 30.863281-25.710938 55.972656-57.3125 55.972656-13.648438 0-26.179688-4.707031-36.027344-12.511719zm122.449218 7.664063h-17.910156c-3.910156-2.671875-8.410156-4.550781-13.269531-5.402344 10.636719-12.359375 17.066406-28.316406 17.066406-45.722656v-47.679687c0-6.074219-4.949219-11.019532-11.035156-11.019532h-11.5c-7.464844 0-14.355469-3.730468-18.4375-9.976562-2.046875-3.128906-5.5-5-9.242187-5-3.742188 0-7.199219 1.871094-9.242188 5-4.082031 6.25-10.972656 9.980468-18.4375 9.980468h-55.695312c-6.085938 0-11.035157 4.941407-11.035157 11.015626v17.671874c-4.472656-1.421874-9.203125-2.265624-14.109375-2.445312v-15.847656c0-46.582032 38.773438-84.480469 86.425782-84.480469 47.652343 0 86.421874 37.898437 86.421874 84.480469zm0 0"/><path d="m306.625 254.84375v-16.832031c0-4.144531-3.355469-7.5-7.5-7.5s-7.5 3.355469-7.5 7.5v16.832031c0 4.140625 3.355469 7.5 7.5 7.5 4.140625 0 7.5-3.359375 7.5-7.5zm0 0"/><path d="m352.296875 230.511719c-4.144531 0-7.5 3.355469-7.5 7.5v16.832031c0 4.140625 3.355469 7.5 7.5 7.5 4.140625 0 7.5-3.359375 7.5-7.5v-16.832031c0-4.144531-3.359375-7.5-7.5-7.5zm0 0"/><path d="m198.375 344.859375v-14.789063c0-4.140624-3.359375-7.5-7.5-7.5-4.144531 0-7.5 3.359376-7.5 7.5v14.789063c0 4.144531 3.355469 7.5 7.5 7.5 4.140625 0 7.5-3.355469 7.5-7.5zm0 0"/><path d="m234.25 322.570312c-4.140625 0-7.5 3.359376-7.5 7.5v14.789063c0 4.144531 3.359375 7.5 7.5 7.5 4.144531 0 7.5-3.355469 7.5-7.5v-14.789063c0-4.140624-3.355469-7.5-7.5-7.5zm0 0"/><path d="m202.730469 149.613281c2.96875 2.933594 6.90625 4.546875 11.085937 4.546875 4.183594 0 8.117188-1.617187 11.082032-4.546875l26.191406-25.902343c2.945312-2.914063 2.972656-7.660157.058594-10.605469-2.914063-2.945313-7.660157-2.972657-10.605469-.058594l-26.191407 25.902344c-.175781.175781-.390624.210937-.535156.210937-.214844 0-.398437-.074218-.539062-.214844l-68.855469-68.097656c-6.234375-6.167968-9.667969-14.375-9.671875-23.113281 0-8.742187 3.433594-16.949219 9.671875-23.121094 6.265625-6.199219 14.609375-9.613281 23.488281-9.613281 8.875 0 17.21875 3.414062 23.488282 9.613281l17.144531 16.957031c2.921875 2.890626 7.625 2.890626 10.546875 0l17.140625-16.953124c6.273437-6.203126 14.617187-9.617188 23.488281-9.617188 8.878906 0 17.222656 3.414062 23.492188 9.613281 6.234374 6.167969 9.671874 14.378907 9.671874 23.121094 0 8.738281-3.4375 16.945313-9.671874 23.113281l-16.667969 16.484375c-2.945313 2.914063-2.972657 7.664063-.058594 10.605469 2.910156 2.945312 7.660156 2.972656 10.605469.058594l16.671875-16.484375c9.101562-9.007813 14.121093-21 14.121093-33.777344s-5.015624-24.773437-14.125-33.785156c-9.097656-8.996094-21.1875-13.949219-34.039062-13.949219-12.847656 0-24.933594 4.953125-34.035156 13.949219l-11.867188 11.738281-11.867187-11.738281c-9.097657-8.996094-21.1875-13.949219-34.039063-13.949219-12.855468 0-24.941406 4.953125-34.039062 13.949219-9.105469 9.011719-14.117188 21.007812-14.117188 33.785156 0 12.773437 5.015625 24.769531 14.121094 33.777344zm0 0"/><path d="m75.316406 277.511719c0 12.675781 10.386719 22.988281 23.15625 22.988281 12.769532 0 23.160156-10.3125 23.160156-22.988281 0-4.140625-3.355468-7.5-7.5-7.5-4.140624 0-7.5 3.359375-7.5 7.5 0 4.40625-3.660156 7.988281-8.160156 7.988281-4.496094 0-8.15625-3.582031-8.15625-7.988281 0-4.140625-3.359375-7.5-7.5-7.5s-7.5 3.359375-7.5 7.5zm0 0"/><path d="m342.132812 270.011719c-4.140624 0-7.5 3.359375-7.5 7.5 0 4.40625-3.660156 7.988281-8.160156 7.988281-4.496094 0-8.15625-3.582031-8.15625-7.988281 0-4.140625-3.355468-7.5-7.5-7.5-4.144531 0-7.5 3.359375-7.5 7.5 0 12.675781 10.386719 22.988281 23.15625 22.988281 12.773438 0 23.160156-10.3125 23.160156-22.988281 0-4.140625-3.355468-7.5-7.5-7.5zm0 0"/><path d="m229.476562 358.5c-4.144531 0-7.5 3.359375-7.5 7.5 0 4.402344-3.660156 7.988281-8.160156 7.988281s-8.160156-3.585937-8.160156-7.988281c0-4.140625-3.355469-7.5-7.5-7.5-4.140625 0-7.5 3.359375-7.5 7.5 0 12.675781 10.390625 22.988281 23.160156 22.988281 12.769532 0 23.160156-10.3125 23.160156-22.988281 0-4.140625-3.359374-7.5-7.5-7.5zm0 0"/></svg>