<svg id="Group_2347" data-name="Group 2347" xmlns="http://www.w3.org/2000/svg" width="383.516" height="349.696" viewBox="0 0 383.516 349.696">
  <defs>
    <style>
      .cls-1 {
        fill: #1874b9;
      }
    </style>
  </defs>
  <path id="Path_4449" data-name="Path 4449" class="cls-1" d="M-68.463,1125.178a136.278,136.278,0,0,0-17.287-13.289c-22.832-15.441-45.932-30.488-68.671-46.063-10.945-7.5-21.309-15.842-31.936-23.8-1.244-.932-2.147-1.767-1.175-3.639,3.288-6.339,6.7-12.644,9.457-19.219a139.7,139.7,0,0,0,6.554-19.342,127.969,127.969,0,0,0,2.688-17.417,134.119,134.119,0,0,0-8.034-63.378,134.973,134.973,0,0,0-42.589-58.241A132.913,132.913,0,0,0-284.21,832.3a137.379,137.379,0,0,0-66.316,6.044,134.78,134.78,0,0,0-63.556,46.138A131.718,131.718,0,0,0-440.4,945.534c-4.461,29.183-.66,57.1,12.642,83.639a140.046,140.046,0,0,0,17.693,26.989,132.031,132.031,0,0,0,32.267,27.993,136.883,136.883,0,0,0,55.075,19.646,137.273,137.273,0,0,0,56.2-4.329,131.056,131.056,0,0,0,43.078-21.484c3.377-2.562,6.688-5.228,9.826-8.071.664-.6.441-2.183.626-3.313-1.07.114-2.144.2-3.206.362-.229.035-.41.356-.621.535a144.231,144.231,0,0,1-27.4,18.638,135.391,135.391,0,0,1-57.687,14.856,127.61,127.61,0,0,1-49.369-8.21,130.385,130.385,0,0,1-55.575-38.892c-7.443-8.853-14.408-18.1-18.335-29.234-.652-1.848-2.344-3.328-2.993-5.177-1.358-3.871-2.323-7.88-3.494-11.819-.26-.877-.729-1.691-1.059-2.551a30.107,30.107,0,0,1-1.866-5.142c-1.147-6.25-2.266-12.515-3.088-18.814-2.383-18.257-.241-36.159,5.366-53.564,10.218-31.713,29.557-56.44,58.05-73.848a127.384,127.384,0,0,1,54.589-18.455,134.68,134.68,0,0,1,46.733,3.168A131.391,131.391,0,0,1-233.323,855.7a133.258,133.258,0,0,1,50.339,59.241,129.533,129.533,0,0,1,10.005,37.284,145.314,145.314,0,0,1-1.174,40.014c-.054.333-.115.642-.183.932a21.46,21.46,0,0,1-.666,5.1c-.457,1.624-1.793,3.19-1.824,4.884a2.969,2.969,0,0,1-.146.881,2.916,2.916,0,0,1-.11.587c-1.021,3.334-2.151,6.634-3.266,9.938-.4,1.18-.867,2.337-1.568,4.213-.043-.07-.083-.131-.124-.195-1.008,2.35-2.151,4.462-2.891,6.69a7.524,7.524,0,0,1-1.427,2.644c-2.572,4.511-5.246,8.966-7.968,13.388-1.353,2.2-2.869,4.3-4.374,6.4-.9,1.25-1.529,2.751-.012,3.554.772.409,2.339-.477,3.444-1,.5-.237.74-1.02,1.135-1.526,1.182-1.513,2.382-3.013,3.338-4.219,15.177,10.879,29.85,21.729,44.871,32.073,15.194,10.463,30.816,20.3,46.091,30.65,9.232,6.254,18.556,12.475,27.142,19.556,15.748,12.987,12.231,38.325-6.326,46.785-11.443,5.217-22.591,3.558-31.64-5-12.06-11.4-23.38-23.589-34.93-35.524-17.775-18.369-35.461-36.825-53.244-55.187-1.06-1.094-2.412-3.471-4.209-1.562-1.865,1.98.6,3.253,1.768,4.464q24.118,24.985,48.3,49.908c12.621,13.067,25.117,26.254,37.8,39.261,12.235,12.55,28.906,12.759,40.367,6.146C-56.159,1165.329-53.176,1139.581-68.463,1125.178Z" transform="translate(442.186 -830.707)"/>
  <path id="Path_4450" data-name="Path 4450" class="cls-1" d="M-286.7,1100.127c-37.287-1.042-68.171-16.781-90.852-48.012-3.623-4.989-7.85-9.652-9.716-15.916-1.663-5.583-4.628-10.769-6.448-16.318-1.3-3.962-1.707-8.225-2.423-12.369a112.111,112.111,0,0,1,.025-39.948c4.584-24.52,15.835-45.444,34.159-62.5A110.611,110.611,0,0,1-309.9,877.705a110.892,110.892,0,0,1,45.638-.641,111.133,111.133,0,0,1,45.286,19.661,110.886,110.886,0,0,1,35.943,44.147c.229.5.683,1.072.591,1.52a17.727,17.727,0,0,1-1.053,2.818c-.793-.452-1.938-.706-2.321-1.389-2.028-3.616-3.677-7.451-5.8-11.007q-23.4-39.245-67.684-50.663a100.994,100.994,0,0,0-42.85-1.915c-33.968,5.907-60.051,23.6-77.454,53.474-13.089,22.466-17.041,46.742-12.741,72.332a141.713,141.713,0,0,0,3.7,15.576c.8,2.8,2.449,5.351,3.505,8.094,7.031,18.27,19.037,32.7,34.357,44.552a103.4,103.4,0,0,0,33,17.078,108.3,108.3,0,0,0,41.553,4.461A107.5,107.5,0,0,0-230,1081.046a104.327,104.327,0,0,0,37.135-36.852c4.027-6.773,6.975-14.184,10.525-21.249.488-.97,1.8-2.4,2.427-2.261,1.9.431,1.352,2.02.774,3.353-2.122,4.9-4.149,9.836-6.4,14.673-5.662,12.162-14,22.335-23.69,31.487a109.153,109.153,0,0,1-40.087,23.884C-261.019,1098.1-273.144,1099.748-286.7,1100.127Z" transform="translate(422.449 -850.455)"/>
  <path id="Path_4451" data-name="Path 4451" class="cls-1" d="M-164.084,1046.425a23.007,23.007,0,0,1,23.522-22.817,23.308,23.308,0,0,1,22.766,23.434,23.255,23.255,0,0,1-23.379,22.805A22.948,22.948,0,0,1-164.084,1046.425Z" transform="translate(318.199 -916.708)"/>
  <path id="Path_4452" data-name="Path 4452" class="cls-1" d="M-272.672,1051.95a21.4,21.4,0,0,1-21.45,21.48,21.867,21.867,0,0,1-21.76-21.652c.036-11.76,9.973-21.507,21.928-21.506A21.446,21.446,0,0,1-272.672,1051.95Z" transform="translate(385.876 -919.68)"/>
  <path id="Path_4453" data-name="Path 4453" class="cls-1" d="M-226.932,1205.912a9.187,9.187,0,0,1,.417-2.9c3.184-6.228,10.854-9.979,17.7-8.38a70.486,70.486,0,0,1,10.374,3.639c.776.316,1.178,1.554,1.751,2.368-.945,0-2.043.31-2.809-.061-4.71-2.28-9.495-3.8-14.859-3.115-4.376.558-7.424,2.94-9.929,6.3-.584.784-1.139,1.589-1.707,2.384Z" transform="translate(346.219 -992.791)"/>
  <path id="Path_4454" data-name="Path 4454" class="cls-1" d="M3.452,1052.942a56.488,56.488,0,0,1-.081,6.2c-.08.76-1.1,1.419-1.7,2.125-.627-.683-1.279-1.345-1.863-2.062-.144-.177-.063-.536-.087-.81-.562-6.315-1.187-12.626-1.622-18.949-.065-.948.562-2.623,1.2-2.809,1.748-.507,2.356.99,2.538,2.455C2.4,1043.561,2.887,1048.039,3.452,1052.942Z" transform="translate(245.893 -922.472)"/>
  <path id="Path_4455" data-name="Path 4455" class="cls-1" d="M-98.732,958.56c-7.336-3.8-14.688-7.579-21.974-11.476-.52-.278-.558-1.458-.821-2.218.642-.07,1.466-.434,1.9-.166,7.159,4.423,14.269,8.925,21.389,13.409Z" transform="translate(299.226 -881.485)"/>
  <path id="Path_4456" data-name="Path 4456" class="cls-1" d="M-319.43,969.5c4.638-3.372,9.256-6.772,13.925-10.1a62.785,62.785,0,0,1,5.819-3.691c.412-.23,1.232.271,1.864.435-.153.565-.124,1.434-.485,1.649-6.9,4.107-13.846,8.136-20.783,12.182Z" transform="translate(387.457 -886.411)"/>
</svg>
