<svg xmlns="http://www.w3.org/2000/svg" width="22.905" height="24.987" viewBox="0 0 22.905 24.987">
  <defs>
    <style>
      .cls-1 {
        fill: #707070;
      }
    </style>
  </defs>
  <path id="flag-2" class="cls-1" d="M20.913,10.411l4.418-6.427a.416.416,0,0,0-.343-.652H12.495V1.666a.416.416,0,0,0-.416-.416H3.333V.416a.416.416,0,0,0-.833,0V24.57a.416.416,0,1,0,.833,0V14.159H7.925A2.061,2.061,0,0,0,7.5,15.409,2.085,2.085,0,0,0,9.58,17.491H24.988a.416.416,0,0,0,.343-.652Z" transform="translate(-2.5)"/>
</svg>
