<svg xmlns="http://www.w3.org/2000/svg" width="566.998" height="112.273" viewBox="0 0 566.998 112.273">
  <defs>
    <style>
      .cls-1 {
        fill: #fff;
      }

      .cls-2 {
        fill: #8dc043;
      }
    </style>
  </defs>
  <g id="Group_2267" data-name="Group 2267" transform="translate(-339 -652)">
    <path id="Path_381" data-name="Path 381" class="cls-1" d="M1628.292,241.565c1.646-39.417,1.928-29.57-1.34-37.64-3.46-8.537-54.194-12.006-84.128-13.312-45.834-2-465.8-1.653-470.689,4.211-8.319,9.977-7.887,88.633-7.875,90.267.019,2.827,3.608,6.526,31.417,10.081,21.241,2.716,399.468,4.283,418.609,5.119h.016c45.49,1.986,99.786,2.171,104.365-.554C1624.4,296.32,1627.485,260.909,1628.292,241.565Z" transform="translate(-725.253 462.49)"/>
    <path id="Path_325" data-name="Path 325" class="cls-2" d="M985.055,519.173c1.65-28.182,1.933-61.142-1.345-66.912-3.471-6.1-54.364-8.583-84.391-9.518-45.978-1.43-467.255-1.181-472.16,3.012-8.345,7.133-7.911,95.37-7.9,96.539.02,2.02,3.619,4.665,31.515,7.208,21.307,1.942,400.717,3.062,419.917,3.659h.015c45.633,1.42,100.1,1.552,104.691-.4C981.155,550.323,984.246,533.005,985.055,519.173ZM870.8,551.663h-.016c-71.819-2.236-449.385-6.45-449.413-9.379-.172-18.072.46-89.628,7.413-95.57,3.146-2.69,408.708-4.393,470.442-2.472,58.28,1.814,80.842,5.622,82.523,8.581,6.106,10.742-.5,95.194-7.435,98.654C970.947,552.906,922.524,553.273,870.8,551.663Z" transform="translate(-80.253 210.045)"/>
  </g>
</svg>
