<svg xmlns="http://www.w3.org/2000/svg" width="314.543" height="177.082" viewBox="0 0 314.543 177.082">
  <defs>
    <style>
      .cls-1 {
        fill: #fff;
      }

      .cls-2 {
        fill: #8dc043;
      }
    </style>
  </defs>
  <g id="Group_2367" data-name="Group 2367" transform="translate(-195.462 -477.637)">
    <path id="Path_377" data-name="Path 377" class="cls-1" d="M302.064,108.057c2.332-43.369,2.732-83.318-1.9-92.2C295.257,6.467,223.34,2.65,180.907,1.213,115.934-.989,18.1-.606,11.173,5.847-.619,16.823-.006,138.761.01,140.559c.028,3.11,5.114,7.18,44.536,11.092,30.111,2.989,68.774,4.712,95.907,5.632h.022c64.486,2.185,141.452,2.388,147.943-.609C296.551,152.914,300.919,129.342,302.064,108.057Z" transform="translate(195.462 493.536) rotate(-3)"/>
    <g id="Group_154" data-name="Group 154" transform="translate(195.888 493.657) rotate(-3)">
      <path id="Path_240" data-name="Path 240" class="cls-2" d="M304.39,109.661c2.35-44.012,2.753-84.554-1.915-93.565C297.532,6.563,225.06,2.69,182.3,1.231,116.827-1,18.244-.615,11.26,5.933-.624,17.073-.006,140.82.01,142.644c.028,3.156,5.154,7.287,44.879,11.257,30.343,3.033,69.3,4.782,96.646,5.716h.022C206.539,161.834,284.1,162.04,290.64,159,298.836,155.183,303.237,131.261,304.39,109.661Zm-162.7,47.615h-.022C39.394,153.785,3.058,147.2,3.02,142.628c-.247-28.222.654-125.918,10.554-135.2,4.48-4.2,80.684-6.859,168.595-3.859,82.992,2.831,115.121,8.78,117.516,13.4,8.695,16.774-.712,134.609-10.588,140.012C284.3,159.218,215.344,159.79,141.689,157.276Z" transform="translate(0 0)"/>
      <g id="Group_154-2" data-name="Group 154" transform="translate(4.623 9.991)">
        <path id="Path_241" data-name="Path 241" class="cls-2" d="M3.229,0A3.122,3.122,0,0,0,0,2.958,3.124,3.124,0,0,0,2.959,6.184,3.123,3.123,0,0,0,6.184,3.228,3.121,3.121,0,0,0,3.229,0Z" transform="translate(7.028 0)"/>
        <circle id="Ellipse_147" data-name="Ellipse 147" class="cls-2" cx="3.094" cy="3.094" r="3.094" transform="translate(0 132.403) rotate(-79.722)"/>
        <path id="Path_242" data-name="Path 242" class="cls-2" d="M3.229,0A3.121,3.121,0,0,0,0,2.958,3.121,3.121,0,0,0,2.958,6.183,3.121,3.121,0,0,0,6.184,3.228,3.122,3.122,0,0,0,3.229,0Z" transform="translate(278.784 138.391)"/>
        <path id="Path_243" data-name="Path 243" class="cls-2" d="M3.229,0A3.121,3.121,0,0,0,0,2.958,3.124,3.124,0,0,0,2.958,6.184,3.123,3.123,0,0,0,6.184,3.228,3.122,3.122,0,0,0,3.229,0Z" transform="translate(287.431 7.757)"/>
      </g>
    </g>
  </g>
</svg>
