<svg xmlns="http://www.w3.org/2000/svg" width="170.949" height="158.707" viewBox="0 0 170.949 158.707">
  <defs>
    <style>
      .cls-1 {
        fill: #fff;
      }

      .cls-2 {
        fill: #1874b9;
      }

      .cls-3 {
        fill: #8dc043;
      }
    </style>
  </defs>
  <g id="Group_2367" data-name="Group 2367" transform="translate(22055.066 10614.083)">
    <path id="Path_598" data-name="Path 598" class="cls-1" d="M2078.844,601.044c13.962-17.471,19.068-38.691,14.377-59.752-7.941-35.643-41.645-53.195-69.6-54.419-17.416-.762-33.947,4.189-46.546,13.946-19.351,14.985-30.96,38.231-30.3,60.667,1.1,37.295,31.384,67.8,68.945,69.447l0,0c1.1.047,2.2.068,3.313.066C2041.219,630.93,2064.134,619.451,2078.844,601.044Z" transform="translate(-23989.926 -11098.245)"/>
    <path id="Path_599" data-name="Path 599" class="cls-2" d="M2097.149,542.078c-7.061-31.7-36.692-54.929-72.053-56.478-18.039-.791-35.184,4.356-48.275,14.493-20,15.493-32,39.567-31.317,62.829,1.14,38.667,32.532,70.294,71.463,72h0c1.146.05,2.291.073,3.439.068,22.959-.073,46.659-11.93,61.854-30.946C2096.731,585.939,2102.018,563.932,2097.149,542.078Zm-80.065,90.215,0,0c-37.561-1.646-67.844-32.152-68.945-69.447-.663-22.437,10.947-45.683,30.3-60.667,12.6-9.757,29.13-14.708,46.546-13.946,27.955,1.225,61.659,18.777,69.6,54.419,4.691,21.061-.415,42.281-14.377,59.752-14.71,18.407-37.625,29.886-59.806,29.957C2019.288,632.361,2018.188,632.341,2017.084,632.293Z" transform="translate(-23991.285 -11099.604)"/>
    <g id="Group_271" data-name="Group 271" transform="translate(-22055.066 -10538.616)">
      <path id="Path_606" data-name="Path 606" class="cls-3" d="M1944.331,530.479c-.32-2.675.209-5.589-.8-8.1a.609.609,0,0,0-1.041-.045c-1.658,2.284-1.493,5.735-1.5,8.454a21,21,0,0,0,1.663,8.869c.591,1.3,2.873.853,2.79-.626C1945.289,536.147,1944.674,533.338,1944.331,530.479Z" transform="translate(-1940.994 -522.059)"/>
      <path id="Path_607" data-name="Path 607" class="cls-3" d="M1956.17,552.44c-1.832-2.239-3.792-4.366-5.6-6.63-1.973-2.474-3.067-5.6-5.116-7.96a.8.8,0,0,0-1.382.5c.124,2.987,1.939,5.934,3.42,8.452a23.7,23.7,0,0,0,6.938,7.7C1955.756,555.406,1957.115,553.6,1956.17,552.44Z" transform="translate(-1937.711 -505.5)"/>
      <path id="Path_608" data-name="Path 608" class="cls-3" d="M1971.7,562.493c-2.638-1.849-5.393-3.466-8.1-5.209-2.675-1.723-5-4.034-7.729-5.632-.612-.359-1.5.3-1.076.985,3.268,5.3,10.085,10.013,15.852,12.07A1.241,1.241,0,0,0,1971.7,562.493Z" transform="translate(-1926.4 -490.638)"/>
      <path id="Path_609" data-name="Path 609" class="cls-3" d="M1993.982,560.827c-6.421-.076-12.892-.171-19.3-.174a.717.717,0,0,0-.252,1.392,34.193,34.193,0,0,0,19.776,1.218A1.24,1.24,0,0,0,1993.982,560.827Z" transform="translate(-1905.878 -480.941)"/>
      <path id="Path_610" data-name="Path 610" class="cls-3" d="M2013.038,554.708c-3.156,1.506-6.089,3.429-9.173,5.068-3.466,1.844-7.32,2.8-10.761,4.622a.883.883,0,0,0,.372,1.652c7.024-.054,16.176-4.216,21.129-9.117A1.378,1.378,0,0,0,2013.038,554.708Z" transform="translate(-1885.952 -487.434)"/>
      <path id="Path_611" data-name="Path 611" class="cls-3" d="M2020.2,544.678c-1.714,2.408-3.189,4.976-4.961,7.341-1.755,2.348-4.048,4.147-5.855,6.419a.622.622,0,0,0,.657.938c5.446-1.987,10.719-8.189,12.347-13.661A1.226,1.226,0,0,0,2020.2,544.678Z" transform="translate(-1868.241 -498.527)"/>
      <path id="Path_612" data-name="Path 612" class="cls-3" d="M2025.2,533.543c-1.375,1.743-2.07,4.013-3,6.023-1.322,2.846-2.755,5.649-4.186,8.441a.66.66,0,0,0,1.109.715c1.6-2.379,3.1-4.8,4.535-7.283,1.266-2.183,2.923-4.5,3.46-6.987A1.075,1.075,0,0,0,2025.2,533.543Z" transform="translate(-1859.023 -510.318)"/>
      <path id="Path_613" data-name="Path 613" class="cls-3" d="M2025.087,523.816a.861.861,0,0,0-1.466-.064c-.69,1.177-.39,2.435-.448,3.767a20.838,20.838,0,0,1-1.111,5.663c-.227.682.81,1.206,1.157.547a20.271,20.271,0,0,0,1.948-5.174C2025.483,527.077,2026.012,525.128,2025.087,523.816Z" transform="translate(-1854.658 -520.665)"/>
    </g>
  </g>
</svg>
