<svg xmlns="http://www.w3.org/2000/svg" width="101.223" height="100.543" viewBox="0 0 101.223 100.543">
  <defs>
    <style>
      .cls-1 {
        fill: #fff;
      }

      .cls-2 {
        fill: #d8d3bb;
      }

      .cls-3 {
        fill: #06b2cc;
      }

      .cls-4 {
        fill: #707070;
      }
    </style>
  </defs>
  <g id="Group_7" data-name="Group 7" transform="translate(-461 -410.919)">
    <g id="Group_4" data-name="Group 4" transform="translate(-64.375 195.109)">
      <path id="Path_2" data-name="Path 2" class="cls-1" d="M554.512,225.131c-13.178,5.51-23.712,15.7-27.66,30.612-5.026,18.984,3.1,40.723,19.353,51.75s39.454,10.552,55.239-1.131,23.018-33.736,17.219-52.5c-5.934-19.2-26.534-35.557-47.128-33.125A63.5,63.5,0,0,0,554.512,225.131Z" transform="translate(0 -1.787)"/>
      <g id="Group_1" data-name="Group 1" transform="translate(525.383 260.395)">
        <path id="Path_6" data-name="Path 6" class="cls-2" d="M601.449,321.781c-15.785,11.682-38.989,12.158-55.239,1.131-11.586-7.863-19.04-21.172-20.544-35.044-1.907,17.259,6.111,35.5,20.544,45.3,16.25,11.027,39.454,10.552,55.239-1.131,13.5-9.991,20.735-27.565,18.924-44.181C618.958,301.093,612.184,313.835,601.449,321.781Z" transform="translate(-525.389 -287.852)"/>
        <path id="Path_7" data-name="Path 7" class="cls-2" d="M637.2,332.395c-3.075,1.657-5.825,3.9-8.864,5.644s-6.286,3.024-9.288,4.79c-.366.215-.1.69.269.637a34.306,34.306,0,0,0,10.081-3.612c3.159-1.563,6.534-3.343,9.024-5.877A1.012,1.012,0,0,0,637.2,332.395Z" transform="translate(-561.019 -304.78)"/>
        <path id="Path_8" data-name="Path 8" class="cls-2" d="M658.508,319.944a36.521,36.521,0,0,0-4.179,3.908.858.858,0,0,0,1.212,1.212,36.317,36.317,0,0,0,3.908-4.179C659.861,320.348,659.045,319.532,658.508,319.944Z" transform="translate(-574.438 -300.041)"/>
        <path id="Path_9" data-name="Path 9" class="cls-2" d="M555.7,327.753a70.185,70.185,0,0,1-8.373-6.616c-2.826-2.757-4.794-6.049-6.846-9.376a.445.445,0,0,0-.81.341c2.2,7.116,8.241,14.28,15.068,17.295A.952.952,0,0,0,555.7,327.753Z" transform="translate(-530.825 -296.885)"/>
        <path id="Path_10" data-name="Path 10" class="cls-2" d="M580.332,345.345a16.26,16.26,0,0,0-5.6-1.237.636.636,0,0,0-.319,1.176,16.713,16.713,0,0,0,5.717,1.522C581.018,346.925,581.065,345.611,580.332,345.345Z" transform="translate(-543.957 -309.292)"/>
        <path id="Path_11" data-name="Path 11" class="cls-2" d="M536.437,303.962a12.731,12.731,0,0,0-1.217-3.18.663.663,0,0,0-1.206.508,12.731,12.731,0,0,0,1.423,3.093A.549.549,0,0,0,536.437,303.962Z" transform="translate(-528.669 -292.661)"/>
        <path id="Path_12" data-name="Path 12" class="cls-2" d="M669.022,304.5a1.716,1.716,0,0,0-.844.805.636.636,0,0,0,.863.863,1.715,1.715,0,0,0,.805-.844A.607.607,0,0,0,669.022,304.5Z" transform="translate(-579.783 -294.167)"/>
      </g>
      <path id="Path_13" data-name="Path 13" class="cls-3" d="M632.545,372.893a.03.03,0,0,0,0,.061A.03.03,0,0,0,632.545,372.893Z" transform="translate(-40.835 -59.869)"/>
      <path id="Path_14" data-name="Path 14" class="cls-3" d="M631.57,372.893a.03.03,0,0,0,0,.061A.03.03,0,0,0,631.57,372.893Z" transform="translate(-40.463 -59.869)"/>
      <g id="Group_2" data-name="Group 2" transform="translate(526.246 215.81)">
        <path id="Path_15" data-name="Path 15" class="cls-4" d="M542,232.78c-7.219,4.936-12.8,13.533-15.205,21.867a.227.227,0,0,0,.413.174,91.3,91.3,0,0,1,6.652-10.862c2.7-3.665,5.923-6.741,9.008-10.053C543.4,233.33,542.694,232.3,542,232.78Z" transform="translate(-526.783 -222.231)"/>
        <path id="Path_16" data-name="Path 16" class="cls-4" d="M568.089,221.023a23.52,23.52,0,0,0-8.2,4.452c-.382.3.105.785.48.621a75.369,75.369,0,0,0,8.2-3.936A.625.625,0,0,0,568.089,221.023Z" transform="translate(-539.349 -217.787)"/>
        <path id="Path_17" data-name="Path 17" class="cls-4" d="M640.976,223.28c-3.232-3.973-8.307-6.222-13.186-7.444a.726.726,0,0,0-.386,1.4c4.808,1.59,8.583,4.35,12.715,7.155C640.833,224.874,641.447,223.859,640.976,223.28Z" transform="translate(-564.939 -215.81)"/>
        <path id="Path_18" data-name="Path 18" class="cls-4" d="M655.292,232.547a9.744,9.744,0,0,1-1.13-1.259.616.616,0,0,0-.692-.282.625.625,0,0,0-.428.753,2.643,2.643,0,0,0,.479,1.148,1.712,1.712,0,0,0,1.318.733.633.633,0,0,0,.553-.317A.661.661,0,0,0,655.292,232.547Z" transform="translate(-574.9 -221.594)"/>
        <path id="Path_19" data-name="Path 19" class="cls-4" d="M683.558,275.021c-.252-.492-.938-.132-.844.356a75.94,75.94,0,0,1,1.625,20.155.719.719,0,0,0,1.407.19C687.269,289.021,686.724,281.212,683.558,275.021Z" transform="translate(-586.21 -238.288)"/>
        <path id="Path_20" data-name="Path 20" class="cls-4" d="M684.824,316.627a9.3,9.3,0,0,0-.724,3.365c-.055.834,1.114.881,1.37.185a8.927,8.927,0,0,0,.671-3.193C686.128,316.326,685.136,315.958,684.824,316.627Z" transform="translate(-586.741 -254.099)"/>
        <path id="Path_21" data-name="Path 21" class="cls-4" d="M553.417,358.536a83.984,83.984,0,0,1-10.833-7.928,75.974,75.974,0,0,1-9.537-10.867.292.292,0,0,0-.5.3,43.57,43.57,0,0,0,20.266,19.541A.6.6,0,0,0,553.417,358.536Z" transform="translate(-528.964 -262.993)"/>
        <path id="Path_22" data-name="Path 22" class="cls-4" d="M580.974,374.787a21.848,21.848,0,0,0-6.658-1.267c-.636.008-.978.964-.343,1.264a22.368,22.368,0,0,0,6.775,1.668C581.736,376.576,581.844,375.063,580.974,374.787Z" transform="translate(-544.64 -275.918)"/>
        <path id="Path_23" data-name="Path 23" class="cls-4" d="M653.613,347.083c-5.865,6.912-13.238,11.227-21.069,15.566a.038.038,0,0,0,.019.071c1.829.137,3.469-.834,5.088-1.593,2.282-1.071,4.515-2.232,6.684-3.518,4.117-2.441,8.01-5.465,10.27-9.76C654.925,347.24,654.1,346.514,653.613,347.083Z" transform="translate(-567.085 -265.763)"/>
        <path id="Path_24" data-name="Path 24" class="cls-4" d="M673.432,337.406a12.621,12.621,0,0,1-1.615,2.053c-.5.466.266,1.23.746.746a6.128,6.128,0,0,0,1.626-2.48C674.331,337.25,673.691,337.037,673.432,337.406Z" transform="translate(-581.999 -262.082)"/>
        <path id="Path_25" data-name="Path 25" class="cls-4" d="M624.068,374.234q-1.387.275-2.77.566a.256.256,0,0,0,0,.491,4.688,4.688,0,0,0,3.09-.3C624.842,374.791,624.5,374.148,624.068,374.234Z" transform="translate(-562.736 -276.187)"/>
      </g>
    </g>
  </g>
</svg>
