<svg id="Group_46" data-name="Group 46" xmlns="http://www.w3.org/2000/svg" width="39.117" height="28.716" viewBox="0 0 39.117 28.716">
  <defs>
    <style>
      .cls-1 {
        fill: #707070;
      }
    </style>
  </defs>
  <g id="Group_45" data-name="Group 45" transform="translate(0 0)">
    <path id="Path_47" data-name="Path 47" class="cls-1" d="M37.368,89.151,35,88.474a.24.24,0,0,1-.174-.23v-.79a4.306,4.306,0,0,0,.548-.449,4.215,4.215,0,0,0,1.29-3.05v-1.09l.229-.458a3.656,3.656,0,0,0,.384-1.626V77.829a.573.573,0,0,0-.573-.573H31.192a3.641,3.641,0,0,0-3.636,3.636v.034a3.039,3.039,0,0,0,.319,1.352l.293.587V83.8a4.471,4.471,0,0,0,1.838,3.615v.828c0,.128,0,.181-.473.316l-1.155.33-3.34-1.215a.572.572,0,0,0-.156-.439l-1.067-1.121V84.233c.113-.093.224-.188.332-.289a6.725,6.725,0,0,0,2.119-4.889v-1.5a6.624,6.624,0,0,0,.613-2.785V68.639a.573.573,0,0,0-.573-.573H17.728a5.481,5.481,0,0,0-5.474,5.474v1.225a6.623,6.623,0,0,0,.613,2.785v1.294a7,7,0,0,0,2.451,5.344v1.927l-1.067,1.121a.572.572,0,0,0-.156.439l-3.526,1.282a3,3,0,0,0-.708.371l-.554-.277a4.377,4.377,0,0,0,2.2-1.776.573.573,0,0,0,0-.513,10.179,10.179,0,0,1-.5-3.557c-.013-.405-.026-.788-.05-1.129a4.984,4.984,0,0,0-4.86-4.821,4.984,4.984,0,0,0-4.86,4.821c-.024.341-.037.724-.05,1.129a10.18,10.18,0,0,1-.5,3.557.573.573,0,0,0,0,.512,4.376,4.376,0,0,0,2.2,1.775l-1.538.769A2.4,2.4,0,0,0,0,91.976v4.233a.573.573,0,0,0,1.146,0V91.976a1.258,1.258,0,0,1,.7-1.131l1.915-.957.666.633a2.41,2.41,0,0,0,3.322,0l.666-.633.624.312a3.017,3.017,0,0,0-.461,1.6v4.41a.573.573,0,0,0,1.146,0V91.8a1.883,1.883,0,0,1,1.236-1.765l3.717-1.352L16.224,91a1.181,1.181,0,0,0,.87.522q.059.006.118.006a1.181,1.181,0,0,0,.837-.347l.944-.944v5.969a.573.573,0,1,0,1.146,0V90.241l.944.944a1.18,1.18,0,0,0,.837.347q.059,0,.118-.006a1.181,1.181,0,0,0,.87-.522l1.547-2.321,3.717,1.352A1.884,1.884,0,0,1,29.408,91.8v4.41a.573.573,0,1,0,1.146,0V91.8a3.029,3.029,0,0,0-.848-2.1l.142-.04a3.143,3.143,0,0,0,.533-.193l1.463,1.463v5.277a.573.573,0,1,0,1.146,0V90.933l1.453-1.453a1.362,1.362,0,0,0,.244.1l2.367.676a1.27,1.27,0,0,1,.917,1.216v4.74a.573.573,0,1,0,1.146,0v-4.74A2.422,2.422,0,0,0,37.368,89.151ZM3.676,88.139a4.119,4.119,0,0,1-1.839-1.181,6.316,6.316,0,0,0,.327-1.372,4.273,4.273,0,0,0,1.512,1.866Zm3.283,1.551a1.264,1.264,0,0,1-1.743,0l-.533-.506a1.186,1.186,0,0,0,.139-.56v-.611a4.261,4.261,0,0,0,2.53,0v.61a1.186,1.186,0,0,0,.139.56Zm-.871-2.63a3.106,3.106,0,0,1-3.1-3.1.57.57,0,0,0-.667-.565c0-.049,0-.1,0-.147.013-.394.025-.766.048-1.085a4.254,4.254,0,0,1,1.158-2.672,3.56,3.56,0,0,1,5.117,0A4.254,4.254,0,0,1,9.8,82.158c.023.319.035.691.048,1.085l0,.1a5.149,5.149,0,0,0-2.83-2.068,7.192,7.192,0,0,0-2.179-.345.573.573,0,0,0-.4.175L3.416,82.18a.573.573,0,0,0,.825.8l.86-.892c.741.036,3.124.313,4.051,2.355A3.1,3.1,0,0,1,6.087,87.059ZM8.5,88.14v-.683a4.239,4.239,0,0,0,1.513-1.868,6.308,6.308,0,0,0,.326,1.369A4.139,4.139,0,0,1,8.5,88.14Zm5.514-9.3V77.423a.573.573,0,0,0-.057-.249,5.5,5.5,0,0,1-.556-2.408V73.54a4.333,4.333,0,0,1,4.328-4.328h8v5.554a5.5,5.5,0,0,1-.556,2.408.573.573,0,0,0-.057.249v1.632a5.5,5.5,0,0,1-1.757,4.053,5.7,5.7,0,0,1-.44.372l-.01.007A5.51,5.51,0,0,1,19.2,84.6,5.676,5.676,0,0,1,14.012,78.844Zm3.226,11.53a.036.036,0,0,1-.032.011.036.036,0,0,1-.029-.017L15.4,87.695l.573-.6,2.7,1.848Zm2.327-2.211-3.1-2.121v-1.07a6.452,6.452,0,0,0,2.658.767q.227.015.451.015a6.637,6.637,0,0,0,3.1-.759v1.047Zm2.388,2.205a.036.036,0,0,1-.029.018.035.035,0,0,1-.032-.011l-1.434-1.434,2.7-1.848.574.6Zm10.463-.483-1.3-1.3a1.572,1.572,0,0,0,.035-.34V88a4.017,4.017,0,0,0,1.135.2l.132,0a4.257,4.257,0,0,0,1.263-.191v.231a1.37,1.37,0,0,0,.041.334Zm2.161-3.7a3.08,3.08,0,0,1-2.257.874A3.208,3.208,0,0,1,29.314,83.8V82.73a.572.572,0,0,0-.061-.256l-.354-.708a1.888,1.888,0,0,1-.2-.84v-.034a2.493,2.493,0,0,1,2.49-2.49h4.941v2.38A2.5,2.5,0,0,1,35.87,81.9l-.289.579a.573.573,0,0,0-.061.256v1.225A3.079,3.079,0,0,1,34.578,86.183Z" transform="translate(0 -68.066)"/>
  </g>
</svg>
