<svg xmlns="http://www.w3.org/2000/svg" width="55.177" height="59.462" viewBox="0 0 55.177 59.462">
  <defs>
    <style>
      .cls-1 {
        fill: #d8d3bb;
      }

      .cls-2 {
        fill: #707070;
      }
    </style>
  </defs>
  <g id="Group_2293" data-name="Group 2293" transform="translate(-46.753 -14.892)">
    <path id="Path_3" data-name="Path 3" class="cls-1" d="M590.658,238.541c-7.632,3.191-13.731,9.093-16.018,17.729a27.663,27.663,0,1,0,53.171-1.088c-3.436-11.118-15.367-20.592-27.293-19.184A36.823,36.823,0,0,0,590.658,238.541Z" transform="translate(-527.031 -216.496)"/>
    <path id="Path_5" data-name="Path 5" class="cls-2" d="M590.658,233.913c-7.632,3.191-13.731,9.092-16.018,17.728a27.663,27.663,0,1,0,53.171-1.087c-3.436-11.119-15.367-20.592-27.293-19.184A36.751,36.751,0,0,0,590.658,233.913Z" transform="translate(-527.031 -216.338)"/>
  </g>
</svg>
