<svg id="Group_1227" data-name="Group 1227" xmlns="http://www.w3.org/2000/svg" width="64.079" height="83.441" viewBox="0 0 64.079 83.441">
  <defs>
    <style>
      .cls-1 {
        fill: #fdc326;
        fill-rule: evenodd;
      }
    </style>
  </defs>
  <path id="Path_531" data-name="Path 531" class="cls-1" d="M386.824,163.911c.614-.307,1.217-.408,1.44-.754,1.286-2,2.555-4.016,3.694-6.1,1.745-3.2,3.362-6.468,5.074-9.685.449-.844,1.044-1.612,1.533-2.356a1.6,1.6,0,0,1,1.58,1.75c.029,2.643,1.228,4.84,2.359,7.088.3.594.415,1.257.861,2.553l-2.672-2.617c-1.649,3,1.142,4.914,1.264,7.157-.707,1.09-1.289-.154-1.893.116-.151.189-.44.388-.432.568.107,1.944.226,3.888.434,5.821a1.194,1.194,0,0,0,.786.84,1.92,1.92,0,0,0,1.423-.5,21.444,21.444,0,0,0,1.46-2.544,282.709,282.709,0,0,0,12.658-26.1c.551-1.24,1.19-2.44,1.907-3.9,1.391,1.472,1.287,3.055,1.654,4.52-.684.366-1.263.673-1.983,1.058a11.787,11.787,0,0,0,2.077,5.358c-.032.029-.067.055-.1.082l-.066.426c-.027-.089-.1-.2-.076-.261a.465.465,0,0,1,.142-.165l.02-.121c-.646.154-1.292.307-2.139.511.521,4.352,1.038,8.7,1.586,13.293a11.467,11.467,0,0,1-1.964.482,12.655,12.655,0,0,1-2.158-.238,5.585,5.585,0,0,0,.217,1.883,22.65,22.65,0,0,1,2.681,7.893,13.94,13.94,0,0,0,.864,2.358c-.1.057-.018-.04-.047-.044-.883-.618-1.764-1.238-2.948-2.07-.308.857-.8,1.515-.684,2.026a17.137,17.137,0,0,0,3.717,7.842c.151.17.5.156.905.266.36-.492.753-1.026,1.243-1.69,1.008.159,2.087.331,3.194.507,1.808-.979,2.765-2.713,3.671-4.443,2.664-5.08,5.265-10.192,7.9-15.288.628-1.212,1.289-2.406,2.006-3.739,1.1,1.88,1.428,3.513.434,5.043a3.8,3.8,0,0,0-.415,3.544c.792,2.513,1.646,5.01,2.495,7.577-1.009.5-1.364-.217-1.648-.713-.542-.942-.953-1.959-1.4-2.926-.231.069-.382.07-.444.145a.455.455,0,0,0-.1.363c.568,1.977,1.154,3.955,1.724,5.949.008-.011.017-.014.024-.024a.616.616,0,0,1-.02.076,2.53,2.53,0,0,0,.38,2.142c.153.1.325.2.544.324l-.046.119c-.069.612-.122,1.206-.176,1.8l-.457-.113q.318-.843.632-1.687c0-.027.006-.053.009-.081a1.722,1.722,0,0,1-.507-.362c-.806-.5-.768-.748-.38-2.142v-.026l-.006-.026c-.739.869-1.448-.321-2.419.024.339,1.435.683,2.9,1.109,4.7-.6,1.008-1.339,2.24-2.336,3.907.657,2.106,1.484,4.756,2.3,7.387l-2.3,1.761c1.046,2.463,2.089,4.88,3.1,7.309.962,2.316,1.889,4.648,2.749,6.773,1.292.547,1.368-.434,1.921-1.006l2.788.53a8.989,8.989,0,0,1,.715.954c.557.971,1,2.017,1.648,2.921a1.642,1.642,0,0,0,1.4.6c.564-.2,1.33-.8,1.377-1.286a13.232,13.232,0,0,0-.244-3.723c-1.04-5.364-2.313-10.688-3.207-16.077-1.194-7.189-2.145-14.419-3.139-21.64-.631-4.584-1.043-9.2-1.764-13.767-.411-2.6-1.244-5.133-1.99-8.1-.892.712-1.709,1.07-2.057,1.693-1.3,2.321-2.42,4.744-3.66,7.1a29.41,29.41,0,0,1-3.12,5.5,27.5,27.5,0,0,1-.994-2.956,138.233,138.233,0,0,0-7.693-26.187c-.53-1.261-1.145-2.487-1.832-3.97a11.5,11.5,0,0,0-2.177,1.745,39.75,39.75,0,0,0-3.174,4.938c-2.9,5.6-5.694,11.26-8.545,16.888-.3.589-.715,1.122-1.185,1.854-1.289-1.38-1.475-2.939-2.043-4.306-.8-1.942-1.506-3.927-2.33-5.859a6.754,6.754,0,0,0-1.194-1.707,1.637,1.637,0,0,0-2.278-.145,10.52,10.52,0,0,0-1.8,2.286c-2.849,5.312-5.685,10.63-8.409,16.005C387.138,160.257,386.326,161.807,386.824,163.911Zm40.877.537c.524.991,1.31,1.848-.156,3.029C426.554,166.3,426.118,165.372,427.7,164.448Zm-2.561,5.663c.438-.264,1.124.243,1.04.774-.034.209-.3.382-.54.667a4.345,4.345,0,0,1-.8-.8C424.766,170.637,424.963,170.22,425.14,170.112Zm-3.089,2.826c1.779,1.052,1.88,1.812,1.3,3.284C422.884,175.041,422.609,174.341,422.052,172.938Z" transform="translate(-386.671 -127.115)"/>
  <path id="Path_532" data-name="Path 532" class="cls-1" d="M423.129,183a7.151,7.151,0,0,1,.021,1.78c-2.049-.527-2.226-2.228-2.793-3.523-3.242-7.444-3.846-9.58-3.376-11.408A74.192,74.192,0,0,1,423.129,183Z" transform="translate(-370.773 -104.598)"/>
</svg>
