<svg xmlns="http://www.w3.org/2000/svg" width="1199.703" height="975.44" viewBox="0 0 1199.703 975.44">
  <defs>
    <style>
      .cls-1 {
        fill: #fff;
      }

      .cls-2 {
        fill: #8dc043;
      }
    </style>
  </defs>
  <g id="Group_2367" data-name="Group 2367" transform="translate(-201.175 -531.515)">
    <path id="Path_778" data-name="Path 778" class="cls-1" d="M3034.6,1250.25c3.492-106.026,4.094-677.732-2.845-699.44-7.342-22.965-115.027-32.291-178.56-35.809-97.282-5.38-988.654-4.443-999.032,11.332-17.656,26.836-16.739,911.846-16.716,916.244.042,7.6,7.658,17.551,66.683,27.118,45.084,7.306,847.867,11.52,888.5,13.766l.03,0c96.553,5.342,211.794,5.839,221.513-1.494C3026.342,1472.784,3032.884,1302.289,3034.6,1250.25Z" transform="translate(-1636.254 19.476)"/>
    <path id="Path_780" data-name="Path 780" class="cls-2" d="M3034.6,1250.25c3.492-106.026,4.094-677.732-2.845-699.44-7.342-22.965-115.027-32.291-178.56-35.809-97.282-5.38-988.654-4.443-999.032,11.332-17.656,26.836-16.739,911.846-16.716,916.244.042,7.6,7.658,17.551,66.683,27.118,45.084,7.306,847.867,11.52,888.5,13.766l.03,0c96.553,5.342,211.794,5.839,221.513-1.494C3026.342,1472.784,3032.884,1302.289,3034.6,1250.25Zm-241.748,227.575h-.033c-151.961-8.412-950.842-24.266-950.9-35.286-.366-67.99.971-890.243,15.681-912.6,6.656-10.12,864.776-16.527,995.4-9.3,123.313,6.825,171.052,21.151,174.609,32.283,12.92,40.414-1.057,911.184-15.729,924.2C3004.747,1482.5,2902.288,1483.883,2792.849,1477.825Z" transform="translate(-1636.254 19.476)"/>
  </g>
</svg>
