<svg xmlns="http://www.w3.org/2000/svg" width="516.172" height="552.512" viewBox="0 0 516.172 552.512">
  <defs>
    <style>
      .cls-1 {

        fill: #FFF;
      }

      .cls-1, .cls-2 {
        fill-rule: evenodd;
      }

      .cls-2 {
        fill: #FDC32C;
      }
    </style>
  </defs>
  <g id="Group_235" data-name="Group 235" transform="matrix(0.934, -0.358, 0.358, 0.934, 0, 84.063)">
    <path id="Path_474" data-name="Path 474" class="cls-1" d="M213.855.534a4.879,4.879,0,0,1-1.02,3.346,3.779,3.779,0,0,0-.684,2.508,3.549,3.549,0,0,1-1.167,2.971,2.8,2.8,0,0,0-.92,2.135,8.873,8.873,0,0,1-1.375,4.244,13.144,13.144,0,0,0-1.384,3.911c-.454,2.132-1.453,4.145-2.1,6.246-1.02,3.33-2.573,6.49-3.227,9.941a1.712,1.712,0,0,1-.288.838c-1.774,1.829-1.438,4.311-1.965,6.5a6.8,6.8,0,0,0,.3,2.942,1.831,1.831,0,0,0,1.628,1.549,2.073,2.073,0,0,0,2.253-1.139,22.768,22.768,0,0,0,1.747-3.8c.848-2.878,2.17-5.6,2.673-8.6a25.152,25.152,0,0,1,1.23-3.368c1.707-5.3,3.291-10.637,4.846-15.985,1.061-3.645,2.282-7.244,3.481-10.847a21.269,21.269,0,0,1,1.125-2.393c.873-.058.662.613.851,1a10.231,10.231,0,0,0,.608.973,75.672,75.672,0,0,0-1.685,10.351,44.536,44.536,0,0,1-1.588,7.616,93.929,93.929,0,0,1-3.377,10.84,43.193,43.193,0,0,0-1.661,6.972,5.284,5.284,0,0,0,.211,2.066.889.889,0,0,0,.643.527.948.948,0,0,0,.774-.336,7.584,7.584,0,0,0,.779-1.6c.407-1.125.759-2.264,1.125-3.373,2.357-.96,4.591.053,6.841.155a24.443,24.443,0,0,1,6.639,1.483,29.443,29.443,0,0,1-3.235,4.344c-1.808,1.713-3.881,3.158-5.192,5.365a3.876,3.876,0,0,1-1.139.946c-.882.64-1.783,1.261-2.675,1.9a9.932,9.932,0,0,1-.951.721,12.16,12.16,0,0,0-2.1,1.09,10,10,0,0,0-1.408,1.94,26.893,26.893,0,0,0,2.63,7.236,39.6,39.6,0,0,1,2.888,6.869,21.375,21.375,0,0,0,1.694,3.815A26.17,26.17,0,0,1,221.169,76a2.872,2.872,0,0,1-.718,3.535,5.251,5.251,0,0,0-.712,1.007c-1.577,0-3.175.114-4.751-.023-2.681-.239-5.342-.754-8.031-.929a7.82,7.82,0,0,1-4.78-2.218c-.821-.724-1.552-1.544-2.373-2.27a54.552,54.552,0,0,1-7.024-7.785c-1.641-2.138-3.42-4.175-5.1-6.287-.931-1.17-1.783-2.407-2.615-3.534-2.626-.413-5.162-.989-7.728-1.173-4.683-.336-9.306-1.164-13.977-1.621-6.069-.593-12.1-1.55-18.172-2.107a50.914,50.914,0,0,1-7.346-1.337c-1.544-.372-2.626.652-3.98.8-.56.058-.757.86-.6,1.508.427,1.741.909,3.473,1.3,5.223.91,4.1,1.75,8.214,2.675,12.311.46,2.048,1,4.08,1.575,6.1a86.365,86.365,0,0,1,2.314,9.278,61.664,61.664,0,0,0,1.694,6.054c.135.477.172.979.278,1.463a10.244,10.244,0,0,0,.663,2.612c1.075,1.982,1.24,4.181,1.775,6.295,1.021,4.069,2.081,8.13,3.26,12.154a22.245,22.245,0,0,1,.72,5.938,3.761,3.761,0,0,1-2.542,3.818,11.763,11.763,0,0,1-3.919-2.556c-2.526-2.42-4.87-5.021-7.188-7.643-2.242-2.537-4.188-5.317-6.669-7.671a40.806,40.806,0,0,1-4.044-5.2c-.48-.632-.881-1.327-1.389-1.933-2.163-2.592-4.355-5.161-6.532-7.743a4.456,4.456,0,0,1-.54-.723c-1.661-3.018-4.148-5.361-6.41-7.893a15.571,15.571,0,0,1-1.267-1.675c-.72-1.068-1.183-2.335-2.45-2.963-.233-.116-.339-.479-.513-.721q-2.717-3.764-5.431-7.529a34.524,34.524,0,0,1-2.063-2.935,41.344,41.344,0,0,0-6.96-8.521,4.456,4.456,0,0,1-.918-1.178,12.656,12.656,0,0,0-2.874-3.43c-.774-.765-1.384-1.691-2.11-2.5-2.123-2.379-4.272-4.735-6.4-7.108-.8-.889-1.6-1.779-2.335-2.722a2.922,2.922,0,0,0-2.007-1.129,104.892,104.892,0,0,0-11.275-1.528,2.812,2.812,0,0,1-.6-.074c-3.468-.946-7.041-1.3-10.568-1.91-3.839-.66-7.654-1.444-11.482-2.16-1.183-.219-2.365-.452-3.559-.582A113.227,113.227,0,0,1,25.4,32.48c-.289-.064-.7-.075-.835-.266-1.112-1.538-2.994-1.474-4.471-2.237a45.709,45.709,0,0,1-6.784-3.793A43.229,43.229,0,0,1,3.089,15.752a21.105,21.105,0,0,1-2.977-7.1A3.018,3.018,0,0,1,.9,5.615C1.944,4.577,2.766,3.281,4.324,2.6A10.705,10.705,0,0,1,4.959,4.25a13.992,13.992,0,0,0,3.382,6.525c.648.741,1.021,1.721,1.638,2.5.982,1.24,2.03,2.442,3.118,3.592a15.178,15.178,0,0,0,3.208,3.021c3.177,1.777,6.163,4.044,10.21,3.745a8.885,8.885,0,0,0,4.671-1.705,1.22,1.22,0,0,0,.466-1.586c-.768-1.669-1.672-3.216-3.684-3.654a9.258,9.258,0,0,1-3.443-1.78c-2.09-1.527-3.928-3.368-6.1-4.8a8.646,8.646,0,0,1-2-2.215A8.023,8.023,0,0,0,14.39,5.751C12.9,4.76,12.57,3.017,11.908,1.29A34.787,34.787,0,0,1,19.8.4C22.57.3,25.355.43,28.122.251A106.015,106.015,0,0,1,49.088.863a1.509,1.509,0,0,0,.3.041c3.41-.289,6.72.6,10.085.851,3.385.247,6.772.5,10.154.807,2.88.26,5.755.6,8.63.909,2.578.277,5.161.526,7.732.859,1.675.216,3.341.533,5,.854,3.143.608,6.3,1.051,9.494,1.345a35.1,35.1,0,0,1,8.2,1.718,29.364,29.364,0,0,0,6.123,1.372c4.261.518,8.467,1.331,12.7,1.983,4.15.638,8.32,1.131,12.467,1.76,2.467.374,4.912.9,7.368,1.337s4.912.846,7.366,1.276c3.443.6,6.869,1.392,10.338,1.777,4.4.488,8.621,1.8,12.988,2.384q4.005.537,7.989,1.184a2.47,2.47,0,0,0,1.966-.482q4.991-3.6,9.988-7.188c.734-.522,1.542-.943,2.229-1.514,1-.824,1.869-1.8,2.875-2.608,3.56-2.885,6.856-6.069,10.382-8.988C213.522.494,213.647.534,213.855.534ZM139.318,44.061a15.264,15.264,0,0,0,2.314-1.384,9.021,9.021,0,0,0,1.68-2.055,1.612,1.612,0,0,0-.538-2.131c-1.306-.674-2.553-1.572-4.158-1.444a1.529,1.529,0,0,0-1.441.882c-.461,1.087-.882,2.195-1.353,3.379C136.842,42.321,137.532,43.594,139.318,44.061Zm23.547-5.106c-.7-.329-1.142-.541-1.594-.754-1.833-.873-2.875-.817-3.786.809a15.024,15.024,0,0,0-1.093,4.172,1.058,1.058,0,0,0,.322.8c.494.468,1.056.86,1.535,1.24,2.157-.491,3-2.412,4.616-3.471ZM150,37.982c-2.6-.053-3.615,1.377-3.4,4.116.217,2.833,2.066,3.491,4.364,1.786a7.488,7.488,0,0,0,1.147-.957,2.575,2.575,0,0,0,.258-3.063C151.883,38.826,151.321,37.9,150,37.982Zm-43.417.451c1.958-1.535,2.606-3.157,2.032-5.112a3.1,3.1,0,0,0-2.783-1.91,2.294,2.294,0,0,0-2.254,2.007c-.352,2.742-.634,3.928,2.706,5A1.182,1.182,0,0,0,106.584,38.432Zm-65.251-11.4c.951.128,1.642.213,2.331.311a1.472,1.472,0,0,0,1.53-.713,6.246,6.246,0,0,0,.9-4.311,2.2,2.2,0,0,0-3.16-1.71,3.473,3.473,0,0,0-2.059,3.567C40.993,25.056,41.157,25.931,41.334,27.035ZM168.8,47.383a31.618,31.618,0,0,0,1.542-2.939,2.419,2.419,0,0,0-1.813-3.2,2.906,2.906,0,0,0-3.746,2.436,14.917,14.917,0,0,0,.009,2.5C166.086,46.978,167.053,47.973,168.8,47.383ZM50.411,23.149c.244,1.118.454,1.857.555,2.612a3,3,0,0,0,1.477,2.126A1.25,1.25,0,0,0,54.09,27.8a4.886,4.886,0,0,0,1.455-4.321A3.724,3.724,0,0,0,54.533,21.7a1.2,1.2,0,0,0-1.621-.288C52.08,21.932,51.3,22.528,50.411,23.149ZM64.84,26.711a9.975,9.975,0,0,0,.166-1.251,2.676,2.676,0,0,0-2.026-2.295A2.313,2.313,0,0,0,60.7,24.26a4.114,4.114,0,0,0-.319,3.721,2.769,2.769,0,0,0,2.63,1.619,2.2,2.2,0,0,0,1.816-2.066A2.433,2.433,0,0,0,64.84,26.711Zm19.987,7.116a6.905,6.905,0,0,0,2.015-3.288,1.768,1.768,0,0,0-.4-1.653,2.7,2.7,0,0,0-4.652.557,2.561,2.561,0,0,0,1.05,3.6A13.48,13.48,0,0,0,84.827,33.827Zm29.954,2.483c.089.682.136,1.377.283,2.045a1.256,1.256,0,0,0,1.542,1.032,3.778,3.778,0,0,0,2.806-4.984,2.011,2.011,0,0,0-3.185-.857A2.974,2.974,0,0,0,114.781,36.31ZM95.62,35.587c.848,0,1.336.034,1.822,0,1.669-.141,2.276-.81,2.282-2.421a3.631,3.631,0,0,0-1.261-2.894,1.554,1.554,0,0,0-1.632-.371,2.32,2.32,0,0,0-1.879,2.634A24.565,24.565,0,0,0,95.62,35.587Zm35.692-.593c-.429-.08-.915-.2-1.4-.247a2.384,2.384,0,0,0-2.664,1.467c-.522,1.161-.394,1.811.644,2.958a2.8,2.8,0,0,0,1.991,1.158C133.09,38.266,133.191,37.9,131.313,34.994Zm-56.7-5.236c-.191-.882-.324-1.647-.519-2.4-.455-1.732-1.983-2.181-3.387-1.051a3.092,3.092,0,0,0-1.19,2.307,2.978,2.978,0,0,0,1.653,2.561Q72.753,30.524,74.612,29.758ZM45.282,19.566c-.33-.066-.591-.131-.851-.161-.063-.008-.139.106-.211.166a2.3,2.3,0,0,0,.587.343C44.908,19.938,45.063,19.733,45.282,19.566Z" transform="translate(2.075 55.576)"/>
    <g id="Group_239" data-name="Group 239" transform="translate(0 0)">
      <path id="Path_475" data-name="Path 475" class="cls-1" d="M52.582,63.069c-2.96.38-5.583-.451-8.255-.716-2.174-.217-4.33-.6-6.493-.923-.69-.1-1.373-.244-2.065-.357-2.264-.366-4.549-.644-6.792-1.117s-4.441-1.117-6.648-1.71a10.287,10.287,0,0,0-1.4-.515c-2.587-.272-5.014-1.225-7.548-1.705-1.361-.258-2.784-.177-4.156-.407C6.391,55.141,3.566,54.56.737,54a2.473,2.473,0,0,1-.7-.385.917.917,0,0,1,.705-1.2c2.262-.649,3.925-2.353,6.012-3.312.989-.452,1.872-1.122,2.849-1.607a16.947,16.947,0,0,0,3.071-1.84,30.12,30.12,0,0,1,3.346-1.944,74.213,74.213,0,0,0,7.953-5.233c2.731-2.165,5.642-4.1,8.507-6.1C36.475,29.6,40.609,27.042,44.8,24.58a6.748,6.748,0,0,0,1.567-.87c2.109-2.232,4.963-3.287,7.473-4.884,2.088-1.336,4.017-2.927,6.141-4.194,2.306-1.377,4.253-3.362,6.922-4.136a4.479,4.479,0,0,0,1.015-.627c3.226-1.985,6.357-4.152,9.708-5.9C80.783,2.326,83.865.338,87.656,0a3.983,3.983,0,0,1,1.169,4.561c-.917,3.147-2.856,5.694-4.583,8.377-2.213,3.437-4.4,6.891-6.6,10.338-.052.084-.056.208-.124.271-1.788,1.649-2.744,3.9-4.2,5.777a58.847,58.847,0,0,0-4.255,6.514c-1.25,2.145-2.661,4.2-4.03,6.27-3.185,4.834-6.321,9.7-9.159,14.748-.693,1.233-2.1,2.273-1.6,4.014C53.734,61.573,53.191,62.275,52.582,63.069Z" transform="translate(84.321 2.168)"/>
      <g id="Group_238" data-name="Group 238">
        <path id="Path_476" data-name="Path 476" class="cls-2" d="M146.407,143.21a2.628,2.628,0,0,0,.6.341c3.767.887,4.813,3.867,5.453,7.127.194.976.21,1.984.341,2.972a14.542,14.542,0,0,1-.917,7.318,3.093,3.093,0,0,0-.266,1.713c.479,1.923.688,3.893,1.19,5.818a27.93,27.93,0,0,1,.762,9.831c-.21,2.148-1.694,3.524-3.377,4.682a18.651,18.651,0,0,1-8.578-5.212c-2.265-2.364-4.441-4.834-6.823-7.074a128.716,128.716,0,0,1-9.958-10.77c-3.471-4.1-6.676-8.417-10.1-12.553-.992-1.2-2.4-1.836-3.3-3.018-.837-1.1-1.237-2.581-2.188-3.542-2.407-2.431-4.2-5.314-6.288-7.976a4.008,4.008,0,0,1-.332-.5c-.737-1.3-2.3-1.843-2.863-3.385a16.585,16.585,0,0,0-2.157-3.9c-.918-1.289-2.081-2.4-3.11-3.609a11.867,11.867,0,0,1-1.447-1.9,33.282,33.282,0,0,0-5.863-7.136c-1.458-1.488-2.694-3.194-4-4.826-1.8-2.246-3.77-4.372-5.04-7.01a1.6,1.6,0,0,0-.95-.662A34.416,34.416,0,0,0,73.4,99c-3.538-.605-7.1-1.1-10.631-1.714-2.756-.48-5.489-1.1-8.239-1.608-3.236-.6-6.49-1.112-9.719-1.755-2.548-.507-5.11-1.017-7.591-1.774-3.363-1.031-6.845-1.417-10.255-2.179a8.24,8.24,0,0,1-1.752-.375c-2.786-1.344-5.542-2.755-8.313-4.134-3.545-1.769-6.144-4.768-9.24-7.128a13.1,13.1,0,0,1-2.706-3.186C3.191,72.515,1.267,69.973.4,66.827a7.672,7.672,0,0,1,1.453-7.565,11.378,11.378,0,0,1,5.523-3.887,24.747,24.747,0,0,1,6.115-1.233c3.685-.142,7.354-.644,11.033-.96,1.294-.116,2.6-.144,3.892-.185,1.7-.056,3.4-.1,5.1-.117,1.291-.009,2.581.053,3.875.07,2.482.038,4.963.02,7.443.113s4.959.307,7.44.449a7.031,7.031,0,0,0,1.187-.077c.4-.047.856-.3,1.172-.177,2.386.96,4.943.336,7.394.876a56.016,56.016,0,0,0,6.858.7,34.189,34.189,0,0,1,3.876.363,11.788,11.788,0,0,0,8.081-1.517,53.306,53.306,0,0,0,4.718-3.13,60.13,60.13,0,0,1,10.11-5.783,5.177,5.177,0,0,0,1.519-.956,33.227,33.227,0,0,1,7.634-5.192,20.713,20.713,0,0,0,3.861-3.247,7.116,7.116,0,0,1,2.684-1.852,7.34,7.34,0,0,0,1.764-1.07c1.153-.782,2.116-1.858,3.529-2.234,2.151-2.265,5.48-2.9,7.476-5.4a2.79,2.79,0,0,1,1.511-.914,11.822,11.822,0,0,0,4-1.979c2.764-1.782,5.741-3.266,8.345-5.25,2.561-1.952,5.408-3.387,8.106-5.065,2.529-1.564,5.029-3.288,7.978-4.116a7.124,7.124,0,0,0,2.154-1.045c2.706-1.91,5.88-2.917,8.693-4.583C167.564.31,170.414.208,173.289,0a1.31,1.31,0,0,1,1,.551c1.073,1.827,1.932,3.639,1.126,5.924a34.969,34.969,0,0,1-4.2,8.868,72.017,72.017,0,0,0-3.892,6.933c.194.829.447,1.786.641,2.758a3.687,3.687,0,0,1-.8,3.366c-1.517,1.727-2.931,3.543-4.46,5.262a4.957,4.957,0,0,1-4.194,1.569l-4.682,7c.222,1.275.455,2.544.655,3.815a2.324,2.324,0,0,1-.036.882c-.632,2.6-.892,5.384-3.43,7.061a1.454,1.454,0,0,0-.364.476,5.443,5.443,0,0,1-4.514,2.565c-.491.042-.984.1-1.489.152a11.686,11.686,0,0,0-2.447,4.805,29.678,29.678,0,0,1-1.375,3.836,2.862,2.862,0,0,0,1.014.538c1.982.238,3.922.648,5.877,1.029,2.03.394,4.136.615,6.207.912,3.557.505,7.132.893,10.639,1.73,2.038.486,4.125.787,6.188,1.183,1.375.263,2.745.54,4.116.813a24.233,24.233,0,0,0,5.026.615,48.237,48.237,0,0,1,6.855.619,4.574,4.574,0,0,0,3.415-.749c2.877-2,5.753-3.99,8.615-6.008a50.858,50.858,0,0,0,4.349-3.211c2.625-2.3,5.154-4.708,7.7-7.107a12.424,12.424,0,0,1,3.8-2.883A3.94,3.94,0,0,0,216.1,52.3c1.115-1.275,2.451-1.153,3.864-.782a12.971,12.971,0,0,0,2.3.594,3.31,3.31,0,0,1,2.789,2.005,8.074,8.074,0,0,1,.455,6.4,48.111,48.111,0,0,0-2.587,10.107,66.819,66.819,0,0,1-1.816,8.8c-.676,2.808-1.509,5.577-2.331,8.568a11.873,11.873,0,0,0,1.952.648c1.685.252,3.376.425,5.068.593a21.112,21.112,0,0,1,6.626,1.807,3.371,3.371,0,0,1,2.023,4.08,5.011,5.011,0,0,1-1.316,2.307c-1.552,1.547-2.991,3.2-4.519,4.768-.976,1-2.026,1.918-3.044,2.874-.07.067-.18.1-.25.164a32.472,32.472,0,0,1-3.141,3.2,30.935,30.935,0,0,1-3.786,2.226,8.523,8.523,0,0,0,1.142,4.457,45.22,45.22,0,0,1,2.753,6.6,8.7,8.7,0,0,0,.779,1.619,22.884,22.884,0,0,1,2.093,4.951,30.393,30.393,0,0,0,1.217,3.061c.368.917.723,1.838,1.051,2.67-.756,1.125-1.455,2.1-2.088,3.118a3.909,3.909,0,0,1-2.073,1.622,9.567,9.567,0,0,1-4.727.465c-2.872-.386-5.716-.954-8.579-1.4a13.214,13.214,0,0,0-2.068-.013,6.1,6.1,0,0,1-4.13-1.52c-1.051-.918-2.04-1.908-3.107-2.808a10.023,10.023,0,0,1-2.461-2.6,6.529,6.529,0,0,0-1.251-1.259A106.053,106.053,0,0,1,188.7,121.3a38.469,38.469,0,0,0-3.452-3.7,4.35,4.35,0,0,0-2.131-.924c-1.48-.26-3-.277-4.482-.505-3.454-.537-6.894-1.162-10.346-1.71-2.467-.4-4.948-.71-7.418-1.081-3.063-.457-6.065-1.383-9.21-1.219-2.8-1.122-5.933-.588-8.733-1.851a19.6,19.6,0,0,0-4.241-.87c-.565,1.434.574,2.745.618,4.18a11.349,11.349,0,0,0,1.162,4.325,12.613,12.613,0,0,1,6.243,2.819,2.669,2.669,0,0,1,1.062,1.735c.452,3.681.932,7.343-.133,11.022a5.714,5.714,0,0,1-1.849,3.327,1.579,1.579,0,0,0-.635,1.84C145.56,140.22,146,141.752,146.407,143.21ZM164.34,26.68a8.82,8.82,0,0,0-.809.795,9.476,9.476,0,0,0-.627,1.079,1.558,1.558,0,0,0,1.58-1.739c.82-.238,1.215-.685.815-1.876C164.88,25.7,164.611,26.191,164.34,26.68Zm51.59,29.43c-.208,0-.333-.041-.389.006-3.526,2.919-6.822,6.1-10.382,8.988-1.006.812-1.877,1.783-2.875,2.608-.687.571-1.5.992-2.229,1.514q-5,3.585-9.988,7.188a2.47,2.47,0,0,1-1.966.482q-3.987-.65-7.989-1.184c-4.367-.587-8.593-1.9-12.988-2.384-3.47-.385-6.9-1.175-10.338-1.777-2.454-.43-4.913-.838-7.366-1.276s-4.9-.964-7.368-1.337c-4.147-.629-8.317-1.122-12.467-1.76-4.235-.652-8.441-1.466-12.7-1.983a29.363,29.363,0,0,1-6.123-1.372,35.1,35.1,0,0,0-8.2-1.718c-3.2-.294-6.351-.737-9.494-1.345-1.661-.321-3.327-.638-5-.854-2.572-.333-5.154-.582-7.732-.859-2.875-.31-5.75-.649-8.63-.909-3.382-.31-6.769-.56-10.154-.807-3.365-.247-6.675-1.14-10.085-.851a1.509,1.509,0,0,1-.3-.041A106.015,106.015,0,0,0,30.2,55.827c-2.767.178-5.552.05-8.325.149a34.787,34.787,0,0,0-7.889.89c.662,1.727,1,3.47,2.482,4.461a8.024,8.024,0,0,1,2.029,2.138,8.646,8.646,0,0,0,2,2.215c2.176,1.433,4.014,3.274,6.1,4.8a9.258,9.258,0,0,0,3.443,1.78c2.012.438,2.916,1.985,3.684,3.654a1.22,1.22,0,0,1-.466,1.586,8.885,8.885,0,0,1-4.671,1.705c-4.047.3-7.033-1.968-10.21-3.745a15.178,15.178,0,0,1-3.208-3.021c-1.087-1.15-2.135-2.351-3.118-3.592-.616-.779-.99-1.758-1.638-2.5a13.992,13.992,0,0,1-3.382-6.525A10.705,10.705,0,0,0,6.4,58.174c-1.558.684-2.381,1.979-3.424,3.017a3.018,3.018,0,0,0-.788,3.036,21.106,21.106,0,0,0,2.977,7.1A43.229,43.229,0,0,0,15.39,81.76a45.709,45.709,0,0,0,6.784,3.793c1.477.763,3.359.7,4.471,2.237.139.191.546.2.835.266a113.225,113.225,0,0,0,12.075,2.3c1.194.13,2.376.363,3.559.582,3.828.716,7.643,1.5,11.482,2.16,3.527.608,7.1.964,10.568,1.91a2.812,2.812,0,0,0,.6.074,104.9,104.9,0,0,1,11.275,1.528,2.922,2.922,0,0,1,2.007,1.129c.732.943,1.538,1.833,2.335,2.722,2.127,2.373,4.277,4.729,6.4,7.108.726.813,1.336,1.739,2.11,2.5a12.657,12.657,0,0,1,2.874,3.43,4.456,4.456,0,0,0,.918,1.178,41.344,41.344,0,0,1,6.96,8.521,34.521,34.521,0,0,0,2.063,2.935q2.708,3.768,5.431,7.529c.174.242.28.605.513.721,1.267.627,1.73,1.894,2.45,2.963a15.571,15.571,0,0,0,1.267,1.675c2.262,2.533,4.749,4.876,6.41,7.893a4.456,4.456,0,0,0,.54.723c2.177,2.583,4.369,5.151,6.532,7.743.508.607.909,1.3,1.389,1.933a40.806,40.806,0,0,0,4.044,5.2c2.481,2.354,4.427,5.134,6.669,7.671,2.318,2.622,4.662,5.223,7.188,7.643a11.764,11.764,0,0,0,3.919,2.556,3.761,3.761,0,0,0,2.542-3.818,22.247,22.247,0,0,0-.72-5.938c-1.179-4.025-2.238-8.086-3.26-12.154-.535-2.113-.7-4.313-1.775-6.295a10.244,10.244,0,0,1-.663-2.612c-.106-.483-.144-.985-.278-1.463a61.66,61.66,0,0,1-1.694-6.054,86.361,86.361,0,0,0-2.314-9.278c-.579-2.018-1.115-4.05-1.575-6.1-.925-4.1-1.764-8.211-2.675-12.311-.39-1.75-.871-3.482-1.3-5.223-.16-.648.038-1.45.6-1.508,1.353-.144,2.436-1.169,3.98-.8a50.914,50.914,0,0,0,7.346,1.337c6.073.557,12.1,1.514,18.172,2.107,4.671.457,9.293,1.284,13.977,1.621,2.565.185,5.1.76,7.728,1.173.832,1.126,1.685,2.364,2.615,3.534,1.68,2.112,3.459,4.148,5.1,6.287a54.551,54.551,0,0,0,7.024,7.785c.821.726,1.552,1.546,2.373,2.27a7.82,7.82,0,0,0,4.78,2.218c2.689.175,5.35.69,8.031.929,1.575.138,3.174.023,4.751.023a5.251,5.251,0,0,1,.712-1.007,2.872,2.872,0,0,0,.718-3.535,26.171,26.171,0,0,0-1.491-3.573,21.378,21.378,0,0,1-1.694-3.815,39.6,39.6,0,0,0-2.888-6.869,26.893,26.893,0,0,1-2.63-7.236,10,10,0,0,1,1.408-1.94,12.162,12.162,0,0,1,2.1-1.09,9.932,9.932,0,0,0,.951-.721c.892-.637,1.793-1.258,2.675-1.9a3.876,3.876,0,0,0,1.139-.946c1.311-2.207,3.383-3.653,5.192-5.365a29.443,29.443,0,0,0,3.235-4.344A24.443,24.443,0,0,0,224.6,92.3c-2.249-.1-4.483-1.115-6.841-.155-.366,1.109-.718,2.248-1.125,3.373a7.584,7.584,0,0,1-.779,1.6.948.948,0,0,1-.774.336.889.889,0,0,1-.643-.527,5.285,5.285,0,0,1-.211-2.066,43.194,43.194,0,0,1,1.661-6.972,93.928,93.928,0,0,0,3.377-10.84,44.536,44.536,0,0,0,1.588-7.616,75.672,75.672,0,0,1,1.685-10.351,10.228,10.228,0,0,1-.608-.973c-.189-.385.022-1.056-.851-1a21.269,21.269,0,0,0-1.125,2.393c-1.2,3.6-2.42,7.2-3.481,10.847-1.555,5.348-3.139,10.684-4.846,15.985a25.152,25.152,0,0,0-1.23,3.368c-.5,3-1.825,5.719-2.673,8.6a22.768,22.768,0,0,1-1.747,3.8,2.073,2.073,0,0,1-2.253,1.139A1.831,1.831,0,0,1,202.1,101.7a6.8,6.8,0,0,1-.3-2.942c.527-2.193.191-4.676,1.965-6.5a1.713,1.713,0,0,0,.288-.838c.654-3.451,2.207-6.611,3.227-9.941.644-2.1,1.644-4.114,2.1-6.246a13.144,13.144,0,0,1,1.384-3.911,8.873,8.873,0,0,0,1.375-4.244,2.8,2.8,0,0,1,.92-2.135,3.549,3.549,0,0,0,1.167-2.971,3.779,3.779,0,0,1,.684-2.508A4.879,4.879,0,0,0,215.93,56.111ZM136.9,65.237c.609-.793,1.151-1.5,1.693-2.2-.5-1.741.91-2.781,1.6-4.014,2.838-5.046,5.974-9.914,9.159-14.748,1.369-2.074,2.78-4.125,4.03-6.27a58.847,58.847,0,0,1,4.255-6.514c1.456-1.877,2.412-4.128,4.2-5.777.067-.063.072-.186.124-.271,2.2-3.448,4.383-6.9,6.6-10.338,1.727-2.683,3.667-5.229,4.583-8.377a3.983,3.983,0,0,0-1.169-4.561c-3.792.338-6.873,2.326-10.029,3.969-3.351,1.749-6.482,3.915-9.708,5.9a4.479,4.479,0,0,1-1.015.627c-2.669.774-4.616,2.759-6.922,4.136-2.124,1.267-4.053,2.858-6.141,4.194-2.509,1.6-5.364,2.651-7.473,4.884a6.747,6.747,0,0,1-1.567.87c-4.192,2.462-8.327,5.024-12.319,7.806-2.864,1.993-5.775,3.931-8.507,6.1a74.214,74.214,0,0,1-7.953,5.233A30.121,30.121,0,0,0,97,47.826a16.946,16.946,0,0,1-3.071,1.84c-.976.485-1.86,1.154-2.849,1.607-2.087.959-3.75,2.662-6.012,3.312a.917.917,0,0,0-.705,1.2,2.473,2.473,0,0,0,.7.385c2.828.558,5.653,1.139,8.492,1.617,1.372.23,2.8.149,4.156.407,2.534.48,4.96,1.433,7.548,1.705a10.287,10.287,0,0,1,1.4.515c2.207.593,4.41,1.242,6.648,1.71s4.529.751,6.792,1.117c.691.113,1.375.255,2.065.357,2.163.322,4.319.705,6.493.923C131.32,64.786,133.943,65.617,136.9,65.237Zm6.845,67.782a.8.8,0,0,0,.843-.862c.13-2.462.239-4.927.269-7.4a4.237,4.237,0,0,0-.5-1.7,3.162,3.162,0,0,0-2.274-1.733,2.953,2.953,0,0,0-1.1.216c.519,2.1.912,4.045,1.494,5.935C143.038,129.3,142.581,131.395,143.748,133.018Zm5.746,21.326c.135-4.874-.124-5.9-1.893-7.6A21.067,21.067,0,0,0,149.494,154.344ZM148.349,51.923c1.874-.865,2.367-2.709,3.149-4.338.161-.328.012-.806,0-1.212A16.476,16.476,0,0,0,148.349,51.923Z"/>
        <g id="Group_237" data-name="Group 237" transform="translate(188.806 112.633)">
          <path id="Path_477" data-name="Path 477" class="cls-2" d="M7.891,9.868A8.584,8.584,0,0,1,7.6,8.779a12.956,12.956,0,0,1-.314-2.456c.034-1.057-1-1.481-1.194-2.371-.111-.51-.271-1.009-.416-1.511A3.155,3.155,0,0,0,3.553.3C2.286-.179,1.6-.131.728.787a2.29,2.29,0,0,0-.488,2.7q1.124,2.6,2.2,5.214C3,10.084,3.533,11.481,4.055,12.879a2.069,2.069,0,0,0,1.486,1.331,4.611,4.611,0,0,0,.8-.286A3.559,3.559,0,0,0,7.891,9.868Z" transform="translate(229.101 134.835)"/>
          <path id="Path_478" data-name="Path 478" class="cls-2" d="M7.643,13.756a1.327,1.327,0,0,0,1.542-1.264,2.361,2.361,0,0,0-.242-1.075A14.934,14.934,0,0,1,7.136,6.863a4.041,4.041,0,0,0-.593-1.2c-.66-1.261-1.3-2.533-1.99-3.779a5.541,5.541,0,0,0-1-1.472,1.647,1.647,0,0,0-1.215-.4A2.976,2.976,0,0,0,.067,3.371a28.053,28.053,0,0,0,1.19,3.642c.465,1.068.829,2.259,2.063,2.828a1.32,1.32,0,0,1,.594.892C4.265,12.869,5.883,13.389,7.643,13.756Z" transform="translate(171.064 185.985)"/>
          <path id="Path_479" data-name="Path 479" class="cls-2" d="M3.858,11.849A2.866,2.866,0,0,0,6.8,13.859a5.565,5.565,0,0,0,1.411-.341c.782-1.388.942-2.628-.011-3.89A5.873,5.873,0,0,1,7.565,8.19,67.687,67.687,0,0,0,3.755,1.072,1.908,1.908,0,0,0,1.682.048,2.216,2.216,0,0,0,0,1.958,8.019,8.019,0,0,0,1.033,6.273,31.791,31.791,0,0,1,3.858,11.849Z" transform="translate(172.089 115.911)"/>
          <path id="Path_480" data-name="Path 480" class="cls-2" d="M5.747,9.587A68.171,68.171,0,0,0,4.38,1.631,1.91,1.91,0,0,0,2.737,0,2.217,2.217,0,0,0,.542,1.289,8,8,0,0,0,.155,5.708a31.814,31.814,0,0,1,.918,6.18,2.874,2.874,0,0,0,2.159,2.839,5.592,5.592,0,0,0,1.444.12C5.856,13.776,6.4,12.65,5.9,11.153A5.8,5.8,0,0,1,5.747,9.587Z" transform="translate(201.606 250.871)"/>
          <path id="Path_481" data-name="Path 481" class="cls-2" d="M5,13.453c-.263-1.474.5-2.972-.106-4.439a5.709,5.709,0,0,0-.028-3.326,5.139,5.139,0,0,1,.1-1.336l.239,0C5.137,3.3,5.12,2.254,4.976,1.215A1.38,1.38,0,0,0,3.351.006,2.038,2.038,0,0,0,1.363,1.58,33,33,0,0,0,.488,6.434,14.713,14.713,0,0,1,.2,8.644a2.289,2.289,0,0,0-.188.874c.321,1.621.638,3.249,1.062,4.845a1.61,1.61,0,0,0,2.353,1,6.558,6.558,0,0,0,.981-.552A1.362,1.362,0,0,0,5,13.453Z" transform="translate(166.154 160.364)"/>
          <path id="Path_482" data-name="Path 482" class="cls-2" d="M10.937,5c-1.45-.91-2.609-2.3-4.4-2.664a1.226,1.226,0,0,1-.529-.411C5.123.962,3.607,1.12,2.747.1,2.672.008,2.459.034,2.313,0c-.776-.05-1.23.521-1.735.95a1.472,1.472,0,0,0-.288,2.03A7,7,0,0,0,2.6,5.068,12.428,12.428,0,0,1,5.763,7.16,5.853,5.853,0,0,0,7.3,8.047q1.779.706,3.612,1.275a3.479,3.479,0,0,0,1.52.156,1.119,1.119,0,0,0,.8-1.729A7.474,7.474,0,0,0,10.937,5Z" transform="translate(81.979 12.266)"/>
          <path id="Path_483" data-name="Path 483" class="cls-2" d="M9.03,13.264c1.289-.981,1.561-1.793.829-3.216A31.027,31.027,0,0,0,8.019,7.24c-.242-.371-.623-.727-.665-1.128a2.425,2.425,0,0,0-1.2-1.818A9.428,9.428,0,0,1,2.884.934,2.247,2.247,0,0,0,1.635.066a1.248,1.248,0,0,0-1.6,1.52c.206.951.48,1.893.712,2.842A4.161,4.161,0,0,0,2.331,7.035,23.637,23.637,0,0,1,5.033,9.7,5.2,5.2,0,0,0,9.03,13.264Z" transform="translate(182.505 205.552)"/>
          <path id="Path_484" data-name="Path 484" class="cls-2" d="M1.379,4.313A10.347,10.347,0,0,1,5.1,5.841a2.792,2.792,0,0,0,1.281.382,6.806,6.806,0,0,1,3.757,1.366,3.337,3.337,0,0,0,3.743.379A8.025,8.025,0,0,0,9.86,3.31c-1.355-.655-2.7-1.337-4.075-1.937C4.687.893,3.545.5,2.4.109a1.816,1.816,0,0,0-1.07-.05A1.84,1.84,0,0,0,.01,1.952C.116,2.928.219,4.1,1.379,4.313Z" transform="translate(59.506 0)"/>
          <path id="Path_485" data-name="Path 485" class="cls-2" d="M3.628,7.568A2.148,2.148,0,0,0,4.4,7.131,15.239,15.239,0,0,1,9.04,4.458a4.41,4.41,0,0,0,2.569-2.187A10.3,10.3,0,0,0,10.675.78,2.03,2.03,0,0,0,8.241.167a34.638,34.638,0,0,0-6.19,2.639A3.45,3.45,0,0,0,.145,5.361C.066,5.872.048,6.395,0,6.925L1.98,7.954C2.608,7.809,3.122,7.72,3.628,7.568Z" transform="translate(191.599 125.33)"/>
          <path id="Path_486" data-name="Path 486" class="cls-2" d="M3.472,0C2.815.333,2.213.637,1.48,1.007,1.229,1.6,1,2.076.834,2.573a2.107,2.107,0,0,0-.1.879A15.256,15.256,0,0,1,.2,8.782a4.4,4.4,0,0,0,.277,3.362,10.44,10.44,0,0,0,1.755.116,2.037,2.037,0,0,0,1.918-1.621A34.447,34.447,0,0,0,5.62,4.069a3.445,3.445,0,0,0-.965-3.035C4.286.67,3.878.349,3.472,0Z" transform="translate(200.739 278.243)"/>
          <path id="Path_487" data-name="Path 487" class="cls-2" d="M10.276,1.613c-.852-.188-1.655-.355-2.456-.541A5.329,5.329,0,0,1,5.908.548,2.46,2.46,0,0,0,3.174.3,1.831,1.831,0,0,1,2.3.481,2.061,2.061,0,0,0,0,2.075C.117,3.537,1.425,4.01,2.1,4.98c.468.042.915.113,1.366.119a22.574,22.574,0,0,1,6.19.745,2.213,2.213,0,0,0,2.662-1.122C12.245,3.212,11.064,2.524,10.276,1.613Z" transform="translate(213.214 123.473)"/>
          <path id="Path_488" data-name="Path 488" class="cls-2" d="M7.73.161A11.9,11.9,0,0,0,4.94,1.945,7.006,7.006,0,0,1,2.3,3.573C.108,4.373-.469,5.84.363,8.3a3.343,3.343,0,0,0,4.258-.773c.824-.912.946-.824,2.717-1.029C8.13,5.306,8.951,4.067,9.87,2.686A11.734,11.734,0,0,0,9.7,1.059,1.367,1.367,0,0,0,7.73.161Z" transform="translate(226.039 157.067)"/>
          <path id="Path_489" data-name="Path 489" class="cls-2" d="M8.9,2.366A8.7,8.7,0,0,1,5,.691,3.585,3.585,0,0,0,.936.574,1.785,1.785,0,0,0,.071,2.695,3.1,3.1,0,0,0,2.113,4.954c1.625.6,3.285,1.1,4.94,1.617a3.364,3.364,0,0,0,3.839-1.217,8.941,8.941,0,0,1-.077-.9A1.935,1.935,0,0,0,8.9,2.366Z" transform="translate(202.127 161.243)"/>
          <path id="Path_490" data-name="Path 490" class="cls-2" d="M7.986,7.528c-.186-.569-.3-1.165-.5-1.732-.145-.421-.264-.975-.582-1.189A9.841,9.841,0,0,1,4.568,1.9,7.122,7.122,0,0,0,2.941.363,1.819,1.819,0,0,0,.075,1.414,2.676,2.676,0,0,0,.23,3.141,35.6,35.6,0,0,0,2.534,7,7.891,7.891,0,0,0,6.9,10.28C8.51,9.116,8.5,9.116,7.986,7.528Z" transform="translate(185.817 144.887)"/>
          <path id="Path_491" data-name="Path 491" class="cls-2" d="M9.472,8.528a4.314,4.314,0,0,0-.436-1.494c-.76-1.373-1.313-2.9-2.672-3.872a1.722,1.722,0,0,1-.5-.74C5.148.7,3.468.533,2.252.028A1.735,1.735,0,0,0,.3.826,1.685,1.685,0,0,0,.3,2.75,7.136,7.136,0,0,0,2.449,5.037a6.383,6.383,0,0,1,2,2.07c.785,1.342,2.253,1.943,3.6,2.572A1.008,1.008,0,0,0,9.472,8.528Z" transform="translate(135.348 60.431)"/>
          <path id="Path_492" data-name="Path 492" class="cls-2" d="M2.108,10.949A4.051,4.051,0,0,0,3.5,9.539a26.411,26.411,0,0,1,2.55-3.67C7.078,4.4,8.116,2.943,9.058,1.419,9.584.568,9.174-.009,8.149,0A4.012,4.012,0,0,0,5.224.907C4.3,1.929,2.964,2.741,2.673,4.189A2.872,2.872,0,0,1,1.614,6.071a4.7,4.7,0,0,0-1.6,3.088,4.145,4.145,0,0,0,.038.914A1.28,1.28,0,0,0,2.108,10.949Z" transform="translate(171.364 138.157)"/>
          <path id="Path_493" data-name="Path 493" class="cls-2" d="M5.472,3.876a2.7,2.7,0,0,1-1.419-1.7A4.8,4.8,0,0,0,2.486.079C1.592.021.766-.185,0,.439A9.712,9.712,0,0,0,1.714,5.748c.607.767,1.308,1.456,1.941,2.2A3.525,3.525,0,0,0,8.189,9.132a2.381,2.381,0,0,0-.3-2.651C7.13,5.575,6.658,4.43,5.472,3.876Z" transform="translate(149.645 78.081)"/>
          <path id="Path_494" data-name="Path 494" class="cls-2" d="M.821.034a2.7,2.7,0,0,0-.6,2.978c.5,1.247.607,2.656,1.7,3.671a3.083,3.083,0,0,1,.942,2.339,5.426,5.426,0,0,0,.962,2.827c.946.379,1.768.892,2.825.486.452-2.167.79-4.263.006-6.357-.391-1.04-.907-2.037-1.334-3.069C4.517.967,3.224-.218.821.034Z" transform="translate(195.128 227.436)"/>
          <path id="Path_495" data-name="Path 495" class="cls-2" d="M1.685,5.14A6.635,6.635,0,0,0,4.823,9.557a6,6,0,0,1,.474.482A1.348,1.348,0,0,0,7.429,9.79a1.4,1.4,0,0,0,.056-1.5A5.461,5.461,0,0,1,6.5,5.806a.932.932,0,0,0-.336-.571A7.121,7.121,0,0,1,4.311,1.952,2.9,2.9,0,0,0,1.96.035C.821-.121.3.242.091,1.132a2.361,2.361,0,0,0,.4,2.131A4.976,4.976,0,0,1,1.685,5.14Z" transform="translate(162.41 97.984)"/>
          <path id="Path_496" data-name="Path 496" class="cls-2" d="M13.718,2.1a4.63,4.63,0,0,0-.38-.757A3.561,3.561,0,0,0,9.122.3,8.843,8.843,0,0,1,8.078.715a13.132,13.132,0,0,1-2.4.612C4.625,1.42,4.33,2.5,3.469,2.8c-.493.172-.968.391-1.447.6A3.147,3.147,0,0,0,.156,5.766C-.166,7.085-.035,7.76.982,8.513a2.293,2.293,0,0,0,2.741.153q2.44-1.431,4.909-2.817c1.3-.726,2.622-1.422,3.947-2.112A2.07,2.07,0,0,0,13.718,2.1Z" transform="translate(46.58 366.56)"/>
          <path id="Path_497" data-name="Path 497" class="cls-2" d="M11.592.005a2.354,2.354,0,0,0-1.036.372,15.026,15.026,0,0,1-4.3,2.348,4.036,4.036,0,0,0-1.122.737c-1.17.807-2.351,1.6-3.509,2.432A5.549,5.549,0,0,0,.288,7.069,1.635,1.635,0,0,0,.039,8.326a2.975,2.975,0,0,0,3.61,1.841A27.4,27.4,0,0,0,7.121,8.54c1-.588,2.14-1.1,2.556-2.39a1.31,1.31,0,0,1,.812-.7c2.076-.608,2.393-2.276,2.545-4.067A1.328,1.328,0,0,0,11.592.005Z" transform="translate(104.398 416.617)"/>
          <path id="Path_498" data-name="Path 498" class="cls-2" d="M8.819.894A5.818,5.818,0,0,1,7.47,1.7a67.7,67.7,0,0,0-6.6,4.647A1.91,1.91,0,0,0,.106,8.534a2.226,2.226,0,0,0,2.1,1.431A8.048,8.048,0,0,0,6.364,8.417a31.817,31.817,0,0,1,5.189-3.482,2.871,2.871,0,0,0,1.636-3.168A5.556,5.556,0,0,0,12.678.411C11.207-.2,9.957-.2,8.819.894Z" transform="translate(34.772 424.577)"/>
          <path id="Path_499" data-name="Path 499" class="cls-2" d="M14.61.485A1.366,1.366,0,0,0,13.185.063C11.76.5,10.179-.07,8.793.71a5.744,5.744,0,0,0-3.3.432A5.118,5.118,0,0,1,4.159,1.2c-.013-.077-.023-.16-.033-.238-1.026.2-2.071.341-3.082.61a1.385,1.385,0,0,0-1,1.761A2.043,2.043,0,0,0,1.847,5.118a33.084,33.084,0,0,0,4.923.275A14.53,14.53,0,0,1,9,5.416a2.324,2.324,0,0,0,.89.077c1.569-.515,3.147-1.028,4.68-1.644a1.611,1.611,0,0,0,.709-2.456A6.287,6.287,0,0,0,14.61.485Z" transform="translate(79.434 428.593)"/>
          <path id="Path_500" data-name="Path 500" class="cls-2" d="M8.926.574A30.022,30.022,0,0,0,6.363,2.743c-.336.285-.648.7-1.037.8A2.423,2.423,0,0,0,3.668,4.954,9.46,9.46,0,0,1,.732,8.607,2.211,2.211,0,0,0,.025,9.951a1.246,1.246,0,0,0,1.7,1.4c.917-.322,1.819-.707,2.733-1.053A4.181,4.181,0,0,0,6.854,8.411,23.51,23.51,0,0,1,9.174,5.4,5.208,5.208,0,0,0,12.222,1C11.091-.158,10.252-.325,8.926.574Z" transform="translate(122.582 401.938)"/>
          <path id="Path_501" data-name="Path 501" class="cls-2" d="M7.667,6.561A15.233,15.233,0,0,1,4.448,2.282,4.4,4.4,0,0,0,1.964,0,10.5,10.5,0,0,0,.6,1.107,2.035,2.035,0,0,0,.287,3.6,34.35,34.35,0,0,0,3.661,9.418,3.455,3.455,0,0,0,6.43,11c.518.017,1.037-.03,1.569-.047.258-.687.491-1.319.781-2.088-.22-.605-.372-1.109-.585-1.588A2.1,2.1,0,0,0,7.667,6.561Z" transform="translate(40.88 402.473)"/>
          <path id="Path_502" data-name="Path 502" class="cls-2" d="M.751,10.459a2.058,2.058,0,0,0,1.865,2.088c1.436-.294,1.746-1.65,2.626-2.439-.019-.468,0-.923-.05-1.37A22.436,22.436,0,0,1,5.179,2.5,2.214,2.214,0,0,0,3.739,0C2.249.255,1.711,1.511.906,2.406.82,3.274.752,4.091.665,4.907A5.3,5.3,0,0,1,.379,6.869,2.459,2.459,0,0,0,.465,9.614,1.864,1.864,0,0,1,.751,10.459Z" transform="translate(36.973 380.243)"/>
          <path id="Path_503" data-name="Path 503" class="cls-2" d="M7.934,4.621c-1-.71-.934-.84-1.353-2.575C5.306,1.408,3.976.741,2.492,0A11.618,11.618,0,0,0,.9.366,1.369,1.369,0,0,0,.247,2.431,12,12,0,0,0,2.355,4.982,7,7,0,0,1,4.3,7.405C5.354,9.481,6.884,9.875,9.22,8.749A3.34,3.34,0,0,0,7.934,4.621Z" transform="translate(68.28 366.097)"/>
          <path id="Path_504" data-name="Path 504" class="cls-2" d="M5.042,8.763c.393-1.688.693-3.395,1-5.1A3.367,3.367,0,0,0,4.371,0c-.3.066-.59.152-.881.186A1.934,1.934,0,0,0,1.647,2.345,8.722,8.722,0,0,1,.46,6.417a3.578,3.578,0,0,0,.375,4.045,1.788,1.788,0,0,0,2.215.6A3.1,3.1,0,0,0,5.042,8.763Z" transform="translate(75.985 387.982)"/>
          <path id="Path_505" data-name="Path 505" class="cls-2" d="M6.736.465c-.546.252-1.122.44-1.658.7-.4.2-.935.38-1.109.724a9.827,9.827,0,0,1-2.4,2.648A7.179,7.179,0,0,0,.24,6.347,1.816,1.816,0,0,0,1.629,9.061a2.64,2.64,0,0,0,1.7-.366A35.051,35.051,0,0,0,6.877,5.938,7.905,7.905,0,0,0,9.6,1.2C8.251-.248,8.251-.244,6.736.465Z" transform="translate(61.884 408.319)"/>
          <path id="Path_506" data-name="Path 506" class="cls-2" d="M10.056,4.681A26.072,26.072,0,0,1,6.1,2.6C4.521,1.753,2.946.9,1.318.151.409-.266-.114.209.021,1.228A4,4,0,0,0,1.277,4.02C2.4,4.808,3.372,6.041,4.845,6.153a2.852,2.852,0,0,1,2,.82A4.7,4.7,0,0,0,10.1,8.19a4.283,4.283,0,0,0,.9-.149,1.28,1.28,0,0,0,.616-2.154A4.075,4.075,0,0,0,10.056,4.681Z" transform="translate(56.19 423.477)"/>
          <path id="Path_507" data-name="Path 507" class="cls-2" d="M5.692.759C4.887,1.618,3.806,2.227,3.4,3.472A2.718,2.718,0,0,1,1.893,5.086,4.762,4.762,0,0,0,0,6.9c.047.893-.053,1.738.659,2.425a9.727,9.727,0,0,0,5.06-2.351C6.406,6.275,7,5.5,7.668,4.776A3.526,3.526,0,0,0,8.289.134,2.39,2.39,0,0,0,5.692.759Z" transform="translate(0 452.296)"/>
          <path id="Path_508" data-name="Path 508" class="cls-2" d="M9.015.163A1.4,1.4,0,0,0,7.52.29,5.423,5.423,0,0,1,5.175,1.574a.919.919,0,0,0-.524.4A7.132,7.132,0,0,1,1.619,4.213,2.906,2.906,0,0,0,0,6.781C-.015,7.928.407,8.4,1.318,8.5A2.365,2.365,0,0,0,3.384,7.85,4.973,4.973,0,0,1,5.1,6.431a6.622,6.622,0,0,0,4-3.653,6.025,6.025,0,0,1,.419-.529A1.349,1.349,0,0,0,9.015.163Z" transform="translate(18.216 437.846)"/>
          <path id="Path_509" data-name="Path 509" class="cls-2" d="M4.178,5.736C5.556,7.374,7.308,7.33,9.1,7.367a1.023,1.023,0,0,0,.928-1.461C9.215,4.4,8.51,2.786,6.817,1.969,5.667,1.415,4.544.807,3.412.219A1.377,1.377,0,0,0,1.733.358C1.176.847.629,1.342,0,1.9A41.165,41.165,0,0,1,4.178,5.736Z" transform="translate(104.719 29.42)"/>
          <path id="Path_510" data-name="Path 510" class="cls-2" d="M2.735,5.34C4.356,7.208,6.544,7.464,8.748,7.663c.12-.246.253-.386.236-.507C8.651,4.61,6.826,3.2,4.88,1.929c-.271-.178-.673-.213-.907-.524a7.935,7.935,0,0,0-.7-.881A2.478,2.478,0,0,0,.753.217,2.011,2.011,0,0,0,.088,2.432,3.73,3.73,0,0,0,1.67,4.547,5.409,5.409,0,0,1,2.735,5.34Z" transform="translate(121.223 45.458)"/>
          <path id="Path_511" data-name="Path 511" class="cls-2" d="M7.74,1.7A1.869,1.869,0,0,0,6.162.054,1.9,1.9,0,0,0,4.178.8,7.7,7.7,0,0,0,2.641,3.835a6.788,6.788,0,0,1-1.369,2.8C.192,7.941.138,9.646,0,11.24a1.1,1.1,0,0,0,1.738.989,4.851,4.851,0,0,0,1.373-1.015C4.244,9.917,5.6,8.778,6.085,7.038a1.909,1.909,0,0,1,.571-.79C8.159,4.872,7.688,3.117,7.74,1.7Z" transform="translate(175.094 342.113)"/>
          <path id="Path_512" data-name="Path 512" class="cls-2" d="M2.894,3.147c-.666.832-1.225,1.738-1.863,2.594C-.163,7.344-.48,8.968.943,10.767a2.66,2.66,0,0,0,2.763-.992c.777-1.02,1.882-1.808,2.17-3.186A2.922,2.922,0,0,1,7.324,4.672,5.159,5.159,0,0,0,9.168,2.5C9,1.555,9.01.638,8.142,0,6.121.709,4.221,1.48,2.894,3.147Z" transform="translate(161.371 363.268)"/>
          <path id="Path_513" data-name="Path 513" class="cls-2" d="M8.878,0A2.656,2.656,0,0,0,6.649.842a5.422,5.422,0,0,1-1.8,1.636A7.249,7.249,0,0,0,.7,6.661a6.291,6.291,0,0,1-.427.6,1.432,1.432,0,0,0,.7,2.2,1.58,1.58,0,0,0,1.642-.236A6.054,6.054,0,0,1,5.1,7.692a1.02,1.02,0,0,0,.554-.471,7.791,7.791,0,0,1,3.185-2.6,3.09,3.09,0,0,0,1.6-2.858C10.384.531,9.89.052,8.878,0Z" transform="translate(143.078 382.769)"/>
          <path id="Path_514" data-name="Path 514" class="cls-2" d="M5.226,1.137C4.507.771,3.786.41,2.961,0A44.161,44.161,0,0,1,.615,5.669C-.546,7.684.177,9.425.826,11.233a1.134,1.134,0,0,0,1.865.368C3.939,10.207,5.33,8.877,5.52,6.864c.13-1.366.325-2.73.5-4.092A1.466,1.466,0,0,0,5.226,1.137Z" transform="translate(193.988 300.617)"/>
          <path id="Path_515" data-name="Path 515" class="cls-2" d="M5.312.312A2.259,2.259,0,0,0,2.768.5,4.044,4.044,0,0,0,1.19,2.9,5.593,5.593,0,0,1,.783,4.273C-.521,6.621.057,8.915.7,11.2c.3.028.5.111.616.042,2.5-1.316,3.26-3.693,3.822-6.135.072-.339-.044-.756.186-1.111a9.357,9.357,0,0,0,.646-1.04A2.607,2.607,0,0,0,5.312.312Z" transform="translate(186.771 322.127)"/>
        </g>
        <path id="Path_516" data-name="Path 516" class="cls-2" d="M3.5,7.027C1.71,6.56,1.02,5.287,0,4.273.471,3.089.892,1.982,1.353.895A1.529,1.529,0,0,1,2.794.012c1.6-.128,2.852.77,4.158,1.444A1.612,1.612,0,0,1,7.49,3.587,9.021,9.021,0,0,1,5.81,5.642,15.264,15.264,0,0,1,3.5,7.027Z" transform="translate(137.898 92.61)"/>
        <path id="Path_517" data-name="Path 517" class="cls-2" d="M6.481,1.315v2.8C4.865,5.169,4.022,7.09,1.864,7.581,1.386,7.2.824,6.809.33,6.341a1.058,1.058,0,0,1-.322-.8A15.024,15.024,0,0,1,1.1,1.37C2.012-.256,3.053-.312,4.887.561,5.339.774,5.785.986,6.481,1.315Z" transform="translate(158.46 93.216)"/>
        <path id="Path_518" data-name="Path 518" class="cls-2" d="M3.431,0C4.751-.075,5.313.85,5.8,1.887a2.575,2.575,0,0,1-.258,3.063,7.489,7.489,0,0,1-1.147.957C2.093,7.612.244,6.953.027,4.12-.184,1.381.836-.048,3.431,0Z" transform="translate(148.645 93.553)"/>
        <path id="Path_519" data-name="Path 519" class="cls-2" d="M3.207,7.022a1.183,1.183,0,0,1-.3-.016C-.432,5.935-.15,4.749.2,2.007A2.294,2.294,0,0,1,2.456,0,3.1,3.1,0,0,1,5.239,1.91C5.813,3.866,5.165,5.488,3.207,7.022Z" transform="translate(105.453 86.986)"/>
        <path id="Path_520" data-name="Path 520" class="cls-2" d="M.479,6.622C.3,5.517.138,4.643.025,3.765A3.473,3.473,0,0,1,2.084.2a2.2,2.2,0,0,1,3.16,1.71,6.246,6.246,0,0,1-.9,4.311,1.472,1.472,0,0,1-1.53.713C2.122,6.834,1.43,6.75.479,6.622Z" transform="translate(42.93 75.989)"/>
        <path id="Path_521" data-name="Path 521" class="cls-2" d="M4.075,6.229c-1.75.59-2.717-.405-4.008-1.2a14.916,14.916,0,0,1-.009-2.5A2.906,2.906,0,0,1,3.8.093a2.419,2.419,0,0,1,1.813,3.2A31.615,31.615,0,0,1,4.075,6.229Z" transform="translate(166.804 96.73)"/>
        <path id="Path_522" data-name="Path 522" class="cls-2" d="M0,1.932C.885,1.311,1.669.715,2.5.2A1.2,1.2,0,0,1,4.122.485,3.724,3.724,0,0,1,5.134,2.257,4.886,4.886,0,0,1,3.679,6.578a1.25,1.25,0,0,1-1.647.092A3,3,0,0,1,.555,4.544C.454,3.789.244,3.05,0,1.932Z" transform="translate(52.486 76.794)"/>
        <path id="Path_523" data-name="Path 523" class="cls-2" d="M4.75,3.582a2.433,2.433,0,0,1-.013.823A2.2,2.2,0,0,1,2.921,6.471,2.769,2.769,0,0,1,.292,4.852,4.114,4.114,0,0,1,.611,1.131,2.313,2.313,0,0,1,2.89.036,2.676,2.676,0,0,1,4.916,2.331,9.978,9.978,0,0,1,4.75,3.582Z" transform="translate(62.166 78.705)"/>
        <path id="Path_524" data-name="Path 524" class="cls-2" d="M3.384,6.026a13.479,13.479,0,0,1-1.991-.787,2.561,2.561,0,0,1-1.05-3.6A2.7,2.7,0,0,1,5,1.085a1.768,1.768,0,0,1,.4,1.653A6.905,6.905,0,0,1,3.384,6.026Z" transform="translate(83.518 83.377)"/>
        <path id="Path_525" data-name="Path 525" class="cls-2" d="M.011,3.228A2.974,2.974,0,0,1,1.458.464a2.011,2.011,0,0,1,3.185.857A3.778,3.778,0,0,1,1.837,6.305,1.256,1.256,0,0,1,.294,5.273C.147,4.605.1,3.91.011,3.228Z" transform="translate(116.845 88.657)"/>
        <path id="Path_526" data-name="Path 526" class="cls-2" d="M.68,5.786A24.566,24.566,0,0,1,.014,2.729,2.32,2.32,0,0,1,1.892.095,1.554,1.554,0,0,1,3.524.465,3.631,3.631,0,0,1,4.785,3.359C4.779,4.971,4.172,5.64,2.5,5.781,2.016,5.82,1.528,5.786.68,5.786Z" transform="translate(97.016 85.377)"/>
        <path id="Path_527" data-name="Path 527" class="cls-2" d="M4.368.266C6.247,3.17,6.145,3.538,2.935,5.6A2.8,2.8,0,0,1,.944,4.444C-.095,3.3-.223,2.646.3,1.486A2.384,2.384,0,0,1,2.964.018C3.453.065,3.94.186,4.368.266Z" transform="translate(129.02 90.305)"/>
        <path id="Path_528" data-name="Path 528" class="cls-2" d="M5.1,4.068q-1.856.763-3.443,1.42A2.978,2.978,0,0,1,0,2.928,3.092,3.092,0,0,1,1.193.62C2.6-.509,4.125-.06,4.58,1.672,4.775,2.421,4.908,3.186,5.1,4.068Z" transform="translate(71.588 81.266)"/>
      </g>
    </g>
  </g>
</svg>
