<svg xmlns="http://www.w3.org/2000/svg" width="85.749" height="52.9" viewBox="0 0 85.749 52.9">
  <defs>
    <style>
      .cls-1 {
        fill: #1874b9;
      }
    </style>
  </defs>
  <g id="Group_2369" data-name="Group 2369" transform="translate(-203.552 -297.688)">
    <path id="Path_2297" data-name="Path 2297" class="cls-1" d="M-496.519,278.975a3.711,3.711,0,0,0-2.876-1.8c-.06-.072-.12-.138-.18-.205a7.215,7.215,0,0,0-.728-.7,4.6,4.6,0,0,0-2.13-1.11,16.006,16.006,0,0,0-5.348-.19l-.565-.726-.242.055.19.725s-.62.08-1.884.269-26.635,5.429-26.635,5.429-19.812-5.885-22.041-6.611a10.113,10.113,0,0,1-3.924-2.125c-.4-.43-2.176-2.876-2.848-3.492s-1.129-.244-1.129-.244,1.208,2.581,2.016,4.437,3.492,2.767,5.053,3.44c.582.251,2.834,1.174,5.428,2.231-.271.138-.652.332-.793.416-.228.134-.658.47-.658.47v.282a5.727,5.727,0,0,0,3.391-.377l5.138,2.089a5.161,5.161,0,0,0-1.42.923l-.026.255s.712.209,3.376-.394l.641.259-8.059,1.669a3.63,3.63,0,0,0-.313-.324c-.067-.041-.2.026-.2.026l.084.388-2.154.445a4.214,4.214,0,0,1-2.929-1.533l-7.285-8.437c-.619-.968-2.016-.513-2.016-.513l-2.2.484,2.661,12.5S-575.515,285-576.3,285a9.171,9.171,0,0,0-2.175.486l8.278,3.385a7.7,7.7,0,0,0-1.4.942.954.954,0,0,0-.055.808.538.538,0,0,0,.441.357l8.485,1.147a5.917,5.917,0,0,0,1.369.7c.244-.026,1.721-.376,1.721-.376a58.547,58.547,0,0,0,20.535-1.291,23.041,23.041,0,0,0,4.68.243c.5-.049,2.616-.4,5.01-.841a3.24,3.24,0,0,0-.541.33.756.756,0,0,0,.019.269c.035.09,1.236.143,3.888-.627l1.022.645a11.392,11.392,0,0,0-1.631.86l.018.286a6.219,6.219,0,0,0,.718.018c.269-.018,2.239-.322,2.239-.322l1.057.573s-1.2.592-1.343.7l-.144.107.036.288a9,9,0,0,0,2.957-.412,2.079,2.079,0,0,0,1.649.717,1.121,1.121,0,0,0,.448.377,19.891,19.891,0,0,0,6.971-.95s2.025-.323,1.4-3.441-1.864-2.8-4.892-2.2a1.4,1.4,0,0,0-.879-.035c-.555.125-2.687.573-2.687.573l-.164-.422a20.945,20.945,0,0,0,1.947-1.029c2.5-.43,13.707-2.9,13.707-2.9C-499.314,282.659-495.739,280.615-496.519,278.975Zm-7.644-2.058c-.438.028-.914.061-1.087.074a.044.044,0,0,1-.045-.059,6.172,6.172,0,0,1,.273-.672,1.521,1.521,0,0,1,.414-.3l.016,0c.061,0,.455-.039.855-.066a.045.045,0,0,1,.044.064l-.434.938A.044.044,0,0,1-504.163,276.917Zm2.1-.271c-.511.081-.95.206-1.335.224-.09,0-.241.013-.42.025a.044.044,0,0,1-.044-.062l.432-.937a.046.046,0,0,1,.039-.026c.113-.006.218-.011.305-.012.174,0,.351,0,.524.015a.048.048,0,0,1,.034.019l.53.748C-502.019,276.642-502.04,276.642-502.064,276.646Zm2.2.331a4.338,4.338,0,0,1-1.054-.2,5.55,5.55,0,0,0-.824-.124.047.047,0,0,1-.034-.02l-.487-.737a4.456,4.456,0,0,1,.53.085c.363.083.8.147.995.205a1.214,1.214,0,0,0,.206.052.04.04,0,0,1,.022.008,7.708,7.708,0,0,1,.774.7A1.215,1.215,0,0,1-499.86,276.977Z" transform="translate(782.023 29.551)"/>
    <path id="Path_3913" data-name="Path 3913" class="cls-1" d="M289.523,286.774s11.207,2.473,13.706,2.9a20.9,20.9,0,0,0,1.948,1.029l-.164.422s-2.133-.448-2.688-.573a1.394,1.394,0,0,0-.878.035c-3.029-.59-4.265-.913-4.892,2.205s1.4,3.44,1.4,3.44a19.853,19.853,0,0,0,6.971.95,1.131,1.131,0,0,0,.448-.376,2.082,2.082,0,0,0,1.649-.718,9,9,0,0,0,2.956.412l.037-.286-.144-.107c-.143-.108-1.344-.7-1.344-.7l1.057-.574s1.972.3,2.24.323a6.385,6.385,0,0,0,.717-.019l.018-.286a11.391,11.391,0,0,0-1.631-.86l1.022-.645c2.652.771,3.852.716,3.889.627a.774.774,0,0,0,.018-.269,3.371,3.371,0,0,0-.54-.329c2.392.441,4.511.791,5.01.84a22.866,22.866,0,0,0,4.679-.243,58.552,58.552,0,0,0,20.535,1.29s1.478.35,1.721.376a5.917,5.917,0,0,0,1.369-.7l8.485-1.146a.537.537,0,0,0,.441-.357.954.954,0,0,0-.055-.808,7.7,7.7,0,0,0-1.4-.942l8.279-3.385a9.155,9.155,0,0,0-2.177-.487c-.78,0-9.166,1.992-9.166,1.992l2.66-12.5-2.2-.483s-1.4-.456-2.016.511l-7.285,8.438a4.218,4.218,0,0,1-2.929,1.533l-2.153-.447.084-.387s-.134-.067-.2-.027a3.669,3.669,0,0,0-.315.325l-8.059-1.669.641-.26c2.665.6,3.378.395,3.378.395l-.027-.256a5.159,5.159,0,0,0-1.42-.923c1.428-.58,3.287-1.335,5.138-2.09a5.726,5.726,0,0,0,3.392.378v-.283s-.43-.336-.659-.47c-.141-.082-.521-.278-.793-.415,2.594-1.058,4.847-1.981,5.428-2.231,1.562-.674,4.25-1.587,5.053-3.441s2.018-4.436,2.018-4.436-.456-.376-1.129.243-2.445,3.062-2.85,3.492a10.113,10.113,0,0,1-3.924,2.125c-2.23.727-22.04,6.613-22.04,6.613s-25.374-5.241-26.636-5.431-1.883-.269-1.883-.269l.189-.725-.24-.055-.566.727a15.989,15.989,0,0,0-5.348.189,4.612,4.612,0,0,0-2.128,1.11,7,7,0,0,0-.73.7c-.06.066-.12.133-.18.2a3.71,3.71,0,0,0-2.875,1.8C281.646,283.44,285.222,285.483,289.523,286.774Zm.51-7.057-.433-.939a.044.044,0,0,1,.042-.062c.4.026.793.06.856.065l.016.006a1.51,1.51,0,0,1,.413.3,6.061,6.061,0,0,1,.273.671.044.044,0,0,1-.045.059l-1.085-.074A.045.045,0,0,1,290.033,279.717Zm-2.129-.252.53-.748a.05.05,0,0,1,.034-.019c.174-.011.35-.018.524-.015.088,0,.193.006.305.012a.046.046,0,0,1,.039.026l.433.937a.044.044,0,0,1-.044.062c-.179-.011-.33-.02-.42-.024-.385-.019-.824-.144-1.335-.225C287.949,279.467,287.927,279.467,287.9,279.465Zm-2.266.306a8,8,0,0,1,.775-.7.043.043,0,0,1,.021-.008,1.211,1.211,0,0,0,.206-.052c.2-.058.633-.123.995-.205a4.731,4.731,0,0,1,.53-.085l-.487.738a.042.042,0,0,1-.034.019,5.544,5.544,0,0,0-.823.125,4.411,4.411,0,0,1-1.055.2C285.724,279.795,285.681,279.783,285.638,279.771Z" transform="translate(-75.079 53.362)"/>
  </g>
</svg>
