<svg id="Group_544" data-name="Group 544" xmlns="http://www.w3.org/2000/svg" width="514.746" height="71.607" viewBox="0 0 514.746 71.607">
  <defs>
    <style>
      .cls-1 {
        fill: #27ade4;
      }

      .cls-2 {
        fill: #2d78bc;
      }

      .cls-3 {
        fill: #fff;
      }

      .cls-4 {
        fill: #f3f2f2;
      }

      .cls-5 {
        fill: #f26e21;
      }

      .cls-6 {
        fill: #0b161f;
      }

      .cls-7 {
        fill: #3c80ad;
      }

      .cls-8 {
        fill: #931b1d;
      }

      .cls-9 {
        fill: #f16622;
      }

      .cls-10 {
        fill: #f7981d;
      }

      .cls-11 {
        fill: #cb2026;
      }

      .cls-12 {
        fill: #f79f1a;
      }

      .cls-13 {
        fill: #059bbf;
      }

      .cls-14 {
        fill: #202121;
        opacity: 0.15;
      }
    </style>
  </defs>
  <g id="american-express" transform="translate(0 0)">
    <rect id="Rectangle_200" data-name="Rectangle 200" class="cls-1" width="103.802" height="71.526"/>
    <path id="Path_786" data-name="Path 786" class="cls-2" d="M60.276,105.716l-1.5-3.71-1.5,3.71m36.006-1.46a2.008,2.008,0,0,1-1.075.182H89.552v-2.068h2.7a2.314,2.314,0,0,1,1.034.162.871.871,0,0,1,.466.831.992.992,0,0,1-.466.892m18.976,1.46-1.521-3.71-1.5,3.71ZM76.88,109.73H74.63v-7.278l-3.183,7.278H69.521l-3.183-7.278v7.278h-4.46l-.852-2.068H56.505l-.852,2.068H53.261l3.913-9.285h3.264l3.73,8.8v-8.8h3.568L70.6,106.75l2.636-6.305H76.88v9.285Zm8.961,0H78.523v-9.285h7.319v1.926H80.712v1.683H85.72v1.906H80.712V107.8h5.129v1.926Zm10.319-6.792a2.6,2.6,0,0,1-1.541,2.473,2.291,2.291,0,0,1,1.075.791,2.734,2.734,0,0,1,.365,1.7v1.825H93.85v-1.176a2.749,2.749,0,0,0-.345-1.8,2.146,2.146,0,0,0-1.6-.405H89.551v3.386h-2.19v-9.285H92.39a5.015,5.015,0,0,1,2.656.446,2.161,2.161,0,0,1,1.115,2.048m3.487,6.792h-2.23v-9.285h2.23Zm25.93,0h-3.1l-4.156-6.974v6.974h-4.46l-.852-2.068h-4.541l-.831,2.068h-2.555A4.6,4.6,0,0,1,101.9,108.7a4.729,4.729,0,0,1-1.176-3.548,5.01,5.01,0,0,1,1.176-3.629,4.384,4.384,0,0,1,3.325-1.075h2.129v1.987h-2.068a2.1,2.1,0,0,0-1.683.547,3.142,3.142,0,0,0-.628,2.108,3.321,3.321,0,0,0,.608,2.19,2.118,2.118,0,0,0,1.521.487h.973l3.082-7.3h3.284l3.71,8.779v-8.779H119.5l3.852,6.467v-6.467h2.23v9.265Zm-72.337,1.825h3.751l.852-2.068h1.885l.852,2.068H67.94v-1.581l.649,1.581H72.4l.649-1.6v1.6H91.336v-3.386h.345c.243,0,.324.041.324.446v2.94h9.468v-.791a7.525,7.525,0,0,0,3.507.791h3.974l.852-2.068h1.885l.831,2.068h7.664v-1.967l1.156,1.967h6.143V98.6H121.4v1.521L120.55,98.6h-6.244v1.521l-.791-1.521h-8.434a7.528,7.528,0,0,0-3.649.75V98.6H95.613v.75a3.575,3.575,0,0,0-2.473-.75H71.934l-1.419,3.345L69.055,98.6h-6.69v1.521l-.73-1.521H55.9l-2.656,6.163L50.2,111.555Z" transform="translate(-40.023 -78.61)"/>
    <path id="Path_787" data-name="Path 787" class="cls-3" d="M60.276,109.516l-1.5-3.71-1.5,3.71m36.006-1.48a2.008,2.008,0,0,1-1.075.182H89.552v-2.048h2.7a2.314,2.314,0,0,1,1.034.162.871.871,0,0,1,.466.831.936.936,0,0,1-.466.872m18.976,1.48-1.521-3.71-1.5,3.71ZM76.88,113.53H74.63v-7.278l-3.183,7.278H69.521l-3.183-7.278v7.278h-4.46l-.852-2.068H56.505l-.852,2.068H53.261l3.913-9.285h3.264l3.73,8.8v-8.8h3.568L70.6,110.55l2.636-6.305H76.88v9.285Zm8.961,0H78.523v-9.285h7.319v1.926H80.712v1.683H85.72v1.906H80.712V111.6h5.129v1.926Zm10.319-6.792a2.6,2.6,0,0,1-1.541,2.473,2.291,2.291,0,0,1,1.074.791,2.734,2.734,0,0,1,.365,1.7v1.825H93.85v-1.176a2.749,2.749,0,0,0-.345-1.8,2.146,2.146,0,0,0-1.6-.405H89.551v3.386h-2.19v-9.285H92.39a5.015,5.015,0,0,1,2.656.446,2.161,2.161,0,0,1,1.115,2.048m3.487,6.792h-2.23v-9.285h2.23Zm25.93,0h-3.1l-4.156-6.974v6.974h-4.46l-.852-2.088h-4.541l-.831,2.068h-2.555a4.6,4.6,0,0,1-3.183-1.034,4.729,4.729,0,0,1-1.176-3.548A5.01,5.01,0,0,1,101.9,105.3a4.384,4.384,0,0,1,3.325-1.075h2.129v1.987h-2.068a2.1,2.1,0,0,0-1.683.547,3.142,3.142,0,0,0-.628,2.108,3.321,3.321,0,0,0,.608,2.19,2.118,2.118,0,0,0,1.521.487h.973l3.082-7.3h3.284l3.71,8.779v-8.779H119.5l3.852,6.467v-6.467h2.23v9.285Zm-72.337,1.825h3.751l.852-2.068h1.885l.851,2.068H67.94v-1.581l.649,1.581H72.4l.649-1.6v1.6H91.336v-3.386h.345c.243,0,.324.041.324.446v2.94h9.468v-.791a7.525,7.525,0,0,0,3.507.791h3.974l.852-2.068h1.885l.831,2.068h7.663v-1.967l1.156,1.967h6.143V102.4H121.4v1.521l-.851-1.521h-6.244v1.521l-.791-1.521h-8.434a7.529,7.529,0,0,0-3.649.75v-.75H95.613v.75a3.575,3.575,0,0,0-2.473-.75H71.934l-1.419,3.345-1.46-3.345h-6.69v1.521l-.73-1.521H55.9l-2.656,6.163L50.2,115.355Z" transform="translate(-40.023 -81.64)"/>
    <path id="Path_788" data-name="Path 788" class="cls-2" d="M204.683,182.34V176.4h-5.494a4.633,4.633,0,0,0-2.737.75v-.75h-6a4.174,4.174,0,0,0-2.615.75v-.75h-10.7v.75a5.578,5.578,0,0,0-2.96-.75h-7.055v.75c-.669-.669-2.169-.75-3.082-.75h-7.907l-1.8,1.987-1.7-1.987H140.8v12.955h11.6l1.865-2.007,1.764,2.007h7.136v-3.041h.71a7.263,7.263,0,0,0,3.041-.446v3.487h5.9v-3.386h.284c.365,0,.405.02.405.385v3h17.9a5.087,5.087,0,0,0,2.98-.831v.831h5.677a7.691,7.691,0,0,0,3.224-.588v-.02a4.672,4.672,0,0,0,2.129-3.933A5.048,5.048,0,0,0,204.683,182.34Zm-40.73,2.068h-2.737v3.122h-4.258l-2.7-3.082-2.8,3.082h-8.677v-9.285h8.8l2.7,3.041,2.778-3.041h6.994c1.744,0,3.69.487,3.69,3.061C167.764,183.881,165.858,184.408,163.953,184.408ZM177.131,184a2.84,2.84,0,0,1,.365,1.7v1.845h-2.19v-1.156a2.7,2.7,0,0,0-.365-1.825,2.146,2.146,0,0,0-1.6-.405h-2.352v3.386h-2.21v-9.285h5.068a5.14,5.14,0,0,1,2.636.446,2.186,2.186,0,0,1,1.135,2.068,2.609,2.609,0,0,1-1.561,2.473A2.008,2.008,0,0,1,177.131,184Zm9-3.832H181v1.683h5.008v1.885H181v1.845h5.129v1.926h-7.319v-9.285h7.319v1.946Zm5.575,7.359H187.45v-1.987h4.258a1.347,1.347,0,0,0,.892-.223.851.851,0,0,0,.264-.608.815.815,0,0,0-.264-.608,1.132,1.132,0,0,0-.77-.2c-2.048-.061-4.622.061-4.622-2.879,0-1.338.831-2.757,3.142-2.757h4.4v1.967h-4.014a1.524,1.524,0,0,0-.872.162.69.69,0,0,0-.324.669.707.707,0,0,0,.487.689,2.5,2.5,0,0,0,.852.1l1.176.041a3.422,3.422,0,0,1,2.494.75,2.607,2.607,0,0,1,.649,1.967C195.154,186.6,193.917,187.53,191.708,187.53ZM203,186.638a3.681,3.681,0,0,1-2.717.892h-4.237v-1.987h4.2a1.312,1.312,0,0,0,.892-.223.778.778,0,0,0,.264-.608.749.749,0,0,0-.264-.608,1.1,1.1,0,0,0-.77-.2c-2.048-.061-4.622.061-4.622-2.879,0-1.338.852-2.757,3.142-2.757h4.278v1.967h-3.913a1.6,1.6,0,0,0-.892.162.728.728,0,0,0-.324.669.707.707,0,0,0,.487.689,2.5,2.5,0,0,0,.852.1l1.2.041a3.422,3.422,0,0,1,2.494.75,1.063,1.063,0,0,1,.2.223.357.357,0,0,0-.081-.1,2.993,2.993,0,0,1,.608,1.825A3.17,3.17,0,0,1,203,186.638Zm-52.55-6.467,2.392,2.7-2.494,2.717h-5.393v-1.845h4.8v-1.885h-4.8v-1.683Zm5.21,2.737,3.365-3.67v7.44Zm9.752-1.6c0,.811-.527,1.216-1.358,1.216h-2.838v-2.352h2.859C164.865,180.171,165.412,180.5,165.412,181.306Zm9.772-.142a1,1,0,0,1-.446.892,1.972,1.972,0,0,1-1.075.182h-2.656v-2.068h2.676a2.145,2.145,0,0,1,1.054.162A.878.878,0,0,1,175.184,181.164Z" transform="translate(-112.254 -140.637)"/>
    <path id="Path_789" data-name="Path 789" class="cls-3" d="M204.683,186.14V180.2h-5.494a4.633,4.633,0,0,0-2.737.75v-.75h-6a4.173,4.173,0,0,0-2.615.75v-.75h-10.7v.75a5.578,5.578,0,0,0-2.96-.75h-7.055v.75c-.669-.669-2.169-.75-3.082-.75h-7.907l-1.8,1.987-1.7-1.987H140.8v12.935h11.6l1.865-2.007,1.764,2.007h7.136v-3.041h.71a7.263,7.263,0,0,0,3.041-.446v3.487h5.9v-3.386h.284c.365,0,.405.02.405.385v3h17.9a5.088,5.088,0,0,0,2.98-.831v.831h5.677a7.691,7.691,0,0,0,3.224-.588v-.02a4.672,4.672,0,0,0,2.129-3.933A5.036,5.036,0,0,0,204.683,186.14Zm-40.73,2.068h-2.737v3.1h-4.258l-2.7-3.082-2.818,3.082h-8.677v-9.285h8.819l2.7,3.041,2.778-3.041h6.994c1.744,0,3.69.487,3.69,3.061C167.764,187.661,165.858,188.208,163.953,188.208Zm13.178-.426a2.84,2.84,0,0,1,.365,1.7v1.845h-2.19v-1.156a2.7,2.7,0,0,0-.365-1.825,2.146,2.146,0,0,0-1.6-.405h-2.352v3.365h-2.21v-9.285h5.068a5.14,5.14,0,0,1,2.636.446,2.186,2.186,0,0,1,1.135,2.068,2.609,2.609,0,0,1-1.561,2.473A2.413,2.413,0,0,1,177.131,187.782Zm9-3.832H181v1.683h5.008v1.885H181v1.845h5.129v1.926h-7.319V182h7.319v1.946Zm5.575,7.359H187.45v-1.987h4.258a1.347,1.347,0,0,0,.892-.223.851.851,0,0,0,.264-.608.815.815,0,0,0-.264-.608,1.132,1.132,0,0,0-.77-.2c-2.048-.061-4.622.061-4.622-2.879,0-1.338.831-2.757,3.142-2.757h4.4v1.967h-4.014a1.524,1.524,0,0,0-.872.162.69.69,0,0,0-.324.669.707.707,0,0,0,.487.689,2.5,2.5,0,0,0,.852.1l1.176.041a3.422,3.422,0,0,1,2.494.75,2.607,2.607,0,0,1,.649,1.967C195.154,190.377,193.917,191.31,191.708,191.31ZM203,190.418a3.681,3.681,0,0,1-2.717.892h-4.237v-1.987h4.2a1.312,1.312,0,0,0,.892-.223.778.778,0,0,0,.264-.608.749.749,0,0,0-.264-.608,1.1,1.1,0,0,0-.77-.2c-2.048-.061-4.622.061-4.622-2.879,0-1.338.852-2.757,3.142-2.757h4.278v1.967h-3.913a1.6,1.6,0,0,0-.892.162.728.728,0,0,0-.324.669.707.707,0,0,0,.487.689,2.5,2.5,0,0,0,.852.1l1.2.041a3.422,3.422,0,0,1,2.494.75,1.064,1.064,0,0,1,.2.223.357.357,0,0,0-.081-.1,2.993,2.993,0,0,1,.608,1.825A3.128,3.128,0,0,1,203,190.418Zm-52.55-6.467,2.392,2.7-2.494,2.717h-5.393v-1.845h4.8v-1.885h-4.8v-1.683Zm5.21,2.737,3.365-3.67v7.44Zm9.752-1.6c0,.811-.527,1.216-1.358,1.216h-2.838V183.93h2.859C164.865,183.951,165.412,184.275,165.412,185.086Zm9.772-.122a1,1,0,0,1-.446.892,1.972,1.972,0,0,1-1.075.182h-2.656v-2.088h2.676a2.145,2.145,0,0,1,1.054.162A.911.911,0,0,1,175.184,184.964Z" transform="translate(-112.254 -143.667)"/>
  </g>
  <g id="discover" transform="translate(136.982 0)">
    <rect id="Rectangle_201" data-name="Rectangle 201" class="cls-4" width="103.802" height="71.526"/>
    <ellipse id="Ellipse_173" data-name="Ellipse 173" class="cls-5" cx="6.325" cy="6.325" rx="6.325" ry="6.325" transform="translate(48.88 26.579)"/>
    <g id="Group_540" data-name="Group 540" transform="translate(14.942 26.64)">
      <path id="Path_790" data-name="Path 790" class="cls-6" d="M79.924,141.722a4.48,4.48,0,0,1-3.224.953h-.628v-7.927H76.7a4.335,4.335,0,0,1,3.224.973,4.026,4.026,0,0,1,1.3,2.98,4.116,4.116,0,0,1-1.3,3.021ZM77.167,132.7H73.7v12h3.447a6.353,6.353,0,0,0,4.318-1.379,6,6,0,0,0,2.19-4.6c0-3.548-2.656-6.021-6.488-6.021" transform="translate(-73.7 -132.436)"/>
      <path id="Path_791" data-name="Path 791" class="cls-6" d="M128.2,144.7h2.352v-12H128.2v12" transform="translate(-117.151 -132.436)"/>
      <path id="Path_792" data-name="Path 792" class="cls-6" d="M149.325,136.5c-1.419-.527-1.825-.872-1.825-1.5,0-.75.75-1.338,1.764-1.338a2.424,2.424,0,0,1,1.906.973l1.237-1.6a5.264,5.264,0,0,0-3.548-1.338,3.536,3.536,0,0,0-3.771,3.426c0,1.662.77,2.494,2.98,3.3a8.266,8.266,0,0,1,1.642.689,1.435,1.435,0,0,1,.71,1.237,1.715,1.715,0,0,1-1.825,1.683,2.788,2.788,0,0,1-2.575-1.6L144.5,141.9a4.732,4.732,0,0,0,4.2,2.291,3.89,3.89,0,0,0,4.176-3.933c-.061-1.906-.872-2.778-3.548-3.751" transform="translate(-130.146 -131.639)"/>
      <path id="Path_793" data-name="Path 793" class="cls-6" d="M189.1,137.685a6.245,6.245,0,0,0,6.386,6.265,6.529,6.529,0,0,0,2.96-.71v-2.757a3.832,3.832,0,0,1-2.859,1.318,3.929,3.929,0,0,1-4.055-4.136,4,4,0,0,1,3.953-4.116,3.91,3.91,0,0,1,2.96,1.358V132.13a5.972,5.972,0,0,0-2.9-.73,6.352,6.352,0,0,0-6.447,6.285" transform="translate(-165.704 -131.4)"/>
      <path id="Path_794" data-name="Path 794" class="cls-6" d="M306.719,140.769l-3.244-8.069H300.9l5.15,12.306h1.257l5.231-12.306h-2.554l-3.264,8.069" transform="translate(-254.838 -132.436)"/>
      <path id="Path_795" data-name="Path 795" class="cls-6" d="M363.6,144.7h6.69v-2.027h-4.339v-3.244h4.176V137.4h-4.176v-2.656h4.339V132.7H363.6v12" transform="translate(-304.826 -132.436)"/>
      <path id="Path_796" data-name="Path 796" class="cls-6" d="M407.341,138.235h-.689v-3.649h.73c1.48,0,2.271.608,2.271,1.784,0,1.216-.791,1.865-2.311,1.865Zm4.744-1.987c0-2.25-1.561-3.548-4.278-3.548H404.3v12h2.352v-4.825h.3l3.264,4.825h2.9l-3.791-5.048a3.212,3.212,0,0,0,2.757-3.406" transform="translate(-337.275 -132.436)"/>
    </g>
    <path id="Path_797" data-name="Path 797" d="M158.6,220.351V213.6l4.6,4.825v-4.4h.953v6.711l-4.6-4.8v4.42Z" transform="translate(-126.446 -170.295)"/>
    <path id="Path_798" data-name="Path 798" d="M196.987,216.612h-2.534v1.521h2.453v.892h-2.453v2.108h2.534v.892H193.5V215.7h3.487Z" transform="translate(-154.27 -171.969)"/>
    <path id="Path_799" data-name="Path 799" d="M216.013,216.692v5.433h-.953v-5.433H213.6V215.8h3.852v.892Z" transform="translate(-170.295 -172.049)"/>
    <path id="Path_800" data-name="Path 800" d="M236.234,214.524l1.642,4.217L239.6,214.2l1.642,4.541,1.744-4.217h1.034l-2.818,6.731-1.622-4.481-1.7,4.481-2.676-6.731Z" transform="translate(-187.516 -170.773)"/>
    <path id="Path_801" data-name="Path 801" d="M279.6,218.444a3.081,3.081,0,0,1,.973-2.291,3.2,3.2,0,0,1,2.352-.953,3.125,3.125,0,0,1,2.311.973,3.17,3.17,0,0,1,.973,2.331,3.093,3.093,0,0,1-.973,2.311,3.29,3.29,0,0,1-2.372.953,3.239,3.239,0,0,1-2.19-.852A3.193,3.193,0,0,1,279.6,218.444Zm.973.02a2.354,2.354,0,0,0,2.331,2.392,2.264,2.264,0,0,0,1.683-.689,2.475,2.475,0,0,0,.02-3.406,2.188,2.188,0,0,0-1.662-.689,2.219,2.219,0,0,0-1.662.689A2.251,2.251,0,0,0,280.573,218.464Z" transform="translate(-222.914 -171.571)"/>
    <path id="Path_802" data-name="Path 802" d="M320.329,219.329l1.967,2.7h-1.176l-1.8-2.6h-.162v2.6H318.2V215.7h1.115a2.832,2.832,0,0,1,1.8.466,1.728,1.728,0,0,1,.608,1.379,1.768,1.768,0,0,1-.385,1.156A1.59,1.59,0,0,1,320.329,219.329Zm-1.2-.71h.3c.912,0,1.358-.345,1.358-1.034,0-.649-.446-.973-1.318-.973h-.345v2.007Z" transform="translate(-253.689 -171.969)"/>
    <path id="Path_803" data-name="Path 803" d="M343.953,218.314l2.453-2.514h1.277l-2.859,2.859,2.879,3.467h-1.277l-2.271-2.818-.2.2v2.615H343V215.8h.953v2.514Z" transform="translate(-273.461 -172.049)"/>
    <g id="Group_541" data-name="Group 541" transform="translate(43.406 38.5)">
      <path id="Path_804" data-name="Path 804" class="cls-5" d="M274.5,189.9c-11.191,11.211-30.573,25.322-60.4,32.6a8.178,8.178,0,0,0,1.216.426H274.5Z" transform="translate(-214.1 -189.9)"/>
    </g>
  </g>
  <g id="mastercard" transform="translate(273.962 0)">
    <rect id="Rectangle_202" data-name="Rectangle 202" class="cls-7" width="103.802" height="71.526"/>
    <path id="Path_805" data-name="Path 805" class="cls-8" d="M93.236,62a22.119,22.119,0,1,0,15,38.48h0a20.753,20.753,0,0,0,2.25-2.372h-4.521a21.418,21.418,0,0,1-1.642-2.271h7.805a19.079,19.079,0,0,0,1.3-2.372h-10.38a23.28,23.28,0,0,1-.933-2.331h12.225a22.3,22.3,0,0,0,1.135-7.015,22.972,22.972,0,0,0-.507-4.744H101.447a23.275,23.275,0,0,1,.628-2.331H114.3a19.971,19.971,0,0,0-.953-2.372h-10.34a21.583,21.583,0,0,1,1.257-2.331h7.805a25.136,25.136,0,0,0-1.7-2.372h-4.339a20.856,20.856,0,0,1,2.21-2.23A22.038,22.038,0,0,0,93.378,62Z" transform="translate(-56.845 -49.43)"/>
    <path id="Path_806" data-name="Path 806" class="cls-9" d="M261.556,84.119a22.078,22.078,0,1,1-44.156.02h0a22.078,22.078,0,1,1,44.156-.02Z" transform="translate(-173.325 -49.43)"/>
    <path id="Path_807" data-name="Path 807" class="cls-10" d="M261.556,85.239a22.078,22.078,0,1,1-44.156.02v-.02a22.078,22.078,0,1,1,44.156,0Z" transform="translate(-173.325 -50.307)"/>
    <path id="Path_808" data-name="Path 808" class="cls-11" d="M93.236,63.12a22.119,22.119,0,1,0,15,38.48h0a20.755,20.755,0,0,0,2.25-2.372h-4.521a21.419,21.419,0,0,1-1.642-2.271h7.805a22.493,22.493,0,0,0,1.3-2.372h-10.38c-.345-.77-.669-1.541-.933-2.331h12.225a22.305,22.305,0,0,0,1.135-7.015,22.972,22.972,0,0,0-.507-4.744H101.447a23.273,23.273,0,0,1,.628-2.331H114.3a19.97,19.97,0,0,0-.953-2.372h-10.34a21.584,21.584,0,0,1,1.257-2.331h7.805a25.138,25.138,0,0,0-1.7-2.372h-4.339a20.858,20.858,0,0,1,2.21-2.23A21.92,21.92,0,0,0,93.378,63.1.345.345,0,0,1,93.236,63.12Z" transform="translate(-56.845 -50.307)"/>
    <g id="Group_542" data-name="Group 542" transform="translate(16.543 29.194)">
      <path id="Path_809" data-name="Path 809" class="cls-3" d="M205.209,159.28l.3-2.007c-.162,0-.405.061-.608.061-.811,0-.912-.426-.852-.75l.669-4.1h1.237l.3-2.21h-1.176l.243-1.379h-2.352c-.061.061-1.379,7.745-1.379,8.677a1.734,1.734,0,0,0,1.865,1.987A5.65,5.65,0,0,0,205.209,159.28Z" transform="translate(-177.271 -147.907)"/>
      <path id="Path_810" data-name="Path 810" class="cls-3" d="M223,159.933c0,3.325,2.19,4.116,4.055,4.116a5.911,5.911,0,0,0,2.473-.385l.405-2.271a7.262,7.262,0,0,1-2.494.588c-2.514,0-2.088-1.885-2.088-1.885h4.785a17.025,17.025,0,0,0,.3-2.149A3.152,3.152,0,0,0,227.1,154.5C224.764,154.5,223,157.054,223,159.933Zm4.136-3.325c1.318,0,1.075,1.5,1.075,1.622H225.6C225.6,158.068,225.838,156.608,227.136,156.608Z" transform="translate(-194.333 -152.371)"/>
      <path id="Path_811" data-name="Path 811" class="cls-3" d="M292.085,155.374l.426-2.575a5.606,5.606,0,0,1-1.946.588c-1.662,0-2.332-1.277-2.332-2.656,0-2.778,1.439-4.318,3.041-4.318a4.15,4.15,0,0,1,2.149.669l.385-2.494a8.267,8.267,0,0,0-2.656-.588c-2.717,0-5.352,2.352-5.352,6.792,0,2.94,1.419,4.886,4.237,4.886A9.682,9.682,0,0,0,292.085,155.374Z" transform="translate(-244.401 -144)"/>
      <path id="Path_812" data-name="Path 812" class="cls-3" d="M138.379,154.7a7.849,7.849,0,0,0-2.838.527l-.345,2.027a7.5,7.5,0,0,1,2.555-.405c.872,0,1.521.1,1.521.811a1.464,1.464,0,0,1-.081.588s-.689-.061-1.014-.061c-2.027,0-4.176.872-4.176,3.487a2.227,2.227,0,0,0,2.271,2.534,3.074,3.074,0,0,0,2.413-1.075l-.081.892h2.088l.933-6.488C141.6,154.781,139.21,154.7,138.379,154.7Zm.507,5.271c.041.405-.243,2.25-1.662,2.25a.856.856,0,0,1-.912-.892c0-.649.345-1.419,2.068-1.419A1.936,1.936,0,0,1,138.886,159.971Z" transform="translate(-123.377 -152.531)"/>
      <path id="Path_813" data-name="Path 813" class="cls-3" d="M172.036,164.068c.527,0,3.548.142,3.548-3,0-2.919-2.8-2.352-2.8-3.528,0-.588.466-.77,1.3-.77.324,0,1.6.1,1.6.1l.3-2.088a11.146,11.146,0,0,0-2.169-.182c-1.744,0-3.507.689-3.507,3.082,0,2.7,2.94,2.433,2.94,3.568,0,.75-.831.811-1.46.811a7.63,7.63,0,0,1-2.088-.365l-.3,2.068A6.35,6.35,0,0,0,172.036,164.068Z" transform="translate(-151.6 -152.451)"/>
      <path id="Path_814" data-name="Path 814" class="cls-3" d="M386.331,145.32l-.507,3.163a3.128,3.128,0,0,0-2.271-1.216c-2.149,0-3.953,2.6-3.953,5.6,0,1.926.953,3.811,2.919,3.811a2.955,2.955,0,0,0,2.19-.993l-.1.831H386.9l1.8-11.211Zm-1.074,6.163c0,1.237-.608,2.9-1.885,2.9-.852,0-1.237-.71-1.237-1.825,0-1.825.811-3.041,1.845-3.041C384.81,149.517,385.256,150.1,385.256,151.484Z" transform="translate(-319.184 -145.036)"/>
      <path id="Path_815" data-name="Path 815" class="cls-3" d="M83.871,156.611l1.439-8.454.2,8.454h1.622l3.021-8.454-1.338,8.454H91.21L93.055,145.4h-3.73l-2.311,6.873-.122-6.873H83.485L81.6,156.611Z" transform="translate(-81.6 -145.116)"/>
      <path id="Path_816" data-name="Path 816" class="cls-3" d="M262.092,164.365c.689-3.893.811-7.076,2.453-6.488a9.519,9.519,0,0,1,.872-2.737,1.813,1.813,0,0,0-.446-.041c-1.054,0-1.825,1.439-1.825,1.439l.2-1.318h-2.19l-1.46,9.123h2.392Z" transform="translate(-223.592 -152.85)"/>
      <path id="Path_817" data-name="Path 817" class="cls-3" d="M326.279,154.7a7.849,7.849,0,0,0-2.838.527l-.345,2.027a7.5,7.5,0,0,1,2.554-.405c.872,0,1.521.1,1.521.811a1.464,1.464,0,0,1-.081.588s-.689-.061-1.014-.061c-2.027,0-4.176.872-4.176,3.487a2.227,2.227,0,0,0,2.271,2.534,3.074,3.074,0,0,0,2.413-1.075l-.081.892h2.068l.933-6.488C329.523,154.781,327.131,154.7,326.279,154.7Zm.507,5.271c.041.405-.243,2.25-1.662,2.25a.856.856,0,0,1-.912-.892c0-.649.345-1.419,2.068-1.419A1.593,1.593,0,0,1,326.786,159.971Z" transform="translate(-273.182 -152.531)"/>
      <path id="Path_818" data-name="Path 818" class="cls-3" d="M359.392,164.365c.689-3.893.811-7.076,2.453-6.488a9.522,9.522,0,0,1,.872-2.737,1.814,1.814,0,0,0-.446-.041c-1.054,0-1.825,1.439-1.825,1.439l.2-1.318h-2.19L357,164.345l2.392.02Z" transform="translate(-301.166 -152.85)"/>
    </g>
  </g>
  <g id="visa" transform="translate(410.944 0)">
    <path id="Path_819" data-name="Path 819" class="cls-3" d="M103.8,65.164a6.139,6.139,0,0,1-6.143,6.143H6.143A6.165,6.165,0,0,1,0,65.164V5.843A6.152,6.152,0,0,1,6.143-.3H97.679A6.135,6.135,0,0,1,103.8,5.843V65.164Z" transform="translate(0 0.3)"/>
    <path id="Path_820" data-name="Path 820" class="cls-12" d="M47.348,123.847l-2.433-11.7c-.426-1.622-1.622-2.088-3.142-2.149H30.6l-.1.527C39.2,112.636,44.955,117.745,47.348,123.847Z" transform="translate(-24.316 -87.638)"/>
    <g id="Group_543" data-name="Group 543" transform="translate(0 0)">
      <path id="Path_821" data-name="Path 821" class="cls-13" d="M195.239,111.2H188l-4.5,26.457h7.217Z" transform="translate(-146.298 -88.595)"/>
      <path id="Path_822" data-name="Path 822" class="cls-13" d="M79.89,137.717,91.244,111.3H83.6l-7.055,18.044-.75-2.717c-1.379-3.284-5.332-7.988-9.995-10.968l6.447,22.078Z" transform="translate(-52.46 -88.674)"/>
      <path id="Path_823" data-name="Path 823" class="cls-13" d="M261.818,127.087c.02-3-1.906-5.291-6.062-7.2-2.534-1.216-4.075-2.048-4.055-3.284,0-1.095,1.3-2.271,4.136-2.271a13.265,13.265,0,0,1,5.393,1.014l.649.3.973-5.737a18.892,18.892,0,0,0-6.467-1.115c-7.136,0-12.144,3.588-12.185,8.738-.041,3.811,3.588,5.92,6.325,7.2,2.8,1.3,3.751,2.129,3.73,3.284-.02,1.764-2.23,2.575-4.318,2.575a15.363,15.363,0,0,1-6.792-1.379l-.933-.426-1.014,5.92a22.783,22.783,0,0,0,8.028,1.4C256.851,136.129,261.778,132.581,261.818,127.087Z" transform="translate(-192.299 -86.681)"/>
      <path id="Path_824" data-name="Path 824" class="cls-13" d="M349.483,133.763h9.245c.223.912.872,3.974.872,3.974h6.69L360.451,111.3h-5.575c-1.723,0-3.021.466-3.771,2.19l-10.7,24.247h7.582S349.2,134.493,349.483,133.763Zm4.947-12.813c-.041.081.608-1.521.953-2.534l.487,2.291s1.379,6.325,1.662,7.643h-5.981C352.159,126.83,354.43,120.95,354.43,120.95Z" transform="translate(-271.388 -88.674)"/>
      <path id="Path_825" data-name="Path 825" class="cls-13" d="M97.659-.3H6.143A6.152,6.152,0,0,0,0,5.843v6.366H103.8V5.843A6.139,6.139,0,0,0,97.659-.3Z" transform="translate(0 0.3)"/>
    </g>
    <path id="Path_826" data-name="Path 826" class="cls-12" d="M97.659,303.689H6.143A6.135,6.135,0,0,1,0,297.566V291.2H103.8v6.366A6.122,6.122,0,0,1,97.659,303.689Z" transform="translate(0 -232.102)"/>
    <path id="Path_827" data-name="Path 827" class="cls-14" d="M4.359,65.164V5.843A6.152,6.152,0,0,1,10.5-.3H6.143A6.152,6.152,0,0,0,0,5.843V65.164a6.152,6.152,0,0,0,6.143,6.143H10.5A6.165,6.165,0,0,1,4.359,65.164Z" transform="translate(0 0.3)"/>
  </g>
</svg>
