<svg id="Group_14" data-name="Group 14" xmlns="http://www.w3.org/2000/svg" width="20.287" height="20.287" viewBox="0 0 20.287 20.287">
  <defs>
    <style>
      .cls-1 {
        fill: #707070;
      }
    </style>
  </defs>
  <g id="Group_13" data-name="Group 13">
    <path id="Path_45" data-name="Path 45" class="cls-1" d="M17.91,1.585h-.951V0H15.374V1.585H4.913V0H3.328V1.585H2.377A2.38,2.38,0,0,0,0,3.962V17.91a2.38,2.38,0,0,0,2.377,2.377H17.91a2.38,2.38,0,0,0,2.377-2.377V3.962A2.38,2.38,0,0,0,17.91,1.585ZM18.7,17.91a.793.793,0,0,1-.792.792H2.377a.793.793,0,0,1-.792-.792V7.449H18.7Zm0-12.046H1.585v-1.9a.793.793,0,0,1,.792-.792h.951V4.755H4.913V3.17H15.374V4.755h1.585V3.17h.951a.793.793,0,0,1,.792.792Z"/>
  </g>
</svg>
