<svg id="Group_527" data-name="Group 527" xmlns="http://www.w3.org/2000/svg" width="259.698" height="70.697" viewBox="0 0 259.698 70.697">
  <defs>
    <style>
      .cls-1 {
        fill: #f54a5a;
      }

      .cls-2 {
        fill: #be1d2d;
      }

      .cls-3 {
        fill: #dc3545;
      }
    </style>
  </defs>
  <path id="Path_693" data-name="Path 693" class="cls-1" d="M1959.258-323.292H1750.272c-26.377,0-34.318,10.024-38.609,19.83-4.836,11.054-5.513,24.851-2.178,44.654,2.476.416,12.947.982,51.634.982,38.342,0,88.647-.525,125.377-.907,19.047-.2,34.091-.356,40.064-.356,33.261,0,34.945-22.6,34.945-27.126,0-1.692.07-4.023.15-6.721.286-9.505.818-27.2-2.056-30.159C1959.407-323.292,1959.3-323.292,1959.258-323.292Z" transform="translate(-1704.801 325.907)"/>
  <path id="Path_694" data-name="Path 694" class="cls-2" d="M1961.089-325.3a3.053,3.053,0,0,0-2.216-.991H1749.887c-28.046,0-36.646,11.435-41,21.4-5.118,11.7-5.805,26.18-2.224,46.951a1.312,1.312,0,0,0,.563.866c.778.518,2.225,1.483,53.511,1.483,38.356,0,88.668-.525,125.4-.908,19.039-.2,34.077-.355,40.036-.355,36.506,0,37.56-26.7,37.56-29.741,0-1.653.07-3.965.15-6.643C1964.332-308.157,1964.456-321.833,1961.089-325.3Zm.181,31.98c-.08,2.7-.151,5.03-.151,6.721,0,4.53-1.684,27.126-34.945,27.126-5.974,0-21.018.157-40.064.356-36.73.383-87.035.907-125.377.907-38.687,0-49.158-.567-51.634-.982-3.335-19.8-2.658-33.6,2.178-44.654,4.291-9.806,12.233-19.83,38.609-19.83h208.986c.044,0,.149,0,.341.2C1962.088-320.518,1961.556-302.826,1961.27-293.321Z" transform="translate(-1704.417 326.292)"/>
  <path id="Path_695" data-name="Path 695" class="cls-3" d="M1960.293-277.933c-33.091,8.943-210.249,7.766-226.234-2.751-11.825-7.78-9.653-27.331-7.443-37.881-8.456,3.827-12.37,9.806-14.953,15.71-4.836,11.054-5.513,24.851-2.178,44.654,2.476.416,12.947.982,51.634.982,38.342,0,88.647-.525,125.377-.907,19.047-.2,34.091-.356,40.064-.356C1950.019-258.481,1957.763-269.72,1960.293-277.933Z" transform="translate(-1704.801 325.3)"/>
  <path id="Path_696" data-name="Path 696" class="cls-3" d="M1948.493-314.889a3.375,3.375,0,0,0-1.843-1.683c-3.322-1.62-7.122-1.865-10.811-2.083q-7.866-.464-15.732-.927c-6.986-.411-14.01-.818-20.968-.081a58.96,58.96,0,0,0-13.109,2.885c-1.622.563-3.558,1.84-3.063,3.484.392,1.3,2.029,1.667,3.381,1.809,19.327,2.033,38.984,4.055,58.082.451C1946.53-311.43,1949.22-312.879,1948.493-314.889Z" transform="translate(-1727.322 325.494)"/>
  <path id="Path_697" data-name="Path 697" class="cls-3" d="M1985.362-314.784c-.283-1.175-1.538-1.889-2.729-2.324-4.813-1.757-10.249-1.153-15.2.218a5.846,5.846,0,0,0-2.854,1.431,1.934,1.934,0,0,0,.005,2.774,3.143,3.143,0,0,0,1.21.473,48.972,48.972,0,0,0,14.475,1.157,8.269,8.269,0,0,0,3.54-.829A2.81,2.81,0,0,0,1985.362-314.784Z" transform="translate(-1737.731 325.252)"/>
</svg>
