<svg id="Group_378" data-name="Group 378" xmlns="http://www.w3.org/2000/svg" width="258.312" height="70.32" viewBox="0 0 258.312 70.32">
  <defs>
    <style>
      .cls-1 {
        fill: #32c68d;
      }

      .cls-2 {
        fill: #229166;
      }

      .cls-3 {
        fill: #27ae7d;
      }
    </style>
  </defs>
  <g id="Group_377" data-name="Group 377" transform="translate(0)">
    <path id="Path_693" data-name="Path 693" class="cls-1" d="M1957.913-323.292h-207.87c-26.236,0-34.135,9.971-38.4,19.724-4.81,11-5.484,24.718-2.166,44.416,2.462.414,12.878.977,51.358.977,38.137,0,88.174-.522,124.708-.9,18.945-.2,33.909-.354,39.85-.354,33.083,0,34.759-22.475,34.759-26.981,0-1.683.07-4,.15-6.686.285-9.455.813-27.052-2.045-30C1958.062-323.292,1957.957-323.292,1957.913-323.292Z" transform="translate(-1704.816 325.893)"/>
    <path id="Path_694" data-name="Path 694" class="cls-2" d="M1959.719-325.306a3.037,3.037,0,0,0-2.2-.986h-207.87c-27.9,0-36.45,11.374-40.786,21.283-5.091,11.638-5.774,26.041-2.212,46.7a1.3,1.3,0,0,0,.56.861c.773.515,2.213,1.475,53.226,1.475,38.151,0,88.195-.522,124.735-.9,18.937-.2,33.895-.353,39.822-.353,36.311,0,37.359-26.555,37.359-29.582,0-1.644.069-3.944.149-6.607C1962.944-308.254,1963.068-321.856,1959.719-325.306Zm.18,31.81c-.08,2.684-.15,5-.15,6.685,0,4.506-1.675,26.981-34.759,26.981-5.942,0-20.905.156-39.85.354-36.534.381-86.571.9-124.708.9-38.481,0-48.9-.564-51.358-.977-3.317-19.7-2.643-33.421,2.167-44.416,4.268-9.754,12.168-19.724,38.4-19.724h207.87c.044,0,.149,0,.339.2C1960.712-320.549,1960.183-302.951,1959.9-293.5Z" transform="translate(-1704.417 326.292)"/>
    <path id="Path_695" data-name="Path 695" class="cls-3" d="M1958.943-278.15c-32.914,8.9-209.127,7.724-225.026-2.736-11.761-7.738-9.6-27.185-7.4-37.678-8.411,3.806-12.3,9.754-14.874,15.626-4.81,11-5.484,24.718-2.166,44.416,2.462.413,12.878.977,51.358.977,38.137,0,88.174-.522,124.708-.9,18.945-.2,33.909-.354,39.85-.354C1948.724-258.8,1956.426-269.98,1958.943-278.15Z" transform="translate(-1704.816 325.264)"/>
    <path id="Path_696" data-name="Path 696" class="cls-3" d="M1948.143-314.917a3.359,3.359,0,0,0-1.834-1.674c-3.3-1.611-7.084-1.855-10.753-2.072q-7.824-.462-15.647-.922c-6.949-.408-13.935-.813-20.856-.081a58.648,58.648,0,0,0-13.039,2.87c-1.613.56-3.539,1.83-3.047,3.465.39,1.294,2.019,1.658,3.363,1.8,19.224,2.022,38.776,4.033,57.772.448C1946.19-311.476,1948.865-312.917,1948.143-314.917Z" transform="translate(-1728.152 325.465)"/>
    <path id="Path_697" data-name="Path 697" class="cls-3" d="M1985.248-314.8c-.282-1.169-1.53-1.879-2.715-2.311-4.788-1.748-10.194-1.147-15.121.217a5.813,5.813,0,0,0-2.839,1.424,1.924,1.924,0,0,0,.005,2.759,3.125,3.125,0,0,0,1.2.471,48.71,48.71,0,0,0,14.4,1.15,8.226,8.226,0,0,0,3.521-.824A2.8,2.8,0,0,0,1985.248-314.8Z" transform="translate(-1738.938 325.215)"/>
  </g>
</svg>
