<svg id="home" xmlns="http://www.w3.org/2000/svg" width="31.663" height="25.198" viewBox="0 0 31.663 25.198">
  <defs>
    <style>
      .cls-1 {
        fill: #fff;
      }
    </style>
  </defs>
  <g id="Group_1925" data-name="Group 1925" transform="translate(0 0)">
    <path id="Path_4210" data-name="Path 4210" class="cls-1" d="M77.01,120.939l-11.293,9.31a.267.267,0,0,1-.01.059.269.269,0,0,0-.01.059v9.427a1.275,1.275,0,0,0,1.257,1.257H74.5v-7.542h5.028v7.542h7.541a1.277,1.277,0,0,0,1.257-1.258v-9.427a.276.276,0,0,0-.02-.117Z" transform="translate(-61.179 -115.852)"/>
    <path id="Path_4211" data-name="Path 4211" class="cls-1" d="M31.444,59.269l-4.3-3.574V47.682a.605.605,0,0,0-.629-.628H22.744a.6.6,0,0,0-.628.628v3.83L17.324,47.5a2.436,2.436,0,0,0-2.985,0L.218,59.269A.57.57,0,0,0,0,59.691a.636.636,0,0,0,.137.462l1.218,1.453a.67.67,0,0,0,.412.216.73.73,0,0,0,.472-.137l13.59-11.332L29.422,61.685a.605.605,0,0,0,.412.137h.059a.671.671,0,0,0,.412-.216l1.218-1.453a.636.636,0,0,0,.137-.462A.572.572,0,0,0,31.444,59.269Z" transform="translate(0.001 -46.994)"/>
  </g>
</svg>
