<?xml version="1.0" encoding="utf-8"?>
<!-- Generator: Adobe Illustrator 21.0.0, SVG Export Plug-In . SVG Version: 6.00 Build 0)  -->
<svg version="1.1" id="Layer_1" xmlns="http://www.w3.org/2000/svg" xmlns:xlink="http://www.w3.org/1999/xlink" x="0px" y="0px"
	 viewBox="0 0 114 127.1" style="enable-background:new 0 0 114 127.1;" xml:space="preserve">
<style type="text/css">
	.st0{fill:#08BCD4;}
	.st1{fill:#FFFFFF;}
</style>
<path class="st1" d="M99.3,103.8c0,1.3,0,2.5,0,3.7c0,1.6-0.4,2-2,2c-26.6,0-53.2,0-79.8,0c-1.5,0-2-0.4-2-2c0-1.2,0-2.4,0-3.8
	c-0.9,0-1.7,0-2.6,0c-1.3,0-1.8-0.5-1.8-1.7c0-5.6,0-11.3,0-16.9c0-5.8,3.7-10.7,9.3-12.5c0.7-0.2,0.8-0.5,0.8-1.2
	c0-6.8,0-13.7,0-20.5c0-1.6,0.4-2.1,2.1-2.1c22.7,0,45.4,0,68.1,0c1.6,0,2.1,0.4,2.1,2.1c0,6.8,0,13.6,0,20.4c0,0.7,0.2,1.1,0.9,1.3
	c5.3,1.6,9.1,6.5,9.2,12.1c0.1,5.8,0,11.6,0,17.4c0,1.1-0.5,1.6-1.7,1.6C101.1,103.8,100.2,103.8,99.3,103.8z M100.7,96.6
	c0-0.3,0.1-0.4,0.1-0.6c0-3.6,0.1-7.3,0-10.9c-0.1-5.8-4.6-10.2-10.5-10.2c-21.9,0-43.8,0-65.7,0c-6,0-10.5,4.5-10.5,10.6
	c0,3.3,0,6.6,0,10c0,1.1,0,1.1,1.1,1.1c28.1,0,56.3,0,84.4,0C99.9,96.6,100.2,96.6,100.7,96.6z M90.5,72c0-6.8,0-13.4,0-20.1
	c-22.1,0-44.2,0-66.4,0c0,6.7,0,13.4,0,20.1c1,0,1.9,0,2.9,0c0-1,0-1.9,0-2.9c0-3.4,2.3-5.7,5.7-5.7c5.4,0,10.7,0,16.1,0
	c3.4,0,5.7,2.3,5.7,5.7c0,1,0,1.9,0,2.9c2,0,3.8,0,5.8,0c0-1,0-1.9,0-2.8c0-3.5,2.3-5.8,5.8-5.8c5.3,0,10.6,0,15.9,0
	c3.5,0,5.8,2.3,5.8,5.8c0,0.9,0,1.8,0,2.8C88.7,72,89.6,72,90.5,72z M96.3,103.9c-26,0-52,0-78,0c0,0.5,0,1,0,1.4c0,0.5,0,0.9,0,1.3
	c26.1,0,52,0,78,0C96.3,105.7,96.3,104.8,96.3,103.9z M51.5,72c0-0.2,0.1-0.3,0.1-0.5c0-0.9,0-1.9,0-2.8c-0.1-1.5-1-2.5-2.5-2.5
	c-5.5,0-11.1,0-16.6,0c-1.5,0-2.5,1.1-2.5,2.6c0,0.8,0,1.5,0,2.3c-0.1,0.7,0.2,0.9,0.9,0.9c5.2,0,10.4,0,15.5,0
	C48,72,49.7,72,51.5,72z M63.2,72c0.3,0,0.6,0,0.8,0c5.3,0,10.5,0,15.8,0c1.4,0,2.9,0,4.3,0c0.5,0,0.8-0.1,0.8-0.7
	c0-0.7,0-1.4,0-2.1c0-1.9-1-2.9-3-3c-2.7,0-5.4,0-8.1,0c-2.6,0-5.2,0-7.8,0c-1.5,0-2.6,0.8-2.7,2.2C63.1,69.6,63.2,70.7,63.2,72z
	 M100.7,99.5c-0.4,0-0.7,0-1.1,0c-28.2,0-56.3,0-84.5,0c-1.2,0-1.3,0.1-0.9,1.4c28.8,0,57.7,0,86.5,0
	C100.7,100.4,100.7,100,100.7,99.5z"/>
<path class="st1" d="M16.1,43.8c0.4-2.3,0.8-4.8,1.2-7.2c0.1-0.7,0-1.2-0.5-1.7c-1.7-1.6-3.3-3.2-5-4.9c-0.5-0.5-0.8-1-0.6-1.7
	c0.2-0.8,0.8-1,1.5-1.1c2.3-0.3,4.7-0.7,7-1c0.6-0.1,1-0.3,1.2-0.9c1-2.1,2-4.1,3-6.2c0.3-0.7,0.7-1.2,1.5-1.2
	c0.8,0,1.2,0.5,1.6,1.2c1,2,2,4,2.9,6c0.3,0.7,0.8,1,1.6,1.1c2.2,0.3,4.3,0.6,6.5,0.9c0.8,0.1,1.5,0.2,1.8,1.1
	c0.3,0.8-0.3,1.4-0.8,1.9c-1.6,1.6-3.2,3.2-4.9,4.7c-0.5,0.5-0.6,0.9-0.5,1.5c0.4,2.3,0.8,4.5,1.2,6.8c0.1,0.4,0.1,0.9,0,1.3
	c-0.3,0.9-1.2,1.1-2.2,0.6c-2.1-1.1-4.2-2.2-6.2-3.3c-0.6-0.4-1.1-0.3-1.8,0c-2.1,1.1-4.2,2.2-6.3,3.3
	C17.2,45.8,16.1,45.2,16.1,43.8z M25.6,22.7c-0.2,0.4-0.4,0.7-0.5,0.9c-0.6,1.3-1.3,2.6-1.9,3.9c-0.4,1-1.1,1.4-2.1,1.5
	c-1.5,0.2-3,0.4-4.5,0.6c-0.2,0-0.4,0.1-0.7,0.2c0.8,0.8,1.5,1.5,2.2,2.2c3,3.1,2.6,1.7,1.9,6.1c-0.2,1-0.3,2-0.5,3.2
	c1.6-0.9,3.1-1.6,4.5-2.4c1.1-0.7,2.1-0.7,3.2,0c1.4,0.8,2.9,1.5,4.5,2.4c-0.1-0.5-0.1-0.8-0.1-1.1c-0.3-1.5-0.5-3-0.8-4.5
	c-0.2-0.8,0-1.4,0.6-2c1.2-1.1,2.3-2.2,3.4-3.4c0.2-0.2,0.3-0.4,0.5-0.7c-1.3-0.2-2.5-0.4-3.6-0.5c-3.7-0.6-2.8,0-4.5-3.3
	C26.7,24.9,26.2,23.9,25.6,22.7z"/>
<path class="st1" d="M47.9,43.7c0.4-2.2,0.8-4.7,1.2-7.1c0.1-0.7,0-1.1-0.5-1.6c-1.7-1.6-3.3-3.2-5-4.8c-0.5-0.5-0.9-1-0.7-1.8
	c0.3-0.8,0.9-1,1.7-1.1c2.3-0.3,4.6-0.7,6.9-1c0.6-0.1,0.9-0.3,1.2-0.9c1-2.1,2-4.1,3-6.2c0.3-0.7,0.7-1.3,1.6-1.2
	c0.8,0,1.2,0.6,1.5,1.2c1,2.1,2,4.1,3,6.2c0.3,0.5,0.6,0.8,1.2,0.9c2.3,0.3,4.6,0.7,6.9,1c0.7,0.1,1.4,0.3,1.6,1.1
	c0.3,0.8-0.2,1.3-0.7,1.8c-1.7,1.6-3.3,3.2-5,4.8c-0.5,0.5-0.6,1-0.5,1.6c0.4,2.3,0.8,4.6,1.2,7c0.1,0.6,0,1.2-0.5,1.6
	c-0.6,0.4-1.2,0.3-1.8,0c-2.1-1.1-4.2-2.2-6.2-3.3c-0.6-0.3-1-0.3-1.6,0c-2.1,1.2-4.3,2.3-6.4,3.4C48.9,45.9,47.8,45.2,47.9,43.7z
	 M67,29.8c-1.7-0.3-3.4-0.5-5.2-0.7c-1-0.1-1.6-0.6-2-1.5c-0.6-1.4-1.3-2.7-2-4.1c-0.1-0.2-0.3-0.4-0.5-0.7
	c-0.8,1.6-1.6,3.1-2.3,4.6c-0.5,1.1-1.2,1.6-2.4,1.7c-1.7,0.2-3.3,0.5-5.1,0.7c0.3,0.3,0.5,0.6,0.7,0.7c1.1,1.1,2.2,2.2,3.3,3.2
	c0.6,0.6,0.8,1.2,0.7,2c-0.3,1.3-0.5,2.6-0.7,3.9c-0.1,0.5-0.1,1-0.2,1.7c1.6-0.9,3.1-1.6,4.6-2.4c1-0.6,1.9-0.6,3,0
	c1.4,0.8,2.9,1.5,4.5,2.4c0-0.5-0.1-0.7-0.1-1c-0.2-1.5-0.5-2.9-0.8-4.4c-0.2-0.9,0-1.6,0.7-2.3C64.5,32.4,65.7,31.1,67,29.8z"/>
<path class="st1" d="M79.7,43.7c0.4-2.2,0.8-4.7,1.2-7.1c0.1-0.7,0-1.1-0.5-1.6c-1.7-1.6-3.3-3.2-5-4.9c-0.5-0.5-0.9-1-0.6-1.8
	c0.2-0.7,0.8-1,1.5-1.1c2.3-0.3,4.7-0.7,7-1c0.6-0.1,1-0.4,1.2-0.9c1-2.1,2-4.1,3-6.2c0.3-0.7,0.7-1.2,1.6-1.2
	c0.8,0,1.2,0.6,1.5,1.2c1,2.1,2.1,4.2,3.1,6.3c0.2,0.5,0.6,0.7,1.1,0.8c2.3,0.3,4.7,0.7,7,1c0.7,0.1,1.4,0.3,1.6,1.1
	c0.2,0.8-0.2,1.3-0.7,1.8c-1.7,1.6-3.3,3.3-5,4.9c-0.5,0.4-0.6,0.8-0.5,1.5c0.4,2.3,0.8,4.6,1.2,7c0.1,0.7,0.1,1.4-0.6,1.8
	c-0.6,0.4-1.2,0.2-1.8-0.1c-2.1-1.1-4.2-2.2-6.3-3.3c-0.5-0.3-0.9-0.3-1.4,0c-2.1,1.2-4.3,2.3-6.5,3.4
	C80.7,45.9,79.7,45.2,79.7,43.7z M98.7,29.8c-0.2,0-0.5-0.1-0.8-0.2c-1.5-0.2-3-0.5-4.5-0.6c-0.9-0.1-1.4-0.5-1.8-1.3
	c-0.6-1.4-1.3-2.8-2-4.2c-0.1-0.2-0.3-0.5-0.5-0.9c-0.9,1.8-1.7,3.4-2.5,5.1c-0.3,0.7-0.9,1.1-1.7,1.2c-1.6,0.2-3.2,0.5-4.8,0.7
	c-0.2,0-0.4,0.1-0.6,0.2c0.9,0.9,1.7,1.8,2.6,2.6c2.6,2.6,2.2,1.7,1.7,5.2c-0.2,1.2-0.4,2.3-0.6,3.7c0.4-0.2,0.7-0.3,1-0.4
	c1.3-0.7,2.7-1.4,4-2.1c0.8-0.5,1.5-0.4,2.3,0c1.3,0.7,2.7,1.4,4.1,2.2c0.2,0.1,0.4,0.2,0.8,0.3c-0.3-1.9-0.6-3.7-0.9-5.4
	c-0.2-0.9,0.1-1.5,0.7-2.2C96.3,32.5,97.4,31.1,98.7,29.8z"/>
</svg>
