<svg id="icon_chat-room" xmlns="http://www.w3.org/2000/svg" width="25.566" height="25.567" viewBox="0 0 25.566 25.567">
  <defs>
    <style>
      .cls-1 {
        fill: #1874b9;
      }
    </style>
  </defs>
  <path id="Union_11" data-name="Union 11" class="cls-1" d="M15.978,20.774H7.99l2.921-3.2h9.862a1.6,1.6,0,0,0,1.6-1.6V6.392h1.6a1.6,1.6,0,0,1,1.6,1.6V19.174a1.6,1.6,0,0,1-1.6,1.6h-3.2v4.793ZM4.793,14.381H1.6a1.6,1.6,0,0,1-1.6-1.6V1.6A1.6,1.6,0,0,1,1.6,0H17.576a1.6,1.6,0,0,1,1.6,1.6V12.783a1.6,1.6,0,0,1-1.6,1.6H9.588L4.793,19.174Z" transform="translate(0 0)"/>
</svg>
