<svg id="icon" xmlns="http://www.w3.org/2000/svg" width="21.863" height="20.496" viewBox="0 0 21.863 20.496">
  <defs>
    <style>
      .cls-1 {
        fill: #555;
      }
    </style>
  </defs>
  <path id="Path_4105" data-name="Path 4105" class="cls-1" d="M.683,7.851h.683v4.1H.683A.682.682,0,0,1,0,11.267V8.534A.684.684,0,0,1,.683,7.851Zm20.5,0H20.5v4.1h.684a.682.682,0,0,0,.683-.683V8.534A.684.684,0,0,0,21.179,7.851ZM19.13,6.485v12.3a1.365,1.365,0,0,1-1.366,1.366v1.366A1.365,1.365,0,0,1,16.4,22.882H15.03a1.366,1.366,0,0,1-1.366-1.366V20.149H8.2v1.366a1.365,1.365,0,0,1-1.366,1.366H5.466A1.366,1.366,0,0,1,4.1,21.516V20.149a1.366,1.366,0,0,1-1.366-1.366V6.485a4.1,4.1,0,0,1,4.1-4.1h8.2A4.1,4.1,0,0,1,19.13,6.485ZM8.2,5.119h5.466V3.752H8.2Zm-1.366,12.3a1.366,1.366,0,1,0-1.366,1.366A1.365,1.365,0,0,0,6.832,17.417Zm10.931,0A1.366,1.366,0,1,0,16.4,18.783,1.365,1.365,0,0,0,17.763,17.417Zm0-10.932H4.1v8.2H17.763v-8.2Z" transform="translate(0 -2.386)"/>
</svg>
