<svg id="Group_1214" data-name="Group 1214" xmlns="http://www.w3.org/2000/svg" width="462.503" height="547.101" viewBox="0 0 462.503 547.101">
  <defs>
    <style>
      .cls-1, .cls-14 {
        fill: #231f20;
      }

      .cls-1 {
        opacity: 0.13;
      }

      .cls-2 {
        fill: #92c53e;
      }

      .cls-3 {
        fill: #8a5e3c;
      }

      .cls-4 {
        fill: #7a5334;
      }

      .cls-5 {
        fill: #b7d234;
      }

      .cls-6 {
        fill: #fff;
      }

      .cls-7 {
        fill: #faaf40;
      }

      .cls-8 {
        fill: #d0d2d3;
      }

      .cls-9 {
        fill: #f58d3e;
      }

      .cls-10 {
        fill: #e6e7e8;
      }

      .cls-11 {
        fill: #52caf5;
      }

      .cls-12 {
        fill: #fff100;
      }

      .cls-13 {
        opacity: 0.31;
      }

      .cls-15 {
        fill: #414042;
      }

      .cls-16 {
        fill: #837167;
      }

      .cls-17 {
        opacity: 0.09;
      }

      .cls-18 {
        fill: #9a8479;
      }

      .cls-19 {
        opacity: 0.1;
      }

      .cls-20 {
        fill: #b39d94;
      }

      .cls-21 {
        opacity: 0.17;
      }

      .cls-22 {
        fill: #c1c3c5;
      }

      .cls-23 {
        fill: #e5e6e7;
      }

      .cls-24 {
        fill: #ced0d1;
      }

      .cls-25 {
        fill: #9b9d9f;
      }

      .cls-26 {
        fill: #594a42;
      }

      .cls-27 {
        fill: #806f65;
      }

      .cls-28 {
        fill: #fdc35a;
      }

      .cls-29 {
        fill: #6e5b52;
      }

      .cls-30 {
        fill: #a9abad;
      }

      .cls-31 {
        fill: #bbbdbf;
      }

      .cls-32 {
        fill: #78685f;
      }

      .cls-33 {
        fill: #ec1c24;
      }

      .cls-34 {
        fill: #f0f1f1;
      }

      .cls-35 {
        fill: #cd1b21;
      }

      .cls-36 {
        fill: #a31114;
      }

      .cls-37 {
        fill: #730000;
      }

      .cls-38 {
        fill: #775132;
      }

      .cls-39 {
        fill: #9a6944;
      }

      .cls-40 {
        fill: #8d603e;
      }

      .cls-41 {
        opacity: 0.21;
      }

      .cls-42 {
        fill: #d1ccbe;
      }

      .cls-43 {
        fill: #e4dece;
      }

      .cls-44, .cls-45 {
        fill: #1874b9;
      }

      .cls-44 {
        font-size: 99px;
        font-family: Amatic-Bold, Amatic;
        font-weight: 700;
      }
    </style>
  </defs>
  <path id="Path_2304" data-name="Path 2304" class="cls-1" d="M177.579,352.5c-69.433,0-68.449,30.128-35.429,34.867S309.9,399.609,309.9,399.609s29.649,14.838,87.6,14.838,61.084-25.025,61.084-25.025,62.347.346,60.583-19.3-112.04-13.489-112.04-13.489Z" transform="translate(-83.129 37.392)"/>
  <g id="Group_982" data-name="Group 982" transform="translate(0 122.637)">
    <g id="Group_973" data-name="Group 973" transform="translate(25.846 53.56)">
      <path id="Path_2307" data-name="Path 2307" class="cls-2" d="M163.05,212.215s-71.277.422-43.921,69.721l13.129-28.051-5.47-11.339,7.659,4.53Z" transform="translate(-112.877 -212.215)"/>
    </g>
    <g id="Group_974" data-name="Group 974" transform="translate(76.773 28.086)">
      <path id="Path_2308" data-name="Path 2308" class="cls-2" d="M146.309,220.051s7.846-24.559,35.93-24.559,37.2,21.631,37.2,21.631H182.876l-2.687-9.352-1.467,9.352Z" transform="translate(-146.309 -195.492)"/>
    </g>
    <g id="Group_975" data-name="Group 975" transform="translate(4.891 10.723)">
      <path id="Path_2309" data-name="Path 2309" class="cls-2" d="M169,226.015s-6.692-57.672-69.88-37.727l25.006,13.42,8.073-2.521-2.94,7.379Z" transform="translate(-99.121 -184.094)"/>
    </g>
    <g id="Group_976" data-name="Group 976" transform="translate(74.771 52.644)">
      <path id="Path_2310" data-name="Path 2310" class="cls-3" d="M184.386,378.905s-9.24-15.562,2.431-47.172-8.753-90.455-41.822-117.688l2-2.431s53.437,31.61,59.273,83.646-6.322,64.679,9.24,83.646C215.51,378.905,192.167,382.31,184.386,378.905Z" transform="translate(-144.995 -211.614)"/>
    </g>
    <g id="Group_977" data-name="Group 977" transform="translate(76.019 52.644)">
      <path id="Path_2311" data-name="Path 2311" class="cls-4" d="M205.841,295.26c-5.836-52.036-59.273-83.646-59.273-83.646l-.754.916c7.135,5.313,39.385,33.942,48.355,60.239,10.578,31,6.565,41.944,4.742,60.911-1.557,16.19-4.166,35.3,4.4,46.445,6.424-.44,11.767-1.219,11.767-1.219C199.519,359.939,211.677,347.3,205.841,295.26Z" transform="translate(-145.814 -211.614)"/>
    </g>
    <g id="Group_978" data-name="Group 978" transform="translate(52.743 53.56)">
      <path id="Path_2312" data-name="Path 2312" class="cls-5" d="M153.81,212.215s-43.921,29.846-11.1,83.34l5.472-34.408-6.014-5.106,7.108.73Z" transform="translate(-130.534 -212.215)"/>
    </g>
    <g id="Group_979" data-name="Group 979" transform="translate(0 36.026)">
      <path id="Path_2313" data-name="Path 2313" class="cls-5" d="M172.683,217.323S155,197.506,132.018,201.153,95.91,227.414,95.91,242.733L131.29,229.6l.728-12.279,7.8,9.725Z" transform="translate(-95.91 -200.705)"/>
    </g>
    <g id="Group_980" data-name="Group 980" transform="translate(76.019 49.717)">
      <path id="Path_2314" data-name="Path 2314" class="cls-5" d="M145.814,213.535l34.009,21.577,6.687-6.565-2.189,9.482,27.721,19.331s2.917-30.272-21.885-41.944S145.814,213.535,145.814,213.535Z" transform="translate(-145.814 -209.692)"/>
    </g>
    <g id="Group_981" data-name="Group 981" transform="translate(70.682)">
      <path id="Path_2315" data-name="Path 2315" class="cls-5" d="M147.647,230.614s-14.139-22.555,3.613-41.888,43.46-10.212,51.943-4.011L175.578,202.1l-9.484-2.067,3.557,7.722Z" transform="translate(-142.311 -177.055)"/>
    </g>
  </g>
  <g id="Group_992" data-name="Group 992" transform="translate(99.474 35.215)">
    <g id="Group_983" data-name="Group 983" transform="translate(15.89 66.072)">
      <path id="Path_2316" data-name="Path 2316" class="cls-2" d="M247.481,167.7s-76.744-28.831-75.83,56.854l25.631-24.741-1.219-14.429,6.367,8.014Z" transform="translate(-171.644 -163.039)"/>
    </g>
    <g id="Group_984" data-name="Group 984" transform="translate(92.915 55.222)">
      <path id="Path_2317" data-name="Path 2317" class="cls-2" d="M222.208,170.759s18.519-23.159,48.689-11.62,31.077,38.523,31.077,38.523l-39.281-15.024.955-11.149-5.417,9.443Z" transform="translate(-222.208 -155.916)"/>
    </g>
    <g id="Group_985" data-name="Group 985" transform="translate(31.197)">
      <path id="Path_2318" data-name="Path 2318" class="cls-2" d="M241.259,188.906s16.506-64.705-59.567-69.241l21.347,24.693,9.709.609-6.189,6.718Z" transform="translate(-181.692 -119.665)"/>
    </g>
    <g id="Group_986" data-name="Group 986" transform="translate(64.18 70.064)">
      <path id="Path_2319" data-name="Path 2319" class="cls-3" d="M203.51,360.736s-3.533-20.514,21.993-49.676,27.762-100.767,3.426-143.61l3.15-1.79s44.418,55.914,29.307,114.211-33.366,66.885-24.441,93.654C236.945,373.524,210.47,367.591,203.51,360.736Z" transform="translate(-203.344 -165.66)"/>
    </g>
    <g id="Group_987" data-name="Group 987" transform="translate(83.518 70.064)">
      <path id="Path_2320" data-name="Path 2320" class="cls-4" d="M254.743,279.871c15.111-58.3-29.307-114.211-29.307-114.211l-1.187.673c5.482,8.64,28.364,52.645,27.2,84.579-1.376,37.651-10.182,47.757-19.932,67.383-8.325,16.753-18.98,36.207-14.354,51.7,7.082,2.166,13.141,3.526,13.141,3.526C221.377,346.755,239.633,338.169,254.743,279.871Z" transform="translate(-216.039 -165.66)"/>
    </g>
    <g id="Group_988" data-name="Group 988" transform="translate(43.631 70.737)">
      <path id="Path_2321" data-name="Path 2321" class="cls-5" d="M237.952,166.1s-59.447,14.017-46.162,84.969L211.8,216.357l-4.361-7.956,7.335,3.7Z" transform="translate(-189.854 -166.102)"/>
    </g>
    <g id="Group_989" data-name="Group 989" transform="translate(0 35.006)">
      <path id="Path_2322" data-name="Path 2322" class="cls-5" d="M254.127,177.7s-10.857-28.556-37.04-34.078S167.506,157,161.212,173.456l43.4.431L210.443,161l4.381,13.65Z" transform="translate(-161.212 -142.646)"/>
    </g>
    <g id="Group_990" data-name="Group 990" transform="translate(91.728 70.657)">
      <path id="Path_2323" data-name="Path 2323" class="cls-5" d="M221.429,166.13,249.1,203.283l9.88-4.306-6.247,9.289,21.836,32.155s15.573-31.322-6.276-54.051S221.429,166.13,221.429,166.13Z" transform="translate(-221.429 -166.049)"/>
    </g>
    <g id="Group_991" data-name="Group 991" transform="translate(91.178 22.76)">
      <path id="Path_2324" data-name="Path 2324" class="cls-5" d="M221.618,182.584s-5.923-30.041,21.092-43.513,50.883,6.885,57.448,17.032l-36.82,7.327L254,157.312l.647,9.757Z" transform="translate(-221.068 -134.606)"/>
    </g>
  </g>
  <g id="Group_1005" data-name="Group 1005" transform="translate(49.584 226.999)">
    <g id="Group_993" data-name="Group 993" transform="translate(14.057 15.017)">
      <path id="Path_2325" data-name="Path 2325" class="cls-6" d="M203.511,295.842l-38.031-40.418-27.793,26.149,38.031,40.419a2.956,2.956,0,0,0,4.166.128l23.5-22.112A2.956,2.956,0,0,0,203.511,295.842Z" transform="translate(-137.688 -255.424)"/>
    </g>
    <g id="Group_994" data-name="Group 994">
      <path id="Path_2326" data-name="Path 2326" class="cls-7" d="M157.051,246.489a2.956,2.956,0,0,0-4.166-.126l-23.5,22.111a2.955,2.955,0,0,0-.126,4.166l13.259,14.092,27.793-26.149Z" transform="translate(-128.46 -245.566)"/>
    </g>
    <g id="Group_995" data-name="Group 995" transform="translate(36.798 21.525)">
      <rect id="Rectangle_378" data-name="Rectangle 378" class="cls-8" width="52.011" height="1.179" transform="translate(0.858 0) rotate(46.744)"/>
    </g>
    <g id="Group_996" data-name="Group 996" transform="translate(30.681 24.453)">
      <rect id="Rectangle_379" data-name="Rectangle 379" class="cls-8" width="22.101" height="5.304" transform="translate(3.863 0) rotate(46.744)"/>
    </g>
    <g id="Group_997" data-name="Group 997" transform="translate(25.37 29.451)">
      <rect id="Rectangle_380" data-name="Rectangle 380" class="cls-8" width="22.101" height="5.304" transform="translate(3.863 0) rotate(46.744)"/>
    </g>
    <g id="Group_998" data-name="Group 998" transform="translate(20.112 34.398)">
      <rect id="Rectangle_381" data-name="Rectangle 381" class="cls-8" width="22.101" height="5.304" transform="translate(3.863 0) rotate(46.744)"/>
    </g>
    <g id="Group_999" data-name="Group 999" transform="translate(47.819 42.72)">
      <rect id="Rectangle_382" data-name="Rectangle 382" class="cls-8" width="22.101" height="5.304" transform="matrix(0.685, 0.728, -0.728, 0.685, 3.863, 0)"/>
    </g>
    <g id="Group_1000" data-name="Group 1000" transform="translate(42.507 47.718)">
      <rect id="Rectangle_383" data-name="Rectangle 383" class="cls-8" width="22.101" height="5.304" transform="matrix(0.685, 0.728, -0.728, 0.685, 3.863, 0)"/>
    </g>
    <g id="Group_1001" data-name="Group 1001" transform="translate(37.249 52.666)">
      <rect id="Rectangle_384" data-name="Rectangle 384" class="cls-8" width="22.101" height="5.304" transform="translate(3.863 0) rotate(46.744)"/>
    </g>
    <g id="Group_1002" data-name="Group 1002" transform="translate(11.514 13.058)">
      <path id="Path_2327" data-name="Path 2327" class="cls-9" d="M151.145,267.749l-.329-.973-.134-.4a3.549,3.549,0,0,0,.324-.277.465.465,0,0,0,.043-.052.233.233,0,0,0,.037-.177A.379.379,0,0,0,151,265.7a.622.622,0,0,0-.148-.129.4.4,0,0,0-.151-.062.072.072,0,0,0-.038.011,1.187,1.187,0,0,0-.21.184l-.509-1.507.049-.035.073-.055,0,0h0c.133-.1.25-.187.347-.265a1.743,1.743,0,0,0,.294-.27l0-.006a.22.22,0,0,0,.011-.163.814.814,0,0,0-.035-.11,2.51,2.51,0,0,0-.332-.544c-.075-.1-.154-.193-.236-.283a2.022,2.022,0,0,0-.679-.551.189.189,0,0,0-.075-.009.108.108,0,0,0-.03.009l-.041.023v0l-.008.006a.994.994,0,0,0-.088.065l-.591-1.749-.088-.26c.367-.379.7-.754.989-1.117l.085-.108a12.527,12.527,0,0,0,.788-1.107c.034-.055.067-.108.1-.161.105-.177.2-.346.279-.506l.055-.113a4.386,4.386,0,0,0,.222-.55c.02-.066.038-.128.053-.187a1.125,1.125,0,0,0,.017-.6.4.4,0,0,0-.034-.078.321.321,0,0,0-.047-.069h0c-.149-.165-.451-.2-.864-.125q-.062.011-.128.027c-.087.021-.178.046-.274.076-.143.044-.3.1-.455.166a9.246,9.246,0,0,0-.911.442c-.353.2-.731.427-1.123.695-.069.047-.137.094-.206.143-.277.2-.561.408-.847.638l-.017-.008-.018-.008.011-.012.011-.011h0l-.049-.023-.238-.105-.027.02-2.058-.917c.034-.029.062-.056.09-.081l0,0h0a.96.96,0,0,0,.154-.171.171.171,0,0,0,.015-.037c.032-.172-.267-.585-.615-.935q-.066-.066-.133-.128a3.053,3.053,0,0,0-.267-.224,1.5,1.5,0,0,0-.126-.09c-.165-.107-.3-.158-.387-.119l-.008.006a3.023,3.023,0,0,0-.474.455l-.12.134c-.043.047-.085.1-.129.148h0l-.094.111-1.019-.455a1.628,1.628,0,0,0,.123-.119l.023-.029c.154-.23-.168-.51-.347-.536h0c-.034,0-.114.059-.219.166l-.067.07c-.047.049-.1.1-.149.165l-1.336-.6-1.01.919h0l1.235,1.21,1.237,1.21-.04.061-.052.082,0,.008,0,0h0a3.415,3.415,0,0,0-.242.454,1.084,1.084,0,0,0-.064.18.318.318,0,0,0-.009.152.113.113,0,0,0,.024.049c.129.143.506.055.984-.154h0l.006,0,0,0c.053-.023.11-.049.166-.075l1.133,1.109,1.089,1.065c-1.141,1.275-2.317,2.724-3.22,3.93l-.189.254c-.061.082-.122.165-.18.245l.111-.168.111-.166-2.975-.582-.852,1.248h0l2.5,1.325.1-.145a3.092,3.092,0,0,0-.143.28.648.648,0,0,0-.056.186.083.083,0,0,0,.014.066.063.063,0,0,0,.032.015,1.14,1.14,0,0,0,.515-.151l-.041.023-.113.061,1.085,2.611,1.322-.731-.3-3.016h0l-.157.084-.2.107c1.114-.66,2.512-1.566,3.84-2.506.308-.216.611-.434.9-.652l1.666,2.058c-.035.059-.07.119-.1.177v0l0,0h0a2.973,2.973,0,0,0-.27.606c-.047.168-.046.3.018.367a.231.231,0,0,0,.206.035,2.653,2.653,0,0,0,.676-.256h0l0,0,.087-.044.072-.037,2.459,3.033h0Z" transform="translate(-136.019 -254.138)"/>
    </g>
    <g id="Group_1003" data-name="Group 1003" transform="translate(2.232 24.243)">
      <rect id="Rectangle_385" data-name="Rectangle 385" class="cls-9" width="17.513" height="1.965" transform="matrix(0.685, 0.728, -0.728, 0.685, 1.431, 0)"/>
    </g>
    <g id="Group_1004" data-name="Group 1004" transform="translate(23.551 2.501)">
      <rect id="Rectangle_386" data-name="Rectangle 386" class="cls-9" width="17.513" height="4.42" transform="translate(3.219 0) rotate(46.744)"/>
    </g>
  </g>
  <g id="Group_1018" data-name="Group 1018" transform="translate(85.977 211.854)">
    <g id="Group_1006" data-name="Group 1006" transform="translate(6.024 20.483)">
      <path id="Path_2328" data-name="Path 2328" class="cls-6" d="M209.538,301.941,192.659,249.07l-36.353,11.606,16.878,52.869a2.956,2.956,0,0,0,3.7,1.912l30.739-9.813A2.956,2.956,0,0,0,209.538,301.941Z" transform="translate(-156.306 -249.07)"/>
    </g>
    <g id="Group_1007" data-name="Group 1007">
      <path id="Path_2329" data-name="Path 2329" class="cls-7" d="M188.844,237.673a2.957,2.957,0,0,0-3.7-1.91L154.4,245.576a2.954,2.954,0,0,0-1.91,3.7l5.885,18.433,36.353-11.606Z" transform="translate(-152.352 -235.624)"/>
    </g>
    <g id="Group_1008" data-name="Group 1008" transform="translate(34.663 24.547)">
      <rect id="Rectangle_387" data-name="Rectangle 387" class="cls-8" width="52.011" height="1.179" transform="translate(1.123 0) rotate(72.295)"/>
    </g>
    <g id="Group_1009" data-name="Group 1009" transform="translate(26.663 25.846)">
      <rect id="Rectangle_388" data-name="Rectangle 388" class="cls-8" width="22.101" height="5.304" transform="translate(5.053 0) rotate(72.295)"/>
    </g>
    <g id="Group_1010" data-name="Group 1010" transform="translate(19.715 28.064)">
      <rect id="Rectangle_389" data-name="Rectangle 389" class="cls-8" width="22.101" height="5.304" transform="translate(5.053 0) rotate(72.295)"/>
    </g>
    <g id="Group_1011" data-name="Group 1011" transform="translate(12.837 30.26)">
      <rect id="Rectangle_390" data-name="Rectangle 390" class="cls-8" width="22.101" height="5.304" transform="matrix(0.304, 0.953, -0.953, 0.304, 5.053, 0)"/>
    </g>
    <g id="Group_1012" data-name="Group 1012" transform="translate(34.245 49.719)">
      <rect id="Rectangle_391" data-name="Rectangle 391" class="cls-8" width="22.101" height="5.304" transform="translate(5.053 0) rotate(72.295)"/>
    </g>
    <g id="Group_1013" data-name="Group 1013" transform="translate(27.298 51.937)">
      <rect id="Rectangle_392" data-name="Rectangle 392" class="cls-8" width="22.101" height="5.304" transform="translate(5.053 0) rotate(72.295)"/>
    </g>
    <g id="Group_1014" data-name="Group 1014" transform="translate(20.42 54.132)">
      <rect id="Rectangle_393" data-name="Rectangle 393" class="cls-8" width="22.101" height="5.304" transform="translate(5.053 0) rotate(72.294)"/>
    </g>
    <g id="Group_1015" data-name="Group 1015" transform="translate(11.096 6.813)">
      <path id="Path_2330" data-name="Path 2330" class="cls-9" d="M172.168,257.721l.123-1.022.05-.414a3.528,3.528,0,0,0,.413-.111c.024-.011.047-.02.061-.027a.233.233,0,0,0,.11-.145.373.373,0,0,0,0-.187.608.608,0,0,0-.076-.18.414.414,0,0,0-.11-.122.069.069,0,0,0-.04-.006,1.145,1.145,0,0,0-.268.075l.19-1.578.059-.012.09-.017h0c.161-.032.306-.061.428-.09a1.753,1.753,0,0,0,.382-.117l.006,0a.22.22,0,0,0,.079-.142.6.6,0,0,0,.017-.114,2.522,2.522,0,0,0-.066-.634c-.024-.119-.056-.241-.091-.358a2.036,2.036,0,0,0-.373-.791.2.2,0,0,0-.064-.041.1.1,0,0,0-.032,0l-.047,0h0l-.009,0a.962.962,0,0,0-.107.02l.221-1.831.032-.274c.494-.184.952-.381,1.372-.582l.125-.059a12.82,12.82,0,0,0,1.188-.66l.158-.1c.171-.114.327-.225.469-.335l.1-.078a4.3,4.3,0,0,0,.437-.4c.047-.049.09-.1.129-.145a1.131,1.131,0,0,0,.273-.529.561.561,0,0,0,0-.087.462.462,0,0,0-.014-.082h0c-.064-.212-.318-.378-.725-.484-.041-.011-.084-.021-.128-.03q-.13-.027-.279-.05c-.149-.021-.311-.037-.483-.046a9.413,9.413,0,0,0-1.013,0c-.4.023-.844.07-1.313.143l-.247.04q-.5.087-1.04.212l-.012-.015-.012-.014.015-.006.015-.006h0l-.037-.041-.168-.2-.034.006-1.461-1.715c.043-.011.081-.023.116-.034h.006a.978.978,0,0,0,.212-.088.1.1,0,0,0,.029-.026c.105-.14.012-.643-.151-1.111-.021-.058-.043-.116-.064-.172-.046-.113-.094-.221-.143-.317-.026-.049-.05-.093-.076-.136-.1-.166-.207-.274-.3-.274l-.009,0a3.042,3.042,0,0,0-.623.209l-.168.069-.18.076h0l-.134.059-.724-.85a1.576,1.576,0,0,0,.165-.055l.032-.015c.239-.14.07-.533-.081-.634h0c-.029-.018-.129,0-.271.055l-.09.034c-.064.024-.133.053-.206.084l-.949-1.114-1.305.393h0l.593,1.624.594,1.625-.061.038-.082.052-.008,0,0,0h0a3.88,3.88,0,0,0-.414.3,1.135,1.135,0,0,0-.136.136.328.328,0,0,0-.073.134.1.1,0,0,0,0,.055c.055.184.433.267.952.285h.012c.059,0,.12,0,.183,0l.545,1.49.522,1.43c-1.578.66-3.264,1.459-4.6,2.157l-.28.148-.268.145.172-.1.174-.1-2.434-1.807-1.305.759h0l1.68,2.273.152-.09a3.007,3.007,0,0,0-.251.192.684.684,0,0,0-.131.143.085.085,0,0,0-.015.064.066.066,0,0,0,.023.029,1.159,1.159,0,0,0,.529.087l-.046,0-.13.006L161.3,254.4l1.508-.09,1.03-2.85h0l-.177.008-.224.012c1.289-.114,2.943-.329,4.547-.6.37-.064.737-.131,1.1-.2l.617,2.574c-.059.04-.116.078-.169.116l0,0,0,0h0a2.9,2.9,0,0,0-.5.431c-.116.131-.169.247-.142.34.015.052.075.091.169.119a2.648,2.648,0,0,0,.722.062h.006l.1,0,.081,0,.909,3.8h0Z" transform="translate(-159.636 -240.096)"/>
    </g>
    <g id="Group_1016" data-name="Group 1016" transform="translate(2.074 12.337)">
      <rect id="Rectangle_394" data-name="Rectangle 394" class="cls-9" width="17.513" height="1.965" transform="translate(1.872 0) rotate(72.295)"/>
    </g>
    <g id="Group_1017" data-name="Group 1017" transform="translate(29.959 2.688)">
      <rect id="Rectangle_395" data-name="Rectangle 395" class="cls-9" width="17.513" height="4.42" transform="translate(4.211 0) rotate(72.295)"/>
    </g>
  </g>
  <g id="Group_1057" data-name="Group 1057" transform="translate(131.359 201.396)">
    <g id="Group_1020" data-name="Group 1020" transform="translate(0 6.322)">
      <g id="Group_1019" data-name="Group 1019">
        <path id="Path_2331" data-name="Path 2331" class="cls-10" d="M182.143,244.114l9.943,93.1,28.819-10.44L210.88,232.908Z" transform="translate(-182.143 -232.908)"/>
      </g>
    </g>
    <g id="Group_1022" data-name="Group 1022" transform="translate(28.737 6.322)">
      <g id="Group_1021" data-name="Group 1021">
        <path id="Path_2332" data-name="Path 2332" class="cls-10" d="M231.464,237.792l9.943,93.1-30.373-4.118-10.025-93.861Z" transform="translate(-201.008 -232.908)"/>
      </g>
    </g>
    <g id="Group_1024" data-name="Group 1024" transform="translate(59.192)">
      <g id="Group_1023" data-name="Group 1023">
        <path id="Path_2333" data-name="Path 2333" class="cls-10" d="M221,239.964l9.943,93.1,28.819-10.44-10.024-93.862Z" transform="translate(-221.001 -228.758)"/>
      </g>
    </g>
    <g id="Group_1026" data-name="Group 1026" transform="translate(87.929)">
      <g id="Group_1025" data-name="Group 1025">
        <path id="Path_2334" data-name="Path 2334" class="cls-10" d="M270.322,233.642l9.943,93.1-30.373-4.118-10.024-93.862Z" transform="translate(-239.866 -228.758)"/>
      </g>
    </g>
    <g id="Group_1027" data-name="Group 1027" transform="translate(2.168 2.36)">
      <path id="Path_2335" data-name="Path 2335" class="cls-11" d="M219.909,325.781l-26.9,9.743-9.445-88.437,26.821-10.459,30.455,4.884,28.737-11.206L298,234.866,307.45,323.3,279.1,319.46,250.283,329.9Z" transform="translate(-183.567 -230.307)"/>
    </g>
    <g id="Group_1028" data-name="Group 1028" transform="translate(3.493 15.209)">
      <path id="Path_2336" data-name="Path 2336" class="cls-6" d="M299.047,244.473l-.188-1.764-28.2-3.945-.158-.022-28.807,10.436-25.929-4.545-.161-.029-31.164,10.478.187,1.755,31.124-10.464,26.106,4.576,28.83-10.444Z" transform="translate(-184.437 -238.742)"/>
    </g>
    <g id="Group_1029" data-name="Group 1029" transform="translate(21.102 11.002)">
      <path id="Path_2337" data-name="Path 2337" class="cls-6" d="M218.349,235.98l5.233,48.986a.493.493,0,0,1,0,.084c-.443.806-5.14-.273-6.907-.678a24.556,24.556,0,0,0-3.7-.688c-2.711-.1-11.7,1.935-14.936,4.357-2.887,2.162-2.116,7.959-1.3,14.1.178,1.336.361,2.719.5,4.047l2.312,21.645,1.441-.521-2.273-21.282c-.145-1.354-.331-2.75-.51-4.1-.708-5.332-1.441-10.846.666-12.422,2.928-2.194,11.512-4.191,14.1-4.09a24.784,24.784,0,0,1,3.456.655c4.2.963,7.036,1.5,8.174.279a1.892,1.892,0,0,0,.454-1.54l-5.188-48.582Z" transform="translate(-195.996 -235.98)"/>
    </g>
    <g id="Group_1030" data-name="Group 1030" transform="translate(23.394 36.674)">
      <path id="Path_2338" data-name="Path 2338" class="cls-6" d="M294.3,256.679l-.187-1.747c-10.337-.864-26.956-2.219-28.161-2.09a20.1,20.1,0,0,0-4.331,1.476,34.829,34.829,0,0,1-3.461,1.3l-.143.04c-2.25.623-5.648,1.566-5.048,7.19l2.25,21.072c.049.451.107.951.168,1.481.286,2.465,1.046,9.015-.093,9.483-1.782.733-12.723,3.851-17.314,4.341-2.486.265-9.656-.518-15.979-1.211-5.26-.576-9.8-1.072-11.19-.923-3.027.323-12.892,4.753-13.311,4.94l.577,1.618c.1-.046,10.093-4.533,12.918-4.835a103.827,103.827,0,0,1,10.913.925c6.39.7,13.632,1.491,16.255,1.211,4.8-.512,15.8-3.662,17.669-4.431,2.072-.851,1.715-5.415,1.033-11.294-.061-.524-.117-1.016-.165-1.462l-2.251-21.072c-.44-4.128,1.7-4.721,3.961-5.347l.143-.04a35.888,35.888,0,0,0,3.61-1.353,20.3,20.3,0,0,1,3.974-1.386C267.1,254.464,281.561,255.613,294.3,256.679Z" transform="translate(-197.501 -252.833)"/>
    </g>
    <g id="Group_1031" data-name="Group 1031" transform="translate(106.276 38.497)">
      <path id="Path_2339" data-name="Path 2339" class="cls-6" d="M257.765,309l1.519.206L253.39,254.03l-1.48.158Z" transform="translate(-251.91 -254.03)"/>
    </g>
    <g id="Group_1033" data-name="Group 1033" transform="translate(96.38 17.057)">
      <g id="Group_1032" data-name="Group 1032" transform="translate(0 0)">
        <rect id="Rectangle_396" data-name="Rectangle 396" class="cls-6" width="1.488" height="20.965" transform="matrix(0.994, -0.106, 0.106, 0.994, 0, 0.158)"/>
      </g>
    </g>
    <g id="Group_1034" data-name="Group 1034" transform="translate(5.291 41.042)">
      <path id="Path_2340" data-name="Path 2340" class="cls-6" d="M185.617,263.045l.186,1.744c9.563-2.737,24.965-7.083,27.157-7.318,3.165-.338,14.845,1.526,14.962,1.546l.157-1.715c-.487-.078-11.969-1.912-15.3-1.555C210.488,255.992,195.234,260.292,185.617,263.045Z" transform="translate(-185.617 -255.701)"/>
    </g>
    <g id="Group_1036" data-name="Group 1036" transform="translate(63.771 26.319)">
      <g id="Group_1035" data-name="Group 1035">
        <path id="Path_2341" data-name="Path 2341" class="cls-6" d="M224.022,250.58l1.037,9.716a2.007,2.007,0,0,0,2.338,1.936l5.543-1.443a2.1,2.1,0,0,0,1.4-2.334l-1.114-10.431a1.971,1.971,0,0,0-2.527-1.874l-5.467,2.155A2.151,2.151,0,0,0,224.022,250.58Z" transform="translate(-224.007 -246.035)"/>
      </g>
    </g>
    <g id="Group_1038" data-name="Group 1038" transform="translate(75.855 21.677)">
      <g id="Group_1037" data-name="Group 1037">
        <path id="Path_2342" data-name="Path 2342" class="cls-6" d="M231.957,248.562l.96,8.974a2.321,2.321,0,0,0,2.733,2.238l7.373-2.015a2.444,2.444,0,0,0,1.6-2.7l-1.042-9.763a2.288,2.288,0,0,0-2.917-2.178l-7.287,2.8A2.493,2.493,0,0,0,231.957,248.562Z" transform="translate(-231.94 -242.988)"/>
      </g>
    </g>
    <g id="Group_1039" data-name="Group 1039" transform="translate(8.155 58.333)">
      <path id="Path_2343" data-name="Path 2343" class="cls-6" d="M303.723,288.438c-2.186-.085-4.766-.222-7.345-.44-12.5-1.059-12.854-3.015-12.855-3.034-.139-1.295-.254-3.363-.376-5.554-.547-9.824-.877-11.714-2.073-11.891a61.082,61.082,0,0,0-10.553-.347c-1.586.171-6.85,2.32-12.947,4.808-6.424,2.623-13.705,5.6-15.851,5.825-2.207.235-9.24-.574-15.446-1.29-5.539-.638-10.32-1.19-11.743-1.037-2.353.251-19.332,5.865-27.035,8.439l.187,1.753c10.013-3.351,25-8.252,27.032-8.468,1.281-.137,6.454.459,11.458,1.036,6.579.757,13.382,1.542,15.731,1.29,2.328-.248,9.38-3.127,16.2-5.912,5.5-2.247,11.19-4.568,12.6-4.719a60.275,60.275,0,0,1,9.981.308c.472,1.26.785,6.853.973,10.262.123,2.216.241,4.311.384,5.656.181,1.692,2.018,3.564,14.275,4.6,2.673.227,5.35.366,7.592.452Z" transform="translate(-187.497 -267.052)"/>
    </g>
    <g id="Group_1040" data-name="Group 1040" transform="translate(70.812 49.377)">
      <path id="Path_2344" data-name="Path 2344" class="cls-6" d="M279.306,264.424c-10.173-1.347-29.287-3.756-31.381-3.158l-1.211.349c-4.089,1.176-12.6,3.621-14.324,4.329-1.839.756-4.127,1.7-3.711,5.6l4.267,39.941,1.441-.522-4.227-39.575c-.26-2.442.826-3.012,2.768-3.81,1.659-.681,10.439-3.205,14.188-4.282l1.213-.349c1.619-.466,17.885,1.47,31.165,3.234Z" transform="translate(-228.63 -261.172)"/>
    </g>
    <g id="Group_1041" data-name="Group 1041" transform="translate(49.664 68.979)">
      <path id="Path_2345" data-name="Path 2345" class="cls-6" d="M218.02,304.852l1.519.206-3.313-31.017-1.48.158Z" transform="translate(-214.747 -274.041)"/>
    </g>
    <g id="Group_1042" data-name="Group 1042" transform="translate(4.354 31.609)">
      <path id="Path_2346" data-name="Path 2346" class="cls-12" d="M303.592,284.163c-9.353-1.048-26.444-2.957-28.106-3.1a4.353,4.353,0,0,0-3.82,1.516,3.878,3.878,0,0,0-.861,2.888l.859,8.045c.557,5.22-.1,6.3-.548,6.488-2,.819-19.861,7.318-21.9,7.536-1.7.181-5.7.381-5.918-1.694l-4.862-45.524c-.5-4.646-1.371-9.434-4.1-9.732-2.012-.219-18.184-1.42-22.24-.986-2.74.292-17.631,4.917-27.093,7.915l.25,2.332c10.885-3.453,24.658-7.69,27.089-7.949,3.86-.413,19.957.777,21.873.986.436.047,1.526.888,2.247,7.644l4.862,45.525c.224,2.1,1.817,4.456,8.136,3.781,2.41-.257,20.475-6.876,22.374-7.656,2.635-1.083,2.073-6.346,1.8-8.876l-.859-8.045a1.446,1.446,0,0,1,.352-1.06,2.617,2.617,0,0,1,2.276-.832c1.642.139,19.2,2.1,28.437,3.135Z" transform="translate(-185.002 -249.508)"/>
    </g>
    <g id="Group_1044" data-name="Group 1044" transform="translate(10.765 76.476)">
      <g id="Group_1043" data-name="Group 1043">
        <path id="Path_2347" data-name="Path 2347" class="cls-6" d="M189.228,283.612l2.087,19.539a2.387,2.387,0,0,0,3.044,2.271l4.951-1.916a2.6,2.6,0,0,0,1.479-2.753l-2.072-19.387a2.392,2.392,0,0,0-2.989-2.289l-4.969,1.762A2.586,2.586,0,0,0,189.228,283.612Z" transform="translate(-189.211 -278.962)"/>
      </g>
    </g>
    <g id="Group_1046" data-name="Group 1046" transform="translate(22.964 46.046)">
      <g id="Group_1045" data-name="Group 1045">
        <path id="Path_2348" data-name="Path 2348" class="cls-6" d="M197.233,263.436l.657,6.153a1.985,1.985,0,0,0,2.422,1.906l5.033-1.615a2.124,2.124,0,0,0,1.31-2.306l-.705-6.6a1.963,1.963,0,0,0-2.548-1.86l-4.984,2.067A2.151,2.151,0,0,0,197.233,263.436Z" transform="translate(-197.218 -258.986)"/>
      </g>
    </g>
    <g id="Group_1048" data-name="Group 1048" transform="translate(40.371 85.157)">
      <g id="Group_1047" data-name="Group 1047">
        <path id="Path_2349" data-name="Path 2349" class="cls-6" d="M210.923,294.844l5.562.65a1.83,1.83,0,0,0,1.843-2.191l-.632-5.921a1.983,1.983,0,0,0-1.545-1.814l-5.586-.888a1.818,1.818,0,0,0-1.906,2.181l.658,6.16A1.964,1.964,0,0,0,210.923,294.844Z" transform="translate(-208.646 -284.661)"/>
      </g>
    </g>
    <g id="Group_1050" data-name="Group 1050" transform="translate(74.271 6.544)">
      <g id="Group_1049" data-name="Group 1049">
        <path id="Path_2350" data-name="Path 2350" class="cls-6" d="M230.911,238.87l.352,3.286a1.448,1.448,0,0,0,1.857,1.379l8.821-3.47a1.581,1.581,0,0,0,.893-1.673l-.413-3.875a1.439,1.439,0,0,0-1.925-1.35l-8.757,4.058A1.6,1.6,0,0,0,230.911,238.87Z" transform="translate(-230.9 -233.054)"/>
      </g>
    </g>
    <g id="Group_1052" data-name="Group 1052" transform="translate(17.733 13.362)">
      <g id="Group_1051" data-name="Group 1051">
        <path id="Path_2351" data-name="Path 2351" class="cls-6" d="M193.8,242l.41,3.846a1.45,1.45,0,0,0,1.855,1.379l6.191-2.421a1.581,1.581,0,0,0,.894-1.673l-.443-4.143a1.44,1.44,0,0,0-1.9-1.359l-6.159,2.718A1.592,1.592,0,0,0,193.8,242Z" transform="translate(-193.785 -237.53)"/>
      </g>
    </g>
    <g id="Group_1054" data-name="Group 1054" transform="translate(78.103 86.482)">
      <g id="Group_1053" data-name="Group 1053">
        <path id="Path_2352" data-name="Path 2352" class="cls-6" d="M233.425,290.867l.285,2.673a1.2,1.2,0,0,0,1.507,1.139l10.441-3.874a1.3,1.3,0,0,0,.751-1.38l-.288-2.695a1.193,1.193,0,0,0-1.508-1.138l-10.438,3.9A1.291,1.291,0,0,0,233.425,290.867Z" transform="translate(-233.416 -285.531)"/>
      </g>
    </g>
    <g id="Group_1055" data-name="Group 1055" class="cls-13" transform="translate(88.181 2.36)">
      <path id="Path_2353" data-name="Path 2353" class="cls-14" d="M240.032,230.307l9.521,89.152L277.9,323.3l-9.445-88.437Z" transform="translate(-240.032 -230.307)"/>
    </g>
    <g id="Group_1056" data-name="Group 1056" class="cls-13" transform="translate(29.264 8.919)">
      <path id="Path_2354" data-name="Path 2354" class="cls-14" d="M201.354,234.613l9.522,89.152,28.348,3.843-9.445-88.437Z" transform="translate(-201.354 -234.613)"/>
    </g>
  </g>
  <g id="Group_1094" data-name="Group 1094" transform="translate(248.97 104.911)">
    <g id="Group_1079" data-name="Group 1079" transform="translate(0 67.609)">
      <g id="Group_1058" data-name="Group 1058" transform="translate(51.863 236.45)">
        <rect id="Rectangle_397" data-name="Rectangle 397" class="cls-15" width="15.351" height="17.324" rx="4.741"/>
      </g>
      <g id="Group_1059" data-name="Group 1059" transform="translate(125.997 227.788)">
        <rect id="Rectangle_398" data-name="Rectangle 398" class="cls-15" width="15.351" height="17.324" rx="4.741"/>
      </g>
      <g id="Group_1060" data-name="Group 1060">
        <path id="Path_2355" data-name="Path 2355" class="cls-16" d="M421.629,213.734l-39.91-2.812c-11.049-2.631-99.34-.658-112.5,6.255-8.093,4.252-9.868,19.4-9.868,36.507V427.589c0,8.885,9.623,20.261,20.624,22.1h0c1.951.328,3.945,1.139,5.938,1.091l38.788,6.774s5.37-3.639,12.622-8.526c16.159-1.663,30.863-3.3,34.525-4.538,7.9-2.657,26.975-10.552,26.975-30.946V321C410.228,267.763,421.629,213.734,421.629,213.734Z" transform="translate(-259.352 -209.802)"/>
      </g>
      <g id="Group_1061" data-name="Group 1061" class="cls-17" transform="translate(1.031 10.826)">
        <path id="Path_2356" data-name="Path 2356" class="cls-6" d="M260.029,231.74l52.915,5.094,4.6-15.79-52.573-4.134C262.425,220.367,260.9,225.554,260.029,231.74Z" transform="translate(-260.029 -216.909)"/>
      </g>
      <g id="Group_1062" data-name="Group 1062" transform="translate(39.912 2.813)">
        <path id="Path_2357" data-name="Path 2357" class="cls-18" d="M407.918,212.767c-11.047-2.629-99.34-.657-112.5,6.256-8.093,4.252-9.868,19.4-9.868,36.507V437.988c0,11.617,16.447,20.756,30.92,18.161s73.683-7.149,81.577-9.807,26.973-10.552,26.973-30.946V258.82C425.023,235.794,421.734,216.058,407.918,212.767Z" transform="translate(-285.553 -211.648)"/>
      </g>
      <g id="Group_1063" data-name="Group 1063" class="cls-19" transform="translate(0 128.745)">
        <path id="Path_2358" data-name="Path 2358" class="cls-14" d="M438.734,372.134V294.319a262.244,262.244,0,0,1-10.965,68.888c-10.965,35.526-63.595,32.894-93.858,30.819s-34.647-40.906-34.647-40.906-4.387,39.912-22.368,38.472c-16.79-1.342-17.521-28.737-17.544-32.367v24.137c0,8.885,9.623,20.261,20.624,22.1h0c1.951.328,3.945,1.139,5.938,1.091l28.862,5.041a32.333,32.333,0,0,0,9.909,1.73l.017,0,0,0a28.972,28.972,0,0,0,5.478-.44c14.473-2.6,73.683-7.149,81.577-9.807S438.734,392.529,438.734,372.134Z" transform="translate(-259.352 -294.319)"/>
      </g>
      <g id="Group_1064" data-name="Group 1064" transform="translate(46.819 44.244)">
        <path id="Path_2359" data-name="Path 2359" class="cls-16" d="M290.087,271.846c0,10.526,2.3,19.941,7.9,20.333s96.16-6.189,102.519-7.833,7.676-15.132,7.676-24.342-2.961-20.065-16.118-21.052-81.577,5.263-90.459,5.592S290.087,254.741,290.087,271.846Z" transform="translate(-290.087 -238.847)"/>
      </g>
      <g id="Group_1065" data-name="Group 1065" class="cls-17" transform="translate(44.367 5.939)">
        <path id="Path_2360" data-name="Path 2360" class="cls-6" d="M288.518,242.46s-1.645-20.77,16.118-23.872,78.617-6.063,92.432-4.418,17.763,5.263,20.723,19.078c0,0-3.947-16.775-22.7-16.447s-76.972,2.961-86.84,4.277S290.49,229.3,288.518,242.46Z" transform="translate(-288.478 -213.7)"/>
      </g>
      <g id="Group_1066" data-name="Group 1066" transform="translate(51.862 45.121)">
        <path id="Path_2361" data-name="Path 2361" class="cls-20" d="M293.4,272.422c0,10.526,2.3,19.941,7.9,20.331s96.16-6.188,102.519-7.833,7.676-15.131,7.676-24.341-2.96-20.066-16.118-21.052-81.577,5.263-90.459,5.592S293.4,255.317,293.4,272.422Z" transform="translate(-293.398 -239.423)"/>
      </g>
      <g id="Group_1067" data-name="Group 1067" transform="translate(46.306 102.268)">
        <path id="Path_2362" data-name="Path 2362" class="cls-16" d="M290.348,309.937c0,10.526-5.592,67.688,17.434,66.384,5.6-.317,77.715-5.842,84.217-6.782,21.044-3.045,16.439-62.234,16.439-71.444s-2.96-20.065-16.118-21.052-81.577,5.263-90.459,5.592S290.348,292.832,290.348,309.937Z" transform="translate(-289.751 -276.938)"/>
      </g>
      <g id="Group_1068" data-name="Group 1068" transform="translate(51.863 104.021)">
        <path id="Path_2363" data-name="Path 2363" class="cls-20" d="M294,311.09c0,10.526-5.592,67.686,17.434,66.384,5.6-.317,77.715-5.842,84.217-6.782,21.043-3.045,16.438-62.234,16.438-71.444s-2.96-20.066-16.118-21.053-81.577,5.265-90.458,5.592S294,293.985,294,311.09Z" transform="translate(-293.399 -278.089)"/>
      </g>
      <g id="Group_1069" data-name="Group 1069" class="cls-21" transform="translate(54.814 48.9)">
        <path id="Path_2364" data-name="Path 2364" class="cls-6" d="M295.345,264.8s.219-16.261,7.676-17.139,81.8-6.36,90.129-5.7,14.036,6.36,13.378,15.35c0,0-1.535-12.281-14.474-12.937s-80.259,5-86.84,5.7S295.126,261.106,295.345,264.8Z" transform="translate(-295.336 -241.903)"/>
      </g>
      <g id="Group_1070" data-name="Group 1070" class="cls-21" transform="translate(55.798 108.241)">
        <path id="Path_2365" data-name="Path 2365" class="cls-6" d="M295.991,303.754s.219-16.261,7.676-17.139,81.8-6.36,90.13-5.7,14.034,6.36,13.376,15.35c0,0-1.536-12.281-14.473-12.939s-80.261,5-86.84,5.7S295.772,300.062,295.991,303.754Z" transform="translate(-295.982 -280.859)"/>
      </g>
      <g id="Group_1074" data-name="Group 1074" transform="translate(62.388 54.099)">
        <g id="Group_1072" data-name="Group 1072">
          <g id="Group_1071" data-name="Group 1071">
            <path id="Path_2366" data-name="Path 2366" class="cls-6" d="M300.8,252.058a.494.494,0,0,1-.041-.986c.716-.059,71.764-6.009,91.329-5.747a.493.493,0,0,1,.487.5.481.481,0,0,1-.5.487c-19.481-.277-90.519,5.685-91.235,5.744Z" transform="translate(-300.308 -245.316)"/>
          </g>
        </g>
        <g id="Group_1073" data-name="Group 1073" transform="translate(0.648 5.492)">
          <path id="Path_2367" data-name="Path 2367" class="cls-6" d="M305.421,252.17c-.265-1.863-.957-3.248-2.128-3.248s-1.863,1.385-2.13,3.248-1.543,7.748,2.13,7.748S305.688,254.031,305.421,252.17Zm-2.128-2.941c.515,0,.931.558.931,1.245s-.416,1.245-.931,1.245-.931-.558-.931-1.245S302.778,249.228,303.293,249.228Zm0,10.339c-2.475,0-2.262-3.433-2.262-3.433h4.443S305.769,259.567,303.293,259.567Z" transform="translate(-300.734 -248.922)"/>
        </g>
      </g>
      <g id="Group_1078" data-name="Group 1078" transform="translate(64.774 115.634)">
        <g id="Group_1076" data-name="Group 1076">
          <g id="Group_1075" data-name="Group 1075">
            <path id="Path_2368" data-name="Path 2368" class="cls-6" d="M302.368,292.454a.494.494,0,0,1-.041-.986c.716-.059,71.764-6.009,91.329-5.747a.491.491,0,0,1,.486.5.479.479,0,0,1-.5.487c-19.48-.279-90.517,5.683-91.233,5.744Z" transform="translate(-301.874 -285.712)"/>
          </g>
        </g>
        <g id="Group_1077" data-name="Group 1077" transform="translate(0.648 5.492)">
          <path id="Path_2369" data-name="Path 2369" class="cls-6" d="M306.988,292.566c-.265-1.863-.958-3.248-2.128-3.248s-1.863,1.385-2.13,3.248-1.543,7.747,2.13,7.747S307.254,294.427,306.988,292.566Zm-2.128-2.941c.513,0,.931.558.931,1.245s-.417,1.245-.931,1.245-.932-.558-.932-1.245S304.345,289.624,304.86,289.624Zm0,10.339c-2.475,0-2.262-3.434-2.262-3.434h4.443S307.333,299.963,304.86,299.963Z" transform="translate(-302.299 -289.318)"/>
        </g>
      </g>
    </g>
    <g id="Group_1083" data-name="Group 1083" transform="translate(44.351 63.733)">
      <g id="Group_1080" data-name="Group 1080" transform="translate(2.877)">
        <path id="Path_2370" data-name="Path 2370" class="cls-22" d="M290.356,208.055c.85-.393,8.436-.654,9.548-.784s9.4.757,9.888,1.474-9.1,2.318-9.1,2.318Z" transform="translate(-290.356 -207.258)"/>
      </g>
      <g id="Group_1081" data-name="Group 1081" transform="translate(0 0.797)">
        <path id="Path_2371" data-name="Path 2371" class="cls-23" d="M288.467,214.991s1.7-7.21,2.878-7.21,9.941.653,10.333.915,0,8.11,0,8.11Z" transform="translate(-288.467 -207.781)"/>
      </g>
      <g id="Group_1082" data-name="Group 1082" transform="translate(13.21 1.248)">
        <path id="Path_2372" data-name="Path 2372" class="cls-24" d="M297.139,208.542s8.895-1.046,9.419,0,1.176,6.867,1.176,6.867l-10.595,1.243Z" transform="translate(-297.139 -208.077)"/>
      </g>
    </g>
    <g id="Group_1087" data-name="Group 1087" transform="translate(103.078 62.664)">
      <g id="Group_1084" data-name="Group 1084" transform="translate(2.306)">
        <path id="Path_2373" data-name="Path 2373" class="cls-22" d="M328.534,207.156c.676-.308,6.695-.492,7.577-.591s7.457.631,7.839,1.2-7.228,1.81-7.228,1.81Z" transform="translate(-328.534 -206.556)"/>
      </g>
      <g id="Group_1085" data-name="Group 1085" transform="translate(0 0.6)">
        <path id="Path_2374" data-name="Path 2374" class="cls-23" d="M327.02,212.661s1.373-5.714,2.306-5.711,7.885.551,8.194.76-.026,6.433-.026,6.433Z" transform="translate(-327.02 -206.95)"/>
      </g>
      <g id="Group_1086" data-name="Group 1086" transform="translate(10.474 1.013)">
        <path id="Path_2375" data-name="Path 2375" class="cls-24" d="M333.922,207.568s7.059-.8,7.472.03a37.4,37.4,0,0,1,.911,5.45L333.9,214Z" transform="translate(-333.896 -207.221)"/>
      </g>
    </g>
    <g id="Group_1090" data-name="Group 1090" transform="translate(51.533 1.866)">
      <g id="Group_1088" data-name="Group 1088">
        <path id="Path_2376" data-name="Path 2376" class="cls-25" d="M293.182,228.952V179.807c0-4.824.282-11.842,9.79-12.06s40.337-.877,45.536-1.1,7.831,4.824,7.831,10.087v51.3H349.76V181.781c0-4.6-1.951-6.36-6.567-6.579s-38.326,1.316-40.221,1.536-1.895,3.727-1.895,7.018v45.2S296.472,230.729,293.182,228.952Z" transform="translate(-293.182 -166.643)"/>
      </g>
      <g id="Group_1089" data-name="Group 1089" transform="translate(3.51)">
        <path id="Path_2377" data-name="Path 2377" class="cls-22" d="M295.486,229.61v-49.8c0-4.824.28-11.842,9.789-12.06s40.337-.877,45.537-1.1,7.83,4.824,7.83,10.087v51.3h-6.578V181.781c0-4.6-1.953-6.36-6.568-6.579s-38.326,1.316-40.221,1.536-1.895,3.727-1.895,7.018v45.2S298.775,231.386,295.486,229.61Z" transform="translate(-295.486 -166.643)"/>
      </g>
    </g>
    <g id="Group_1091" data-name="Group 1091" transform="translate(64.687)">
      <path id="Path_2378" data-name="Path 2378" class="cls-26" d="M304.783,168.279v8.971l-1.944.13s.189,2.194,3.039,2.084,31.908-1.426,33.662-1.535,2.961-3.618,2.523-6.689-.877-5.7-3.51-5.811-33.223.877-34.647.877-2.088,2.137-2.088,2.137Z" transform="translate(-301.817 -165.418)"/>
    </g>
    <g id="Group_1092" data-name="Group 1092" class="cls-19" transform="translate(65.709 3.879)">
      <path id="Path_2379" data-name="Path 2379" class="cls-14" d="M336.01,173.414c-4.934.219-22.916.548-26.863.439s-4.715-4.715-4.715-4.715v6.779l-1.944.129s.189,2.194,3.039,2.082,31.908-1.424,33.662-1.534,2.961-3.618,2.523-6.689c-.1-.678-.2-1.328-.318-1.941C340.775,170.076,339.3,173.268,336.01,173.414Z" transform="translate(-302.488 -167.965)"/>
    </g>
    <g id="Group_1093" data-name="Group 1093" class="cls-17" transform="translate(64.912)">
      <path id="Path_2380" data-name="Path 2380" class="cls-6" d="M341,167.135a2.761,2.761,0,0,0-2.524-1.708c-2.632-.11-33.223.877-34.649.877-.957,0-1.563.954-1.863,1.587.174.166.359.335.565.506l2.175-.119v1.575a16.348,16.348,0,0,0,8.771,1.714c9.868-.548,18.857-.145,23.246-.439C339.505,170.943,341,169.052,341,167.135Z" transform="translate(-301.965 -165.418)"/>
    </g>
  </g>
  <g id="Group_1172" data-name="Group 1172" transform="translate(61.794 262.158)">
    <g id="Group_1136" data-name="Group 1136" transform="translate(70.314 2.324)">
      <path id="Path_2397" data-name="Path 2397" class="cls-27" d="M219.636,271.267l-23.643-1.094a1.544,1.544,0,0,0-.862.227l0-.014-2.349,1.086,1.348.71L189.9,285.594a1.572,1.572,0,0,1-1.688,1.088l-2.323-.283a1.535,1.535,0,0,0-.882.178l-.021-.015-2.353,1.094L184,288.712a1.554,1.554,0,0,0,1.382,1.7l.923.094,1.593,1.238,2.446-1.141,0,0a1.561,1.561,0,0,0,.689-.835l5.505-16.031a1.569,1.569,0,0,1,1.56-1.059l20.354.963A2.563,2.563,0,0,1,219.636,271.267Z" transform="translate(-182.635 -270.172)"/>
    </g>
    <g id="Group_1165" data-name="Group 1165" transform="translate(0 13.378)">
      <g id="Group_1137" data-name="Group 1137" transform="translate(6.751)">
        <path id="Path_2398" data-name="Path 2398" class="cls-9" d="M329.963,290.508s-161.146-12.6-165.648-13.055a6.018,6.018,0,0,0-2.721.4h0c-.209.078-.417.158-.622.257l-20.063,8.316,14.4,11.638v98.219c0,5.852,5.4,8.553,10.8,9.454,4.081.681,92.153,8.552,137.514,12.168l10.82,8.742,18.535-7.577c.2-.072.4-.158.593-.242h0c3.679-1.577,5.836-5.173,5.836-10.39V304.462C339.415,295.459,335.436,290.936,329.963,290.508Z" transform="translate(-140.908 -277.428)"/>
      </g>
      <g id="Group_1138" data-name="Group 1138" transform="translate(0 9.002)">
        <path id="Path_2399" data-name="Path 2399" class="cls-7" d="M311.125,296.419s-161.146-12.6-165.648-13.055-9,4.952-9,8.553V402.2c0,5.852,5.4,8.553,10.8,9.454s158,14.4,163.847,13.953,9.454-4.5,9.454-11.253V310.372C320.578,301.369,316.6,296.847,311.125,296.419Z" transform="translate(-136.476 -283.338)"/>
      </g>
      <g id="Group_1139" data-name="Group 1139" transform="translate(2.714 11.214)">
        <path id="Path_2400" data-name="Path 2400" class="cls-28" d="M138.468,297.459s-2.7-13.729,11.254-12.6,147.642,11.927,154.394,12.6,11.929,2.7,11.029,15.754c0,0,.225-11.478-12.829-12.6s-143.367-12.153-150.569-12.6S141.395,287.78,138.468,297.459Z" transform="translate(-138.258 -284.79)"/>
      </g>
      <g id="Group_1140" data-name="Group 1140" class="cls-19" transform="translate(0 106.257)">
        <path id="Path_2401" data-name="Path 2401" class="cls-14" d="M311.125,392.195a10.3,10.3,0,0,0,5.644-2.046h0l18.535-7.577c.2-.072.4-.158.593-.242h0c3.679-1.577,5.836-5.173,5.836-10.39V347.183c0,6.751-.274,27.768-10.8,29.258s-10.352-19.2-10.352-19.2c0,20.412-14.4,26.851-23.858,26.851s-111.181-8.552-136.839-11.7c-12.646-1.552-19.6-8.465-23.405-15.075v11.473c0,5.852,5.4,8.553,10.8,9.454S305.274,392.646,311.125,392.195Z" transform="translate(-136.476 -347.183)"/>
      </g>
      <g id="Group_1141" data-name="Group 1141" transform="translate(36.842 1.992)">
        <path id="Path_2402" data-name="Path 2402" class="cls-26" d="M198.991,280.36s-15.819,7.54-18.436,9.216-1.82,14.2-1.82,22.3V418.215l-18.072-1.625V292.836c0-7.063,17.771-14.1,17.771-14.1Z" transform="translate(-160.662 -278.736)"/>
      </g>
      <g id="Group_1142" data-name="Group 1142" transform="translate(115.166 8.24)">
        <path id="Path_2403" data-name="Path 2403" class="cls-26" d="M253.13,284.578s-18.542,8.186-21.16,9.862-1.819,14.2-1.819,22.3V423.077l-18.072-1.624V297.7c0-7.064,23.474-14.861,23.474-14.861Z" transform="translate(-212.079 -282.838)"/>
      </g>
      <g id="Group_1143" data-name="Group 1143" transform="translate(31.048 1.992)">
        <path id="Path_2404" data-name="Path 2404" class="cls-29" d="M180.423,278.736s-14.849,4.683-17.771,9.271-5.558,19.823-5.784,25.9,3.376,12.6,8.328,12.828,8.326-4.5,10.127-12.378,1.848-22.132,8.587-25.559,17.072-8.436,17.072-8.436Z" transform="translate(-156.858 -278.736)"/>
      </g>
      <g id="Group_1144" data-name="Group 1144" transform="translate(112.092 8.24)">
        <path id="Path_2405" data-name="Path 2405" class="cls-29" d="M233.626,282.838s-14.849,4.683-17.769,9.271-5.56,19.823-5.785,25.9,3.377,12.6,8.328,12.828,8.328-4.5,10.128-12.378,1.848-22.132,8.587-25.559,17.072-8.436,17.072-8.436Z" transform="translate(-210.062 -282.838)"/>
      </g>
      <g id="Group_1145" data-name="Group 1145" transform="translate(39.978 6.848)">
        <path id="Path_2406" data-name="Path 2406" class="cls-18" d="M163.264,283.319s19.85,2.3,21.069,2.373,3.391-.987,1.942-1.432-19.739-2.332-21.162-2.337S161.766,283.146,163.264,283.319Z" transform="translate(-162.721 -281.924)"/>
      </g>
      <g id="Group_1146" data-name="Group 1146" transform="translate(48.878 3.092)">
        <path id="Path_2407" data-name="Path 2407" class="cls-18" d="M169.075,280.59s18.79,1.836,19.945,1.89,3.228-.8,1.858-1.162-18.685-1.858-20.033-1.86S167.657,280.451,169.075,280.59Z" transform="translate(-168.563 -279.458)"/>
      </g>
      <g id="Group_1147" data-name="Group 1147" transform="translate(121.721 12.76)">
        <path id="Path_2408" data-name="Path 2408" class="cls-18" d="M216.926,287.2s19.849,2.3,21.069,2.373,3.391-.987,1.941-1.432-19.739-2.332-21.16-2.335S215.428,287.025,216.926,287.2Z" transform="translate(-216.383 -285.805)"/>
      </g>
      <g id="Group_1148" data-name="Group 1148" transform="translate(130.621 9.002)">
        <path id="Path_2409" data-name="Path 2409" class="cls-18" d="M222.735,284.47s18.79,1.836,19.946,1.89,3.226-.8,1.858-1.162-18.685-1.858-20.033-1.86S221.319,284.331,222.735,284.47Z" transform="translate(-222.225 -283.338)"/>
      </g>
      <g id="Group_1152" data-name="Group 1152" transform="translate(119.734 61.018)">
        <g id="Group_1149" data-name="Group 1149">
          <path id="Path_2410" data-name="Path 2410" class="cls-30" d="M223.18,321.537a4.051,4.051,0,1,1-4.052-4.052A4.052,4.052,0,0,1,223.18,321.537Z" transform="translate(-215.078 -317.485)"/>
        </g>
        <g id="Group_1150" data-name="Group 1150">
          <path id="Path_2411" data-name="Path 2411" class="cls-31" d="M215.078,321.537a4.024,4.024,0,0,0,1.06,2.711,3.794,3.794,0,0,0,1.851.5,3.828,3.828,0,0,0,1.848-7.187,4,4,0,0,0-.708-.072A4.051,4.051,0,0,0,215.078,321.537Z" transform="translate(-215.078 -317.485)"/>
        </g>
        <g id="Group_1151" data-name="Group 1151" transform="translate(1.223 1.871)">
          <path id="Path_2412" data-name="Path 2412" class="cls-8" d="M217.991,320.191c0,.815-.472,1.478-1.054,1.478s-1.056-.663-1.056-1.478.472-1.478,1.056-1.478S217.991,319.374,217.991,320.191Z" transform="translate(-215.881 -318.713)"/>
        </g>
      </g>
      <g id="Group_1156" data-name="Group 1156" transform="translate(40.776 56.968)">
        <g id="Group_1153" data-name="Group 1153">
          <path id="Path_2413" data-name="Path 2413" class="cls-30" d="M171.346,318.876a4.051,4.051,0,1,1-4.05-4.05A4.052,4.052,0,0,1,171.346,318.876Z" transform="translate(-163.244 -314.826)"/>
        </g>
        <g id="Group_1154" data-name="Group 1154">
          <path id="Path_2414" data-name="Path 2414" class="cls-31" d="M163.244,318.876a4.022,4.022,0,0,0,1.06,2.712,3.8,3.8,0,0,0,1.852.5A3.828,3.828,0,0,0,168,314.9a4.18,4.18,0,0,0-.708-.07A4.051,4.051,0,0,0,163.244,318.876Z" transform="translate(-163.244 -314.826)"/>
        </g>
        <g id="Group_1155" data-name="Group 1155" transform="translate(1.225 1.871)">
          <path id="Path_2415" data-name="Path 2415" class="cls-8" d="M166.158,317.53c0,.816-.472,1.478-1.056,1.478s-1.054-.661-1.054-1.478.472-1.476,1.054-1.476S166.158,316.715,166.158,317.53Z" transform="translate(-164.048 -316.054)"/>
        </g>
      </g>
      <g id="Group_1160" data-name="Group 1160" transform="translate(119.734 124.716)">
        <g id="Group_1157" data-name="Group 1157">
          <path id="Path_2416" data-name="Path 2416" class="cls-30" d="M223.18,363.353a4.051,4.051,0,1,1-4.052-4.052A4.051,4.051,0,0,1,223.18,363.353Z" transform="translate(-215.078 -359.301)"/>
        </g>
        <g id="Group_1158" data-name="Group 1158">
          <path id="Path_2417" data-name="Path 2417" class="cls-31" d="M215.078,363.353a4.024,4.024,0,0,0,1.06,2.711,3.8,3.8,0,0,0,1.851.5,3.828,3.828,0,0,0,1.848-7.187,4.155,4.155,0,0,0-.708-.072A4.051,4.051,0,0,0,215.078,363.353Z" transform="translate(-215.078 -359.301)"/>
        </g>
        <g id="Group_1159" data-name="Group 1159" transform="translate(1.223 1.872)">
          <path id="Path_2418" data-name="Path 2418" class="cls-8" d="M217.991,362.006c0,.817-.472,1.478-1.054,1.478s-1.056-.661-1.056-1.478.472-1.476,1.056-1.476S217.991,361.191,217.991,362.006Z" transform="translate(-215.881 -360.53)"/>
        </g>
      </g>
      <g id="Group_1164" data-name="Group 1164" transform="translate(40.776 118.486)">
        <g id="Group_1161" data-name="Group 1161">
          <path id="Path_2419" data-name="Path 2419" class="cls-30" d="M171.346,359.261a4.051,4.051,0,1,1-4.05-4.05A4.052,4.052,0,0,1,171.346,359.261Z" transform="translate(-163.244 -355.211)"/>
        </g>
        <g id="Group_1162" data-name="Group 1162">
          <path id="Path_2420" data-name="Path 2420" class="cls-31" d="M163.244,359.261a4.021,4.021,0,0,0,1.06,2.711,3.8,3.8,0,0,0,1.852.5A3.828,3.828,0,0,0,168,355.283a4.005,4.005,0,0,0-4.76,3.979Z" transform="translate(-163.244 -355.211)"/>
        </g>
        <g id="Group_1163" data-name="Group 1163" transform="translate(1.225 1.871)">
          <path id="Path_2421" data-name="Path 2421" class="cls-8" d="M166.158,357.915c0,.817-.472,1.478-1.056,1.478s-1.054-.661-1.054-1.478.472-1.476,1.054-1.476S166.158,357.1,166.158,357.915Z" transform="translate(-164.048 -356.439)"/>
        </g>
      </g>
    </g>
    <g id="Group_1166" data-name="Group 1166" transform="translate(69.234 3.445)">
      <path id="Path_2422" data-name="Path 2422" class="cls-18" d="M219,272.07l-25.043-1.161a1.573,1.573,0,0,0-1.571,1.1l-4.518,14.325a1.571,1.571,0,0,1-1.688,1.086l-2.323-.283a1.572,1.572,0,0,0-1.734,1.272l-.166.888a1.57,1.57,0,0,0,1.385,1.851l4,.407a1.573,1.573,0,0,0,1.645-1.053l5.505-16.031a1.572,1.572,0,0,1,1.56-1.06L219.1,274.5A3.232,3.232,0,0,1,219,272.07Z" transform="translate(-181.926 -270.908)"/>
    </g>
    <g id="Group_1167" data-name="Group 1167" transform="translate(84.886)">
      <path id="Path_2423" data-name="Path 2423" class="cls-27" d="M197.341,268.658c1.772.1,15.358.876,17.554,1.013,4.052.253,4.079,8.022,0,7.933-1.276-.027-19.328-1.181-21.268-1.35S190.768,268.3,197.341,268.658Z" transform="translate(-192.201 -268.646)"/>
    </g>
    <g id="Group_1168" data-name="Group 1168" class="cls-19" transform="translate(84.896 1.11)">
      <path id="Path_2424" data-name="Path 2424" class="cls-14" d="M215.353,269.375c-3.836,1.622-1.33,6.168-2.43,6.273-1.182.113-14.011-.675-17.331-.844a3.565,3.565,0,0,1-3.248-3.15c-.451,1.989.27,4.131,1.278,4.22,1.941.169,19.992,1.322,21.268,1.35C218.806,277.308,218.928,270.179,215.353,269.375Z" transform="translate(-192.208 -269.375)"/>
    </g>
    <g id="Group_1169" data-name="Group 1169" transform="translate(108.198 3.61)">
      <path id="Path_2425" data-name="Path 2425" class="cls-32" d="M221.521,290.047l-2.186-.158a1.572,1.572,0,0,1-1.444-1.372L215.9,272.562a1.573,1.573,0,0,0-1.485-1.376l-5.7-.171a2.18,2.18,0,0,0-1.191,2.367l4.334.114a1.571,1.571,0,0,1,1.493,1.444l1.325,16.811a1.569,1.569,0,0,0,1.461,1.443l2.614.177.938,1.091,2.442-1.141-.006-.015a1.543,1.543,0,0,0,.749-1.016l.075-.359A1.57,1.57,0,0,0,221.521,290.047Z" transform="translate(-207.505 -271.016)"/>
    </g>
    <g id="Group_1170" data-name="Group 1170" transform="translate(108.209 4.608)">
      <path id="Path_2426" data-name="Path 2426" class="cls-18" d="M219.107,290.826l-2.186-.16a1.569,1.569,0,0,1-1.446-1.371l-1.989-15.955A1.57,1.57,0,0,0,212,271.967l-4.3-.3a3.232,3.232,0,0,0,.107,2.428l1.634.177a1.571,1.571,0,0,1,1.491,1.446l1.327,16.81a1.57,1.57,0,0,0,1.459,1.444l5.1.344a1.571,1.571,0,0,0,1.644-1.249l.075-.361A1.569,1.569,0,0,0,219.107,290.826Z" transform="translate(-207.512 -271.671)"/>
    </g>
    <g id="Group_1171" data-name="Group 1171" class="cls-17" transform="translate(85.457)">
      <path id="Path_2427" data-name="Path 2427" class="cls-6" d="M197.144,268.658c-2.459-.134-3.868.871-4.568,2.192a3.908,3.908,0,0,0,3.724,2.83c3.827.267,12.716.774,14.122.661,1.177-.094,1-3.214,2.215-4.794C208.135,269.284,198.61,268.739,197.144,268.658Z" transform="translate(-192.576 -268.646)"/>
    </g>
  </g>
  <g id="Group_1199" data-name="Group 1199" transform="translate(374.603 0)">
    <g id="Group_1197" data-name="Group 1197">
      <g id="Group_1173" data-name="Group 1173" transform="translate(0 4.471)">
        <path id="Path_2428" data-name="Path 2428" class="cls-33" d="M369.75,99.483s-15.762-.4-23.831,18.612-6.34,49.365,24.907,82.975Z" transform="translate(-341.826 -99.483)"/>
      </g>
      <g id="Group_1174" data-name="Group 1174" transform="translate(5.21 2.117)">
        <path id="Path_2429" data-name="Path 2429" class="cls-34" d="M375.966,98.127s-14.637-3.429-25.174,18.84-6.907,48.368,18.245,84.912l7.429.935Z" transform="translate(-345.247 -97.937)"/>
      </g>
      <g id="Group_1175" data-name="Group 1175" transform="translate(13.823 0.524)">
        <path id="Path_2430" data-name="Path 2430" class="cls-33" d="M380.889,97.486s-5.854-2.323-12.372,2.21-18.129,16.051-17.6,46.86,16.733,56.068,16.733,56.068l3.849.484Z" transform="translate(-350.9 -96.891)"/>
      </g>
      <g id="Group_1176" data-name="Group 1176" transform="translate(24.545 0.214)">
        <path id="Path_2431" data-name="Path 2431" class="cls-34" d="M383.134,97.745s-6.058-2.945-10.988.995-13.193,17.771-14.135,44.617,7.572,59.576,7.572,59.576l4.239.535Z" transform="translate(-357.939 -96.688)"/>
      </g>
      <g id="Group_1177" data-name="Group 1177" transform="translate(42.643 9.628)">
        <path id="Path_2432" data-name="Path 2432" class="cls-33" d="M396.047,102.868s15.369,3.52,18.473,23.939-6.095,49.4-44.7,74.21Z" transform="translate(-369.82 -102.868)"/>
      </g>
      <g id="Group_1178" data-name="Group 1178" transform="translate(35.215 5.548)">
        <path id="Path_2433" data-name="Path 2433" class="cls-34" d="M391.379,100.189s15.03.306,19.718,24.49-5.3,48.572-38.725,77.74l-7.428-.937Z" transform="translate(-364.944 -100.189)"/>
      </g>
      <g id="Group_1179" data-name="Group 1179" transform="translate(37.22 2.406)">
        <path id="Path_2434" data-name="Path 2434" class="cls-33" d="M383.348,98.162s6.249-.8,11.44,5.208,13.583,20.044,5.432,49.76S370.111,203.3,370.111,203.3l-3.851-.484Z" transform="translate(-366.26 -98.127)"/>
      </g>
      <g id="Group_1180" data-name="Group 1180" transform="translate(35.215 0.955)">
        <path id="Path_2435" data-name="Path 2435" class="cls-34" d="M378.256,97.339s6.6-1.351,10.4,3.688,8.377,20.485,2.634,46.727-22.106,55.841-22.106,55.841l-4.238-.535Z" transform="translate(-364.944 -97.174)"/>
      </g>
      <g id="Group_1181" data-name="Group 1181" transform="translate(33.631)">
        <path id="Path_2436" data-name="Path 2436" class="cls-33" d="M380.17,96.582c-9.423-1.185-12.109,28.23-14.861,50.083s-.612,56.624-.612,56.624l2.006.253,2,.253s10.692-33.156,13.443-55.009S389.591,97.769,380.17,96.582Z" transform="translate(-363.904 -96.547)"/>
      </g>
      <g id="Group_1182" data-name="Group 1182" transform="translate(22.894 96.886)">
        <path id="Path_2437" data-name="Path 2437" class="cls-35" d="M356.855,162.346A27.346,27.346,0,0,1,384.25,165.8l-7.645,5.246-14.666-1.848Z" transform="translate(-356.855 -160.15)"/>
      </g>
      <g id="Group_1183" data-name="Group 1183" transform="translate(27.67 105.23)">
        <path id="Path_2438" data-name="Path 2438" class="cls-36" d="M375.079,168.189c-.09.719-3.54.876-7.708.352s-7.47-1.532-7.379-2.251,3.54-.876,7.708-.352S375.171,167.47,375.079,168.189Z" transform="translate(-359.991 -165.628)"/>
      </g>
      <g id="Group_1184" data-name="Group 1184" transform="translate(28.115 105.623)">
        <path id="Path_2439" data-name="Path 2439" class="cls-37" d="M367.269,168.014c-4.251-.535-6.559-1.4-6.986-1.8.512-.285,2.963-.553,7.216-.017s6.559,1.4,6.984,1.805C373.97,168.282,371.52,168.55,367.269,168.014Z" transform="translate(-360.283 -165.886)"/>
      </g>
      <g id="Group_1190" data-name="Group 1190" transform="translate(27.503 115.215)">
        <g id="Group_1185" data-name="Group 1185" transform="translate(5.928 0.942)">
          <path id="Path_2440" data-name="Path 2440" class="cls-4" d="M370.916,173.942,365,172.8l-1.229,9.758s5.6-.021,6.079-.16S370.916,173.942,370.916,173.942Z" transform="translate(-363.772 -172.801)"/>
        </g>
        <g id="Group_1186" data-name="Group 1186" transform="translate(0 0.581)">
          <path id="Path_2441" data-name="Path 2441" class="cls-3" d="M361.024,172.564l6.014.361-1.229,9.758s-5.418-1.409-5.849-1.662S361.024,172.564,361.024,172.564Z" transform="translate(-359.881 -172.564)"/>
        </g>
        <g id="Group_1187" data-name="Group 1187" class="cls-21" transform="translate(0.342 0.745)">
          <path id="Path_2442" data-name="Path 2442" class="cls-38" d="M360.876,172.672c-.044.245-.134.754-.245,1.408,1.123.113,4.067.417,4.6.591.667.216.812,1.953.265,4.462-.5,2.3-3.446,2.593-5.394,1.938,1.165.407,5.586,1.557,5.586,1.557s5.6-.021,6.079-.16c.44-.126.967-7.129,1.053-8.291l-.707-.088Z" transform="translate(-360.105 -172.672)"/>
        </g>
        <g id="Group_1188" data-name="Group 1188" transform="translate(0.578)">
          <path id="Path_2443" data-name="Path 2443" class="cls-39" d="M366.908,172.572s-5.955-.42-6.215-.387-.51,1.488-.41,1.734,6.375.637,6.375.637Z" transform="translate(-360.26 -172.183)"/>
        </g>
        <g id="Group_1189" data-name="Group 1189" transform="translate(6.976 0.389)">
          <path id="Path_2444" data-name="Path 2444" class="cls-40" d="M364.71,172.438s5.874,1.069,6.118,1.165.126,1.57-.034,1.781-6.334-.963-6.334-.963Z" transform="translate(-364.46 -172.438)"/>
        </g>
      </g>
      <g id="Group_1192" data-name="Group 1192" transform="translate(28.076 105.946)">
        <g id="Group_1191" data-name="Group 1191">
          <path id="Path_2445" data-name="Path 2445" class="cls-34" d="M360.655,175.371l-.4-9.27.078,0,.4,9.27Z" transform="translate(-360.257 -166.098)"/>
        </g>
      </g>
      <g id="Group_1194" data-name="Group 1194" transform="translate(34.693 106.006)">
        <g id="Group_1193" data-name="Group 1193" transform="translate(0 0)">
          <rect id="Rectangle_419" data-name="Rectangle 419" class="cls-34" width="9.668" height="0.078" transform="translate(0 9.593) rotate(-82.861)"/>
        </g>
      </g>
      <g id="Group_1196" data-name="Group 1196" transform="translate(40.229 107.727)">
        <g id="Group_1195" data-name="Group 1195">
          <path id="Path_2446" data-name="Path 2446" class="cls-34" d="M368.312,176.191l-.077-.017,2.048-8.906.077.017Z" transform="translate(-368.235 -167.267)"/>
        </g>
      </g>
    </g>
    <g id="Group_1198" data-name="Group 1198" class="cls-41" transform="translate(16.258 2.385)">
      <path id="Path_2447" data-name="Path 2447" class="cls-14" d="M386.529,198.259l-.006,0c32.174-23.565,39.95-49.967,37.06-68.96-2.145-14.109-10.144-20.147-14.884-22.533a19.069,19.069,0,0,0-8.393-5.063,14.124,14.124,0,0,0-7.7-3.487c-.062-.038-.126-.062-.189-.1,28.987,17.946,21.335,59.473,3.155,81.941-15.551,19.215-35.12,10.706-43.07,5.961q3,4.344,6.643,8.792l-.008,0,4.91,6.614a.323.323,0,0,0-.131.195c-.02.16.136.335.423.515l.134,3.106.079.021-.133-3.077a22.73,22.73,0,0,0,6.875,1.686c.192.024.381.044.57.066l-.4,3.2.076.021.405-3.208a20.727,20.727,0,0,0,6.469-.015l-1.1,4.768.076.02L378.5,203.9c.3-.1.486-.228.5-.382a.307.307,0,0,0-.012-.082c2.591-1.67,5.041-3.357,7.373-5.06Z" transform="translate(-352.499 -98.113)"/>
    </g>
  </g>
  <g id="Group_1206" data-name="Group 1206" transform="translate(238.404 373.196)">
    <g id="Group_1200" data-name="Group 1200" transform="translate(0 27.087)">
      <path id="Path_2448" data-name="Path 2448" class="cls-42" d="M313.2,359.322c-25.147,0-62.738,4.291-60.706,20.266S313.2,396.04,313.2,396.04s58.673-.477,60.7-16.452S338.346,359.322,313.2,359.322Z" transform="translate(-252.415 -359.322)"/>
    </g>
    <g id="Group_1201" data-name="Group 1201" class="cls-19" transform="translate(30.19 27.087)">
      <path id="Path_2449" data-name="Path 2449" class="cls-14" d="M302.829,359.322c-4.663,0-9.752.148-14.939.491l-15.656,17.055c30.429,19.436,68.631-3.625,68.25,5.964-.329,8.279-35.024,12.107-44.494,13,4.188.186,6.84.209,6.84.209s58.673-.477,60.7-16.452S327.974,359.322,302.829,359.322Z" transform="translate(-272.234 -359.322)"/>
    </g>
    <g id="Group_1202" data-name="Group 1202" transform="translate(25.224 3.578)">
      <path id="Path_2450" data-name="Path 2450" class="cls-42" d="M274.817,347.728a154.215,154.215,0,0,0-5.843,32s3.048,11.176,35.561,11.176,35.56-10.668,35.56-10.668-4.319-27.686-5.842-32.512C334.253,347.728,307.075,339.091,274.817,347.728Z" transform="translate(-268.974 -343.889)"/>
    </g>
    <g id="Group_1203" data-name="Group 1203" transform="translate(25.226 30.722)">
      <path id="Path_2451" data-name="Path 2451" class="cls-26" d="M340.095,370.915s-.623-3.993-1.479-9.207c-3.025,2.338-11.647,6.666-34.081,6.666-20.377,0-30.364-3.571-34.786-5.979-.335,2.6-.608,5.29-.774,8.011,0,0,3.047,11.176,35.56,11.176S340.095,370.915,340.095,370.915Z" transform="translate(-268.975 -361.708)"/>
    </g>
    <g id="Group_1204" data-name="Group 1204" class="cls-19" transform="translate(41.057 3.659)">
      <path id="Path_2452" data-name="Path 2452" class="cls-14" d="M279.368,389.027a90.7,90.7,0,0,0,19.728,1.852c32.512,0,35.56-10.668,35.56-10.668s-4.319-27.686-5.842-32.512a104.523,104.523,0,0,0-25.424-3.758c-.154.315.515.705,2.311,1.187,12.2,3.271,24.191,18.446,17.334,32.542C316.279,391.559,280.433,389.1,279.368,389.027Z" transform="translate(-279.368 -343.942)"/>
    </g>
    <g id="Group_1205" data-name="Group 1205" transform="translate(31.067)">
      <path id="Path_2453" data-name="Path 2453" class="cls-43" d="M272.81,348.957s5.333-6.605,28.955-7.367,30.481,7.367,30.481,7.367S313.2,343.115,272.81,348.957Z" transform="translate(-272.81 -341.54)"/>
    </g>
  </g>
  <g id="Group_1213" data-name="Group 1213" transform="translate(60.909 440.101)">
    <text id="I_TO_TRAVEL" data-name="I         TO TRAVEL" class="cls-44" transform="translate(0 99)"><tspan x="0" y="0" xml:space="preserve">I         TO TRAVEL</tspan></text>
    <path id="Path_2457" data-name="Path 2457" class="cls-45" d="M197.4,474.883s-39.744-22.638-40.44-44.753,30.679-29.8,40.44-11.314c0,0,8.367-24.621,27.194-15.271S246.214,437.162,197.4,474.883Z" transform="translate(-124.875 -377.106)"/>
  </g>
</svg>
