<svg id="invoice" xmlns="http://www.w3.org/2000/svg" width="68.937" height="91.916" viewBox="0 0 68.937 91.916">
  <defs>
    <style>
      .cls-1 {
        fill: #a2a2a2;
      }
    </style>
  </defs>
  <g id="Group_559" data-name="Group 559" transform="translate(0)">
    <g id="Group_558" data-name="Group 558">
      <path id="Path_834" data-name="Path 834" class="cls-1" d="M132.376,19.71,113.227.561A1.913,1.913,0,0,0,111.873,0H71.66A7.668,7.668,0,0,0,64,7.66v76.6a7.668,7.668,0,0,0,7.66,7.66h53.618a7.668,7.668,0,0,0,7.66-7.66V21.064A1.913,1.913,0,0,0,132.376,19.71ZM113.788,6.538,126.4,19.149h-8.782a3.834,3.834,0,0,1-3.83-3.83Zm15.319,77.719a3.834,3.834,0,0,1-3.83,3.83H71.66a3.834,3.834,0,0,1-3.83-3.83V7.66a3.834,3.834,0,0,1,3.83-3.83h38.3V15.319a7.668,7.668,0,0,0,7.66,7.66h11.49Z" transform="translate(-64)"/>
      <path id="Path_835" data-name="Path 835" class="cls-1" d="M172.043,298.667H129.915a1.915,1.915,0,1,0,0,3.83h42.128a1.915,1.915,0,1,0,0-3.83Z" transform="translate(-116.511 -245.049)"/>
      <path id="Path_836" data-name="Path 836" class="cls-1" d="M172.043,234.667H129.915a1.915,1.915,0,1,0,0,3.83h42.128a1.915,1.915,0,1,0,0-3.83Z" transform="translate(-116.511 -192.539)"/>
      <path id="Path_837" data-name="Path 837" class="cls-1" d="M172.043,362.667H129.915a1.915,1.915,0,1,0,0,3.83h42.128a1.915,1.915,0,1,0,0-3.83Z" transform="translate(-116.511 -297.56)"/>
      <path id="Path_838" data-name="Path 838" class="cls-1" d="M152.894,426.667H129.915a1.915,1.915,0,1,0,0,3.83h22.979a1.915,1.915,0,1,0,0-3.83Z" transform="translate(-116.51 -350.07)"/>
      <path id="Path_839" data-name="Path 839" class="cls-1" d="M234.667,172.581a1.914,1.914,0,0,0,1.915,1.915h22.979a1.915,1.915,0,1,0,0-3.83H236.582A1.914,1.914,0,0,0,234.667,172.581Z" transform="translate(-204.028 -140.027)"/>
      <path id="Path_840" data-name="Path 840" class="cls-1" d="M133.745,91.9h-3.83a1.915,1.915,0,1,0,0,3.83h1.915a1.915,1.915,0,0,0,3.83,0v-.353a5.731,5.731,0,0,0-1.915-11.137,1.915,1.915,0,0,1,0-3.83h3.83a1.915,1.915,0,1,0,0-3.83H135.66a1.915,1.915,0,1,0-3.83,0v.353a5.731,5.731,0,0,0,1.915,11.137,1.915,1.915,0,1,1,0,3.83Z" transform="translate(-116.51 -61.261)"/>
    </g>
  </g>
</svg>
