<svg id="locked-padlock" xmlns="http://www.w3.org/2000/svg" width="36.891" height="47.997" viewBox="0 0 36.891 47.997">
  <defs>
    <style>
      .cls-1 {
        fill: #1874b9;
      }
    </style>
  </defs>
  <path id="Path_4492" data-name="Path 4492" class="cls-1" d="M90.587,19.383h-.935V15.006A14.922,14.922,0,0,0,75.2,0c-.219,0-.658,0-.877,0a14.922,14.922,0,0,0-14.455,15v4.377H58.93c-1.441,0-2.617,1.487-2.617,3.324V44.661C56.313,46.5,57.489,48,58.93,48H90.587c1.441,0,2.617-1.5,2.617-3.336V22.707C93.2,20.871,92.028,19.383,90.587,19.383ZM77.724,33.662V40.3a1.416,1.416,0,0,1-1.4,1.4H73.189a1.416,1.416,0,0,1-1.4-1.4V33.662a4.017,4.017,0,0,1,2.527-6.835c.219-.009.658-.009.877,0a4.017,4.017,0,0,1,2.527,6.835Zm5.763-14.279H66.03V15.006a8.729,8.729,0,1,1,17.458,0v4.377Z" transform="translate(-56.313 0)"/>
</svg>
