<svg id="Group_1241" data-name="Group 1241" xmlns="http://www.w3.org/2000/svg" width="18.867" height="24.144" viewBox="0 0 18.867 24.144">
  <defs>
    <style>
      .cls-1 {
        fill: #a2a2a2;
      }
    </style>
  </defs>
  <path id="Path_2484" data-name="Path 2484" class="cls-1" d="M876.267,308.753a6.621,6.621,0,0,0,.09-1.089,6.929,6.929,0,1,0-13.858,0,6.676,6.676,0,0,0,.091,1.081,4.59,4.59,0,0,0-.927.318c-1.668.82-1.668,2.342-1.668,4.271v6.592c0,1.93,0,3.451,1.67,4.269,1.262.618,3.334.684,7.764.684s6.49-.063,7.749-.654c1.688-.79,1.685-2.344,1.684-4.14v-6.751C878.861,310.46,878.37,309.261,876.267,308.753Zm-11.513-1.089a4.674,4.674,0,1,1,9.347,0,4.436,4.436,0,0,1-.069.8c-.162-.008-.33-.019-.5-.023-.274-.013-.57-.023-.876-.029a.652.652,0,0,0-.078,0c-.335-.007-.691-.013-1.062-.018h-.152c-.3,0-.6-.007-.92-.007h-1.013c-1.948,0-3.435.012-4.6.081A4.383,4.383,0,0,1,864.754,307.664Zm11.855,12.424c0,1.747-.069,1.944-.389,2.1-.868.406-3.363.434-6.791.434s-5.914-.031-6.775-.451c-.347-.169-.4-.483-.4-2.243v-6.592c0-1.758.058-2.075.4-2.245a5.017,5.017,0,0,1,1.534-.316c.069-.009.146-.016.22-.021.193-.016.4-.031.608-.043l.2-.009c.2-.009.413-.015.632-.023.107-.005.21-.009.322-.01.236-.008.482-.012.736-.013.168,0,.351-.006.527-.007s.326,0,.494-.006.326,0,.5,0h2.012c.169,0,.332,0,.5,0s.329,0,.491.006c.178,0,.363,0,.529.007.254,0,.5.005.734.013.114,0,.218.005.327.01.217.007.431.013.632.023l.2.009c.215.012.416.028.61.043.075.005.147.011.218.021a5.024,5.024,0,0,1,1.534.316c.347.17.407.487.407,2.245Z" transform="translate(-859.994 -300.735)"/>
  <path id="Path_2485" data-name="Path 2485" class="cls-1" d="M871.126,315.159a1.935,1.935,0,1,0-3.111,1.53l-.412,3.172h3.177l-.415-3.172A1.928,1.928,0,0,0,871.126,315.159Z" transform="translate(-859.756 -300.327)"/>
</svg>
