<svg xmlns="http://www.w3.org/2000/svg" width="99.018" height="84.429" viewBox="0 0 99.018 84.429">
  <path id="Path_2490" data-name="Path 2490" d="M837.148,207.218c-.111-14.393-8.361-27.907-21.724-35.944a30.29,30.29,0,1,0-55.529,0c-13.366,8.037-21.614,21.551-21.724,35.944l-.02,2.917,2.893.359a377.876,377.876,0,0,0,46.615,2.845,378.053,378.053,0,0,0,46.621-2.845l2.889-.359Zm-49.49-71.757a23.73,23.73,0,0,1,20.907,34.973l-.151.258c-.081.156-.186.3-.27.453a25.176,25.176,0,0,1-1.495,2.244c-.091.119-.179.24-.272.357a23.821,23.821,0,0,1-4.176,4.176c-.08.061-.164.122-.247.184a24.117,24.117,0,0,1-2.3,1.548c-.058.031-.111.067-.164.1a23.847,23.847,0,0,1-5.439,2.288c-.167.047-.334.084-.5.128a23.353,23.353,0,0,1-2.322.471c-.228.034-.448.075-.677.1a21.519,21.519,0,0,1-5.782,0c-.229-.03-.449-.07-.68-.1a23.117,23.117,0,0,1-2.319-.471c-.165-.044-.334-.081-.5-.128a23.9,23.9,0,0,1-5.438-2.288c-.056-.033-.106-.069-.164-.1a23.932,23.932,0,0,1-2.3-1.548c-.083-.062-.167-.123-.25-.184a23.913,23.913,0,0,1-4.173-4.176c-.092-.117-.181-.239-.271-.357a24.18,24.18,0,0,1-1.492-2.244c-.087-.153-.192-.3-.273-.453l-.151-.258a23.73,23.73,0,0,1,20.905-34.973Zm-42.784,68.9c1.061-11.091,7.69-21.033,18.269-27.4.092.128.209.24.3.371q.8,1.063,1.692,2.057c.178.2.351.393.529.584q1.023,1.081,2.136,2.054c.091.076.17.159.258.234a30.64,30.64,0,0,0,5.74,3.848c.092.047.187.086.279.136q1.348.677,2.776,1.225c.2.078.4.147.6.22.857.307,1.72.571,2.606.8.251.066.507.139.766.2.857.2,1.727.351,2.606.476.27.036.534.091.8.122a28.51,28.51,0,0,0,6.842,0c.271-.031.531-.086.8-.122.879-.125,1.749-.278,2.606-.476.259-.059.515-.133.766-.2.883-.229,1.75-.5,2.6-.8.2-.073.4-.142.6-.22q1.428-.545,2.782-1.225c.087-.05.183-.089.273-.136a30.6,30.6,0,0,0,5.741-3.848c.087-.075.167-.158.257-.234.744-.648,1.453-1.333,2.136-2.054.181-.19.35-.387.529-.584q.89-.993,1.692-2.058c.1-.13.211-.242.3-.37,10.579,6.367,17.208,16.309,18.269,27.4A379.175,379.175,0,0,1,744.874,204.356Z" transform="translate(-738.15 -128.91)" fill="#a2a2a2"/>
</svg>
