<svg id="avatar" xmlns="http://www.w3.org/2000/svg" width="16.706" height="19.64" viewBox="0 0 16.706 19.64">
  <defs>
    <style>
      .cls-1 {
        fill: #707070;
      }
    </style>
  </defs>
  <g id="Group_1793" data-name="Group 1793" transform="translate(0)">
    <path id="Path_4158" data-name="Path 4158" class="cls-1" d="M141.255,10.583h.13a3.753,3.753,0,0,0,2.867-1.24c1.566-1.765,1.305-4.791,1.277-5.08A4.149,4.149,0,0,0,143.557.573,4.522,4.522,0,0,0,141.369,0H141.3a4.529,4.529,0,0,0-2.188.557,4.152,4.152,0,0,0-2,3.705c-.028.289-.289,3.315,1.277,5.08A3.738,3.738,0,0,0,141.255,10.583ZM138.2,4.364c0-.012,0-.024,0-.033.134-2.916,2.2-3.229,3.091-3.229h.049c1.1.024,2.965.472,3.091,3.229a.08.08,0,0,0,0,.033c0,.028.289,2.794-1,4.25a2.666,2.666,0,0,1-2.095.87H141.3a2.657,2.657,0,0,1-2.09-.87C137.92,7.166,138.2,4.388,138.2,4.364Z" transform="translate(-132.974)"/>
    <path id="Path_4159" data-name="Path 4159" class="cls-1" d="M52.777,264.3v-.012c0-.033,0-.065,0-.1-.024-.805-.077-2.688-1.842-3.29l-.041-.012a11.735,11.735,0,0,1-3.376-1.537.549.549,0,0,0-.63.9,12.668,12.668,0,0,0,3.713,1.7c.948.338,1.053,1.35,1.082,2.278a.819.819,0,0,0,0,.1,7.381,7.381,0,0,1-.085,1.257,14.967,14.967,0,0,1-7.17,1.668,15.055,15.055,0,0,1-7.174-1.672,6.989,6.989,0,0,1-.085-1.257c0-.033,0-.065,0-.1.028-.927.134-1.94,1.082-2.278a12.783,12.783,0,0,0,3.713-1.7.549.549,0,1,0-.63-.9,11.606,11.606,0,0,1-3.376,1.537l-.041.012c-1.765.606-1.818,2.489-1.842,3.29a.816.816,0,0,1,0,.1v.012a6.237,6.237,0,0,0,.207,1.842.522.522,0,0,0,.211.256,15.384,15.384,0,0,0,7.939,1.944,15.431,15.431,0,0,0,7.939-1.944.545.545,0,0,0,.211-.256A6.543,6.543,0,0,0,52.777,264.3Z" transform="translate(-36.073 -248.7)"/>
  </g>
</svg>
