<svg id="mail-black-envelope-symbol" xmlns="http://www.w3.org/2000/svg" width="46.859" height="35.144" viewBox="0 0 46.859 35.144">
  <defs>
    <style>
      .cls-1 {
        fill: #1874b9;
      }
    </style>
  </defs>
  <path id="Path_96" data-name="Path 96" class="cls-1" d="M46.859,89.938a5.805,5.805,0,0,1-.752,2.817L31.312,76.2,45.947,63.4a5.814,5.814,0,0,1,.912,3.112ZM23.43,79.207,43.794,61.389A5.784,5.784,0,0,0,41,60.651H5.857a5.764,5.764,0,0,0-2.79.738Zm5.677-1.078-4.714,4.127a1.47,1.47,0,0,1-1.927,0l-4.715-4.127L2.769,94.894a5.786,5.786,0,0,0,3.089.9H41a5.786,5.786,0,0,0,3.089-.9ZM.912,63.4A5.815,5.815,0,0,0,0,66.509V89.938a5.787,5.787,0,0,0,.752,2.817L15.546,76.2Z" transform="translate(0 -60.651)"/>
</svg>
