<svg id="map-01" xmlns="http://www.w3.org/2000/svg" width="44.704" height="44.714" viewBox="0 0 44.704 44.714">
  <defs>
    <style>
      .cls-1 {
        fill: #1874b9;
      }
    </style>
  </defs>
  <path id="Path_3955" data-name="Path 3955" class="cls-1" d="M150.863,171.808c0-.677.013-1.219-.01-1.754a.62.62,0,0,0-.215-.334c-.388-.4-.791-.782-1.179-1.181a1.28,1.28,0,0,1-.167-1.812c.205-.317.418-.627.668-.989-.9-.4-1.754-.789-2.62-1.163-.91-.394-1.387-1.253-2.043-1.921l-.132.047c.16.806.284,1.621.487,2.415a10.251,10.251,0,0,0,1.734,3.556c.075.1.152.2.218.311a.659.659,0,0,1-.127.943.644.644,0,0,1-.931-.191,20.041,20.041,0,0,1-1.31-2.082,12.533,12.533,0,1,1,3.549,4.318.66.66,0,1,1,.777-1.052C149.962,171.182,150.364,171.463,150.863,171.808Zm9.425-11.422c-.53-.5-.575-.683-.191-1.283a2.263,2.263,0,0,0,.355-1.253,1.608,1.608,0,0,1,.987-1.528c1-.511,1.986-1.058,2.976-1.587.118-.064.231-.135.312-.183l-.895-.965c-.275.4-.514.767-.783,1.116a.648.648,0,0,1-1.077-.72,4.005,4.005,0,0,1,.226-.349c.194-.288.389-.575.591-.873a10.571,10.571,0,0,0-3.6-1.607c-.038.192-.084.36-.1.53a2.58,2.58,0,0,1-1.02,1.872c-.479.371-.924.786-1.387,1.179a1.049,1.049,0,0,1-1.858-.483c-.339-.938-.662-1.883-1.01-2.818-.039-.106-.21-.26-.285-.242a9.142,9.142,0,0,0-2.506,1,2.285,2.285,0,0,1-.6,2.955c-.211.21-.391.45-.612.708l.6.343c.049-.084.084-.14.11-.195a1.359,1.359,0,0,1,2.358-.327c.236.246.469.5.7.744a1.406,1.406,0,0,1,.048,2.118c-.919,1.062-1.864,2.1-2.742,3.193a2.422,2.422,0,0,1-2.026,1.045c-.555-.007-.6.078-.752.687.88.389,1.766.784,2.656,1.169a.388.388,0,0,0,.257,0,1.519,1.519,0,0,1,1.367.233c.888.559,1.783,1.106,2.673,1.661a2.1,2.1,0,0,1,.85,2.994q-.752,1.554-1.493,3.11c-.057.119-.1.243-.187.44.628.061,1.189.141,1.754.167a10.884,10.884,0,0,0,6.256-1.607.459.459,0,0,0,.2-.348c-.15-1.408-.321-2.813-.484-4.218-.022-.187-.1-.269-.3-.23-.3.058-.6.109-.9.153a1.382,1.382,0,0,1-1.575-.776c-.24-.445-.464-.9-.692-1.35a2.089,2.089,0,0,1,.089-2.2A6.975,6.975,0,0,1,160.288,160.386Zm3.4,10.145a.584.584,0,0,0,.131-.044,10.95,10.95,0,0,0,3.446-5.46.721.721,0,0,0-.1-.49c-.4-.7-.817-1.395-1.253-2.075a.689.689,0,0,0-.439-.274c-.585-.074-1.182-.111-1.774-.149a1.634,1.634,0,0,1-1.245-.621.569.569,0,0,0-.438-.16,2.026,2.026,0,0,0-1.824,1.257,5.825,5.825,0,0,1-.513.84.844.844,0,0,0-.038.9c.2.393.413.782.6,1.183a.364.364,0,0,0,.48.227,7.554,7.554,0,0,1,1.011-.155,1.316,1.316,0,0,1,1.47,1.169c.066.411.109.826.16,1.24C163.477,168.776,163.583,169.638,163.693,170.531Zm-13.8-17.609c-.083.048-.125.07-.167.1a11.174,11.174,0,0,0-4.4,7.351.4.4,0,0,0,.038.285c.528.642,1.068,1.273,1.66,1.973.325-1.018,1.107-1.169,1.956-1.2a.584.584,0,0,0,.188-.015.986.986,0,0,0,.387-.189q1.539-1.754,3.051-3.525a.346.346,0,0,0,.049-.317c-.263-.317-.555-.609-.863-.938l-.191.342a1.344,1.344,0,0,1-1.754.592,5.146,5.146,0,0,1-.566-.308,1.371,1.371,0,0,1-.348-2.217c.287-.334.585-.662.871-1A.746.746,0,0,0,149.893,152.921Zm3.045,19.772c.647-1.362,1.291-2.69,1.913-4.026a.654.654,0,0,0-.269-.865c-1.017-.656-2.048-1.288-3.111-1.952-.334.495-.647.967-.976,1.427a.308.308,0,0,0,.044.481c.439.418.854.862,1.291,1.281a1.086,1.086,0,0,1,.351.844c-.008.682.028,1.367-.013,2.046-.025.409.114.613.5.686A2.505,2.505,0,0,1,152.938,172.693Zm8.808-14.859.1.109c.172-.025.348-.037.516-.076a2.624,2.624,0,0,1,2.265.427c.151.113.334.185.48.3a.628.628,0,0,0,.758.057.656.656,0,0,1,.945.251c.167.32.047.627-.312.9a.418.418,0,0,0-.135.348,7.841,7.841,0,0,0,1.169,2.4c.021.031.071.043.138.084a11.235,11.235,0,0,0-1.847-6.825c-.122-.186-.226-.221-.427-.111-1.119.609-2.249,1.2-3.367,1.813C161.908,157.578,161.837,157.724,161.746,157.835Zm-6.73-6.987.972,2.745c.849-.8,2.023-1.27,1.827-2.745Zm10.1,9.975.084-.1c-.154-.274-.242-.636-.472-.807-1.224-.911-1.236-.895-2.757-.651l-.038.006c-.506.084-.691.27-.807.845.183-.044.355-.075.52-.128a1.5,1.5,0,0,1,1.816.548c.05.068.126.155.2.162C164.137,160.751,164.625,160.784,165.113,160.823Z" transform="translate(-134.122 -139.681)"/>
  <path id="Path_3956" data-name="Path 3956" class="cls-1" d="M360.923,351.309c-.136.459-.275,1-.454,1.521a20.243,20.243,0,0,1-14.034,13.078.658.658,0,0,1-.861-.4.684.684,0,0,1,.524-.866c1.069-.383,2.168-.7,3.2-1.169a18.312,18.312,0,0,0,7.192-5.847,18.6,18.6,0,0,0,3.076-6.34,1.568,1.568,0,0,1,.15-.387.607.607,0,0,1,.748-.295C360.763,350.684,360.9,350.918,360.923,351.309Z" transform="translate(-318.932 -323.954)"/>
  <path id="Path_3957" data-name="Path 3957" class="cls-1" d="M360.89,79.306a.627.627,0,0,1-.5.649.584.584,0,0,1-.724-.342,5.782,5.782,0,0,1-.239-.718,18.758,18.758,0,0,0-9.079-11.277A18.061,18.061,0,0,0,346.392,66a3.538,3.538,0,0,1-.468-.154.64.64,0,0,1-.382-.809.62.62,0,0,1,.752-.418c.49.119.977.261,1.455.424a20.233,20.233,0,0,1,13.086,14.017A1.879,1.879,0,0,1,360.89,79.306Z" transform="translate(-318.902 -61.877)"/>
  <path id="Path_3958" data-name="Path 3958" class="cls-1" d="M60.359,350.72c.306.007.5.227.6.56.174.554.324,1.118.532,1.658A18.709,18.709,0,0,0,74.174,364.7c.133.04.27.071.4.123a.657.657,0,0,1,.428.821.633.633,0,0,1-.821.418c-.915-.29-1.838-.555-2.725-.925a20.184,20.184,0,0,1-11.759-13.526A.653.653,0,0,1,60.359,350.72Z" transform="translate(-56.934 -324.097)"/>
  <path id="Path_3959" data-name="Path 3959" class="cls-1" d="M75.1,65.525c0,.251-.223.445-.554.55-.581.185-1.166.342-1.732.562A18.646,18.646,0,0,0,61.582,77.889c-.2.53-.351,1.081-.522,1.622-.163.514-.474.733-.876.612-.382-.115-.526-.471-.389-.966A20.3,20.3,0,0,1,74.138,64.825.681.681,0,0,1,75.1,65.525Z" transform="translate(-57.008 -62.043)"/>
  <path id="Path_3960" data-name="Path 3960" class="cls-1" d="M264.337,501.409a2.752,2.752,0,1,1-2.685,2.776A2.765,2.765,0,0,1,264.337,501.409Zm1.5,2.734a1.437,1.437,0,1,0-1.4,1.456,1.437,1.437,0,0,0,1.4-1.456Z" transform="translate(-242.051 -462.197)"/>
  <path id="Path_3961" data-name="Path 3961" class="cls-1" d="M32.49,269.512a2.746,2.746,0,1,1-2.71-2.79A2.742,2.742,0,0,1,32.49,269.512Zm-2.757,1.4a1.438,1.438,0,1,0-1.018-.432,1.436,1.436,0,0,0,1.018.432Z" transform="translate(-26.998 -247.114)"/>
  <path id="Path_3962" data-name="Path 3962" class="cls-1" d="M501.919,269.526a2.752,2.752,0,1,1-.78-1.974A2.746,2.746,0,0,1,501.919,269.526Zm-1.306-.069a1.439,1.439,0,1,0-1.435,1.451,1.439,1.439,0,0,0,1.435-1.451Z" transform="translate(-457.215 -247.113)"/>
  <path id="Path_3963" data-name="Path 3963" class="cls-1" d="M264.5,37.485a2.743,2.743,0,1,1,2.756-2.729,2.713,2.713,0,0,1-2.756,2.729Zm1.442-2.746a1.436,1.436,0,1,0-1.431,1.45A1.436,1.436,0,0,0,265.943,34.74Z" transform="translate(-242.154 -32)"/>
  <path id="Path_3964" data-name="Path 3964" class="cls-1" d="M240.219,181.5a1.483,1.483,0,0,1,.445.359,9.929,9.929,0,0,1,.631,1.243.644.644,0,1,1-1.152.576,12.069,12.069,0,0,1-.631-1.286C239.335,181.959,239.642,181.515,240.219,181.5Z" transform="translate(-221.714 -169.012)"/>
  <path id="Path_3965" data-name="Path 3965" class="cls-1" d="M319.214,204.41a1.181,1.181,0,0,1,.967.919.643.643,0,0,1-.64.656,1.162,1.162,0,0,1-.963-.919.641.641,0,0,1,.636-.656Z" transform="translate(-294.222 -190.008)"/>
</svg>
