<svg id="money" xmlns="http://www.w3.org/2000/svg" width="91.914" height="91.916" viewBox="0 0 91.914 91.916">
  <defs>
    <style>
      .cls-1 {
        fill: #a2a2a2;
      }
    </style>
  </defs>
  <g id="Group_561" data-name="Group 561" transform="translate(12.207 81.145)">
    <g id="Group_560" data-name="Group 560">
      <path id="Path_841" data-name="Path 841" class="cls-1" d="M71.067,452.527a1.794,1.794,0,1,0,.526,1.269A1.807,1.807,0,0,0,71.067,452.527Z" transform="translate(-68.003 -452.001)"/>
    </g>
  </g>
  <g id="Group_563" data-name="Group 563" transform="translate(81.225 32.316)">
    <g id="Group_562" data-name="Group 562">
      <path id="Path_842" data-name="Path 842" class="cls-1" d="M455.518,180.534a1.79,1.79,0,1,0,.528,1.269A1.805,1.805,0,0,0,455.518,180.534Z" transform="translate(-452.454 -180.008)"/>
    </g>
  </g>
  <g id="Group_565" data-name="Group 565" transform="translate(0)">
    <g id="Group_564" data-name="Group 564">
      <path id="Path_843" data-name="Path 843" class="cls-1" d="M91.395.526A1.8,1.8,0,0,0,90.125,0L45.963,0a1.8,1.8,0,0,0-1.8,1.8V6.931l-17.017,4.56a1.8,1.8,0,0,0-1.269,2.2L34.7,46.6l-7.63,7.63a5.383,5.383,0,0,0-4.446-2.35H5.393A5.392,5.392,0,0,0,.007,57.269V86.53a5.392,5.392,0,0,0,5.386,5.386H22.626a5.394,5.394,0,0,0,5.227-4.09l2.135,1.861a9.045,9.045,0,0,0,5.945,2.228H90.125a1.8,1.8,0,0,0,1.8-1.8V1.8A1.8,1.8,0,0,0,91.395.526Zm-66.974,86a1.8,1.8,0,0,1-1.8,1.8H5.392a1.8,1.8,0,0,1-1.8-1.8V57.269a1.8,1.8,0,0,1,1.8-1.8h6.822v20.68a1.8,1.8,0,1,0,3.59,0V55.474h6.822a1.8,1.8,0,0,1,1.8,1.8V86.53Zm5.393-72.036,14.354-3.846V17.3l-1.2.322a1.8,1.8,0,0,0-1.269,2.2,4.839,4.839,0,0,1-3.418,5.92,1.8,1.8,0,0,0-1.269,2.2l7,25.912H40.4l-1.857-7.264a1.793,1.793,0,0,0-.3-.63ZM44.168,25.533V40.682L40.894,28.558A8.41,8.41,0,0,0,44.168,25.533ZM69.959,88.325H35.933a5.455,5.455,0,0,1-3.586-1.344L28.012,83.2V58.371l7.838-7.838L37.271,56.1a1.8,1.8,0,0,0,1.739,1.351l35.3,0a2.513,2.513,0,0,1,0,5.027H56.22a1.8,1.8,0,0,0,0,3.59h23.7a2.513,2.513,0,1,1,0,5.027H56.22a1.8,1.8,0,0,0,0,3.59H76.083a2.513,2.513,0,1,1,0,5.027H56.22a1.8,1.8,0,0,0,0,3.59H69.959a2.513,2.513,0,1,1,0,5.026Zm18.371,0H75.519a6.082,6.082,0,0,0,0-5.027h.564a6.1,6.1,0,0,0,5.456-8.835,6.1,6.1,0,0,0,3.284-9.521V42.189a1.8,1.8,0,1,0-3.59,0V62.618a6.105,6.105,0,0,0-1.309-.143h-.059a6.1,6.1,0,0,0-5.56-8.617H71.419a8.591,8.591,0,1,0-6.75,0H54.856V19.723a8.451,8.451,0,0,0,6.436-6.436H74.8a8.451,8.451,0,0,0,6.436,6.436V25.3a1.8,1.8,0,1,0,3.59,0V18.12a1.8,1.8,0,0,0-1.8-1.8,4.839,4.839,0,0,1-4.833-4.834,1.8,1.8,0,0,0-1.8-1.8H59.689a1.8,1.8,0,0,0-1.8,1.8,4.839,4.839,0,0,1-4.833,4.834,1.8,1.8,0,0,0-1.8,1.8V53.858H47.759V3.592l40.571,0ZM68.044,50.959a5,5,0,1,1,5-5A5.007,5.007,0,0,1,68.044,50.959Z" transform="translate(-0.007)"/>
    </g>
  </g>
</svg>
