<svg xmlns="http://www.w3.org/2000/svg" width="41.967" height="54.646" viewBox="0 0 41.967 54.646">
  <defs>
    <style>
      .cls-1 {
        fill: #fdc326;
        fill-rule: evenodd;
      }
    </style>
  </defs>
  <g id="Group_1226" data-name="Group 1226" transform="translate(-274.699 -127.115)">
    <path id="Path_529" data-name="Path 529" class="cls-1" d="M315.881,147.875c-1.784-3.52-3.642-7-5.507-10.482a6.892,6.892,0,0,0-1.18-1.5,1.072,1.072,0,0,0-1.492.1,4.452,4.452,0,0,0-.783,1.118c-.539,1.265-1,2.565-1.527,3.837a7.739,7.739,0,0,1-1.336,2.82c-.309-.479-.581-.828-.776-1.214-1.867-3.686-3.7-7.392-5.6-11.06a26.031,26.031,0,0,0-2.079-3.234,7.518,7.518,0,0,0-1.425-1.143c-.45.971-.853,1.774-1.2,2.6a90.383,90.383,0,0,0-5.038,17.15,17.842,17.842,0,0,1-.652,1.936,19.192,19.192,0,0,1-2.042-3.6c-.813-1.544-1.546-3.131-2.4-4.651-.228-.408-.763-.643-1.347-1.109-.488,1.943-1.034,3.6-1.3,5.3-.473,2.992-.742,6.014-1.156,9.016-.651,4.729-1.273,9.464-2.055,14.172-.585,3.529-1.419,7.016-2.1,10.529a8.628,8.628,0,0,0-.159,2.438c.03.32.533.71.9.842a1.075,1.075,0,0,0,.915-.4c.423-.592.714-1.277,1.079-1.913a5.758,5.758,0,0,1,.469-.625l1.825-.347c.362.375.413,1.017,1.258.659.564-1.392,1.17-2.919,1.8-4.436.66-1.591,1.344-3.174,2.029-4.787l-1.508-1.153c.538-1.723,1.08-3.459,1.51-4.838l-1.53-2.559c.278-1.179.5-2.136.726-3.076-.636-.226-1.1.553-1.584-.016l-.005.017,0,.017c.254.913.278,1.073-.25,1.4a1.135,1.135,0,0,1-.331.237c0,.018,0,.035.006.053q.205.554.413,1.105l-.3.074c-.035-.389-.071-.778-.115-1.179l-.03-.078c.143-.082.255-.149.355-.212a1.654,1.654,0,0,0,.25-1.4c-.006-.018-.009-.031-.014-.05.006.007.012.009.017.016.373-1.306.755-2.6,1.128-3.9a.3.3,0,0,0-.063-.238c-.041-.049-.141-.05-.291-.1-.3.633-.566,1.3-.92,1.916-.187.325-.419.794-1.079.467.556-1.681,1.114-3.316,1.634-4.962a2.488,2.488,0,0,0-.273-2.321c-.65-1-.433-2.072.284-3.3.469.873.9,1.655,1.315,2.449,1.726,3.337,3.43,6.685,5.174,10.012a6.328,6.328,0,0,0,2.4,2.91l2.091-.332c.321.435.578.785.814,1.107.263-.072.494-.063.6-.174a11.242,11.242,0,0,0,2.433-5.136c.078-.335-.247-.766-.449-1.327l-1.93,1.356c-.019,0,.031.066-.03.029a9.118,9.118,0,0,0,.564-1.544,14.836,14.836,0,0,1,1.757-5.169,3.711,3.711,0,0,0,.142-1.233,8.3,8.3,0,0,1-1.414.156,7.535,7.535,0,0,1-1.286-.316c.36-3.009.7-5.856,1.038-8.706-.553-.134-.976-.234-1.4-.335l.012.079a.28.28,0,0,1,.094.108c.017.043-.032.113-.05.171-.015-.093-.03-.186-.044-.279l-.065-.054a7.732,7.732,0,0,0,1.361-3.509c-.473-.252-.853-.453-1.3-.693.242-.959.173-2,1.083-2.96.471.958.888,1.744,1.249,2.556a185.15,185.15,0,0,0,8.29,17.1,14.035,14.035,0,0,0,.956,1.666,1.261,1.261,0,0,0,.933.327.782.782,0,0,0,.515-.55c.136-1.266.214-2.539.283-3.812.007-.118-.183-.248-.283-.372-.4-.177-.778.638-1.24-.076.081-1.469,1.908-2.721.828-4.687l-1.751,1.714c.293-.849.37-1.283.566-1.672a10.548,10.548,0,0,0,1.545-4.642,1.049,1.049,0,0,1,1.033-1.146c.322.487.712.99,1.006,1.543,1.121,2.107,2.18,4.248,3.323,6.343.746,1.367,1.576,2.688,2.419,4,.146.227.541.293.942.494A4.575,4.575,0,0,0,315.881,147.875ZM289.9,153.549c-.959-.774-.444-1.335-.1-1.984C290.831,152.17,290.545,152.777,289.9,153.549Zm1.773,2.147a2.878,2.878,0,0,1-.524.522c-.157-.187-.333-.3-.354-.437-.056-.348.394-.68.681-.507C291.588,155.345,291.716,155.618,291.669,155.7Zm.973,3.58c-.379-.964-.313-1.462.853-2.151C293.13,158.044,292.95,158.5,292.642,159.276Z"/>
    <path id="Path_530" data-name="Path 530" class="cls-1" d="M282.377,178.459a4.788,4.788,0,0,0-.013,1.166c1.342-.345,1.458-1.459,1.828-2.307,2.124-4.875,2.519-6.274,2.212-7.471A48.66,48.66,0,0,0,282.377,178.459Z"/>
  </g>
</svg>
