<svg xmlns="http://www.w3.org/2000/svg" width="87" height="62.229" viewBox="0 0 87 62.229">
  <defs>
    <style>
      .cls-1 {
        fill: #56b46f;
      }

      .cls-2 {
        fill: #74be86;
      }

      .cls-3 {
        fill: #4d8157;
      }

      .cls-4 {
        fill: #eaead7;
      }

      .cls-5 {
        fill: #83c38e;
      }
    </style>
  </defs>
  <g id="notes" transform="translate(0.147)">
    <rect id="XMLID_115_" class="cls-1" width="87" height="50" transform="translate(-0.147 12.229)"/>
    <path id="XMLID_114_" class="cls-2" d="M79.334,18.187H2V12Z" transform="translate(1.093 -5.813)"/>
    <path id="XMLID_79_" class="cls-3" d="M55.213,39.107A20.107,20.107,0,1,1,35.107,19,20.106,20.106,0,0,1,55.213,39.107" transform="translate(8.2 -1.987)"/>
    <path id="XMLID_112_" class="cls-4" d="M29.892,55.027a20.068,20.068,0,0,1,0-34.027H14.241c.023.255.039.512.039.773A8.507,8.507,0,0,1,5.773,30.28c-.261,0-.518-.015-.773-.039V45.785c.255-.023.512-.039.773-.039a8.507,8.507,0,0,1,8.507,8.507c0,.261-.015.518-.039.773Z" transform="translate(2.733 -0.893)"/>
    <path id="XMLID_111_" class="cls-4" d="M59.025,30.28a8.506,8.506,0,0,1-8.507-8.507c0-.261.015-.518.039-.773H34.906a20.068,20.068,0,0,1,0,34.027H50.557c-.023-.255-.039-.512-.039-.773a8.506,8.506,0,0,1,8.507-8.507c.261,0,.518.015.773.039V30.241c-.255.023-.512.039-.773.039" transform="translate(19.082 -0.893)"/>
    <path id="XMLID_110_" class="cls-4" d="M6.867,26.733a3.867,3.867,0,1,1,3.867-3.867,3.87,3.87,0,0,1-3.867,3.867" transform="translate(1.64 -1.987)"/>
    <path id="XMLID_109_" class="cls-4" d="M51.867,26.733a3.867,3.867,0,1,1,3.867-3.867,3.87,3.87,0,0,1-3.867,3.867" transform="translate(26.24 -1.987)"/>
    <path id="XMLID_108_" class="cls-4" d="M6.867,47.733a3.867,3.867,0,1,1,3.867-3.867,3.87,3.87,0,0,1-3.867,3.867" transform="translate(1.64 9.493)"/>
    <path id="XMLID_107_" class="cls-4" d="M51.867,47.733a3.867,3.867,0,1,1,3.867-3.867,3.87,3.87,0,0,1-3.867,3.867" transform="translate(26.24 9.493)"/>
    <path id="XMLID_106_" class="cls-5" d="M5,8v6.558l72.694,5.815h4.64Z" transform="translate(2.733 -8)"/>
    <path id="XMLID_105_" class="cls-4" d="M40.579,40.7a2.692,2.692,0,0,0,1.905-2.561V36.791a2.69,2.69,0,0,0-1.451-2.374c-.594-5.064-3.941-7.113-9.322-7.113-.254,0-.5.009-.749.029a8.084,8.084,0,0,1-5.2-1.223,6.759,6.759,0,0,1-1.539-1.355.269.269,0,0,0-.481.2c.054.47.133,1.021.254,1.621.444,2.235.178,1.909-.687,4.018a13.959,13.959,0,0,0-.93,3.831,2.693,2.693,0,0,0-1.441,2.37v1.346A2.694,2.694,0,0,0,22.844,40.7a8.52,8.52,0,0,0,4.827,6.026v1.542a1.036,1.036,0,0,1-.577.928l-5.2,2.561a4.342,4.342,0,0,0-1.152.95,20.066,20.066,0,0,0,22.076.223,4.406,4.406,0,0,0-1.432-1.138L36.316,49.2a1.033,1.033,0,0,1-.565-.92V46.724A8.52,8.52,0,0,0,40.579,40.7" transform="translate(11.34 1.101)"/>
  </g>
</svg>
