<svg id="pin" xmlns="http://www.w3.org/2000/svg" width="21.203" height="25.595" viewBox="0 0 21.203 25.595">
  <defs>
    <style>
      .cls-1 {
        fill: #707070;
      }
    </style>
  </defs>
  <g id="Group_1758" data-name="Group 1758" transform="translate(0 0)">
    <g id="Group_1757" data-name="Group 1757">
      <path id="Path_4125" data-name="Path 4125" class="cls-1" d="M411.781,123.805l1.576-.418a10.623,10.623,0,0,0-.594-1.663l-1.485.676A8.9,8.9,0,0,1,411.781,123.805Z" transform="translate(-392.512 -115.52)"/>
      <path id="Path_4126" data-name="Path 4126" class="cls-1" d="M380.83,65.93a10.564,10.564,0,0,0-1.107-1.374l-1.181,1.125a9,9,0,0,1,.938,1.163Z" transform="translate(-361.444 -61.266)"/>
      <path id="Path_4127" data-name="Path 4127" class="cls-1" d="M64.241,9.6l-1.624.153c.027.282.04.563.04.846a8.908,8.908,0,0,1-2.627,6.343l-6.343,6.344-6.343-6.344A8.97,8.97,0,0,1,59.069,3.426l.979-1.3A10.6,10.6,0,0,0,46.191,18.1l7.5,7.5,7.5-7.5a10.526,10.526,0,0,0,3.105-7.5Q64.288,10.1,64.241,9.6Z" transform="translate(-43.085 0)"/>
      <path id="Path_4128" data-name="Path 4128" class="cls-1" d="M123.418,86.17v-6.1l1.151,1.009,1.075-1.223-7.119-6.24-7.119,6.237,1.075,1.223,1.151-1.005v6.1Zm-8.155-7.533,3.262-2.854,3.262,2.858v5.9h-6.524Z" transform="translate(-107.924 -69.86)"/>
    </g>
  </g>
</svg>
