<svg id="departures" xmlns="http://www.w3.org/2000/svg" width="14.412" height="6.984" viewBox="0 0 14.412 6.984">
  <defs>
    <style>
      .cls-1 {
        fill: #a2a2a2;
      }
    </style>
  </defs>
  <path id="Path_44" data-name="Path 44" class="cls-1" d="M13.9,144.228a3.115,3.115,0,0,0-2.886.089l-2.3,1.071L4.775,143.4l-2.352.1,3.26,3.3-2.076.988-2.162-.822L0,147.644l1.308,1.622a.592.592,0,0,0-.148.641c.148.317.587.478,1.308.478.148,0,.308-.006.478-.021a7.01,7.01,0,0,0,2.183-.513l8.2-3.826c.709-.329,1.062-.676,1.08-1.062A.83.83,0,0,0,13.9,144.228Z" transform="translate(0 -143.4)"/>
</svg>
