<svg xmlns="http://www.w3.org/2000/svg" width="29.844" height="27.265" viewBox="0 0 29.844 27.265">
  <defs>
    <style>
      .cls-1 {
        fill: #555;
      }
    </style>
  </defs>
  <path id="scooter" class="cls-1" d="M28.822,41.318a5.084,5.084,0,0,0-2.228-1.668,1.156,1.156,0,0,0-.13-.475c-.319-.61-.926-.652-1.616-.658-.412-1.235-1.1-3.333-1.775-5.367a.437.437,0,0,0-.83.274c.634,1.921,1.286,3.9,1.7,5.154a5.871,5.871,0,0,0-2.435.937,4.278,4.278,0,0,0-.069-1.75c-1.778-7.425-1.7-7.006-1.739-7.545.12.01.057.008,1.484.008l.507,1.535a.437.437,0,1,0,.83-.274l-.416-1.261h.549a.829.829,0,0,0,.763-.506h.817A.766.766,0,0,0,25,28.956V27.491a.765.765,0,0,0-.765-.764h-.817a.829.829,0,0,0-.763-.507H20.62l-1.1-2.494a.437.437,0,0,0-.4-.26H18l.228-.781a.437.437,0,1,0-.839-.245l-.758,2.594a.437.437,0,1,0,.839.245l.274-.939h1.091l.836,1.891a1.986,1.986,0,0,0-1.05.436H16.871a1.17,1.17,0,0,0-.846.363L14.9,28.217a.437.437,0,1,0,.634.6l1.126-1.186a.292.292,0,0,1,.211-.091H18a2.006,2.006,0,0,0,.823,2.38c0,.867,0,.639,1.775,8.05a3.432,3.432,0,0,1-.729,3.074.632.632,0,0,1-.479.221c-2.213,0-2.429.05-2.99-.174a.437.437,0,0,0-.324.812c.758.3,1.151.236,3.309.236a5.737,5.737,0,0,0-.395,1.679H12.83a1.78,1.78,0,0,0,.34-1.066A4.517,4.517,0,0,0,11.3,39.1a7.078,7.078,0,0,0-5.082-1.242.437.437,0,1,0,.107.868c2.854-.351,5.967,1.151,5.967,4.05a1.154,1.154,0,0,1-1.23,1.041c-9.987,0-9.36,0-9.42,0A.773.773,0,0,1,.9,42.967a5.329,5.329,0,0,1,1.856-2.639,6.377,6.377,0,0,1,1.98-1.2.437.437,0,0,0-.312-.817,7.248,7.248,0,0,0-2.269,1.385.438.438,0,0,0-.034.034c-.046.051-.118.12-.2.2a12.439,12.439,0,0,1,2.1-3.33h9.355c.737,3.184.726,3.414,1.156,4.062a.437.437,0,1,0,.728-.484c-.32-.482-.277-.507-1.1-4.066V35.014A1.466,1.466,0,0,0,12.7,33.55H5.964A2.757,2.757,0,0,0,3.28,35.656a.755.755,0,0,0,.022.434A15.509,15.509,0,0,0,0,43.142,1.632,1.632,0,0,0,1.7,44.7h.9a5.033,5.033,0,0,0,10.043,0h7.134a5.036,5.036,0,1,0,9.043-3.378ZM23.486,27.6h.642v1.245h-.642Zm-4.052,1.66a1.13,1.13,0,0,1-.352-1.836,1.5,1.5,0,0,1,1.255-.331h2.274v2.258c-2.963,0-2.889.033-3.177-.092ZM5.964,34.424H12.7a.59.59,0,0,1,.59.59v.708H4.17a1.884,1.884,0,0,1,1.794-1.3ZM9.432,44.7a1.841,1.841,0,0,1-3.618,0ZM7.623,48.517A4.165,4.165,0,0,1,3.478,44.7H4.93a2.714,2.714,0,0,0,5.386,0h1.452a4.165,4.165,0,0,1-4.145,3.821Zm17.866-9.079a.276.276,0,0,1,.2.4l-1.521,3a1.786,1.786,0,0,1-1.6.983H19.863A4.932,4.932,0,0,1,25.489,39.438Zm-.205,3.139a1.841,1.841,0,1,1-2.291,2.084,2.653,2.653,0,0,0,1.959-1.428Zm-.476,5.94A4.173,4.173,0,0,1,20.655,44.7h1.459a2.715,2.715,0,1,0,3.571-2.911l.657-1.3a4.161,4.161,0,0,1-1.535,8.028Z" transform="translate(0 -22.126)"/>
</svg>
