<svg xmlns="http://www.w3.org/2000/svg" width="32.621" height="11.607" viewBox="0 0 32.621 11.607">
  <defs>
    <style>
      .cls-1 {
        fill: #555;
      }
    </style>
  </defs>
  <g id="sedan-car-model" transform="translate(0 0)">
    <g id="Group_1738" data-name="Group 1738">
      <path id="Path_4106" data-name="Path 4106" class="cls-1" d="M12.269,52.156a2.462,2.462,0,0,0-2.462,2.462,2.391,2.391,0,0,0,.022.309,2.46,2.46,0,0,0,4.891-.1c.006-.069.01-.139.01-.21A2.461,2.461,0,0,0,12.269,52.156ZM11.036,53.69l.5.5a.85.85,0,0,0-.089.216h-.707A1.52,1.52,0,0,1,11.036,53.69Zm-.3,1.144h.713a.826.826,0,0,0,.089.214l-.5.5A1.54,1.54,0,0,1,10.738,54.834Zm1.317,1.312a1.533,1.533,0,0,1-.714-.3l.5-.5a.847.847,0,0,0,.214.087Zm0-2.348a.856.856,0,0,0-.218.091l-.5-.5a1.53,1.53,0,0,1,.719-.3Zm.426-.709a1.532,1.532,0,0,1,.719.3l-.5.5a.855.855,0,0,0-.218-.091V53.09Zm0,3.056v-.709a.841.841,0,0,0,.213-.087l.5.5A1.534,1.534,0,0,1,12.482,56.146Zm1.019-.593-.5-.505a.832.832,0,0,0,.092-.213H13.8A1.536,1.536,0,0,1,13.5,55.553Zm-.412-1.145A.861.861,0,0,0,13,54.192l.5-.5a1.537,1.537,0,0,1,.295.719h-.708Z" transform="translate(-6.574 -45.471)"/>
      <path id="Path_4107" data-name="Path 4107" class="cls-1" d="M74.278,52.156a2.462,2.462,0,0,0-2.462,2.462,2.4,2.4,0,0,0,.022.309,2.46,2.46,0,0,0,4.891-.1c.006-.069.01-.139.01-.21A2.461,2.461,0,0,0,74.278,52.156ZM73.045,53.69l.5.5a.851.851,0,0,0-.089.216H72.75A1.524,1.524,0,0,1,73.045,53.69Zm-.3,1.144h.713a.826.826,0,0,0,.089.214l-.5.5A1.527,1.527,0,0,1,72.748,54.834Zm1.317,1.312a1.533,1.533,0,0,1-.714-.3l.5-.5a.847.847,0,0,0,.214.087Zm0-2.348a.856.856,0,0,0-.218.091l-.5-.5a1.528,1.528,0,0,1,.719-.3Zm.427-.709a1.532,1.532,0,0,1,.719.3l-.5.5a.832.832,0,0,0-.218-.091Zm0,3.056v-.709a.841.841,0,0,0,.213-.087l.5.5A1.535,1.535,0,0,1,74.491,56.146Zm1.019-.593-.5-.5a.823.823,0,0,0,.092-.213H75.8A1.533,1.533,0,0,1,75.51,55.553ZM75.1,54.408a.849.849,0,0,0-.089-.216l.5-.5a1.537,1.537,0,0,1,.295.719H75.1Z" transform="translate(-48.144 -45.471)"/>
      <path id="Path_4108" data-name="Path 4108" class="cls-1" d="M32.044,37.287V35.465a.593.593,0,0,0-.5-.586,24.249,24.249,0,0,1-2.479-.485c-.793-.245-3.857-1.542-4.918-1.786s-5.847-1.544-10.43.044c-.776.269-4.265,1.937-6.316,2.8-.6.013-6.584,1.26-6.9,2.114a13.818,13.818,0,0,0-.477,1.486,3.5,3.5,0,0,0,.444,1.978,7.138,7.138,0,0,0,2.333.544c-.012-.062-.024-.122-.032-.185a2.835,2.835,0,0,1-.026-.371,2.956,2.956,0,1,1,5.912,0c0,.084-.006.167-.012.249a2.877,2.877,0,0,1-.1.532H8.55l14.673-.3c-.007-.038-.015-.075-.02-.114a2.823,2.823,0,0,1-.026-.371,2.956,2.956,0,0,1,5.912,0c0,.006,0,.012,0,.017l.063-.005,2.509-.472a2.136,2.136,0,0,0,.961-1.919A1.693,1.693,0,0,0,32.044,37.287ZM17.488,35.56l-5.48.168c.1-.821-.385-1.005-.385-1.005,2.178-1.977,6.569-2.044,6.569-2.044Zm6.15-.251-4.994.168.453-2.8a11.829,11.829,0,0,1,4.055.536l.737,1.19Zm2.815-.017H25.062l-1.391-1.91c1.044.415,1.879.825,2.376,1.083A.776.776,0,0,1,26.454,35.292Z" transform="translate(0.001 -31.876)"/>
    </g>
  </g>
</svg>
