<svg xmlns="http://www.w3.org/2000/svg" width="246.611" height="228.953" viewBox="0 0 246.611 228.953">
  <defs>
    <style>
      .cls-1 {
        fill: #fff;
      }

      .cls-2 {
        fill: #8dc043;
      }
    </style>
  </defs>
  <g id="Group_2367" data-name="Group 2367" transform="translate(-509.752 -452.503)">
    <path id="Path_598" data-name="Path 598" class="cls-1" d="M2137.31,651.611c20.141-25.2,27.508-55.816,20.74-86.2-11.457-51.419-60.077-76.739-100.405-78.506-25.124-1.1-48.972,6.043-67.147,20.118-27.916,21.617-44.664,55.152-43.707,87.519,1.588,53.8,45.274,97.81,99.461,100.185l0,0c1.591.069,3.179.1,4.779.1C2083.031,694.725,2116.088,678.165,2137.31,651.611Z" transform="translate(-1419.844 -30.493)"/>
    <path id="Path_599" data-name="Path 599" class="cls-2" d="M2164.281,567.111c-10.187-45.736-52.931-79.241-103.945-81.476-26.023-1.141-50.757,6.284-69.641,20.908-28.857,22.35-46.168,57.08-45.179,90.638,1.645,55.781,46.931,101.407,103.093,103.871h0q2.48.108,4.961.1c33.12-.1,67.311-17.21,89.232-44.643C2163.677,630.386,2171.305,598.638,2164.281,567.111Zm-115.5,130.145,0,0c-54.187-2.375-97.873-46.383-99.461-100.185-.956-32.367,15.792-65.9,43.707-87.519,18.175-14.075,42.023-21.218,67.147-20.118,40.328,1.767,88.949,27.087,100.406,78.506,6.767,30.383-.6,60.995-20.741,86.2-21.221,26.554-54.278,43.115-86.276,43.216C2051.958,697.354,2050.37,697.324,2048.779,697.256Z" transform="translate(-1422.369 -33.018)"/>
    <g id="Group_269" data-name="Group 269" transform="translate(686.832 523.375)">
      <path id="Path_600" data-name="Path 600" class="cls-2" d="M2017.919,520.575c-4.57.53-9.261.715-13.629,2.187-4.089,1.38-4.877,7.151-.381,8.694,4.449,1.532,9.168,1.785,13.822,2.348,4.746.575,11.251-.185,11.519-6.359C2029.53,521.073,2022.7,520.018,2017.919,520.575Z" transform="translate(-1999.552 -487.256)"/>
      <path id="Path_601" data-name="Path 601" class="cls-2" d="M2010.92,509.514c-1.287.429-2.881.79-3.844,1.826a23.013,23.013,0,0,0-2.479,2.953q-1.711,2.61-3.427,5.223a4.073,4.073,0,0,0,.417,4.917,4.114,4.114,0,0,0,5.706.25q2.261-1.743,4.526-3.483a10.819,10.819,0,0,0,4.264-6.049C2016.816,512.222,2014.343,508.367,2010.92,509.514Z" transform="translate(-2000.207 -509.307)"/>
      <path id="Path_602" data-name="Path 602" class="cls-2" d="M2015.723,539.423c-.563-4.568-5.649-6.913-9.108-9.2a4.064,4.064,0,0,0-4.913.414,4.115,4.115,0,0,0-.251,5.706q1.779,2.3,3.558,4.606a8.682,8.682,0,0,0,6.48,3.555C2014.4,544.64,2016.051,542.057,2015.723,539.423Z" transform="translate(-2000.425 -469.169)"/>
    </g>
    <g id="Group_270" data-name="Group 270" transform="translate(544.318 519.316)">
      <path id="Path_603" data-name="Path 603" class="cls-2" d="M1963.938,530.942c4.567-.534,9.26-.715,13.628-2.187,4.085-1.38,4.875-7.151.379-8.7-4.446-1.529-9.168-1.782-13.822-2.345-4.744-.575-11.248.185-11.52,6.359C1952.323,530.445,1959.155,531.5,1963.938,530.942Z" transform="translate(-1952.594 -488.919)"/>
      <path id="Path_604" data-name="Path 604" class="cls-2" d="M1962.488,543.922c1.284-.432,2.878-.79,3.841-1.826a23.028,23.028,0,0,0,2.479-2.953q1.716-2.61,3.426-5.226a4.038,4.038,0,0,0-6.123-5.164q-2.262,1.738-4.526,3.483a10.816,10.816,0,0,0-4.26,6.048C1956.588,541.211,1959.061,545.069,1962.488,543.922Z" transform="translate(-1943.49 -468.787)"/>
      <path id="Path_605" data-name="Path 605" class="cls-2" d="M1957.457,513.033c.563,4.565,5.65,6.912,9.109,9.2a4.064,4.064,0,0,0,4.916-.417,4.113,4.113,0,0,0,.25-5.7q-1.783-2.3-3.56-4.606a8.68,8.68,0,0,0-6.481-3.558C1958.783,507.815,1957.132,510.4,1957.457,513.033Z" transform="translate(-1943.048 -507.944)"/>
    </g>
    <g id="Group_271" data-name="Group 271" transform="translate(509.752 561.372)">
      <path id="Path_606" data-name="Path 606" class="cls-2" d="M1945.808,534.206c-.461-3.859.3-8.063-1.15-11.692a.878.878,0,0,0-1.5-.066c-2.393,3.3-2.154,8.274-2.157,12.2a30.3,30.3,0,0,0,2.4,12.794c.852,1.871,4.145,1.23,4.025-.9C1947.19,542.382,1946.3,538.33,1945.808,534.206Z" transform="translate(-1940.994 -522.059)"/>
      <path id="Path_607" data-name="Path 607" class="cls-2" d="M1961.524,559.007c-2.644-3.23-5.471-6.3-8.075-9.565-2.846-3.569-4.425-8.078-7.381-11.483a1.156,1.156,0,0,0-1.993.724c.179,4.309,2.8,8.56,4.934,12.192a34.176,34.176,0,0,0,10.009,11.1C1960.927,563.285,1962.888,560.675,1961.524,559.007Z" transform="translate(-1934.895 -491.291)"/>
      <path id="Path_608" data-name="Path 608" class="cls-2" d="M1979.234,567.337c-3.805-2.667-7.779-5-11.683-7.514-3.858-2.485-7.213-5.819-11.149-8.126-.883-.518-2.16.438-1.552,1.421,4.714,7.64,14.549,14.445,22.868,17.413C1979.681,571.228,1980.846,568.469,1979.234,567.337Z" transform="translate(-1913.878 -463.678)"/>
      <path id="Path_609" data-name="Path 609" class="cls-2" d="M2002.848,560.9c-9.263-.11-18.6-.247-27.847-.25a1.034,1.034,0,0,0-.364,2.008,49.328,49.328,0,0,0,28.529,1.758C2005.085,563.943,2004.9,560.927,2002.848,560.9Z" transform="translate(-1875.749 -445.66)"/>
      <path id="Path_610" data-name="Path 610" class="cls-2" d="M2022.06,554.773c-4.554,2.172-8.784,4.946-13.233,7.312-5,2.661-10.56,4.034-15.523,6.668a1.274,1.274,0,0,0,.536,2.384c10.134-.078,23.336-6.081,30.481-13.152A1.988,1.988,0,0,0,2022.06,554.773Z" transform="translate(-1838.724 -457.724)"/>
      <path id="Path_611" data-name="Path 611" class="cls-2" d="M2025.035,544.913c-2.473,3.474-4.6,7.178-7.157,10.59-2.533,3.388-5.84,5.983-8.447,9.26a.9.9,0,0,0,.947,1.353c7.857-2.866,15.464-11.814,17.812-19.707A1.768,1.768,0,0,0,2025.035,544.913Z" transform="translate(-1805.816 -478.335)"/>
      <path id="Path_612" data-name="Path 612" class="cls-2" d="M2028.421,533.748c-1.984,2.515-2.985,5.789-4.329,8.688-1.906,4.106-3.975,8.149-6.039,12.178a.952.952,0,0,0,1.6,1.031c2.3-3.433,4.469-6.928,6.542-10.506,1.827-3.15,4.217-6.5,4.991-10.08A1.55,1.55,0,0,0,2028.421,533.748Z" transform="translate(-1788.689 -500.243)"/>
      <path id="Path_613" data-name="Path 613" class="cls-2" d="M2026.44,524.015a1.243,1.243,0,0,0-2.115-.092c-1,1.7-.563,3.513-.647,5.435a30.054,30.054,0,0,1-1.6,8.17c-.327.983,1.168,1.74,1.669.79a29.234,29.234,0,0,0,2.81-7.464C2027.012,528.719,2027.775,525.906,2026.44,524.015Z" transform="translate(-1780.579 -519.468)"/>
    </g>
  </g>
</svg>
