<svg xmlns="http://www.w3.org/2000/svg" width="246.609" height="228.953" viewBox="0 0 246.609 228.953">
  <defs>
    <style>
      .cls-1 {
        fill: #fff;
      }

      .cls-2 {
        fill: #a2a2a2;
      }

      .cls-3 {
        fill: #d1cfcd;
      }
    </style>
  </defs>
  <g id="Group_2368" data-name="Group 2368" transform="translate(-845.693 -452.503)">
    <path id="Path_614" data-name="Path 614" class="cls-1" d="M2250.056,651.611c20.141-25.2,27.512-55.816,20.742-86.2-11.454-51.419-60.074-76.739-100.4-78.506-25.127-1.1-48.972,6.043-67.148,20.118-27.916,21.617-44.663,55.152-43.711,87.519,1.589,53.8,45.279,97.81,99.465,100.185v0c1.591.069,3.182.1,4.781.1C2195.779,694.725,2228.84,678.165,2250.056,651.611Z" transform="translate(-1196.653 -30.493)"/>
    <path id="Path_615" data-name="Path 615" class="cls-2" d="M2277.031,567.111c-10.187-45.736-52.932-79.241-103.945-81.476-26.023-1.141-50.757,6.284-69.642,20.908-28.859,22.35-46.171,57.08-45.182,90.638,1.649,55.781,46.932,101.407,103.1,103.871h0q2.476.108,4.961.1c33.118-.1,67.312-17.21,89.233-44.643C2276.427,630.386,2284.054,598.638,2277.031,567.111ZM2161.526,697.256v0c-54.187-2.375-97.876-46.383-99.465-100.185-.953-32.367,15.8-65.9,43.71-87.519,18.175-14.075,42.021-21.218,67.148-20.118,40.328,1.767,88.949,27.087,100.4,78.506,6.769,30.383-.6,60.995-20.742,86.2-21.217,26.554-54.278,43.115-86.273,43.216C2164.708,697.354,2163.117,697.324,2161.526,697.256Z" transform="translate(-1199.177 -33.018)"/>
    <g id="Group_273" data-name="Group 273" transform="translate(1022.771 523.375)">
      <path id="Path_616" data-name="Path 616" class="cls-3" d="M2130.665,520.575c-4.567.53-9.26.715-13.628,2.187-4.085,1.38-4.875,7.151-.382,8.694,4.448,1.532,9.171,1.785,13.825,2.348,4.744.575,11.248-.185,11.519-6.359C2142.279,521.073,2135.447,520.018,2130.665,520.575Z" transform="translate(-2112.299 -487.256)"/>
      <path id="Path_617" data-name="Path 617" class="cls-3" d="M2123.665,509.514c-1.285.429-2.878.79-3.841,1.826a22.985,22.985,0,0,0-2.482,2.953q-1.712,2.61-3.424,5.223a4.038,4.038,0,0,0,6.12,5.167l4.529-3.483a10.814,10.814,0,0,0,4.261-6.049C2129.565,512.222,2127.091,508.367,2123.665,509.514Z" transform="translate(-2112.953 -509.307)"/>
      <path id="Path_618" data-name="Path 618" class="cls-3" d="M2128.472,539.423c-.563-4.568-5.65-6.913-9.108-9.2a4.068,4.068,0,0,0-4.916.414,4.116,4.116,0,0,0-.251,5.706l3.56,4.606a8.674,8.674,0,0,0,6.48,3.555C2127.144,544.64,2128.8,542.057,2128.472,539.423Z" transform="translate(-2113.172 -469.169)"/>
    </g>
    <g id="Group_274" data-name="Group 274" transform="translate(880.256 519.316)">
      <path id="Path_619" data-name="Path 619" class="cls-3" d="M2076.684,530.942c4.57-.534,9.261-.715,13.628-2.187,4.088-1.38,4.877-7.151.382-8.7-4.449-1.529-9.169-1.782-13.823-2.345-4.746-.575-11.25.185-11.521,6.359C2065.073,530.445,2071.9,531.5,2076.684,530.942Z" transform="translate(-2065.342 -488.919)"/>
      <path id="Path_620" data-name="Path 620" class="cls-3" d="M2075.234,543.922c1.287-.432,2.881-.79,3.843-1.826a23.231,23.231,0,0,0,2.479-2.953q1.711-2.61,3.423-5.226a4.07,4.07,0,0,0-.414-4.916,4.114,4.114,0,0,0-5.706-.247q-2.262,1.738-4.527,3.483a10.822,10.822,0,0,0-4.264,6.048C2069.338,541.211,2071.811,545.069,2075.234,543.922Z" transform="translate(-2056.238 -468.787)"/>
      <path id="Path_621" data-name="Path 621" class="cls-3" d="M2070.206,513.033c.563,4.565,5.649,6.912,9.1,9.2a4.065,4.065,0,0,0,4.917-.417,4.111,4.111,0,0,0,.25-5.7q-1.778-2.3-3.558-4.606a8.684,8.684,0,0,0-6.48-3.558C2071.531,507.815,2069.878,510.4,2070.206,513.033Z" transform="translate(-2055.794 -507.944)"/>
    </g>
    <g id="Group_275" data-name="Group 275" transform="translate(845.693 561.372)">
      <path id="Path_622" data-name="Path 622" class="cls-2" d="M2058.557,534.206c-.462-3.859.3-8.063-1.151-11.692a.878.878,0,0,0-1.5-.066c-2.393,3.3-2.155,8.274-2.158,12.2a30.3,30.3,0,0,0,2.4,12.794c.855,1.871,4.147,1.23,4.028-.9C2059.938,542.382,2059.051,538.33,2058.557,534.206Z" transform="translate(-2053.741 -522.059)"/>
      <path id="Path_623" data-name="Path 623" class="cls-2" d="M2074.273,559.007c-2.643-3.23-5.47-6.3-8.075-9.565-2.849-3.569-4.428-8.078-7.383-11.483a1.156,1.156,0,0,0-1.994.724c.179,4.309,2.8,8.56,4.934,12.192a34.269,34.269,0,0,0,10.008,11.1C2073.674,563.285,2075.638,560.675,2074.273,559.007Z" transform="translate(-2047.645 -491.291)"/>
      <path id="Path_624" data-name="Path 624" class="cls-2" d="M2091.979,567.337c-3.8-2.667-7.777-5-11.68-7.514-3.862-2.485-7.213-5.819-11.15-8.126-.882-.518-2.16.438-1.552,1.421,4.713,7.64,14.546,14.445,22.868,17.413C2092.428,571.228,2093.591,568.469,2091.979,567.337Z" transform="translate(-2026.626 -463.678)"/>
      <path id="Path_625" data-name="Path 625" class="cls-2" d="M2115.592,560.9c-9.262-.11-18.595-.247-27.846-.25a1.034,1.034,0,0,0-.361,2.008,49.328,49.328,0,0,0,28.529,1.758C2117.833,563.943,2117.645,560.927,2115.592,560.9Z" transform="translate(-1988.497 -445.66)"/>
      <path id="Path_626" data-name="Path 626" class="cls-2" d="M2134.809,554.773c-4.553,2.172-8.784,4.946-13.236,7.312-5,2.661-10.556,4.034-15.52,6.668a1.273,1.273,0,0,0,.533,2.384c10.135-.078,23.336-6.081,30.481-13.152A1.987,1.987,0,0,0,2134.809,554.773Z" transform="translate(-1951.474 -457.724)"/>
      <path id="Path_627" data-name="Path 627" class="cls-2" d="M2137.78,544.913c-2.474,3.474-4.6,7.178-7.154,10.59-2.536,3.388-5.844,5.983-8.448,9.26a.9.9,0,0,0,.948,1.353c7.854-2.866,15.464-11.814,17.813-19.707A1.77,1.77,0,0,0,2137.78,544.913Z" transform="translate(-1918.564 -478.335)"/>
      <path id="Path_628" data-name="Path 628" class="cls-2" d="M2141.167,533.748c-1.985,2.515-2.983,5.789-4.329,8.688-1.907,4.106-3.972,8.149-6.037,12.178a.951.951,0,0,0,1.6,1.031c2.306-3.433,4.472-6.928,6.543-10.506,1.827-3.15,4.218-6.5,4.993-10.08A1.551,1.551,0,0,0,2141.167,533.748Z" transform="translate(-1901.437 -500.243)"/>
      <path id="Path_629" data-name="Path 629" class="cls-2" d="M2139.189,524.015a1.243,1.243,0,0,0-2.116-.092c-1,1.7-.562,3.513-.649,5.435a30.093,30.093,0,0,1-1.6,8.17c-.328.983,1.167,1.74,1.667.79a29.147,29.147,0,0,0,2.812-7.464C2139.758,528.719,2140.52,525.906,2139.189,524.015Z" transform="translate(-1893.327 -519.468)"/>
    </g>
  </g>
</svg>
