<svg id="skills" xmlns="http://www.w3.org/2000/svg" width="24.807" height="20.601" viewBox="0 0 24.807 20.601">
  <defs>
    <style>
      .cls-1 {
        fill: #8dc043;
      }
    </style>
  </defs>
  <g id="XMLID_351_" transform="translate(8.816 1.239)">
    <path id="XMLID_352_" class="cls-1" d="M84.287,34.542H97.08a1.6,1.6,0,1,0,0-3.2H84.287a1.6,1.6,0,0,0,0,3.2Z" transform="translate(-82.688 -31.344)"/>
  </g>
  <g id="XMLID_439_" transform="translate(8.816 8.702)">
    <path id="XMLID_440_" class="cls-1" d="M97.08,101.344H84.287a1.6,1.6,0,1,0,0,3.2H97.08a1.6,1.6,0,1,0,0-3.2Z" transform="translate(-82.688 -101.344)"/>
  </g>
  <g id="XMLID_441_" transform="translate(8.816 16.164)">
    <path id="XMLID_443_" class="cls-1" d="M97.08,171.344H84.287a1.6,1.6,0,0,0,0,3.2H97.08a1.6,1.6,0,1,0,0-3.2Z" transform="translate(-82.688 -171.344)"/>
  </g>
  <g id="XMLID_444_" transform="translate(0 7.463)">
    <path id="XMLID_445_" class="cls-1" d="M5.2,91.289l-1.065-.155-.476-.965a.8.8,0,0,0-1.434,0l-.476.965-1.065.155A.8.8,0,0,0,.24,92.652l.771.751L.829,94.464a.8.8,0,0,0,1.16.843l.953-.5.953.5a.8.8,0,0,0,.372.092h0a.8.8,0,0,0,.776-.994l-.172-1,.771-.751A.8.8,0,0,0,5.2,91.289Z" transform="translate(0.001 -89.723)"/>
  </g>
  <g id="XMLID_446_">
    <path id="XMLID_447_" class="cls-1" d="M5.2,21.289l-1.065-.155-.476-.965a.8.8,0,0,0-1.434,0l-.476.965-1.065.155A.8.8,0,0,0,.24,22.652l.771.751L.829,24.464a.8.8,0,0,0,1.16.843l.953-.5.953.5a.8.8,0,0,0,.372.092h0a.8.8,0,0,0,.776-.994l-.172-1,.771-.751A.8.8,0,0,0,5.2,21.289Z" transform="translate(0.001 -19.723)"/>
  </g>
  <g id="XMLID_448_" transform="translate(0 14.925)">
    <path id="XMLID_449_" class="cls-1" d="M5.2,161.289l-1.065-.155-.476-.965a.8.8,0,0,0-1.434,0l-.476.965-1.065.155a.8.8,0,0,0-.443,1.364l.771.751-.182,1.061a.8.8,0,0,0,1.16.843l.953-.5.953.5a.8.8,0,0,0,.372.092h0a.8.8,0,0,0,.776-.994l-.172-1,.771-.751a.8.8,0,0,0-.443-1.364Z" transform="translate(0.001 -159.723)"/>
  </g>
</svg>
