<svg id="Group_2369" data-name="Group 2369" xmlns="http://www.w3.org/2000/svg" xmlns:xlink="http://www.w3.org/1999/xlink" width="968.573" height="936.328" viewBox="0 0 968.573 936.328">
  <defs>
    <style>
      .cls-1, .cls-15, .cls-31, .cls-32 {
        fill: none;
      }

      .cls-2 {
        fill: #0062ac;
      }

      .cls-3, .cls-37, .cls-6 {
        opacity: 0.4;
      }

      .cls-3 {
        fill: url(#linear-gradient);
      }

      .cls-4 {
        opacity: 0.5;
        fill: url(#radial-gradient);
      }

      .cls-20, .cls-39, .cls-5 {
        opacity: 0.3;
      }

      .cls-5 {
        fill: url(#radial-gradient-2);
      }

      .cls-6 {
        fill: url(#linear-gradient-2);
      }

      .cls-7 {
        fill: #6c767a;
      }

      .cls-8 {
        fill: #b6bcbd;
      }

      .cls-9 {
        fill: #ba8441;
      }

      .cls-10 {
        fill: #523416;
      }

      .cls-11 {
        fill: #556165;
      }

      .cls-12 {
        fill: #865c27;
      }

      .cls-13 {
        fill: #dfae71;
      }

      .cls-14 {
        fill: #efefef;
      }

      .cls-15, .cls-31, .cls-32 {
        stroke: #1b242f;
      }

      .cls-15 {
        stroke-linecap: round;
        stroke-linejoin: round;
        stroke-width: 0.333px;
      }

      .cls-16 {
        fill: #b3731c;
      }

      .cls-17 {
        fill: #e49810;
      }

      .cls-18 {
        fill: #96591b;
      }

      .cls-19 {
        fill: #83b92b;
      }

      .cls-20 {
        fill: #fff;
      }

      .cls-21 {
        fill: #00588e;
      }

      .cls-22 {
        fill: #0090c6;
      }

      .cls-23 {
        fill: #f27c30;
      }

      .cls-24 {
        fill: #003f72;
      }

      .cls-25 {
        fill: #0f6c7a;
      }

      .cls-26 {
        fill: #d2d5d5;
      }

      .cls-27 {
        fill: #9ea4a5;
      }

      .cls-28 {
        fill: #d42268;
      }

      .cls-29 {
        fill: #f6f9f4;
      }

      .cls-30 {
        fill: #1b242f;
      }

      .cls-31, .cls-32 {
        stroke-miterlimit: 10;
      }

      .cls-31 {
        stroke-width: 0.308px;
      }

      .cls-32 {
        stroke-width: 0.154px;
      }

      .cls-33 {
        fill: #a8b5d6;
      }

      .cls-34 {
        fill: #8a9bbe;
      }

      .cls-35 {
        fill: #e1e4f3;
      }

      .cls-36 {
        fill: #c7d0de;
      }

      .cls-37 {
        fill: #b9ce43;
      }

      .cls-38 {
        clip-path: url(#clip-path);
      }

      .cls-40 {
        fill: url(#radial-gradient-3);
      }
    </style>
    <linearGradient id="linear-gradient" y1="0.5" x2="1" y2="0.5" gradientUnits="objectBoundingBox">
      <stop offset="0.005" stop-color="#fff" stop-opacity="0"/>
      <stop offset="1" stop-color="#99d1db"/>
    </linearGradient>
    <radialGradient id="radial-gradient" cx="255.635" cy="55.378" r="415.547" gradientTransform="translate(38.128 -11.752) scale(0.807 0.79)" xlink:href="#linear-gradient"/>
    <radialGradient id="radial-gradient-2" cx="-206.21" cy="-2869.515" r="792.966" gradientTransform="translate(-177.849 -2131.48) scale(0.341 0.334)" xlink:href="#linear-gradient"/>
    <linearGradient id="linear-gradient-2" x1="0.421" y1="0.69" x2="0.713" y2="0.063" xlink:href="#linear-gradient"/>
    <clipPath id="clip-path">
      <rect id="Rectangle_498" data-name="Rectangle 498" class="cls-1" width="718.387" height="361.287"/>
    </clipPath>
    <radialGradient id="radial-gradient-3" cx="319.582" cy="319.581" r="319.581" gradientUnits="userSpaceOnUse">
      <stop offset="0" stop-color="#fff"/>
      <stop offset="0.201" stop-color="#fff" stop-opacity="0.761"/>
      <stop offset="0.491" stop-color="#fff" stop-opacity="0.439"/>
      <stop offset="0.729" stop-color="#fff" stop-opacity="0.2"/>
      <stop offset="0.903" stop-color="#fff" stop-opacity="0.055"/>
      <stop offset="0.995" stop-color="#fff" stop-opacity="0"/>
    </radialGradient>
  </defs>
  <path id="Path_2478" data-name="Path 2478" class="cls-2" d="M.917,936.328H695.242c255.4,0,282.654-103.706,270.268-200.324L768.79,0H.917Z" transform="translate(0.642)"/>
  <path id="Path_2479" data-name="Path 2479" class="cls-3" d="M.917,0V188.286c51.275-24.335,235.288-35.933,354.166-44.132C490.2,134.836,530.382,56.873,541.556,0Z" transform="translate(0.514)"/>
  <g id="Group_1246" data-name="Group 1246" transform="translate(90.582 173.918)">
    <path id="Path_2493" data-name="Path 2493" class="cls-4" d="M124.218,217.972c31.851-37.8,111.2-115.026,334.712-105.76,242.844,10.069,296.513,126.9,302.746,139.87a181.153,181.153,0,0,1,18.157,76.306c.794,51.393,2.015,96.059,8.547,148.792,23.9,192.971-210.693,222.019-365.029,224.855-274.138,5.033-317.76-87.2-333.952-123.912C64.087,520.737,54.963,455.609,58.941,393.468,62.875,332.09,83.594,266.185,124.218,217.972Z" transform="translate(-58.045 -111.447)"/>
    <path id="Path_2494" data-name="Path 2494" class="cls-5" d="M387.491,333.435c-134.078-8.04-241.907,17.9-323.545,52.171a358.329,358.329,0,0,0,22.146,68.907c16.192,36.707,59.814,128.945,333.952,123.912,150.307-2.761,376.691-30.412,366.34-210.095C664.9,398.65,686.784,351.381,387.491,333.435Z" transform="translate(-54.738 12.163)"/>
    <path id="Path_2495" data-name="Path 2495" class="cls-6" d="M627.874,252.035c-6.233-12.973-59.9-129.8-302.746-139.87q-11.072-.459-21.67-.634C291.32,145.59,290.166,191.465,347.8,218.717c99.372,46.983,178.03-2.141,210.742,93.967,13.207,38.8,48.592,55.864,88.283,54.65-.354-12.717-.593-25.626-.8-38.993A181.153,181.153,0,0,0,627.874,252.035Z" transform="translate(75.757 -111.399)"/>
  </g>
  <g id="Group_1294" data-name="Group 1294" transform="translate(157.068 288.492)">
    <g id="Group_1255" data-name="Group 1255" transform="translate(241.954 77.139)">
      <g id="Group_1254" data-name="Group 1254">
        <path id="Path_2496" data-name="Path 2496" class="cls-7" d="M259.124,245.029c15.321-6.665,23.755-8.443,40.462-8.528-.186-.882-.278-1.322-.462-2.2-16.717.047-25.155,1.824-40.467,8.528C258.844,243.707,258.936,244.147,259.124,245.029Z" transform="translate(-254.033 -234.297)"/>
        <path id="Path_2497" data-name="Path 2497" class="cls-8" d="M260.927,242.932c13.032-5.173,20.044-6.651,34.054-7.177l5.125,24.405c-13.945.829-20.924,2.3-34.017,7.169C264.025,257.57,262.992,252.69,260.927,242.932Z" transform="translate(-252.761 -233.48)"/>
        <path id="Path_2498" data-name="Path 2498" class="cls-8" d="M258.76,262.215c19.416-9.031,30.409-11.348,51.82-10.921,13.558,64.5,20.339,96.746,33.9,161.244L292.82,423.424C279.2,358.941,272.384,326.7,258.76,262.215Z" transform="translate(-253.975 -224.796)"/>
        <path id="Path_2499" data-name="Path 2499" class="cls-7" d="M256.151,266c22.651-11.717,35.994-14.529,61.448-12.951-.184-.868-.275-1.3-.459-2.171-25.465-1.67-38.822,1.145-61.447,12.951Z" transform="translate(-255.694 -225.251)"/>
        <path id="Path_2500" data-name="Path 2500" class="cls-7" d="M259.816,283.248c22.981-10.6,36.144-13.374,61.448-12.949-.184-.869-.275-1.3-.459-2.171-25.315-.516-38.492,2.261-61.447,12.949C259.542,281.947,259.634,282.381,259.816,283.248Z" transform="translate(-253.64 -215.366)"/>
        <path id="Path_2501" data-name="Path 2501" class="cls-7" d="M263.481,300.618c23.31-9.485,36.292-12.221,61.448-12.951-.184-.868-.275-1.3-.459-2.171-25.165.638-38.163,3.377-61.447,12.951C263.207,299.315,263.3,299.748,263.481,300.618Z" transform="translate(-251.585 -205.598)"/>
        <path id="Path_2502" data-name="Path 2502" class="cls-7" d="M267.146,318.007c23.639-8.368,36.442-11.066,61.448-12.951-.184-.868-.275-1.3-.459-2.171-25.017,1.793-37.834,4.494-61.447,12.951Z" transform="translate(-249.531 -195.85)"/>
        <path id="Path_2503" data-name="Path 2503" class="cls-7" d="M270.811,335.4c23.967-7.25,36.592-9.911,61.448-12.949-.184-.869-.275-1.3-.459-2.171-24.867,2.946-37.506,5.609-61.447,12.949C270.537,334.094,270.629,334.527,270.811,335.4Z" transform="translate(-247.476 -186.102)"/>
        <path id="Path_2504" data-name="Path 2504" class="cls-7" d="M274.476,352.786c24.3-6.136,36.74-8.758,61.447-12.951-.183-.868-.273-1.3-.457-2.171a605.459,605.459,0,0,0-61.447,12.951C274.2,351.483,274.294,351.917,274.476,352.786Z" transform="translate(-245.422 -176.355)"/>
        <g id="Group_1247" data-name="Group 1247" transform="translate(10.617 30.121)">
          <path id="Path_2505" data-name="Path 2505" class="cls-7" d="M286.861,258.24a3.147,3.147,0,0,1-.96-2.144,2.388,2.388,0,0,1,1.824-2.42,3.459,3.459,0,0,1,3.987,2.639,2.447,2.447,0,0,1-.247,1.745,1.191,1.191,0,0,0,.57,1.5l.051.031a1.354,1.354,0,0,1,.624.855c1.135,5.4,1.7,8.095,2.834,13.492-2.4.117-3.6.2-5.989.424-1.141-5.429-1.71-8.143-2.85-13.571a.975.975,0,0,1,.256-.91l.052-.05A1.117,1.117,0,0,0,286.861,258.24Z" transform="translate(-249.379 -253.598)"/>
          <path id="Path_2506" data-name="Path 2506" class="cls-7" d="M280.867,259a3.025,3.025,0,0,1-.958-2.118,2.659,2.659,0,0,1,1.8-2.612,3.173,3.173,0,0,1,3.968,2.4,2.658,2.658,0,0,1-.239,1.8,1.168,1.168,0,0,0,.57,1.5l.051.028a1.251,1.251,0,0,1,.623.829c1.144,5.442,1.715,8.162,2.859,13.6-2.386.282-3.577.449-5.949.835-1.147-5.457-1.721-8.185-2.868-13.642a1.066,1.066,0,0,1,.251-.947l.05-.053A1.149,1.149,0,0,0,280.867,259Z" transform="translate(-252.738 -253.301)"/>
          <path id="Path_2507" data-name="Path 2507" class="cls-7" d="M274.941,260.207a2.889,2.889,0,0,1-.952-2.082,2.947,2.947,0,0,1,1.765-2.792,2.91,2.91,0,0,1,3.926,2.143,2.853,2.853,0,0,1-.229,1.857,1.139,1.139,0,0,0,.57,1.481l.051.026a1.161,1.161,0,0,1,.62.8c1.149,5.462,1.724,8.193,2.875,13.653-2.361.443-3.538.691-5.877,1.239-1.152-5.46-1.728-8.191-2.881-13.652a1.162,1.162,0,0,1,.245-.982l.048-.058A1.172,1.172,0,0,0,274.941,260.207Z" transform="translate(-256.056 -252.746)"/>
          <path id="Path_2508" data-name="Path 2508" class="cls-7" d="M269.118,261.86a2.745,2.745,0,0,1-.943-2.036,3.263,3.263,0,0,1,1.72-2.959,2.67,2.67,0,0,1,3.867,1.882,3.043,3.043,0,0,1-.219,1.9,1.106,1.106,0,0,0,.565,1.462l.052.022a1.068,1.068,0,0,1,.612.765c1.152,5.456,1.728,8.184,2.881,13.641-2.325.6-3.483.93-5.779,1.635-1.15-5.44-1.726-8.16-2.876-13.6a1.252,1.252,0,0,1,.236-1.01l.048-.062A1.192,1.192,0,0,0,269.118,261.86Z" transform="translate(-259.316 -251.939)"/>
          <path id="Path_2509" data-name="Path 2509" class="cls-7" d="M263.425,263.95a2.594,2.594,0,0,1-.925-1.982,3.6,3.6,0,0,1,1.665-3.112,2.445,2.445,0,0,1,3.784,1.61,3.235,3.235,0,0,1-.206,1.935,1.068,1.068,0,0,0,.559,1.434l.05.019a.974.974,0,0,1,.6.729l2.871,13.566c-2.278.762-3.41,1.169-5.652,2.029-1.141-5.395-1.712-8.091-2.853-13.488a1.344,1.344,0,0,1,.226-1.033l.047-.067A1.206,1.206,0,0,0,263.425,263.95Z" transform="translate(-262.497 -250.881)"/>
        </g>
        <g id="Group_1248" data-name="Group 1248" transform="translate(16.373 57.416)">
          <path id="Path_2510" data-name="Path 2510" class="cls-7" d="M290.54,275.792a3.1,3.1,0,0,1-.957-2.132,2.463,2.463,0,0,1,1.812-2.475,3.343,3.343,0,0,1,3.968,2.544,2.518,2.518,0,0,1-.242,1.762,1.176,1.176,0,0,0,.568,1.5l.051.031a1.3,1.3,0,0,1,.621.841c1.135,5.4,1.7,8.1,2.834,13.492-2.386.19-3.577.307-5.957.582-1.141-5.428-1.71-8.141-2.85-13.571a1,1,0,0,1,.254-.919l.05-.052A1.124,1.124,0,0,0,290.54,275.792Z" transform="translate(-253.071 -271.089)"/>
          <path id="Path_2511" data-name="Path 2511" class="cls-7" d="M284.573,276.637a3.007,3.007,0,0,1-.957-2.111,2.7,2.7,0,0,1,1.792-2.637,3.116,3.116,0,0,1,3.953,2.346,2.694,2.694,0,0,1-.236,1.815,1.161,1.161,0,0,0,.57,1.492l.052.028a1.234,1.234,0,0,1,.621.821c1.142,5.442,1.715,8.162,2.857,13.6-2.375.323-3.56.506-5.924.913-1.147-5.457-1.721-8.185-2.868-13.642a1.075,1.075,0,0,1,.25-.952l.05-.055A1.153,1.153,0,0,0,284.573,276.637Z" transform="translate(-256.416 -270.726)"/>
          <path id="Path_2512" data-name="Path 2512" class="cls-7" d="M278.664,277.851a2.9,2.9,0,0,1-.952-2.083,2.941,2.941,0,0,1,1.762-2.786,2.9,2.9,0,0,1,3.92,2.138,2.857,2.857,0,0,1-.228,1.859,1.139,1.139,0,0,0,.568,1.481l.051.027a1.148,1.148,0,0,1,.618.8c1.15,5.46,1.726,8.191,2.875,13.652-2.355.453-3.528.7-5.866,1.236l-2.879-13.65a1.157,1.157,0,0,1,.243-.98l.048-.058A1.173,1.173,0,0,0,278.664,277.851Z" transform="translate(-259.726 -270.149)"/>
          <path id="Path_2513" data-name="Path 2513" class="cls-7" d="M272.837,279.429a2.772,2.772,0,0,1-.944-2.044,3.191,3.191,0,0,1,1.726-2.921,2.7,2.7,0,0,1,3.87,1.919,3.025,3.025,0,0,1-.218,1.895,1.111,1.111,0,0,0,.565,1.464l.05.023a1.073,1.073,0,0,1,.613.769l2.879,13.639c-2.325.582-3.483.893-5.787,1.556-1.15-5.44-1.726-8.159-2.876-13.6a1.236,1.236,0,0,1,.237-1l.048-.061A1.189,1.189,0,0,0,272.837,279.429Z" transform="translate(-262.988 -269.361)"/>
          <path id="Path_2514" data-name="Path 2514" class="cls-7" d="M267.118,281.364a2.647,2.647,0,0,1-.93-2,3.468,3.468,0,0,1,1.681-3.046,2.511,2.511,0,0,1,3.8,1.695,3.183,3.183,0,0,1-.209,1.921,1.078,1.078,0,0,0,.559,1.44l.05.02a1,1,0,0,1,.6.738c1.149,5.426,1.721,8.14,2.87,13.566-2.288.709-3.425,1.083-5.685,1.871-1.141-5.395-1.712-8.093-2.853-13.488a1.3,1.3,0,0,1,.229-1.021l.047-.066A1.2,1.2,0,0,0,267.118,281.364Z" transform="translate(-266.186 -268.365)"/>
        </g>
        <g id="Group_1249" data-name="Group 1249" transform="translate(22.13 84.709)">
          <path id="Path_2515" data-name="Path 2515" class="cls-7" d="M294.22,293.347a3.062,3.062,0,0,1-.955-2.121,2.546,2.546,0,0,1,1.8-2.531,3.236,3.236,0,0,1,3.95,2.448,2.6,2.6,0,0,1-.239,1.781,1.165,1.165,0,0,0,.565,1.489l.051.028a1.266,1.266,0,0,1,.62.829c1.135,5.4,1.7,8.1,2.834,13.492-2.372.264-3.558.412-5.925.74l-2.848-13.569a1.024,1.024,0,0,1,.251-.93l.05-.052A1.133,1.133,0,0,0,294.22,293.347Z" transform="translate(-256.764 -288.578)"/>
          <path id="Path_2516" data-name="Path 2516" class="cls-7" d="M288.281,294.277a3,3,0,0,1-.955-2.108,2.738,2.738,0,0,1,1.784-2.661,3.062,3.062,0,0,1,3.937,2.3,2.735,2.735,0,0,1-.232,1.824,1.153,1.153,0,0,0,.568,1.487l.05.028a1.2,1.2,0,0,1,.62.813c1.144,5.442,1.715,8.162,2.857,13.6-2.363.364-3.544.562-5.9.989-1.149-5.457-1.723-8.185-2.87-13.642a1.088,1.088,0,0,1,.248-.955l.048-.055A1.155,1.155,0,0,0,288.281,294.277Z" transform="translate(-260.094 -288.148)"/>
          <path id="Path_2517" data-name="Path 2517" class="cls-7" d="M282.385,295.5a2.887,2.887,0,1,1,4.721-2.729,2.874,2.874,0,0,1-.226,1.86,1.139,1.139,0,0,0,.568,1.481l.05.025a1.15,1.15,0,0,1,.618.794c1.15,5.462,1.724,8.193,2.875,13.653-2.349.462-3.521.708-5.857,1.234l-2.879-13.652a1.149,1.149,0,0,1,.243-.977l.048-.058A1.173,1.173,0,0,0,282.385,295.5Z" transform="translate(-263.396 -287.548)"/>
          <path id="Path_2518" data-name="Path 2518" class="cls-7" d="M276.555,297a2.8,2.8,0,0,1-.944-2.052,3.126,3.126,0,0,1,1.729-2.885,2.736,2.736,0,0,1,3.875,1.96,3,3,0,0,1-.22,1.888,1.117,1.117,0,0,0,.565,1.467l.051.022a1.1,1.1,0,0,1,.613.774l2.879,13.641c-2.327.559-3.486.854-5.8,1.475-1.15-5.44-1.726-8.16-2.876-13.6a1.21,1.21,0,0,1,.239-1l.048-.061A1.183,1.183,0,0,0,276.555,297Z" transform="translate(-266.661 -286.78)"/>
          <path id="Path_2519" data-name="Path 2519" class="cls-7" d="M270.81,298.78a2.7,2.7,0,0,1-.933-2.012,3.336,3.336,0,0,1,1.7-2.981,2.577,2.577,0,0,1,3.819,1.779,3.108,3.108,0,0,1-.212,1.907,1.09,1.09,0,0,0,.56,1.447l.05.02a1.026,1.026,0,0,1,.607.749c1.147,5.426,1.721,8.14,2.87,13.566-2.3.655-3.443,1-5.719,1.713-1.142-5.395-1.712-8.093-2.854-13.488a1.268,1.268,0,0,1,.233-1.008l.048-.062A1.19,1.19,0,0,0,270.81,298.78Z" transform="translate(-269.875 -285.847)"/>
        </g>
        <g id="Group_1250" data-name="Group 1250" transform="translate(27.887 112)">
          <path id="Path_2520" data-name="Path 2520" class="cls-7" d="M297.9,310.9a3.027,3.027,0,0,1-.95-2.11,2.629,2.629,0,0,1,1.787-2.586,3.128,3.128,0,0,1,3.931,2.353,2.658,2.658,0,0,1-.236,1.8,1.15,1.15,0,0,0,.565,1.479l.051.028a1.223,1.223,0,0,1,.616.815c1.135,5.4,1.7,8.1,2.834,13.492-2.358.339-3.538.518-5.893.9-1.139-5.429-1.709-8.143-2.85-13.57a1.052,1.052,0,0,1,.251-.939l.048-.053A1.138,1.138,0,0,0,297.9,310.9Z" transform="translate(-260.456 -306.067)"/>
          <path id="Path_2521" data-name="Path 2521" class="cls-7" d="M291.986,311.917a2.972,2.972,0,0,1-.952-2.1,2.777,2.777,0,0,1,1.774-2.686,3.009,3.009,0,0,1,3.923,2.247,2.772,2.772,0,0,1-.231,1.835,1.149,1.149,0,0,0,.566,1.482l.052.027a1.192,1.192,0,0,1,.618.807c1.142,5.442,1.715,8.162,2.857,13.6-2.353.406-3.528.618-5.874,1.066-1.149-5.456-1.723-8.184-2.87-13.641a1.1,1.1,0,0,1,.247-.96l.048-.056A1.16,1.16,0,0,0,291.986,311.917Z" transform="translate(-263.771 -305.57)"/>
          <path id="Path_2522" data-name="Path 2522" class="cls-7" d="M286.108,313.141a2.942,2.942,0,0,1,.805-4.861,2.923,2.923,0,0,1,3.681,3.992,1.139,1.139,0,0,0,.566,1.481l.052.025a1.144,1.144,0,0,1,.615.794c1.15,5.46,1.726,8.19,2.875,13.652-2.342.471-3.511.718-5.844,1.231-1.153-5.46-1.729-8.19-2.881-13.65a1.145,1.145,0,0,1,.243-.975l.048-.058A1.174,1.174,0,0,0,286.108,313.141Z" transform="translate(-267.067 -304.946)"/>
          <path id="Path_2523" data-name="Path 2523" class="cls-7" d="M280.273,314.568a2.845,2.845,0,0,1-.946-2.062,3.064,3.064,0,0,1,1.735-2.85,2.769,2.769,0,0,1,3.876,2,2.971,2.971,0,0,1-.219,1.882,1.122,1.122,0,0,0,.565,1.468l.052.023a1.108,1.108,0,0,1,.613.779l2.879,13.639c-2.328.537-3.489.816-5.805,1.4-1.15-5.44-1.726-8.16-2.876-13.6a1.189,1.189,0,0,1,.24-.988l.047-.059A1.178,1.178,0,0,0,280.273,314.568Z" transform="translate(-270.334 -304.198)"/>
          <path id="Path_2524" data-name="Path 2524" class="cls-7" d="M274.5,316.2a2.741,2.741,0,0,1-.936-2.027,3.2,3.2,0,0,1,1.71-2.914,2.647,2.647,0,0,1,3.836,1.862,3.047,3.047,0,0,1-.214,1.893,1.1,1.1,0,0,0,.56,1.451l.051.022a1.055,1.055,0,0,1,.607.758c1.149,5.428,1.723,8.14,2.87,13.567-2.308.6-3.46.913-5.752,1.554-1.142-5.395-1.713-8.091-2.854-13.488a1.226,1.226,0,0,1,.236-.994l.048-.061A1.177,1.177,0,0,0,274.5,316.2Z" transform="translate(-273.564 -303.328)"/>
        </g>
        <g id="Group_1251" data-name="Group 1251" transform="translate(33.642 139.289)">
          <path id="Path_2525" data-name="Path 2525" class="cls-7" d="M301.579,328.456a2.983,2.983,0,0,1-.949-2.1,2.718,2.718,0,0,1,1.776-2.642,3.031,3.031,0,0,1,3.912,2.26,2.746,2.746,0,0,1-.232,1.816,1.138,1.138,0,0,0,.563,1.473l.051.026a1.182,1.182,0,0,1,.613.8c1.133,5.4,1.7,8.1,2.834,13.492-2.345.412-3.517.623-5.86,1.056-1.139-5.428-1.709-8.141-2.849-13.57a1.083,1.083,0,0,1,.248-.949l.05-.055A1.15,1.15,0,0,0,301.579,328.456Z" transform="translate(-264.148 -323.553)"/>
          <path id="Path_2526" data-name="Path 2526" class="cls-7" d="M295.694,329.558a2.969,2.969,0,0,1-.952-2.1,2.819,2.819,0,0,1,1.767-2.709,2.957,2.957,0,0,1,3.909,2.2,2.833,2.833,0,0,1-.228,1.845,1.142,1.142,0,0,0,.565,1.479l.051.027a1.161,1.161,0,0,1,.615.8c1.144,5.442,1.715,8.162,2.857,13.6-2.341.446-3.511.676-5.849,1.144-1.149-5.457-1.723-8.185-2.87-13.642a1.111,1.111,0,0,1,.245-.963l.048-.056A1.164,1.164,0,0,0,295.694,329.558Z" transform="translate(-267.448 -322.988)"/>
          <path id="Path_2527" data-name="Path 2527" class="cls-7" d="M289.828,330.785a2.939,2.939,0,0,1,.8-4.855,2.92,2.92,0,0,1,3.677,3.989,1.138,1.138,0,0,0,.565,1.479l.052.025a1.145,1.145,0,0,1,.615.793c1.15,5.46,1.724,8.191,2.875,13.652-2.336.481-3.5.727-5.835,1.23-1.152-5.46-1.728-8.191-2.881-13.652a1.143,1.143,0,0,1,.243-.972l.048-.058A1.173,1.173,0,0,0,289.828,330.785Z" transform="translate(-270.736 -322.341)"/>
          <path id="Path_2528" data-name="Path 2528" class="cls-7" d="M283.992,332.138a2.882,2.882,0,0,1-.947-2.071,3,3,0,0,1,1.74-2.812,2.8,2.8,0,0,1,3.881,2.041,2.95,2.95,0,0,1-.22,1.876,1.128,1.128,0,0,0,.566,1.472l.05.023a1.111,1.111,0,0,1,.613.783c1.153,5.456,1.729,8.184,2.881,13.639-2.328.515-3.492.777-5.815,1.314-1.15-5.44-1.726-8.16-2.876-13.6a1.172,1.172,0,0,1,.24-.979l.048-.059A1.174,1.174,0,0,0,283.992,332.138Z" transform="translate(-274.006 -321.614)"/>
          <path id="Path_2529" data-name="Path 2529" class="cls-7" d="M278.193,333.612a2.794,2.794,0,0,1-.939-2.041,3.086,3.086,0,0,1,1.726-2.848,2.721,2.721,0,0,1,3.853,1.946,2.986,2.986,0,0,1-.217,1.879,1.108,1.108,0,0,0,.563,1.458l.05.023a1.083,1.083,0,0,1,.61.768c1.147,5.426,1.721,8.14,2.87,13.566-2.319.549-3.477.829-5.788,1.4-1.141-5.395-1.712-8.093-2.853-13.488a1.183,1.183,0,0,1,.239-.982l.048-.059A1.169,1.169,0,0,0,278.193,333.612Z" transform="translate(-277.252 -320.807)"/>
        </g>
        <g id="Group_1252" data-name="Group 1252" transform="translate(39.399 166.576)">
          <path id="Path_2530" data-name="Path 2530" class="cls-7" d="M305.26,346.013a2.946,2.946,0,0,1-.947-2.088,2.812,2.812,0,0,1,1.763-2.7,2.934,2.934,0,0,1,3.894,2.163,2.817,2.817,0,0,1-.228,1.835,1.126,1.126,0,0,0,.56,1.467l.052.025a1.136,1.136,0,0,1,.612.788c1.133,5.4,1.7,8.095,2.834,13.491-2.331.485-3.5.729-5.827,1.216-1.139-5.429-1.709-8.143-2.85-13.57a1.114,1.114,0,0,1,.245-.96l.05-.056A1.155,1.155,0,0,0,305.26,346.013Z" transform="translate(-267.841 -341.039)"/>
          <path id="Path_2531" data-name="Path 2531" class="cls-7" d="M299.4,347.2a2.946,2.946,0,0,1-.949-2.093,2.863,2.863,0,0,1,1.757-2.734,2.908,2.908,0,0,1,3.9,2.149,2.875,2.875,0,0,1-.225,1.854,1.136,1.136,0,0,0,.563,1.476l.051.023a1.15,1.15,0,0,1,.613.793c1.142,5.442,1.713,8.162,2.857,13.6-2.331.487-3.5.732-5.826,1.22-1.149-5.456-1.723-8.185-2.87-13.641a1.126,1.126,0,0,1,.243-.968l.048-.058A1.168,1.168,0,0,0,299.4,347.2Z" transform="translate(-271.126 -340.406)"/>
          <path id="Path_2532" data-name="Path 2532" class="cls-7" d="M293.549,348.431a2.94,2.94,0,0,1-.949-2.091,2.854,2.854,0,1,1,5.42,1.227,1.137,1.137,0,0,0,.566,1.478l.05.025a1.14,1.14,0,0,1,.615.791c1.149,5.46,1.724,8.19,2.875,13.652l-5.826,1.227-2.879-13.65a1.136,1.136,0,0,1,.242-.972l.048-.056A1.173,1.173,0,0,0,293.549,348.431Z" transform="translate(-274.406 -339.735)"/>
          <path id="Path_2533" data-name="Path 2533" class="cls-7" d="M287.71,349.707a2.9,2.9,0,0,1-.947-2.079,2.937,2.937,0,0,1,1.745-2.776,2.842,2.842,0,0,1,3.884,2.082,2.926,2.926,0,0,1-.22,1.87,1.133,1.133,0,0,0,.565,1.473l.052.025a1.13,1.13,0,0,1,.613.787c1.152,5.456,1.728,8.183,2.881,13.639l-5.824,1.234c-1.15-5.44-1.726-8.16-2.876-13.6a1.147,1.147,0,0,1,.242-.971l.048-.058A1.17,1.17,0,0,0,287.71,349.707Z" transform="translate(-277.679 -339.028)"/>
          <path id="Path_2534" data-name="Path 2534" class="cls-7" d="M281.885,351.03a2.845,2.845,0,0,1-.943-2.057,2.97,2.97,0,0,1,1.74-2.782,2.8,2.8,0,0,1,3.87,2.029,2.929,2.929,0,0,1-.218,1.866,1.119,1.119,0,0,0,.563,1.464l.05.023a1.111,1.111,0,0,1,.612.779c1.149,5.426,1.723,8.14,2.87,13.566-2.328.495-3.493.743-5.821,1.241-1.141-5.395-1.712-8.093-2.853-13.488A1.14,1.14,0,0,1,282,352.7l.048-.056A1.16,1.16,0,0,0,281.885,351.03Z" transform="translate(-280.941 -338.284)"/>
        </g>
        <g id="Group_1253" data-name="Group 1253" transform="translate(13.818 4.15)">
          <path id="Path_2535" data-name="Path 2535" class="cls-7" d="M277.251,241.8a3.043,3.043,0,0,1-.96-2.122,2.62,2.62,0,0,1,1.809-2.589,3.227,3.227,0,0,1,3.981,2.444,2.61,2.61,0,0,1-.24,1.795,1.174,1.174,0,0,0,.57,1.5l.053.03a1.271,1.271,0,0,1,.624.835c1.144,5.442,1.715,8.162,2.859,13.6-2.4.242-3.592.395-5.972.76-1.147-5.457-1.721-8.185-2.87-13.642a1.062,1.062,0,0,1,.253-.944l.05-.053A1.14,1.14,0,0,0,277.251,241.8Z" transform="translate(-257.967 -236.956)"/>
          <path id="Path_2536" data-name="Path 2536" class="cls-7" d="M271.311,243a2.874,2.874,0,0,1-.952-2.08,2.955,2.955,0,0,1,1.767-2.8,2.918,2.918,0,0,1,3.936,2.146,2.847,2.847,0,0,1-.231,1.855,1.139,1.139,0,0,0,.568,1.483l.051.025a1.164,1.164,0,0,1,.621.8c1.15,5.46,1.724,8.191,2.875,13.652-2.367.435-3.546.683-5.886,1.241-1.152-5.46-1.729-8.19-2.881-13.65a1.162,1.162,0,0,1,.245-.983l.048-.058A1.171,1.171,0,0,0,271.311,243Z" transform="translate(-261.292 -236.424)"/>
          <path id="Path_2537" data-name="Path 2537" class="cls-7" d="M265.49,244.725a2.709,2.709,0,0,1-.939-2.027,3.326,3.326,0,0,1,1.715-2.993,2.637,2.637,0,0,1,3.862,1.841,3.066,3.066,0,0,1-.217,1.905,1.1,1.1,0,0,0,.565,1.459l.05.022a1.053,1.053,0,0,1,.612.762c1.153,5.456,1.729,8.184,2.881,13.639-2.325.626-3.48.969-5.769,1.715-1.15-5.44-1.726-8.159-2.876-13.6a1.279,1.279,0,0,1,.234-1.017l.048-.064A1.2,1.2,0,0,0,265.49,244.725Z" transform="translate(-264.549 -235.597)"/>
        </g>
      </g>
    </g>
    <g id="Group_1266" data-name="Group 1266" transform="translate(320.775 73.302)">
      <g id="Group_1259" data-name="Group 1259" transform="translate(14.452)">
        <rect id="Rectangle_436" data-name="Rectangle 436" class="cls-9" width="17.961" height="139.03" transform="translate(6.626 42.456) rotate(-8.871)"/>
        <g id="Group_1256" data-name="Group 1256" transform="translate(18.853 83.397)">
          <rect id="Rectangle_437" data-name="Rectangle 437" class="cls-10" width="2.802" height="18.664" transform="translate(9.545 18.441) rotate(171.13)"/>
          <rect id="Rectangle_438" data-name="Rectangle 438" class="cls-10" width="2.802" height="18.664" transform="translate(5.646 19.049) rotate(171.132)"/>
        </g>
        <path id="Path_2538" data-name="Path 2538" class="cls-11" d="M318.075,248.969l7.064-1.1,8.923,11.316.614,3.934-14.05,2.193Z" transform="translate(-313.999 -222.853)"/>
        <path id="Path_2539" data-name="Path 2539" class="cls-12" d="M317.854,247.5l6.152-.96,1.256,2.067-7.064,1.1Z" transform="translate(-314.123 -223.596)"/>
        <path id="Path_2540" data-name="Path 2540" class="cls-9" d="M318.075,249.077l9-1.4,1.678,2-10.331,1.612Z" transform="translate(-313.999 -222.962)"/>
        <path id="Path_2541" data-name="Path 2541" class="cls-11" d="M315.463,231.838s4.43,16.977,9.883,22.946l-6.152.96Z" transform="translate(-315.463 -231.838)"/>
        <rect id="Rectangle_439" data-name="Rectangle 439" class="cls-12" width="24.056" height="1.414" transform="translate(36.71 79.216) rotate(171.129)"/>
        <rect id="Rectangle_440" data-name="Rectangle 440" class="cls-9" width="21.818" height="36.436" transform="translate(34.281 78.164) rotate(171.129)"/>
        <rect id="Rectangle_441" data-name="Rectangle 441" class="cls-13" width="19.581" height="27.809" transform="translate(31.406 74.248) rotate(171.129)"/>
        <rect id="Rectangle_442" data-name="Rectangle 442" class="cls-10" width="17.961" height="0.466" transform="matrix(-0.988, 0.154, -0.154, -0.988, 34.635, 105.44)"/>
        <rect id="Rectangle_443" data-name="Rectangle 443" class="cls-10" width="17.961" height="0.466" transform="translate(39.17 134.501) rotate(171.129)"/>
        <rect id="Rectangle_444" data-name="Rectangle 444" class="cls-10" width="17.961" height="0.466" transform="translate(43.706 163.562) rotate(171.129)"/>
        <g id="Group_1257" data-name="Group 1257" transform="translate(23.28 111.767)">
          <rect id="Rectangle_445" data-name="Rectangle 445" class="cls-10" width="2.802" height="18.664" transform="matrix(-0.988, 0.154, -0.154, -0.988, 9.547, 18.44)"/>
          <rect id="Rectangle_446" data-name="Rectangle 446" class="cls-10" width="2.802" height="18.664" transform="matrix(-0.988, 0.154, -0.154, -0.988, 5.648, 19.049)"/>
        </g>
        <g id="Group_1258" data-name="Group 1258" transform="translate(27.708 140.136)">
          <rect id="Rectangle_447" data-name="Rectangle 447" class="cls-10" width="2.802" height="18.664" transform="translate(9.545 18.441) rotate(171.13)"/>
          <rect id="Rectangle_448" data-name="Rectangle 448" class="cls-10" width="2.802" height="18.664" transform="translate(5.647 19.049) rotate(171.13)"/>
        </g>
      </g>
      <g id="Group_1263" data-name="Group 1263">
        <rect id="Rectangle_449" data-name="Rectangle 449" class="cls-9" width="17.961" height="139.03" transform="translate(3.331 45.226) rotate(-8.871)"/>
        <g id="Group_1260" data-name="Group 1260" transform="translate(15.557 86.166)">
          <rect id="Rectangle_450" data-name="Rectangle 450" class="cls-10" width="2.802" height="18.664" transform="matrix(0.988, -0.154, 0.154, 0.988, 0, 1.041)"/>
          <rect id="Rectangle_451" data-name="Rectangle 451" class="cls-10" width="2.802" height="18.664" transform="translate(3.899 0.432) rotate(-8.87)"/>
        </g>
        <path id="Path_2542" data-name="Path 2542" class="cls-11" d="M322.426,248.573l-7.064,1.1-5.05,13.5.614,3.934,14.05-2.193Z" transform="translate(-303.899 -222.457)"/>
        <path id="Path_2543" data-name="Path 2543" class="cls-12" d="M320.267,247.157l-6.152.96-.567,2.351,7.064-1.1Z" transform="translate(-302.085 -223.251)"/>
        <path id="Path_2544" data-name="Path 2544" class="cls-9" d="M321.662,248.573l-9,1.4-.989,2.417,10.331-1.612Z" transform="translate(-303.134 -222.457)"/>
        <path id="Path_2545" data-name="Path 2545" class="cls-11" d="M316.333,231.838s.953,17.52-2.422,24.866l6.153-.96Z" transform="translate(-301.881 -231.838)"/>
        <rect id="Rectangle_452" data-name="Rectangle 452" class="cls-12" width="24.056" height="1.414" transform="translate(3.408 85.239) rotate(-8.871)"/>
        <rect id="Rectangle_453" data-name="Rectangle 453" class="cls-9" width="21.818" height="36.436" transform="matrix(0.988, -0.154, 0.154, 0.988, 0, 48.893)"/>
        <rect id="Rectangle_454" data-name="Rectangle 454" class="cls-13" width="19.581" height="27.809" transform="translate(2.876 52.81) rotate(-8.871)"/>
        <rect id="Rectangle_455" data-name="Rectangle 455" class="cls-10" width="17.961" height="0.466" transform="matrix(0.988, -0.154, 0.154, 0.988, 13.522, 110.519)"/>
        <rect id="Rectangle_456" data-name="Rectangle 456" class="cls-10" width="17.961" height="0.466" transform="matrix(0.988, -0.154, 0.154, 0.988, 18.057, 139.58)"/>
        <rect id="Rectangle_457" data-name="Rectangle 457" class="cls-10" width="17.961" height="0.466" transform="translate(22.593 168.64) rotate(-8.871)"/>
        <g id="Group_1261" data-name="Group 1261" transform="translate(19.986 114.536)">
          <rect id="Rectangle_458" data-name="Rectangle 458" class="cls-10" width="2.802" height="18.664" transform="translate(0 1.041) rotate(-8.87)"/>
          <rect id="Rectangle_459" data-name="Rectangle 459" class="cls-10" width="2.802" height="18.664" transform="translate(3.899 0.432) rotate(-8.87)"/>
        </g>
        <g id="Group_1262" data-name="Group 1262" transform="translate(24.414 142.906)">
          <rect id="Rectangle_460" data-name="Rectangle 460" class="cls-10" width="2.802" height="18.664" transform="translate(0 1.04) rotate(-8.867)"/>
          <rect id="Rectangle_461" data-name="Rectangle 461" class="cls-10" width="2.802" height="18.664" transform="translate(3.899 0.432) rotate(-8.867)"/>
        </g>
      </g>
      <g id="Group_1265" data-name="Group 1265" transform="translate(14.193 53.506)">
        <path id="Path_2546" data-name="Path 2546" class="cls-10" d="M315.42,277.9a10.2,10.2,0,1,0,8.5-11.651A10.2,10.2,0,0,0,315.42,277.9Z" transform="translate(-315.297 -266.125)"/>
        <path id="Path_2547" data-name="Path 2547" class="cls-14" d="M316.86,276.724a7.911,7.911,0,1,0,6.6-9.036A7.91,7.91,0,0,0,316.86,276.724Z" transform="translate(-314.474 -265.302)"/>
        <g id="Group_1264" data-name="Group 1264" transform="translate(4.407 6.314)">
          <line id="Line_38" data-name="Line 38" class="cls-15" x1="0.814" y1="5.217" transform="translate(5.203)"/>
          <line id="Line_39" data-name="Line 39" class="cls-15" x1="7.435" y2="0.513" transform="translate(0 3.825)"/>
        </g>
      </g>
    </g>
    <g id="Group_1269" data-name="Group 1269" transform="translate(441.116)">
      <path id="Path_2548" data-name="Path 2548" class="cls-16" d="M407.362,210.862l-.279-3.018-.763.07c0-.053,0-.1-.006-.158a4.384,4.384,0,0,0-2.65-3.642l-3.644-19.248-.507.053-.022,19.594a4.386,4.386,0,0,0-1.916,4.028c.006.062.019.125.027.187l-.78.073.279,2.943.226,2.427.006.083,10.256-.958,0-.008Z" transform="translate(-375.748 -184.866)"/>
      <path id="Path_2549" data-name="Path 2549" class="cls-17" d="M416.616,210.2c-.089-1.325-.126-2.158-.144-2.434a.571.571,0,0,0,0-.1l1.688-.159-.426-4.579-15.409,1.436.426,4.579,1.689-.159,0,.022c.022.158.14.983.315,2.42,2.2,17.584,13.884,126.49-21.439,205.866l22.584-2.08s-.955-28.127,21-30.175,26.22,25.732,26.22,25.732l22.583-2.086C426.412,337.118,417.73,228.154,416.616,210.2Zm9.02,160.992-14.521,1.348a204.378,204.378,0,0,0,4.326-30.025l7.461-.693,7.461-.7a204.348,204.348,0,0,0,9.792,28.713Z" transform="translate(-383.317 -174.74)"/>
      <g id="Group_1267" data-name="Group 1267" transform="translate(4.338 25.995)">
        <rect id="Rectangle_462" data-name="Rectangle 462" class="cls-18" width="39.462" height="6.011" transform="translate(13.408 119.386) rotate(-5.323)"/>
        <rect id="Rectangle_463" data-name="Rectangle 463" class="cls-18" width="23.173" height="6.012" transform="translate(16.953 67.557) rotate(-4.935)"/>
        <rect id="Rectangle_464" data-name="Rectangle 464" class="cls-18" width="15.635" height="4.056" transform="translate(16.53 20.747) rotate(-4.935)"/>
        <path id="Path_2550" data-name="Path 2550" class="cls-18" d="M407.486,203.951l-10.262.883L397,202.407l10.262-.883Z" transform="translate(-379.985 -201.524)"/>
        <rect id="Rectangle_465" data-name="Rectangle 465" class="cls-18" width="75.403" height="6.011" transform="translate(0 171.024) rotate(-5.323)"/>
      </g>
      <g id="Group_1268" data-name="Group 1268" transform="translate(8.016 33.027)">
        <rect id="Rectangle_466" data-name="Rectangle 466" class="cls-16" width="33.659" height="3.61" transform="translate(12.296 108.355) rotate(-5.323)"/>
        <rect id="Rectangle_467" data-name="Rectangle 467" class="cls-16" width="19.765" height="3.611" transform="matrix(0.996, -0.086, 0.086, 0.996, 15.516, 66.498)"/>
        <rect id="Rectangle_468" data-name="Rectangle 468" class="cls-16" width="13.336" height="2.436" transform="translate(14.364 17.745) rotate(-4.936)"/>
        <path id="Path_2551" data-name="Path 2551" class="cls-16" d="M408.885,206.03c.017.276.055,1.11.144,2.434l-11.86,1.027c-.175-1.437-.293-2.263-.315-2.42Z" transform="translate(-383.745 -206.03)"/>
        <rect id="Rectangle_469" data-name="Rectangle 469" class="cls-16" width="69.136" height="2.714" transform="translate(0 169.687) rotate(-5.323)"/>
        <rect id="Rectangle_470" data-name="Rectangle 470" class="cls-16" width="60.452" height="2.714" transform="matrix(0.996, -0.093, 0.093, 0.996, 3.548, 160.647)"/>
      </g>
    </g>
    <g id="Group_1270" data-name="Group 1270" transform="translate(306.664 204.715)">
      <path id="Path_2552" data-name="Path 2552" class="cls-18" d="M316.289,358.7l-2.345-15.968,6.435-.945,2.345,15.968,2.392,1.454-2.133.313-6.435.945-2.133.313Z" transform="translate(-287.752 -301.616)"/>
      <path id="Path_2553" data-name="Path 2553" class="cls-19" d="M304.552,344.077a5.9,5.9,0,0,1,2.645-10.292,7.383,7.383,0,0,1,7.436-10.8,10.985,10.985,0,0,1,21.078,2.456l0,.02a10.986,10.986,0,0,1,11.84,9.345,11.175,11.175,0,0,1,.114,1.757,7.965,7.965,0,0,1,4.877,12.161,7.967,7.967,0,0,1-14.365,6.89,9.82,9.82,0,0,1-12.5,3.269,5.3,5.3,0,0,1-7.435-.1,10.986,10.986,0,1,1-13.694-14.708Z" transform="translate(-297.16 -316.047)"/>
      <path id="Path_2554" data-name="Path 2554" class="cls-20" d="M319.775,318.415s-6.287.637-7.122,5.2c0,0-8.92-.2-7.793,8.458,0,0,1.773,1.82,2.21-2.044s4.095-4.34,6.342-4.664.643-2.456,4.017-4.387,4.635-.484,4.649-1.71C322.088,318.214,319.775,318.415,319.775,318.415Z" transform="translate(-292.9 -314.728)"/>
      <path id="Path_2555" data-name="Path 2555" class="cls-20" d="M325.092,325.26s5.726,2.678,5,7.266c0,0,8.485,2.761,4.563,10.557,0,0-2.274,1.131-1.411-2.661s-2.431-5.449-4.444-6.5.2-2.53-2.344-5.465-4.215-1.988-3.823-3.151C322.976,324.307,325.092,325.26,325.092,325.26Z" transform="translate(-282.911 -311.113)"/>
    </g>
    <g id="Group_1276" data-name="Group 1276" transform="translate(360.931 11.169)">
      <g id="Group_1271" data-name="Group 1271" transform="translate(28.884 37.236)">
        <path id="Path_2556" data-name="Path 2556" class="cls-21" d="M350.443,242.02l.165-11.384.846-6.949s.282-7.25,7.689-7.753,8.026,2.753,8.645,8.964,5.549,20.039,5.549,20.039Z" transform="translate(-350.443 -215.884)"/>
        <path id="Path_2557" data-name="Path 2557" class="cls-22" d="M355.4,242.467s-.1-9.458-1.342-12.411a6.491,6.491,0,0,1-.471-2.566,7.23,7.23,0,0,1,2.336-5.061,7.442,7.442,0,0,0,2.038-3.2.356.356,0,0,1,.677-.059c.559,1.394,1.593,3.435,3.015,3.976,2.214.844,2.962,7.16,1.731,9.057s.549,10.242.549,10.242Z" transform="translate(-348.679 -214.167)"/>
      </g>
      <g id="Group_1275" data-name="Group 1275">
        <g id="Group_1273" data-name="Group 1273">
          <path id="Path_2558" data-name="Path 2558" class="cls-21" d="M336.749,215.4c-.119.8,3.656,33.5,3.656,33.5l6.537-3.485-5.354-30.493Z" transform="translate(-329.237 -179.19)"/>
          <g id="Group_1272" data-name="Group 1272">
            <path id="Path_2559" data-name="Path 2559" class="cls-23" d="M335.547,210.373a4.492,4.492,0,0,0,4.215.091c1.7-1,3.226-1.759,3.688-5.2a8.915,8.915,0,0,0-3.826-8.63s1.966,8.059-.824,3.976c-1.225-1.792-.183-8.237-4.858-8.592,0,0,2.661,1.188-.52,6.745C331.316,202.444,330.974,207.678,335.547,210.373Z" transform="translate(-331.934 -192.023)"/>
            <path id="Path_2560" data-name="Path 2560" class="cls-24" d="M338.24,204.445l-.36.036-4.324.431,3.951,19.865,2.273-.227.563-.056,2.273-.227-.051-20.254Z" transform="translate(-331.025 -185.302)"/>
            <rect id="Rectangle_471" data-name="Rectangle 471" class="cls-21" width="12.98" height="7.094" transform="translate(0.275 16.772) rotate(-5.696)"/>
          </g>
          <path id="Path_2561" data-name="Path 2561" class="cls-21" d="M334.263,211.861l1.75,6.627,5.238-.522-.656-3.655,1.537,1.417.494,4.95,1.171-.117L343.6,214.3l-.877-.2-.156.771-2.883-3.549Z" transform="translate(-330.629 -181.206)"/>
        </g>
        <g id="Group_1274" data-name="Group 1274" transform="translate(51.701 65.514)">
          <path id="Path_2562" data-name="Path 2562" class="cls-21" d="M393.225,257.127l-7.266,12.93-10.946-4.5-3.158-1.3-.615-.249-1.354-6.573L365.064,234l1.539,1.26Z" transform="translate(-365.064 -234.004)"/>
          <path id="Path_2563" data-name="Path 2563" class="cls-22" d="M383.443,236.649l-10.587,19,10.147,7.2,9.987-19.131Z" transform="translate(-360.697 -232.522)"/>
          <path id="Path_2564" data-name="Path 2564" class="cls-21" d="M385.578,248.518s.858.655-.584,3.606-2.258,4.379-3.711,3.61-3.522-1.721-2.236-3.747,2.747-5.378,3.675-4.866S385.578,248.518,385.578,248.518Z" transform="translate(-357.453 -226.681)"/>
        </g>
        <path id="Path_2565" data-name="Path 2565" class="cls-25" d="M359.724,238.654,356.2,261.817l-1.077,7.11-3.249-4.086,0-.015-1.277-1.6-5.435-6.849-8.438-18.895,11.309-9.606,8.789,8.1Z" transform="translate(-329.252 -171.923)"/>
        <path id="Path_2566" data-name="Path 2566" class="cls-21" d="M396.05,347.9l-46.094,4.6-.295-8.247-1.409-38.416-.832-22.976-.566-15.627L346.7,262.9l0-.016-.061-1.857-.7-19c.023-3.2,2.583-6.175,5.71-7.993a13.213,13.213,0,0,1,5.2-1.776l8.7-.868c4.135-.412,9.616,1.759,11.776,5.362a6.5,6.5,0,0,1,.827,2.061l3.63,22.076.8,4.858.123.765,3.405,20.747,1.417,8.6,4.735,28.937Z" transform="translate(-324.084 -169.982)"/>
        <rect id="Rectangle_472" data-name="Rectangle 472" class="cls-26" width="53.132" height="5.612" transform="translate(22.924 182.817) rotate(-5.696)"/>
        <rect id="Rectangle_473" data-name="Rectangle 473" class="cls-26" width="53.132" height="28.101" transform="translate(25.814 211.786) rotate(-5.696)"/>
        <rect id="Rectangle_474" data-name="Rectangle 474" class="cls-26" width="63.931" height="7.287" transform="translate(19.717 205.071) rotate(-5.696)"/>
        <rect id="Rectangle_475" data-name="Rectangle 475" class="cls-27" width="53.132" height="7.287" transform="translate(25.814 211.786) rotate(-5.696)"/>
        <rect id="Rectangle_476" data-name="Rectangle 476" class="cls-7" width="53.132" height="5.58" transform="translate(24.537 198.983) rotate(-5.696)"/>
        <rect id="Rectangle_477" data-name="Rectangle 477" class="cls-27" width="60.476" height="10.634" transform="translate(19.827 188.765) rotate(-5.696)"/>
      </g>
      <path id="Path_2567" data-name="Path 2567" class="cls-21" d="M369.074,224.826l9.067-3.995-10.632,1.547-.2-.32,5.716-11.912-8.081,9.752-.766-.241-3.721-12.213-1.236,12.707-.7.387-9.848-7.963,7.956,10.549-.138.355-10.728.583,9.677,2.125-.456,1.174-8.3,4.034,9.562-1.726,2.472-5.65,3.271-1.291,3.461.62,3.539,5.05,9.715-.2-8.938-2.314Z" transform="translate(-324.187 -183.379)"/>
      <path id="Path_2568" data-name="Path 2568" class="cls-22" d="M347.091,275.972l-.566-15.627a18.906,18.906,0,0,0,2.867-.534c.091-.025.2-.05.287-.075,5.044-1.436,12.338-5.517,21.515-16.106C370.693,244.52,356.372,269.239,347.091,275.972Z" transform="translate(-323.755 -163.095)"/>
      <path id="Path_2569" data-name="Path 2569" class="cls-22" d="M376.3,280.252c-6.6-10.289-12.653-35.462-12.871-36.4A65.854,65.854,0,0,0,372.9,259.5Z" transform="translate(-314.28 -162.972)"/>
      <path id="Path_2570" data-name="Path 2570" class="cls-22" d="M350.9,333.7c-.758.5-1.49.941-2.213,1.323l-1.411-38.414c6.2-4.92,20.649-19.71,24.129-52.7C371.41,243.915,378.879,315.571,350.9,333.7Z" transform="translate(-323.331 -162.935)"/>
      <path id="Path_2571" data-name="Path 2571" class="cls-22" d="M381.423,310.656c-14.281-16.37-16.159-54.078-16.159-54.078,2.87,10.868,7.091,18.516,11.208,23.82Z" transform="translate(-313.251 -155.837)"/>
      <path id="Path_2572" data-name="Path 2572" class="cls-22" d="M385.775,260.87c-4.188-7.129-7.113-13.251-7.113-13.251-6.386,7.748-14.944,11.941-22.467,14.2-1.522.462-2.99.841-4.387,1.152-.412.087-.822.175-1.217.261l-5.434-6.849-8.438-18.894,11.308-9.607,8.791,8.1a13.213,13.213,0,0,1,5.2-1.776l8.7-.868c4.135-.412,9.616,1.759,11.776,5.362l-1.539-1.259Z" transform="translate(-329.252 -171.923)"/>
    </g>
    <g id="Group_1277" data-name="Group 1277" transform="translate(408.267 183.594)">
      <path id="Path_2573" data-name="Path 2573" class="cls-18" d="M388.179,343.765l-2.3-15.974-6.438.927,2.3,15.974-1.879,2.075,2.134-.307,6.438-.927,2.134-.307Z" transform="translate(-352.641 -288.343)"/>
      <path id="Path_2574" data-name="Path 2574" class="cls-19" d="M409.8,324.058a5.905,5.905,0,0,0-5.468-9.114,7.384,7.384,0,0,0-8.285-8.786,7.437,7.437,0,0,0-1.919.549,10.984,10.984,0,0,0-19.505,8.358l0,.019a10.981,10.981,0,0,0-8.3,14.047,7.965,7.965,0,0,0-1.211,13.046,7.967,7.967,0,0,0,15.732,2.514,9.82,9.82,0,0,0,12.915-.426,5.3,5.3,0,0,0,7.1-2.21,10.986,10.986,0,1,0,8.937-18Z" transform="translate(-362.267 -302.513)"/>
      <path id="Path_2575" data-name="Path 2575" class="cls-20" d="M377.03,304.978s6.209-1.181,8.311,2.96c0,0,8.494-2.729,9.878,5.888,0,0-1.181,2.249-2.7-1.331s-5.162-2.993-7.408-2.665-1.317-2.171-5.1-3.06-4.582.857-4.944-.315C374.756,305.443,377.03,304.978,377.03,304.978Z" transform="translate(-355.108 -301.219)"/>
      <path id="Path_2576" data-name="Path 2576" class="cls-20" d="M371.135,314.471s-4.725,4.2-2.728,8.39c0,0-7.347,5.062-1.367,11.419,0,0,2.5.437.595-2.951s.78-5.916,2.411-7.5-.916-2.367.69-5.907,3.474-3.106,2.767-4.107C372.892,312.953,371.135,314.471,371.135,314.471Z" transform="translate(-360.906 -296.325)"/>
    </g>
    <g id="Group_1278" data-name="Group 1278" transform="translate(114.38 215.044)">
      <path id="Path_2577" data-name="Path 2577" class="cls-18" d="M199.358,379.339l-3.115-21.214,8.55-1.255,3.115,21.214,3.178,1.932-2.834.416-8.55,1.255-2.833.416Z" transform="translate(-161.445 -303.494)"/>
      <path id="Path_2578" data-name="Path 2578" class="cls-19" d="M183.766,359.907a7.845,7.845,0,0,1,3.514-13.675,9.807,9.807,0,0,1,9.878-14.351,14.593,14.593,0,0,1,28,3.263l0,.025a14.591,14.591,0,0,1,15.882,14.75,10.583,10.583,0,0,1,6.479,16.156,10.584,10.584,0,0,1-19.084,9.154,13.048,13.048,0,0,1-16.609,4.343,7.042,7.042,0,0,1-9.877-.128,14.595,14.595,0,1,1-18.191-19.538Z" transform="translate(-173.945 -322.667)"/>
      <path id="Path_2579" data-name="Path 2579" class="cls-20" d="M203.99,325.813s-8.355.846-9.465,6.915c0,0-11.851-.261-10.353,11.236,0,0,2.355,2.417,2.935-2.717s5.44-5.765,8.425-6.2.855-3.263,5.337-5.827,6.158-.643,6.175-2.272C207.063,325.545,203.99,325.813,203.99,325.813Z" transform="translate(-168.284 -320.914)"/>
      <path id="Path_2580" data-name="Path 2580" class="cls-20" d="M211.054,334.907s7.606,3.556,6.65,9.652c0,0,11.272,3.667,6.061,14.026,0,0-3.021,1.5-1.874-3.535s-3.23-7.239-5.905-8.633.27-3.361-3.113-7.261-5.6-2.642-5.08-4.185C208.242,333.638,211.054,334.907,211.054,334.907Z" transform="translate(-155.014 -316.111)"/>
    </g>
    <g id="Group_1281" data-name="Group 1281" transform="translate(130.253 52.39)">
      <g id="Group_1279" data-name="Group 1279" transform="translate(19.111)">
        <path id="Path_2581" data-name="Path 2581" class="cls-28" d="M203.178,261.028s17.995-23.176,12.942-34.4c-3.21-7.13-13.748-3.461-13.748-3.461l-.953,38.084Z" transform="translate(-193.528 -216.314)"/>
        <path id="Path_2582" data-name="Path 2582" class="cls-29" d="M202.865,262.251s15.033-27.6,9.691-37.172c-3.984-7.133-13-4.065-13-4.065l2.555,41.334Z" transform="translate(-194.573 -217.362)"/>
        <path id="Path_2583" data-name="Path 2583" class="cls-28" d="M203.294,263s10.708-30.482,5.721-38.773c-4.295-7.138-11.958-4.535-11.958-4.535l4.732,43.5Z" transform="translate(-195.972 -217.992)"/>
        <path id="Path_2584" data-name="Path 2584" class="cls-29" d="M202.654,263.582s3.176-33.614.343-41.058c-2.091-5.495-6.635-3.858-6.635-3.858l5.752,44.986Z" transform="translate(-196.362 -218.438)"/>
      </g>
      <g id="Group_1280" data-name="Group 1280" transform="translate(0 0.177)">
        <path id="Path_2585" data-name="Path 2585" class="cls-28" d="M205.426,260.947s-23.247-17.9-21.18-30.033c1.314-7.709,12.436-6.81,12.436-6.81l10.506,36.618Z" transform="translate(-184.116 -215.456)"/>
        <path id="Path_2586" data-name="Path 2586" class="cls-29" d="M205.459,262.23s-21.495-22.932-18.733-33.536c2.06-7.906,11.561-7.207,11.561-7.207l7.928,40.648Z" transform="translate(-182.79 -216.914)"/>
        <path id="Path_2587" data-name="Path 2587" class="cls-28" d="M204.859,263.134s-18.035-26.807-15.293-36.086c2.36-7.988,10.432-7.4,10.432-7.4l6.365,43.293Z" transform="translate(-181.219 -217.941)"/>
        <path id="Path_2588" data-name="Path 2588" class="cls-29" d="M203.77,263.613s-11.531-31.735-10.663-39.652c.641-5.844,5.453-5.4,5.453-5.4l5.752,44.984Z" transform="translate(-179.102 -218.551)"/>
      </g>
      <path id="Path_2589" data-name="Path 2589" class="cls-30" d="M199.932,253.849l4.559-.583.857-6.175-7.8,1Z" transform="translate(-176.586 -202.376)"/>
      <line id="Line_40" data-name="Line 40" class="cls-31" x1="0.75" y2="10.615" transform="translate(26.933 50.274)"/>
      <line id="Line_41" data-name="Line 41" class="cls-31" x2="2.74" y2="10.737" transform="translate(23.325 49.978)"/>
      <line id="Line_42" data-name="Line 42" class="cls-31" x2="1.286" y2="12.288" transform="translate(25.399 49.713)"/>
      <rect id="Rectangle_478" data-name="Rectangle 478" class="cls-12" width="6.337" height="4.881" rx="0.679" transform="translate(30.1 62.15) rotate(172.712)"/>
    </g>
    <g id="Group_1284" data-name="Group 1284" transform="translate(182.615 99.863)">
      <g id="Group_1282" data-name="Group 1282" transform="translate(9.555)">
        <path id="Path_2590" data-name="Path 2590" class="cls-28" d="M227.2,270.154s9-11.589,6.47-17.2c-1.606-3.564-6.874-1.731-6.874-1.731l-.478,19.042Z" transform="translate(-222.375 -247.796)"/>
        <path id="Path_2591" data-name="Path 2591" class="cls-29" d="M227.044,270.765s7.517-13.8,4.845-18.586c-1.991-3.567-6.5-2.033-6.5-2.033l1.278,20.668Z" transform="translate(-222.897 -248.32)"/>
        <path id="Path_2592" data-name="Path 2592" class="cls-28" d="M227.258,271.141s5.354-15.24,2.86-19.387a5.142,5.142,0,0,0-5.978-2.267l2.366,21.751Z" transform="translate(-223.597 -248.635)"/>
        <path id="Path_2593" data-name="Path 2593" class="cls-29" d="M226.94,271.43s1.587-16.807.17-20.529c-1.046-2.747-3.318-1.929-3.318-1.929l2.876,22.494Z" transform="translate(-223.792 -248.858)"/>
      </g>
      <g id="Group_1283" data-name="Group 1283" transform="translate(0 0.088)">
        <path id="Path_2594" data-name="Path 2594" class="cls-28" d="M228.324,270.112s-11.624-8.951-10.59-15.016c.657-3.855,6.217-3.405,6.217-3.405L229.2,270Z" transform="translate(-217.669 -247.367)"/>
        <path id="Path_2595" data-name="Path 2595" class="cls-29" d="M228.34,270.756s-10.747-11.467-9.366-16.77c1.03-3.953,5.78-3.6,5.78-3.6l3.965,20.325Z" transform="translate(-217.007 -248.096)"/>
        <path id="Path_2596" data-name="Path 2596" class="cls-28" d="M228.041,271.207s-9.017-13.4-7.647-18.043a5.145,5.145,0,0,1,5.217-3.7l3.182,21.646Z" transform="translate(-216.221 -248.609)"/>
        <path id="Path_2597" data-name="Path 2597" class="cls-29" d="M227.5,271.446s-5.766-15.868-5.331-19.827c.32-2.921,2.725-2.7,2.725-2.7l2.876,22.492Z" transform="translate(-215.162 -248.915)"/>
      </g>
      <path id="Path_2598" data-name="Path 2598" class="cls-30" d="M225.577,266.564l2.28-.291.429-3.087-3.9.5Z" transform="translate(-213.904 -240.827)"/>
      <line id="Line_43" data-name="Line 43" class="cls-32" x1="0.375" y2="5.308" transform="translate(13.466 25.137)"/>
      <line id="Line_44" data-name="Line 44" class="cls-32" x2="1.37" y2="5.369" transform="translate(11.662 24.989)"/>
      <line id="Line_45" data-name="Line 45" class="cls-32" x2="0.643" y2="6.144" transform="translate(12.699 24.857)"/>
      <rect id="Rectangle_479" data-name="Rectangle 479" class="cls-12" width="3.168" height="2.44" rx="0.34" transform="matrix(-0.992, 0.127, -0.127, -0.992, 15.05, 31.075)"/>
    </g>
    <g id="Group_1293" data-name="Group 1293" transform="translate(0 129.623)">
      <path id="Path_2599" data-name="Path 2599" class="cls-21" d="M452.078,516.609l-7.747,1.779-1.766.4-17.836,4.116-93.264-83.55L315.993,425.5l-.427-.378-.115-.1L302.8,413.677l117.589-17.086,2.838,10.729.022.092,2,7.588,10.409,39.4.141.538.944,3.581.677,2.577,4.429,16.776.683,2.564.49,1.856Z" transform="translate(12.665 -195.808)"/>
      <g id="Group_1285" data-name="Group 1285" transform="translate(385.587 239.842)">
        <path id="Path_2600" data-name="Path 2600" class="cls-33" d="M395.856,444.525s-12.58,6.306-16.818,7.606-17.055,4.345-17.055,4.345l0,0-.025.009c-5.49,1.525-11.584-4.627-13.581-11.816s.833-14.256,6.323-15.782c0,0,12.807-3.5,17.066-4.569,7.636-1.924,18.115-1.3,18.115-1.3Z" transform="translate(-347.733 -420.892)"/>
        <path id="Path_2601" data-name="Path 2601" class="cls-34" d="M389.88,423.019s-10.484-.626-18.115,1.289c-4.262,1.086-17.065,4.576-17.065,4.576-5.492,1.522-8.318,8.589-6.331,15.783,2.005,7.193,8.105,13.34,13.586,11.812.011.008.019,0,.027-.011s1.277-.3,3.159-.76a20.564,20.564,0,0,1-1.64-4.134c-2.005-7.193.83-14.253,6.312-15.782,0,0,12.812-3.5,17.076-4.568a40.282,40.282,0,0,1,5.022-.907Z" transform="translate(-347.734 -420.891)"/>
        <ellipse id="Ellipse_183" data-name="Ellipse 183" class="cls-35" cx="7.928" cy="11.162" rx="7.928" ry="11.162" transform="translate(34.507 4.245) rotate(-15.529)"/>
        <path id="Path_2602" data-name="Path 2602" class="cls-21" d="M385.41,431.373c-1.365-4.911-5.3-8.107-8.789-7.138s-5.211,5.737-3.845,10.649,5.3,8.107,8.787,7.138S386.774,436.286,385.41,431.373Z" transform="translate(-333.959 -420.251)"/>
      </g>
      <g id="Group_1286" data-name="Group 1286" transform="translate(359.079 205.396)">
        <path id="Path_2603" data-name="Path 2603" class="cls-33" d="M398.952,431.165s-18.35,8.087-24.474,9.636-24.583,4.978-24.583,4.978l0,0c-.013,0-.025.009-.037.012-7.921,1.782-16.158-7.4-18.492-17.779s2.194-20.232,10.114-22.015c0,0,18.477-4.07,24.616-5.3,11.005-2.2,25.875-.57,25.875-.57Z" transform="translate(-330.747 -399.547)"/>
        <path id="Path_2604" data-name="Path 2604" class="cls-34" d="M391.968,400.135s-14.877-1.634-25.874.554c-6.142,1.242-24.613,5.306-24.613,5.306-7.923,1.776-12.445,11.635-10.126,22.016,2.344,10.378,10.591,19.56,18.5,17.771.013.013.025,0,.037-.014s1.838-.331,4.551-.857a29.3,29.3,0,0,1-2.043-6c-2.344-10.378,2.191-20.226,10.1-22.015,0,0,18.483-4.076,24.627-5.293a57.709,57.709,0,0,1,7.213-.936Z" transform="translate(-330.748 -399.546)"/>
        <path id="Path_2605" data-name="Path 2605" class="cls-35" d="M387.394,413.029c-1.929-8.572-8.427-14.409-14.515-13.038s-9.46,9.427-7.531,18,8.427,14.409,14.515,13.038S389.323,421.6,387.394,413.029Z" transform="translate(-311.657 -399.41)"/>
        <path id="Path_2606" data-name="Path 2606" class="cls-21" d="M384.768,412.482c-1.595-7.088-6.969-11.916-12-10.783s-7.823,7.8-6.228,14.886,6.969,11.915,12,10.782S386.363,419.57,384.768,412.482Z" transform="translate(-310.938 -398.433)"/>
      </g>
      <path id="Path_2607" data-name="Path 2607" class="cls-21" d="M239.059,408.483,214.939,417l-91.656,32.325L108.814,321.989l9.251-4.121,22.37-9.977s1.5-4.438,32.3,52.041C202.517,414.534,236.787,408.917,239.059,408.483Z" transform="translate(-96.073 -245.574)"/>
      <path id="Path_2608" data-name="Path 2608" class="cls-22" d="M214.939,413.384l-91.656,32.325L108.814,318.376l9.251-4.121C121.184,347.827,136.832,428.715,214.939,413.384Z" transform="translate(-96.073 -241.961)"/>
      <path id="Path_2609" data-name="Path 2609" class="cls-14" d="M740.991,389.043a3.8,3.8,0,0,1-.13.7,9.333,9.333,0,0,1-1.337,3.205c-12.94,20.829-105.752,33.722-195.9,47.81-21.294,3.327-42.439,6.723-62.353,10.309q-27.081,4.864-50.86,8.3c-83.233,12.122-136.215,12.547-161.254,13.847-29.827,1.562-157.072-16.5-163.3-25.805-5.811-8.645-4.735-10.229-4.735-10.229a9.65,9.65,0,0,1,.551-7.406,14.911,14.911,0,0,1,2.528-3.845c3.14-3.525,8.956-7.336,19.468-10.51.593-.187,1.208-.376,1.823-.566a1.1,1.1,0,0,0,.239-.058,119.029,119.029,0,0,1,11.81-2.645c2.943-.507,7.246-1.281,12.711-2.266,8.9-1.632,20.891-3.8,35.262-6.38,14.188-2.581,30.66-5.54,48.712-8.783,31.345-5.613,67.373-12.051,104.229-18.57,10.008-1.778,20.1-3.539,30.17-5.3,5.465-.964,10.933-1.909,16.378-2.871q8.528-1.5,16.979-2.957c9.451-1.653,18.8-3.257,27.974-4.849.76-.139,1.5-.276,2.222-.393,2.942-.528,5.849-.993,8.77-1.52.582-.084,1.163-.189,1.743-.295,3.566-.6,7.09-1.209,10.534-1.8.782-.14,1.523-.259,2.264-.376,61.445-10.5,112.013-18.656,129-20.214,32.865-2.971,57.807-4.992,77.47-.424.165.028.311.078.474.106a69.089,69.089,0,0,1,9.29,2.884c1.42.542,2.784,1.127,4.131,1.774a57.52,57.52,0,0,1,14.224,9.61s29.429,7.6,43.658,23.394a31.394,31.394,0,0,1,3.625,4.714,25.081,25.081,0,0,1,2.163,4.157,20.858,20.858,0,0,1,1.122,3.282l-.019.022c.112.4.2.735.268,1.116A8.215,8.215,0,0,1,740.991,389.043Z" transform="translate(-100.649 -231.754)"/>
      <g id="Group_1288" data-name="Group 1288" transform="translate(123.407 169.889)">
        <g id="Group_1287" data-name="Group 1287">
          <rect id="Rectangle_480" data-name="Rectangle 480" class="cls-22" width="4.317" height="7.675" rx="0.858" transform="translate(0 13.447) rotate(-6.836)"/>
          <rect id="Rectangle_481" data-name="Rectangle 481" class="cls-22" width="4.316" height="7.672" rx="0.858" transform="matrix(0.994, -0.108, 0.108, 0.994, 13.044, 11.242)"/>
          <rect id="Rectangle_482" data-name="Rectangle 482" class="cls-22" width="4.315" height="7.671" rx="0.857" transform="translate(26.088 9.036) rotate(-5.507)"/>
          <rect id="Rectangle_483" data-name="Rectangle 483" class="cls-22" width="4.314" height="7.67" rx="0.857" transform="translate(39.131 6.831) rotate(-4.843)"/>
          <rect id="Rectangle_484" data-name="Rectangle 484" class="cls-22" width="4.315" height="7.671" rx="0.857" transform="translate(52.175 4.625) rotate(-4.178)"/>
          <rect id="Rectangle_485" data-name="Rectangle 485" class="cls-22" width="4.316" height="7.672" rx="0.858" transform="translate(65.219 2.42) rotate(-3.513)"/>
          <rect id="Rectangle_486" data-name="Rectangle 486" class="cls-22" width="4.317" height="7.675" rx="0.858" transform="translate(78.263 0.215) rotate(-2.849)"/>
        </g>
      </g>
      <g id="Group_1290" data-name="Group 1290" transform="translate(382.748 119.847)">
        <g id="Group_1289" data-name="Group 1289">
          <rect id="Rectangle_487" data-name="Rectangle 487" class="cls-22" width="4.317" height="7.675" rx="0.858" transform="translate(0 20.098) rotate(-17.184)"/>
          <path id="Rectangle_488" data-name="Rectangle 488" class="cls-22" d="M.857,0h2.6a.857.857,0,0,1,.857.857V6.814a.858.858,0,0,1-.858.858H.857A.857.857,0,0,1,0,6.814V.857A.857.857,0,0,1,.857,0Z" transform="translate(11.933 18.176) rotate(-16.644)"/>
          <rect id="Rectangle_489" data-name="Rectangle 489" class="cls-22" width="4.314" height="7.669" rx="0.857" transform="translate(23.865 16.255) rotate(-16.104)"/>
          <rect id="Rectangle_490" data-name="Rectangle 490" class="cls-22" width="4.313" height="7.668" rx="0.857" transform="translate(35.798 14.333) rotate(-15.563)"/>
          <rect id="Rectangle_491" data-name="Rectangle 491" class="cls-22" width="4.312" height="7.667" rx="0.857" transform="translate(47.73 12.411) rotate(-15.023)"/>
          <rect id="Rectangle_492" data-name="Rectangle 492" class="cls-22" width="4.312" height="7.666" rx="0.857" transform="matrix(0.968, -0.25, 0.25, 0.968, 59.663, 10.49)"/>
          <rect id="Rectangle_493" data-name="Rectangle 493" class="cls-22" width="4.312" height="7.667" rx="0.857" transform="translate(71.595 8.568) rotate(-13.941)"/>
          <rect id="Rectangle_494" data-name="Rectangle 494" class="cls-22" width="4.313" height="7.668" rx="0.857" transform="matrix(0.973, -0.232, 0.232, 0.973, 83.528, 6.646)"/>
          <rect id="Rectangle_495" data-name="Rectangle 495" class="cls-22" width="4.314" height="7.669" rx="0.857" transform="translate(95.461 4.725) rotate(-12.861)"/>
          <rect id="Rectangle_496" data-name="Rectangle 496" class="cls-22" width="4.315" height="7.672" rx="0.857" transform="translate(107.393 2.803) rotate(-12.321)"/>
          <rect id="Rectangle_497" data-name="Rectangle 497" class="cls-22" width="4.317" height="7.675" rx="0.858" transform="translate(119.326 0.881) rotate(-11.781)"/>
        </g>
      </g>
      <path id="Path_2610" data-name="Path 2610" class="cls-36" d="M740.444,378.361C727.5,399.224,634.57,412.3,544.337,426.576c-21.325,3.365-42.481,6.806-62.414,10.418q-27.132,4.927-50.936,8.4c-83.349,12.3-136.4,12.8-161.478,14.16-29.847,1.617-157.32-16.256-163.58-25.568-5.824-8.664-4.747-10.254-4.747-10.254S95.413,410.5,123.71,401.9c.6-.186,1.213-.365,1.846-.551.076-.017.139-.039.214-.056,3.447-.975,7.375-1.882,11.835-2.681l12.736-2.3c8.093,3.344,15.126,6.868,19.725,10.328,19.451,14.7,178.392,14.555,197.038-5.094S517,361.242,535.215,369.21c18.207,7.984,67.745,17.174,94.672,5.649,21.74-9.3,72.241-6.821,104.73-16.565a35.411,35.411,0,0,1,3.636,4.727,25.878,25.878,0,0,1,2.172,4.153,20.5,20.5,0,0,1,1.111,3.3l-.006.014c.115.379.189.738.27,1.117a8.441,8.441,0,0,1,.1,2.834,5.586,5.586,0,0,1-.119.7A9.548,9.548,0,0,1,740.444,378.361Z" transform="translate(-100.622 -217.275)"/>
      <path id="Path_2611" data-name="Path 2611" class="cls-22" d="M739.534,376.732c-12.825,20.854-105.566,33.808-195.878,47.906-21.618,3.38-43.115,6.832-63.344,10.463q-26.456,4.761-49.775,8.138l-.122-.108C347.169,455.275,294.188,455.682,269.151,457c-29.806,1.564-157.061-16.5-163.3-25.808-5.8-8.661-4.721-10.248-4.721-10.248s-5.738-13.218,22.531-21.756a31.077,31.077,0,0,0,2.358,3.95,43.4,43.4,0,0,0,13.549,12.019c90.29,54.146,472.594-27.082,557.379-41.726,20.045-3.46,32.754-7.62,40.393-12.03a29.522,29.522,0,0,1,2.191,4.165,26.4,26.4,0,0,1,1.1,3.3l-.006.014c.094.387.175.766.254,1.145a8.438,8.438,0,0,1,.1,2.8,5.574,5.574,0,0,1-.119.7A9.6,9.6,0,0,1,739.534,376.732Z" transform="translate(-100.647 -215.536)"/>
      <path id="Path_2612" data-name="Path 2612" class="cls-22" d="M454.324,337.953l3.635,14.909-18.232,2.573A4.444,4.444,0,0,1,434.7,351.7l-1-6.5a4.443,4.443,0,0,1,3.691-5.078C441.158,339.524,447.124,338.683,454.324,337.953Z" transform="translate(86.01 -228.677)"/>
      <path id="Path_2613" data-name="Path 2613" class="cls-22" d="M470.573,337.1l3.138,12.85-21.765,3.071-3.617-14.8c6.715-.613,14.359-1.086,22.23-1.128Z" transform="translate(94.241 -229.158)"/>
      <path id="Path_2614" data-name="Path 2614" class="cls-22" d="M486.378,346.913,467.1,349.635,464.043,337.1c2.694.019,5.4.08,8.107.223A56.859,56.859,0,0,1,486.378,346.913Z" transform="translate(103.05 -229.157)"/>
      <path id="Path_2615" data-name="Path 2615" class="cls-37" d="M671.355,338.141c-10.181.329-30.585,1.742-41.74,2.591-35.643,2.715-88.19,9.377-119.338,17.572-41.331,10.858-122.871,26.038-166.039,29.326-3.691.281-7.085.479-10.059.563-1.417.047-2.79.133-4.162.237-15.392,1.172-29.045,5.964-43.51,11.044-15.275,5.362-31.063,10.907-49.722,12.328a117.866,117.866,0,0,1-12.84.289,263.447,263.447,0,0,0-27.394.22c-12.929.985-18.414,3.553-27.5,7.817-2.939,1.38-6.248,2.951-10.256,4.657-6.781,2.89-15.463,4.749-25.772,5.534a186.242,186.242,0,0,1-29.527-.368l-2.185-.178a14.911,14.911,0,0,1,2.528-3.845c3.14-3.525,8.956-7.336,19.468-10.51.593-.187,1.208-.376,1.823-.566a1.1,1.1,0,0,0,.239-.058,119.029,119.029,0,0,1,11.81-2.645c2.943-.507,7.246-1.281,12.711-2.266,8.9-1.632,20.891-3.8,35.262-6.38,14.188-2.581,30.66-5.54,48.712-8.783,31.345-5.613,67.374-12.051,104.229-18.57,10.008-1.778,20.1-3.539,30.17-5.3,5.465-.964,10.933-1.909,16.378-2.871q8.528-1.5,16.979-2.957c9.451-1.653,18.8-3.257,27.974-4.849.76-.139,1.5-.276,2.222-.393,2.942-.528,5.849-.993,8.77-1.52.582-.084,1.163-.189,1.743-.295,3.566-.6,7.09-1.209,10.534-1.8.782-.14,1.523-.259,2.264-.376,61.445-10.5,112.013-18.656,129-20.214,32.865-2.971,57.807-4.992,77.47-.424.165.028.311.078.474.106A69.089,69.089,0,0,1,671.355,338.141Z" transform="translate(-100.28 -231.754)"/>
      <path id="Path_2616" data-name="Path 2616" class="cls-19" d="M660.688,335.146c-38.152.325-114.195,9.206-152.341,19.242-44.067,11.581-136.782,28.575-175.213,29.771s-65.971,25.261-109.976,23.894c-43.987-1.386-44.148,3.308-66.86,13.006-16.373,6.977-40.916,5.963-53.364,4.869,3.14-3.535,8.948-7.346,19.452-10.512.605-.186,1.213-.37,1.838-.556.081-.02.142-.041.222-.061,3.435-.968,7.355-1.857,11.823-2.647,2.931-.52,7.236-1.289,12.714-2.266,8.894-1.642,20.88-3.8,35.251-6.38,14.188-2.576,30.662-5.549,48.712-8.792,31.35-5.612,67.389-12.036,104.237-18.566,10.006-1.768,20.092-3.536,30.159-5.3q8.216-1.435,16.392-2.87,8.521-1.5,16.979-2.954c9.44-1.643,18.8-3.266,27.976-4.849.748-.145,1.5-.27,2.224-.395,2.931-.52,5.841-1,8.752-1.518.587-.084,1.174-.187,1.759-.292q5.337-.906,10.532-1.81c.768-.125,1.515-.25,2.263-.376,61.45-10.49,112.007-18.644,128.992-20.2C616.069,332.608,641.024,330.586,660.688,335.146Z" transform="translate(-99.369 -231.753)"/>
      <path id="Path_2617" data-name="Path 2617" class="cls-22" d="M477.539,423.967l-116.313,23.3-55.9-44.26L138.138,270.6l33.12-2.622.638-.048Z" transform="translate(-79.635 -267.929)"/>
      <path id="Path_2618" data-name="Path 2618" class="cls-21" d="M465.642,423.966l-116.312,23.3-55.9-44.26c42.806-24.629-91.184-109.209-134.068-135.029l.638-.047Z" transform="translate(-67.739 -267.929)"/>
      <g id="Group_1291" data-name="Group 1291" transform="translate(274.763 109.907)">
        <path id="Path_2619" data-name="Path 2619" class="cls-33" d="M343.055,339.706s-21.515-.607-28.23.332-26.453,5.006-26.453,5.006l0,0-.042,0c-8.6,1.436-13.063,13.9-11.184,25.162S287.52,389.436,296.115,388c0,0,20.014-3.436,26.614-4.7,11.829-2.269,25.952-9.909,25.952-9.909Z" transform="translate(-276.716 -337.709)"/>
        <path id="Path_2620" data-name="Path 2620" class="cls-34" d="M348.676,371.745s-14.126,7.648-25.943,9.927c-6.609,1.252-26.614,4.691-26.614,4.691-8.6,1.443-17.085-6.528-18.981-17.784-1.873-11.266,2.608-23.731,11.2-25.158.008-.017.025-.009.044,0,0,0,1.96-.415,4.869-.989a31.506,31.506,0,0,0,.4,6.792c1.873,11.266,10.368,19.22,18.956,17.793,0,0,20.022-3.432,26.623-4.708a62.249,62.249,0,0,0,7.548-1.991Z" transform="translate(-276.718 -336.074)"/>
        <ellipse id="Ellipse_184" data-name="Ellipse 184" class="cls-35" cx="12.127" cy="17.074" rx="12.127" ry="17.074" transform="translate(54.378 3.995) rotate(-9.481)"/>
        <ellipse id="Ellipse_185" data-name="Ellipse 185" class="cls-21" cx="10.029" cy="14.119" rx="10.029" ry="14.119" transform="translate(56.934 6.564) rotate(-9.481)"/>
      </g>
      <g id="Group_1292" data-name="Group 1292" transform="translate(253.275 89.305)">
        <path id="Path_2621" data-name="Path 2621" class="cls-33" d="M316.226,325.311s-17.28-.488-22.673.267-21.245,4.02-21.245,4.02v0l-.033,0c-6.9,1.153-10.493,11.166-8.982,20.209s8.33,15.438,15.234,14.285c0,0,16.075-2.761,21.375-3.777,9.5-1.823,20.841-7.959,20.841-7.959Z" transform="translate(-262.946 -325.155)"/>
        <path id="Path_2622" data-name="Path 2622" class="cls-34" d="M320.741,351.042s-11.345,6.142-20.835,7.971c-5.309,1.005-21.376,3.769-21.376,3.769-6.9,1.16-13.72-5.243-15.243-14.284-1.5-9.048,2.094-19.06,8.992-20.2.006-.014.02-.008.034,0s1.575-.334,3.911-.794a25.2,25.2,0,0,0,.322,5.454c1.5,9.048,8.327,15.435,15.223,14.292,0,0,16.081-2.758,21.383-3.783a50.077,50.077,0,0,0,6.061-1.6Z" transform="translate(-262.948 -323.842)"/>
        <path id="Path_2623" data-name="Path 2623" class="cls-35" d="M311.689,337.211c1.248,7.469-2.043,14.243-7.349,15.129s-10.618-4.451-11.865-11.921,2.043-14.243,7.349-15.13S310.442,329.74,311.689,337.211Z" transform="translate(-246.544 -325.134)"/>
        <path id="Path_2624" data-name="Path 2624" class="cls-21" d="M309.414,336.642c1.031,6.177-1.689,11.777-6.077,12.511s-8.781-3.681-9.813-9.858,1.69-11.779,6.077-12.511S308.382,330.463,309.414,336.642Z" transform="translate(-245.931 -324.287)"/>
      </g>
    </g>
  </g>
  <g id="Group_1300" data-name="Group 1300" transform="translate(0 575.041)">
    <g id="Group_1297" data-name="Group 1297" class="cls-38">
      <g id="Group_1296" data-name="Group 1296" class="cls-39" transform="translate(-7.439 46.414)">
        <g id="Group_1295" data-name="Group 1295">
          <circle id="Ellipse_186" data-name="Ellipse 186" class="cls-40" cx="319.581" cy="319.581" r="319.581"/>
        </g>
      </g>
    </g>
  </g>
</svg>
