<svg xmlns="http://www.w3.org/2000/svg" width="226.782" height="47.113" viewBox="0 0 226.782 47.113">
  <defs>
    <style>
      .cls-1 {
        fill: #ffb001;
      }

      .cls-2 {
        fill: #fff;
        opacity: 0.3;
      }
    </style>
  </defs>
  <g id="Group_1324" data-name="Group 1324" transform="translate(0)">
    <g id="Group_1319" data-name="Group 1319" transform="translate(0 22.683)">
      <path id="Path_2643" data-name="Path 2643" class="cls-1" d="M191.415,16.81l3.963,8.047,8.889,1.293-6.427,6.263,1.52,8.827-7.945-4.168L183.49,41.24,185,32.413l-6.415-6.263,8.868-1.293Z" transform="translate(-178.585 -16.81)"/>
      <path id="Path_2644" data-name="Path 2644" class="cls-2" d="M184.969,40.439l1.4-8.19-5.85-5.5,8.026-1.109,3.614-7.329-.74-1.5-3.963,8.047-8.868,1.293L185,32.413l-1.51,8.827Z" transform="translate(-178.585 -16.81)"/>
    </g>
    <g id="Group_1320" data-name="Group 1320" transform="translate(37.897 10.468)">
      <path id="Path_2645" data-name="Path 2645" class="cls-1" d="M213.343,11.81l5.943,12.072,13.336,1.939-9.641,9.393,2.281,13.241L213.343,42.2l-11.9,6.25,2.3-13.241L194.1,25.822l13.3-1.939Z" transform="translate(-194.098 -11.81)"/>
      <path id="Path_2646" data-name="Path 2646" class="cls-2" d="M203.674,47.255l2.109-12.286-8.775-8.255,12.024-1.663,5.421-10.993-1.109-2.248L207.4,23.883l-13.3,1.939,9.638,9.393-2.3,13.241Z" transform="translate(-194.098 -11.81)"/>
    </g>
    <g id="Group_1321" data-name="Group 1321" transform="translate(88.637 0)">
      <path id="Path_2647" data-name="Path 2647" class="cls-1" d="M239.612,7.525l7.641,15.519,17.125,2.5L252,37.614l2.93,17.024L239.612,46.6l-15.283,8.037,2.911-17.024L214.867,25.54l17.122-2.5Z" transform="translate(-214.867 -7.525)"/>
      <path id="Path_2648" data-name="Path 2648" class="cls-2" d="M227.18,53.1l2.694-15.8L218.589,26.687,234.07,24.55l6.969-14.135-1.427-2.889L231.99,23.044l-17.122,2.5,12.372,12.074-2.911,17.024Z" transform="translate(-214.867 -7.525)"/>
    </g>
    <g id="Group_1322" data-name="Group 1322" transform="translate(150.363 10.468)">
      <path id="Path_2649" data-name="Path 2649" class="cls-1" d="M259.379,11.81l5.943,12.072,13.334,1.939-9.638,9.393,2.264,13.241-11.9-6.25-11.888,6.25,2.281-13.241-9.638-9.393,13.3-1.939Z" transform="translate(-240.134 -11.81)"/>
      <path id="Path_2650" data-name="Path 2650" class="cls-2" d="M249.71,47.255,251.8,34.969l-8.763-8.255,12.027-1.663,5.42-10.993-1.109-2.248-5.943,12.072-13.3,1.939,9.638,9.393-2.281,13.241Z" transform="translate(-240.134 -11.81)"/>
    </g>
    <g id="Group_1323" data-name="Group 1323" transform="translate(201.1 22.683)">
      <path id="Path_2651" data-name="Path 2651" class="cls-1" d="M273.733,16.81l3.972,8.047,8.879,1.293-6.427,6.263,1.532,8.827-7.956-4.168L265.81,41.24l1.517-8.827L260.9,26.151l8.877-1.293Z" transform="translate(-260.902 -16.81)"/>
      <path id="Path_2652" data-name="Path 2652" class="cls-2" d="M267.3,40.439l1.405-8.19-5.862-5.5,8.016-1.109,3.626-7.329-.751-1.5-3.953,8.047L260.9,26.151l6.425,6.263L265.81,41.24Z" transform="translate(-260.902 -16.81)"/>
    </g>
  </g>
</svg>
