<svg id="surface1" xmlns="http://www.w3.org/2000/svg" width="37.219" height="25.538" viewBox="0 0 37.219 25.538">
  <defs>
    <style>
      .cls-1 {
        fill: #1874b9;
      }
    </style>
  </defs>
  <path id="Path_581" data-name="Path 581" class="cls-1" d="M380.888,755.994a.65.65,0,0,0,.248-.885l-1.717-3.085a.655.655,0,0,0-.721-.311l-6.915,1.731-4.125-1.952,7.2-4.931a.652.652,0,0,0,.279-.512,2.656,2.656,0,0,0-.969-2.1A3.3,3.3,0,0,0,371,743.9l-10.683,4.17-9.951-4.643a6.046,6.046,0,0,0-3.554-.547,3.29,3.29,0,0,0-2.542,1.776c-.877,1.872.428,4.273,2.966,5.459l8.788,4.118-.572-1.7-.508-1.485a.364.364,0,0,0-.012-.034.488.488,0,1,1,.936-.277l.149.44,5.2,15.49c.365.955.805,1.534,1.3,1.665a1.29,1.29,0,0,0,1.008-.223l-1.3-13.781a.444.444,0,0,1,.053-.246.474.474,0,0,1,.394-.281.48.48,0,0,1,.523.437l.2,2,.141,1.493,11.221,5.262a.631.631,0,0,0,.5,0,.645.645,0,0,0,.365-.336l1.475-3.168a.649.649,0,0,0-.305-.834l-1.086-.506,5.119-2.114C380.845,756.016,380.868,756.006,380.888,755.994Z" transform="translate(-344 -742.813)"/>
</svg>
