<svg id="travel" xmlns="http://www.w3.org/2000/svg" width="24.14" height="37.551" viewBox="0 0 24.14 37.551">
  <path id="Path_582" data-name="Path 582" d="M23,18h1.341V42.14H23Z" transform="translate(-18.306 -8.612)"/>
  <path id="Path_583" data-name="Path 583" d="M27,18h1.341V42.14H27Z" transform="translate(-19.624 -8.612)"/>
  <path id="Path_584" data-name="Path 584" d="M50.671,31H50v6.706h.671a.671.671,0,0,0,.671-.671V31.671A.671.671,0,0,0,50.671,31Z" transform="translate(-27.201 -12.895)"/>
  <path id="Path_585" data-name="Path 585" d="M31,18h1.341V42.14H31Z" transform="translate(-20.942 -8.612)"/>
  <path id="Path_586" data-name="Path 586" d="M19,18.671v22.8a.671.671,0,0,0,.671.671h.671V18h-.671A.671.671,0,0,0,19,18.671Z" transform="translate(-16.988 -8.612)"/>
  <path id="Path_587" data-name="Path 587" d="M41,59h2.012v.671H41Z" transform="translate(-24.236 -22.119)"/>
  <path id="Path_588" data-name="Path 588" d="M43.671,18H43V42.14h.671a.671.671,0,0,0,.671-.671v-22.8A.671.671,0,0,0,43.671,18Z" transform="translate(-24.895 -8.612)"/>
  <path id="Path_589" data-name="Path 589" d="M20,59h2.012v.671H20Z" transform="translate(-17.318 -22.119)"/>
  <path id="Path_590" data-name="Path 590" d="M35,18h1.341V42.14H35Z" transform="translate(-22.259 -8.612)"/>
  <path id="Path_591" data-name="Path 591" d="M36.787,15H16.671a.671.671,0,0,0-.671.671V42.493a.671.671,0,0,0,.671.671H36.787a.671.671,0,0,0,.671-.671V15.671A.671.671,0,0,0,36.787,15Zm0,25.481a2.018,2.018,0,0,1-2.012,2.012H18.682a2.018,2.018,0,0,1-2.012-2.012v-22.8a2.018,2.018,0,0,1,2.012-2.012H34.776a2.018,2.018,0,0,1,2.012,2.012Z" transform="translate(-16 -7.624)"/>
  <path id="Path_592" data-name="Path 592" d="M39,18h1.341V42.14H39Z" transform="translate(-23.577 -8.612)"/>
  <path id="Path_593" data-name="Path 593" d="M22.341,6.682h1.341V5.341H33.07V6.682h2.682V5.341A1.341,1.341,0,0,0,34.411,4H22.341A1.341,1.341,0,0,0,21,5.341V6.682Z" transform="translate(-17.647 -4)"/>
  <path id="Path_594" data-name="Path 594" d="M21.956,9.044H23.3v3.323H21.956Z" transform="translate(-17.962 -5.662)"/>
  <path id="Path_595" data-name="Path 595" d="M40,9h1.341v3.353H40Z" transform="translate(-23.907 -5.647)"/>
</svg>
