<svg id="wifi" xmlns="http://www.w3.org/2000/svg" width="15.151" height="11.452" viewBox="0 0 15.151 11.452">
  <defs>
    <style>
      .cls-1 {
        fill: #8dc043;
      }
    </style>
  </defs>
  <g id="Group_1671" data-name="Group 1671" transform="translate(0 0)">
    <path id="Path_4010" data-name="Path 4010" class="cls-1" d="M72.137,163.466a.812.812,0,0,0,1.149,1.149,5.614,5.614,0,0,1,7.93,0,.811.811,0,0,0,1.146-1.149A7.234,7.234,0,0,0,72.137,163.466Z" transform="translate(-69.674 -158.203)"/>
    <path id="Path_4011" data-name="Path 4011" class="cls-1" d="M142.937,262.695a.812.812,0,0,0,1.149,1.149,2.5,2.5,0,0,1,3.542,0,.81.81,0,0,0,1.146-1.146A4.127,4.127,0,0,0,142.937,262.695Z" transform="translate(-138.281 -255.24)"/>
    <ellipse id="Ellipse_198" data-name="Ellipse 198" class="cls-1" cx="1.081" cy="1.081" rx="1.081" ry="1.081" transform="translate(6.495 9.291)"/>
    <path id="Path_4012" data-name="Path 4012" class="cls-1" d="M14.914,62.758a10.4,10.4,0,0,0-14.677,0,.812.812,0,0,0,1.149,1.149,8.763,8.763,0,0,1,12.383,0,.811.811,0,1,0,1.146-1.149Z" transform="translate(0 -59.725)"/>
  </g>
</svg>
