<svg id="writing" xmlns="http://www.w3.org/2000/svg" width="13.81" height="15.409" viewBox="0 0 13.81 15.409">
  <defs>
    <style>
      .cls-1 {
        fill: #8dc043;
      }
    </style>
  </defs>
  <g id="Group_1800" data-name="Group 1800" transform="translate(0)">
    <g id="Group_1799" data-name="Group 1799" transform="translate(0)">
      <path id="Path_4164" data-name="Path 4164" class="cls-1" d="M113.863,200.6a.6.6,0,0,0-.6-.6h-6.2a.6.6,0,0,0,0,1.2h6.2A.6.6,0,0,0,113.863,200.6Z" transform="translate(-104.055 -193.981)"/>
      <path id="Path_4165" data-name="Path 4165" class="cls-1" d="M107.061,280a.6.6,0,1,0,0,1.2h3.765a.6.6,0,1,0,0-1.2Z" transform="translate(-104.055 -271.573)"/>
      <path id="Path_4166" data-name="Path 4166" class="cls-1" d="M30.991,14.205H28.978a1.205,1.205,0,0,1-1.2-1.2V2.408a1.205,1.205,0,0,1,1.2-1.2h7.4a1.205,1.205,0,0,1,1.2,1.2v3.7a.6.6,0,0,0,1.2,0v-3.7A2.41,2.41,0,0,0,36.378,0h-7.4A2.41,2.41,0,0,0,26.57,2.408V13a2.41,2.41,0,0,0,2.408,2.408h2.013a.6.6,0,0,0,0-1.2Z" transform="translate(-26.57)"/>
      <path id="Path_4167" data-name="Path 4167" class="cls-1" d="M250.211,272.552a1.808,1.808,0,0,0-2.553,0l-3.3,3.3a.6.6,0,0,0-.151.251l-.72,2.369a.6.6,0,0,0,.737.755l2.429-.673a.6.6,0,0,0,.265-.154l3.3-3.291A1.808,1.808,0,0,0,250.211,272.552Zm-4.036,4.881-1.222.339.358-1.178,2.23-2.225.851.851Zm3.185-3.179-.117.116-.851-.851.116-.116a.6.6,0,0,1,.852.851Z" transform="translate(-236.93 -263.837)"/>
      <path id="Path_4168" data-name="Path 4168" class="cls-1" d="M113.261,120h-6.2a.6.6,0,0,0,0,1.2h6.2a.6.6,0,1,0,0-1.2Z" transform="translate(-104.055 -116.389)"/>
    </g>
  </g>
</svg>
